<?xml version="1.0" encoding="UTF-8"?>
<svg version="1.1" xmlns="http://www.w3.org/2000/svg" width="512" height="512">
<path d="M0 0 C0.93172028 -0.00367584 1.86344055 -0.00735168 2.82339478 -0.01113892 C12.41306942 -0.03089837 21.97591921 0.16188666 31.53125 1.01953125 C32.63200867 1.09768318 32.63200867 1.09768318 33.75500488 1.17741394 C37.36691679 1.56085688 39.4638541 2.28625497 42.41723633 4.43066406 C44.88298441 7.84242006 45.48087801 10.62846692 45.79296875 14.71484375 C45.89849312 15.81698463 45.89849312 15.81698463 46.00614929 16.94139099 C46.86148191 26.89610556 46.84967108 36.89135708 46.8125 46.875 C46.80976578 48.39894379 46.80976578 48.39894379 46.80697632 49.95367432 C46.76166449 64.95380724 46.29531642 79.53686649 43.5 94.3125 C43.32839355 95.2705957 43.15678711 96.22869141 42.97998047 97.21582031 C32.15126485 156.88504329 4.1697876 215.48369276 -37.33984375 259.9765625 C-39.10714721 261.88767909 -40.79781743 263.83074595 -42.48828125 265.80859375 C-47.13138225 271.12913587 -52.11381811 276.1123638 -57.10498047 281.1027832 C-58.73827448 282.73825882 -60.3633847 284.38157708 -61.98828125 286.02539062 C-68.51436584 292.58602635 -75.23655056 298.56625385 -82.5 304.3125 C-84.31528958 305.850881 -86.12841975 307.39182183 -87.9375 308.9375 C-107.38243774 325.11249314 -128.3555231 339.72100074 -150.23828125 352.40625 C-152.44815233 353.69776747 -154.6330062 355.03289303 -156.79296875 356.40625 C-165.32737666 361.74953148 -165.32737666 361.74953148 -169.75 362.1875 C-179.49513996 359.91363401 -187.51536301 348.46600742 -194.49365234 341.51171875 C-195.79189144 340.22139476 -197.09030734 338.93124863 -198.3888855 337.64126587 C-202.62494633 333.43123119 -206.85573017 329.21591499 -211.0859375 325 C-212.54700738 323.54429511 -214.00808351 322.08859649 -215.4691658 320.63290405 C-221.54343676 314.58022051 -227.61628321 308.52611371 -233.68541527 302.46827698 C-242.3674226 293.80254004 -251.05783354 285.14542941 -259.76007879 276.50001431 C-265.89041377 270.40835127 -272.01116084 264.30716003 -278.12483561 258.1987772 C-281.77281734 254.55444846 -285.42486315 250.91442244 -289.08720016 247.28451538 C-292.5274849 243.87426755 -295.9557447 240.45237854 -299.37514114 237.02119064 C-300.63094879 235.765162 -301.89103897 234.51339823 -303.15570068 233.26628494 C-304.88297926 231.56167788 -306.59409136 229.84229899 -308.30209351 228.1184082 C-309.05557731 227.38574753 -309.05557731 227.38574753 -309.824283 226.63828564 C-313.23057068 223.15351796 -314.63535071 220.09168209 -315.5 215.3125 C-314.63554035 212.59914267 -313.80011169 210.62564214 -312.4375 208.1875 C-311.89754395 207.17030884 -311.89754395 207.17030884 -311.34667969 206.13256836 C-294.22690144 174.53473406 -271.88326058 145.50745196 -248.5 118.3125 C-247.86320312 117.56226563 -247.22640625 116.81203125 -246.5703125 116.0390625 C-240.38304732 108.82533858 -233.66863426 102.22941615 -226.453125 96.05078125 C-224.43762897 94.25698978 -222.56623112 92.37350951 -220.6875 90.4375 C-216.82697585 86.52429813 -212.68084233 83.08452271 -208.39453125 79.6484375 C-205.52952899 77.33633041 -202.73591335 74.95450478 -199.9375 72.5625 C-156.75741646 36.68981521 -103.83016824 12.43402294 -48.5 3.3125 C-47.54029297 3.14878906 -46.58058594 2.98507813 -45.59179688 2.81640625 C-30.42322569 0.33446289 -15.33347482 0.02901729 0 0 Z M-151.5 108.3125 C-152.21929687 109.02277344 -152.93859375 109.73304688 -153.6796875 110.46484375 C-163.15069615 120.34685843 -168.63612909 133.67381073 -169.5 147.3125 C-169.55285156 148.03566406 -169.60570312 148.75882813 -169.66015625 149.50390625 C-170.29502709 166.25897585 -164.37573399 182.49603672 -153.125 194.875 C-140.67244129 207.86860092 -124.79650883 215.15651395 -106.82714844 215.71704102 C-97.45465872 215.82877592 -89.19472151 215.1276529 -80.5 211.3125 C-79.57316406 210.91160156 -78.64632812 210.51070313 -77.69140625 210.09765625 C-63.34756779 203.07833105 -51.71321956 189.94764761 -45.53125 175.328125 C-39.92680015 158.93935498 -39.87884416 142.4921417 -46.8125 126.5 C-49.28458294 121.45961531 -52.16690947 116.8255218 -55.5 112.3125 C-56.14001953 111.42304688 -56.14001953 111.42304688 -56.79296875 110.515625 C-66.72203983 97.82039042 -81.85615917 90.66631864 -97.5 88.3125 C-117.79454552 86.3863973 -137.33103568 93.72389737 -151.5 108.3125 Z " fill="#000000" transform="translate(433.5,31.6875)"/>
<path d="M0 0 C9.56481404 7.53229105 16.42815061 18.25912094 18.31640625 30.40625 C19.38117487 45.26770144 13.69403308 57.63021166 4.09375 68.7578125 C-18.08273023 91.91266686 -53.13794426 108.15524329 -85.2265625 110.20703125 C-87.15628906 110.24376953 -87.15628906 110.24376953 -89.125 110.28125 C-90.41664062 110.31863281 -91.70828125 110.35601562 -93.0390625 110.39453125 C-96.5 109.96875 -96.5 109.96875 -98.9296875 108.390625 C-103.60757701 101.17596953 -100.53442559 88.62282956 -98.875 80.59375 C-93.11883212 54.81374402 -82.3234561 28.94249318 -63.5 9.96875 C-62.63375 9.06125 -61.7675 8.15375 -60.875 7.21875 C-60.09125 6.47625 -59.3075 5.73375 -58.5 4.96875 C-58.02691406 4.50082031 -57.55382812 4.03289062 -57.06640625 3.55078125 C-40.4002694 -11.99628646 -18.47787729 -12.67668326 0 0 Z " fill="#000000" transform="translate(132.5,370.03125)"/>
<path d="M0 0 C-0.9013438 39.83939618 -14.4279168 74.34095497 -41 104 C-42.04027344 105.16789062 -42.04027344 105.16789062 -43.1015625 106.359375 C-54.424036 118.33759021 -68.38449329 127.56670818 -83 135 C-83.67498535 135.34901367 -84.3499707 135.69802734 -85.04541016 136.05761719 C-99.7560622 143.59530667 -122.18623832 154.45200691 -139 152 C-143.75946491 148.94265623 -143.75946491 148.94265623 -144.59375 145.6730957 C-144.18560779 133.44052108 -142.52672114 121.32185916 -141 109.1875 C-140.7102198 106.83797903 -140.42115113 104.48837019 -140.1328125 102.13867188 C-139.43008204 96.42474145 -138.7185499 90.71196148 -138 85 C-137.06607422 85.15791016 -136.13214844 85.31582031 -135.16992188 85.47851562 C-123.54649242 87.39068794 -115.91275881 84.86624084 -106 79 C-105.13874512 78.4956543 -104.27749023 77.99130859 -103.39013672 77.47167969 C-90.92493308 70.13313766 -78.75232478 62.43398479 -67 54 C-66.3719043 53.55060059 -65.74380859 53.10120117 -65.09667969 52.63818359 C-46.31556948 39.152715 -28.4134586 24.61519034 -11.5625 8.7734375 C-10.67691406 7.94477173 -10.67691406 7.94477173 -9.7734375 7.09936523 C-8.60775191 6.00701642 -7.44615339 4.91028671 -6.2890625 3.80883789 C-2.22299634 0 -2.22299634 0 0 0 Z " fill="#000000" transform="translate(390,321)"/>
<path d="M0 0 C-1.49535489 3.65258817 -3.55938608 5.54815579 -6.5625 8.0625 C-11.12037749 12.0653351 -14.89856127 16.3046514 -18.65625 21.0546875 C-20.73427632 23.66607391 -22.8644486 26.20995431 -25.03686523 28.74194336 C-39.64906305 45.77889494 -52.87612565 64.11826933 -65 83 C-65.7739209 84.2051123 -65.7739209 84.2051123 -66.56347656 85.43457031 C-82.11170311 107.44618507 -82.11170311 107.44618507 -86 133 C-85.67715944 134.33591274 -85.34565842 135.66980861 -85 137 C-91.56964491 138.3974081 -98.10883774 139.49575449 -104.77734375 140.2890625 C-105.66933975 140.39721283 -106.56133575 140.50536316 -107.48036194 140.61679077 C-109.35149143 140.84226454 -111.22286979 141.06568188 -113.09448242 141.28710938 C-115.92790211 141.6238593 -118.75980972 141.97174513 -121.59179688 142.3203125 C-145.61171004 145.22191579 -145.61171004 145.22191579 -150.6875 142.625 C-155.32723426 133.34553148 -150.30184096 120.29320136 -147.35058594 110.94238281 C-145.76195843 106.21349889 -143.93349462 101.59732188 -142 97 C-141.71672852 96.31969727 -141.43345703 95.63939453 -141.14160156 94.93847656 C-134.49945399 79.25420102 -125.16674699 64.85997733 -114 52 C-113.19433594 51.0615625 -112.38867188 50.123125 -111.55859375 49.15625 C-100.3977634 36.41875062 -87.73239135 26.32282133 -73 18 C-72.35305176 17.63390625 -71.70610352 17.2678125 -71.03955078 16.890625 C-49.3505411 4.84905261 -24.73074447 -0.4828128 0 0 Z " fill="#000000" transform="translate(191,122)"/>
<path d="M0 0 C9.60974306 7.27466531 15.34031051 18.36229764 18 30 C19.63027717 45.90755296 17.02293142 60.17805694 7 73 C-0.55183152 81.46522799 -11.84120481 87.051554 -23.11474609 88.21899414 C-38.99696242 89.08408188 -52.84255474 86.06145887 -65.02734375 75.19140625 C-75.8948729 63.75315347 -78.63251603 49.85788172 -78.3125 34.70703125 C-77.71045996 22.13693698 -71.42219221 10.38186339 -62.3203125 1.81640625 C-43.86765098 -12.62885908 -19.36509198 -12.17694149 0 0 Z " fill="#000000" transform="translate(358,144)"/>
<path d="M0 0 C3.05141393 1.36445801 5.15797902 2.90704737 7.51812744 5.26416016 C8.53607391 6.27364716 8.53607391 6.27364716 9.57458496 7.30352783 C10.30826294 8.04125427 11.04194092 8.77898071 11.79785156 9.5390625 C12.57872131 10.31642761 13.35959106 11.09379272 14.16412354 11.89471436 C16.74468005 14.46646546 19.31784922 17.04546675 21.890625 19.625 C23.67823493 21.41126322 25.46614171 23.19722942 27.2543335 24.98291016 C30.99996874 28.72559598 34.74205426 32.47178222 38.48144531 36.22070312 C42.80847416 40.5586317 47.14268249 44.88928679 51.48065972 49.21626472 C55.65204637 53.37749645 59.81781312 57.54431875 63.98119354 61.71356201 C65.75482922 63.48853589 67.52996285 65.26201419 69.30658722 67.03399658 C71.78249268 69.50485026 74.25194188 71.98197678 76.71972656 74.4609375 C77.46150146 75.19866394 78.20327637 75.93639038 78.9675293 76.69647217 C79.63488098 77.3694635 80.30223267 78.04245483 80.98980713 78.73583984 C81.86693548 79.61409927 81.86693548 79.61409927 82.7617836 80.51010132 C84 82 84 82 84 84 C74.35716944 89.22820135 65.33665183 93.73968457 54.12968445 90.45118713 C46.33450706 87.4790573 41.06154806 81.77002343 35.32421875 75.953125 C34.22645444 74.85619105 33.12787251 73.7600748 32.02851868 72.66473389 C29.73710075 70.37616102 27.4546331 68.07913041 25.1784668 65.77539062 C22.27426141 62.83708518 19.35041775 59.91929653 16.41978741 57.00737381 C14.15167067 54.74987249 11.89347425 52.48265196 9.63816261 50.2123642 C8.56415241 49.13320641 7.48735501 48.05681452 6.40762901 46.98337555 C-7.52060606 33.10587432 -7.52060606 33.10587432 -7.6875 22.4375 C-7.49391363 13.92891797 -4.01147539 7.30661589 0 0 Z " fill="#000000" transform="translate(136,292)"/>
</svg>
