<?xml version="1.0" encoding="UTF-8"?>
<svg version="1.1" xmlns="http://www.w3.org/2000/svg" width="512" height="512">
<path d="M0 0 C1.18499415 -0.00905664 2.3699883 -0.01811328 3.59089136 -0.02744436 C5.55326124 -0.01945247 5.55326124 -0.01945247 7.55527496 -0.01129913 C8.95403837 -0.01618529 10.35279774 -0.02237381 11.7515502 -0.02975702 C15.60417412 -0.04621458 19.4565942 -0.0438269 23.30924106 -0.03838205 C27.46063952 -0.03571901 31.61198275 -0.05022986 35.76335907 -0.06247711 C43.89942774 -0.08356337 52.03542521 -0.08807017 60.17151797 -0.08628923 C66.78184224 -0.08498333 73.39214422 -0.08877691 80.00246429 -0.09621429 C81.90410089 -0.09831341 83.80573749 -0.10041101 85.7073741 -0.10250711 C87.12695997 -0.10407241 87.12695997 -0.10407241 88.57522434 -0.10566932 C106.48601074 -0.12458421 124.39675621 -0.12351752 142.30754846 -0.11669999 C158.7077396 -0.11112223 175.10777462 -0.13195765 191.50792927 -0.16506046 C208.33280684 -0.198758 225.15760956 -0.21397081 241.98252153 -0.20934343 C251.43441724 -0.20709492 260.88616862 -0.21239755 270.33803558 -0.23723602 C278.38360938 -0.25819829 286.42895969 -0.26189176 294.4745425 -0.24293643 C298.58232522 -0.23374745 302.6896907 -0.23273132 306.79744148 -0.25329208 C310.55410134 -0.27188819 314.30999896 -0.2676285 318.06662875 -0.24474627 C320.07743845 -0.23852678 322.088277 -0.25704331 324.09900427 -0.27628279 C325.28399842 -0.26447745 326.46899257 -0.25267211 327.68989563 -0.24050903 C328.71693179 -0.24078142 329.74396794 -0.2410538 330.80212641 -0.24133444 C333.34494781 0.38311005 333.34494781 0.38311005 335.17531711 2.68841666 C336.75323885 6.32376519 336.7502407 9.68591175 336.70571136 13.57715607 C336.70827464 14.39813866 336.71083791 15.21912126 336.71347886 16.06498212 C336.71841687 18.81355908 336.70192362 21.56158571 336.68552399 24.310112 C336.68467772 26.28126767 336.68515285 28.25242429 336.6868515 30.22357941 C336.68771288 35.57443509 336.67006383 40.92508937 336.64912963 46.27589822 C336.63038677 51.8679555 336.62861427 57.46001729 336.62505341 63.05210114 C336.61572592 73.64135341 336.59110257 84.23051287 336.56100494 94.81972426 C336.52748286 106.87522051 336.51098042 118.93072118 336.49591863 130.98625243 C336.46455368 155.78525644 336.41177945 180.58417805 336.34494781 205.38311005 C334.74075113 205.0629479 333.13659159 204.74259969 331.53244781 204.42217255 C330.6391275 204.24379852 329.74580719 204.0654245 328.82541656 203.8816452 C326.9971603 203.51419449 325.17056676 203.13844733 323.34494781 202.75811005 C309.18174311 200.98770946 295.21285882 204.47784049 283.34494781 212.38311005 C282.39942047 213.00766083 282.39942047 213.00766083 281.43479156 213.6448288 C271.04151773 221.52856498 264.49864959 234.77829857 262.34494781 247.38311005 C262.19931153 249.80420503 262.09838214 252.22817576 262.02854156 254.6526413 C262.00776047 255.33364395 261.98697937 256.01464661 261.96556854 256.71628571 C261.90056904 258.87596513 261.84142069 261.0357585 261.78244781 263.19561005 C261.73921532 264.66632461 261.69559957 266.13702796 261.65158844 267.60771942 C261.54493923 271.19939722 261.44353433 274.79120086 261.34494781 278.38311005 C260.75592682 278.39245575 260.16690582 278.40180145 259.56003571 278.41143036 C256.84171765 278.46574879 254.12500933 278.54926844 251.40744781 278.63311005 C250.48125641 278.64728973 249.555065 278.66146942 248.60080719 278.6760788 C241.71427786 278.9177114 234.96887742 279.98574563 229.75559235 284.87310028 C225.9941655 289.60928298 225.74037141 293.10370387 224.34494781 299.38311005 C214.77494781 299.38311005 205.20494781 299.38311005 195.34494781 299.38311005 C195.34494781 290.33567922 195.34494781 290.33567922 197.03244781 286.82061005 C197.39080719 286.07037567 197.74916656 285.3201413 198.11838531 284.54717255 C199.31833556 282.43006288 200.65266528 280.60390968 202.15744781 278.69561005 C204.69716327 275.56494054 204.69716327 275.56494054 204.15744781 271.94561005 C203.88932281 271.09998505 203.62119781 270.25436005 203.34494781 269.38311005 C200.08855123 268.44040003 200.08855123 268.44040003 196.34494781 268.38311005 C188.74256892 273.9943897 184.37549014 283.79964551 182.94260406 292.95342255 C182.69791504 295.0919376 182.51524314 297.23738898 182.34494781 299.38311005 C176.40494781 299.38311005 170.46494781 299.38311005 164.34494781 299.38311005 C165.08979155 282.25170423 170.1838345 268.37929798 182.00119781 255.7698288 C183.72705511 253.3357642 183.72705511 253.3357642 182.56369781 250.0901413 C182.16151031 249.19682098 181.75932281 248.30350067 181.34494781 247.38311005 C178.26719297 246.41581567 176.86591586 246.13057016 173.91135406 247.56279755 C162.80303656 255.44175639 155.94807392 272.44120189 153.34494781 285.38311005 C152.96897524 287.8283415 152.61153892 290.27648031 152.27072906 292.72686005 C152.0958194 293.97660614 151.92090973 295.22635223 151.74069977 296.51396942 C151.61010162 297.46078583 151.47950348 298.40760223 151.34494781 299.38311005 C130.92652551 299.45313328 110.5081275 299.50606538 90.0896101 299.53854656 C80.60933358 299.55402774 71.12913159 299.57514111 61.64890289 299.60942841 C53.38773052 299.63929253 45.12661211 299.65867594 36.86538726 299.66537553 C32.48948954 299.66929287 28.1137462 299.67852499 23.73789787 299.70030022 C19.62164006 299.72061827 15.50560068 299.72695339 11.38929749 299.72243309 C9.87635424 299.7232604 8.3634039 299.72925397 6.85050392 299.74072647 C4.78874468 299.75559795 2.72781597 299.75208403 0.66603851 299.7438736 C-1.0664714 299.74802166 -1.0664714 299.74802166 -2.83398151 299.75225353 C-5.65505219 299.38311005 -5.65505219 299.38311005 -7.30777389 298.1685794 C-9.08780026 295.80961427 -9.03096119 294.38752377 -9.03257561 291.44645691 C-9.04039885 290.42169896 -9.04822209 289.396941 -9.0562824 288.34112978 C-9.04959024 287.21186681 -9.04289807 286.08260385 -9.03600311 284.91912079 C-9.04068308 283.72219337 -9.04536306 282.52526595 -9.05018485 281.292068 C-9.06010372 277.96379816 -9.05650277 274.63603381 -9.04722619 271.30779433 C-9.04045583 267.72082612 -9.05090689 264.133903 -9.05916595 260.54694366 C-9.07252708 253.51777952 -9.069615 246.4887113 -9.06092803 239.45954335 C-9.05416123 233.74834283 -9.05323041 228.03716926 -9.05649948 222.32596588 C-9.05695918 221.51405768 -9.05741888 220.70214947 -9.05789251 219.86563799 C-9.05885166 218.21641877 -9.05982429 216.56719957 -9.06081028 214.91798037 C-9.06937114 199.44220068 -9.05951915 183.96647424 -9.04340918 168.49070328 C-9.03000537 155.20302183 -9.03233326 141.91541899 -9.04616547 128.62773895 C-9.06220901 113.20848625 -9.06854711 97.78928027 -9.05932868 82.37002039 C-9.058373 80.726765 -9.05742989 79.08350961 -9.05649948 77.44025421 C-9.05603665 76.631677 -9.05557383 75.82309979 -9.05509698 74.99002025 C-9.0525034 69.28367206 -9.05688598 63.57735343 -9.06393814 57.87100983 C-9.07233974 50.91974402 -9.07010134 43.96857987 -9.05409591 37.01732576 C-9.04619503 33.46860937 -9.04315227 29.92006268 -9.05304337 26.37134743 C-9.06358886 22.52983478 -9.05102334 18.68860187 -9.03600311 14.8470993 C-9.04269528 13.71783634 -9.04938744 12.58857337 -9.0562824 11.42509031 C-9.04845916 10.40033236 -9.04063592 9.37557441 -9.03257561 8.31976318 C-9.03208855 7.43246411 -9.03160149 6.54516503 -9.03109968 5.63097811 C-8.65505219 3.38311005 -8.65505219 3.38311005 -7.48489773 1.5985136 C-4.92008732 -0.10506171 -3.06989699 0.00469646 0 0 Z M103.15354156 104.08623505 C90.61061163 120.01548515 86.7994394 139.57066317 88.34494781 159.38311005 C90.3152813 175.06456343 97.76055622 189.78140474 108.34494781 201.38311005 C108.86186188 201.99154755 109.37877594 202.59998505 109.91135406 203.22686005 C122.50858238 217.11854039 141.87314267 224.29623579 160.14182281 225.6682663 C181.79527113 226.18489421 201.38714915 218.34075709 217.19260406 203.6213913 C229.61447213 190.70355028 238.21659358 173.43677785 239.34494781 155.38311005 C239.39779938 154.59936005 239.45065094 153.81561005 239.50510406 153.00811005 C240.22737642 131.90519599 232.15834615 113.32193811 218.46994781 97.57061005 C204.77073046 83.059433 185.70774545 74.65831223 165.80979156 73.96367645 C140.49588401 73.75119583 119.40157386 85.12474867 103.15354156 104.08623505 Z " fill="#000000" transform="translate(20.655052185058594,11.616889953613281)"/>
<path d="M0 0 C9.01381685 7.09143885 14.07344899 16.11074033 16.04631042 27.33061218 C16.99308307 35.35766251 16.75757488 43.46747804 16.73828125 51.5390625 C16.73963115 53.53723192 16.74157438 55.53540103 16.74407959 57.53356934 C16.74701556 61.7058426 16.74278259 65.87802978 16.73339844 70.05029297 C16.72200489 75.37260543 16.72857257 80.6947161 16.74054337 86.01702118 C16.74780334 90.13850397 16.7454551 94.25993967 16.74028778 98.38142395 C16.73896271 100.34283981 16.7405585 102.30426007 16.74524689 104.26567078 C16.77555613 120.50593096 16.28097923 133.76338186 6.16015625 147.2578125 C-2.45818227 155.87615102 -12.76388755 160.29627541 -24.90234375 160.5078125 C-36.67409488 160.3686173 -45.91086205 156.63135949 -54.37109375 148.3359375 C-62.70046804 139.10119644 -65.99232585 130.00702459 -65.93139648 117.64306641 C-65.93825974 116.65480362 -65.94512299 115.66654083 -65.95219421 114.64833069 C-65.9703819 111.40602947 -65.9666358 108.16421591 -65.9609375 104.921875 C-65.9655034 102.65180302 -65.97081018 100.38173243 -65.9768219 98.11166382 C-65.98573747 93.36247123 -65.98334779 88.61344694 -65.97338867 83.86425781 C-65.96190591 77.79963384 -65.98210841 71.73559275 -66.01130581 65.6710453 C-66.02971556 60.98508049 -66.02936572 56.2992541 -66.02366829 51.61326218 C-66.02351563 49.37831175 -66.02951344 47.1433516 -66.04195976 44.90843582 C-66.14950092 22.43210997 -66.14950092 22.43210997 -61.52734375 13.9453125 C-61.08237045 13.12737213 -60.63739716 12.30943176 -60.17893982 11.46670532 C-54.45648213 1.56514286 -45.36474347 -4.10811338 -34.52734375 -7.0546875 C-22.12437839 -9.86326172 -10.44876738 -7.18634648 0 0 Z " fill="#000000" transform="translate(360.52734375,234.0546875)"/>
<path d="M0 0 C1.33417969 0.01933594 1.33417969 0.01933594 2.6953125 0.0390625 C4.07589844 0.08933594 4.07589844 0.08933594 5.484375 0.140625 C6.42023438 0.15867187 7.35609375 0.17671875 8.3203125 0.1953125 C10.62543938 0.24235591 12.93003854 0.31409722 15.234375 0.390625 C15.234375 5.340625 15.234375 10.290625 15.234375 15.390625 C12.264375 15.390625 9.294375 15.390625 6.234375 15.390625 C6.30378463 21.5799698 6.39200348 27.76867299 6.49682617 33.95751953 C6.5298531 36.05803238 6.55795239 38.15862923 6.58081055 40.25927734 C6.58681351 56.58212742 6.58681351 56.58212742 10.234375 72.390625 C10.59269409 73.38980957 10.59269409 73.38980957 10.95825195 74.40917969 C17.10329498 89.85693069 29.20360291 101.62358028 44.359375 108.203125 C60.1864666 114.3446809 76.52784255 115.05919522 92.5234375 108.6328125 C109.35091719 100.92223823 120.95832475 89.13289541 127.578125 71.890625 C130.46575241 62.98023185 131.35926703 54.38067279 131.55078125 45.078125 C131.5819529 43.79663574 131.5819529 43.79663574 131.61375427 42.48925781 C131.67856099 39.78978658 131.73781065 37.09022735 131.796875 34.390625 C131.84012592 32.54816839 131.88374218 30.70572031 131.92773438 28.86328125 C132.03417057 24.37248346 132.13562693 19.88159816 132.234375 15.390625 C129.264375 15.390625 126.294375 15.390625 123.234375 15.390625 C123.234375 10.440625 123.234375 5.490625 123.234375 0.390625 C126.31823604 0.30962865 129.39996711 0.25012976 132.484375 0.203125 C133.35707031 0.17798828 134.22976563 0.15285156 135.12890625 0.12695312 C141.58507254 0.05302756 141.58507254 0.05302756 144.78125 1.71484375 C147.28658158 4.60405678 147.36266688 7.34899818 147.37963867 11.00708008 C147.38601852 11.94268265 147.39239838 12.87828522 147.39897156 13.84223938 C147.40064079 15.36085823 147.40064079 15.36085823 147.40234375 16.91015625 C147.40567215 17.96031418 147.40900055 19.01047211 147.41242981 20.092453 C147.41749881 22.32261721 147.41983814 24.55278902 147.41967773 26.78295898 C147.42184194 30.15166279 147.43993571 33.52002701 147.45898438 36.88867188 C147.52897043 62.77184773 143.80936767 84.25044603 126.234375 104.390625 C125.71488281 105.00550781 125.19539062 105.62039063 124.66015625 106.25390625 C113.73272199 118.22729139 96.96443851 125.82458016 81.234375 128.390625 C79.584375 128.390625 77.934375 128.390625 76.234375 128.390625 C76.234375 146.210625 76.234375 164.030625 76.234375 182.390625 C81.184375 182.390625 86.134375 182.390625 91.234375 182.390625 C95.234375 186.390625 95.234375 186.390625 95.734375 189.890625 C95.234375 193.390625 95.234375 193.390625 93.81811523 195.57397461 C89.86390758 198.35421265 86.1204982 197.98234145 81.39453125 197.95703125 C80.43542343 197.96322983 79.47631561 197.96942841 78.48814392 197.97581482 C76.46158869 197.98291245 74.43497514 197.97973997 72.40844727 197.96704102 C69.310917 197.9531878 66.21641514 197.98723169 63.11914062 198.02539062 C61.14843676 198.02634196 59.17772912 198.02448221 57.20703125 198.01953125 C56.28293961 198.03278946 55.35884796 198.04604767 54.40675354 198.05970764 C49.88465666 197.99438453 47.84362801 197.84233148 44.11499023 195.07788086 C42.234375 192.390625 42.234375 192.390625 42.171875 188.765625 C43.234375 185.390625 43.234375 185.390625 47.234375 182.390625 C51.854375 182.390625 56.474375 182.390625 61.234375 182.390625 C61.234375 164.570625 61.234375 146.750625 61.234375 128.390625 C57.934375 128.060625 54.634375 127.730625 51.234375 127.390625 C30.6422515 122.41348312 13.42157351 110.51243684 2.234375 92.390625 C-8.41050335 74.24842987 -9.42029267 57.28694717 -9.28710938 36.62304688 C-9.269039 33.27345608 -9.27766758 29.92632622 -9.30139923 26.57693863 C-9.31930212 23.35332976 -9.30679369 20.12987523 -9.296875 16.90625 C-9.30497192 15.70840881 -9.31306885 14.51056763 -9.32141113 13.27642822 C-9.30880249 12.1671698 -9.29619385 11.05791138 -9.28320312 9.91503906 C-9.28002075 8.94181702 -9.27683838 7.96859497 -9.27355957 6.96588135 C-8.25466049 1.80000667 -5.01851721 -0.12867993 0 0 Z " fill="#000000" transform="translate(266.765625,302.609375)"/>
<path d="M0 0 C9.32278957 3.31828103 14.52462418 13.93759693 18.79882812 22.40380859 C27.39045703 40.85692804 28.12201096 61.26775337 21.62109375 80.4609375 C17.70113701 90.52604094 11.43704984 104.23375797 1.125 108.9375 C-2.87686654 109.37406726 -4.20940436 108.77672301 -7.3125 106.3125 C-8.3125 105.3125 -8.3125 105.3125 -8.875 101.8125 C-8.8316917 97.72708401 -7.55528812 96.07943795 -4.75 93.1875 C5.34257418 82.77282239 9.61232101 68.69638428 10.125 54.4375 C9.75142258 39.83549548 4.71096178 27.10486234 -4.6875 16.0625 C-7.30905615 12.89248009 -8.26134656 11.55646257 -9.125 7.4375 C-8.3125 4.3125 -8.3125 4.3125 -6.25 1.8125 C-3.3125 0.3125 -3.3125 0.3125 0 0 Z " fill="#000000" transform="translate(474.3125,255.6875)"/>
<path d="M0 0 C2.72558594 1.18994141 2.72558594 1.18994141 5.484375 2.8515625 C6.50273437 3.45613281 7.52109375 4.06070313 8.5703125 4.68359375 C9.61960938 5.32425781 10.66890625 5.96492187 11.75 6.625 C12.78382813 7.24246094 13.81765625 7.85992187 14.8828125 8.49609375 C16.93408982 9.72324328 18.9816959 10.95655261 21.02539062 12.19628906 C24.71901094 14.43598595 28.43163095 16.64321782 32.14550781 18.84912109 C34 20 34 20 35 21 C35.37890625 24.3359375 35.37890625 24.3359375 35 28 C32.96484375 29.9765625 32.96484375 29.9765625 29.9375 31.625 C29.38255859 31.93566406 28.82761719 32.24632812 28.25585938 32.56640625 C26.95724187 33.29166155 25.65245853 34.00593504 24.34326172 34.71191406 C21.5945405 36.22288021 18.89487552 37.8079555 16.19140625 39.3984375 C14.12825651 40.60007907 12.06445085 41.80059514 10 43 C8.99702881 43.58861816 7.99405762 44.17723633 6.96069336 44.78369141 C6.00428955 45.32944824 5.04788574 45.87520508 4.0625 46.4375 C3.20785156 46.93121094 2.35320312 47.42492187 1.47265625 47.93359375 C-1.30519777 49.13162558 -3.00955363 49.43846742 -6 49 C-8.01057414 47.44407488 -8.89379656 46.55004926 -9.38095093 44.02697754 C-9.38333771 43.27879761 -9.38572449 42.53061768 -9.38818359 41.75976562 C-9.39764008 40.90878296 -9.40709656 40.05780029 -9.4168396 39.18103027 C-9.41076691 38.26535278 -9.40469421 37.34967529 -9.3984375 36.40625 C-9.40130768 35.46317993 -9.40417786 34.52010986 -9.40713501 33.54846191 C-9.40917646 31.55460001 -9.40364093 29.56071812 -9.39111328 27.56689453 C-9.37506089 24.51158956 -9.39095933 21.45760748 -9.41015625 18.40234375 C-9.40817383 16.46614291 -9.40433019 14.52994289 -9.3984375 12.59375 C-9.40451019 11.67807251 -9.41058289 10.76239502 -9.4168396 9.81896973 C-9.40738312 8.96798706 -9.39792664 8.11700439 -9.38818359 7.24023438 C-9.38579681 6.49205444 -9.38341003 5.74387451 -9.38095093 4.97302246 C-8.37366026 -0.24394112 -4.65799668 -0.53990088 0 0 Z " fill="#000000" transform="translate(173,137)"/>
<path d="M0 0 C5.27410972 1.67902369 8.01191026 6.72626732 10.5625 11.328125 C16.80854543 24.29506143 17.66850958 35.97111802 13.0859375 49.6640625 C10.57112691 55.31590485 6.82561311 62.79422469 1.0859375 65.6640625 C-2.2890625 66.0390625 -2.2890625 66.0390625 -5.9140625 65.6640625 C-8.4140625 63.6015625 -8.4140625 63.6015625 -9.9140625 60.6640625 C-10.09138869 55.96491857 -8.89914609 53.39806615 -6.0390625 49.8515625 C-1.27707279 43.88473202 0.43668728 37.71176989 0.0859375 30.1015625 C-0.68838414 24.03604302 -3.05243361 18.40732718 -7.51953125 14.125 C-9.94866364 11.58019464 -9.85542635 9.06495946 -9.9140625 5.6640625 C-7.69910079 1.13783639 -5.13993139 -0.36304348 0 0 Z " fill="#000000" transform="translate(453.9140625,277.3359375)"/>
<path d="M0 0 C4.95 0 9.9 0 15 0 C15.43570313 1.0621875 15.87140625 2.124375 16.3203125 3.21875 C19.50693912 10.83585044 22.57548408 17.68378283 28 24 C33 29.97686375 33 29.97686375 33 34.25 C31.97744728 37.06201998 31.45684863 38.33285271 29 40 C26.625 40.875 26.625 40.875 24 41 C12.66484229 35.12251082 6.2456289 22.46685799 1.83203125 10.953125 C0.60552635 7.06055545 0 4.12220287 0 0 Z " fill="#000000" transform="translate(173,324)"/>
<path d="M0 0 C15.12454106 -1.36424034 15.12454106 -1.36424034 19.46484375 1.79296875 C21.82010787 5.23084816 22.85483322 8.23061605 23.625 12.3125 C22.81604626 15.79100107 21.97855626 17.01429583 19 19 C15.6875 19.6875 15.6875 19.6875 12 19 C5.96917051 14.9751607 2.61652367 8.59556887 0 2 C0 1.34 0 0.68 0 0 Z " fill="#000000" transform="translate(204,324)"/>
</svg>
