<?xml version="1.0" encoding="UTF-8"?>
<svg version="1.1" xmlns="http://www.w3.org/2000/svg" width="512" height="512">
<path d="M0 0 C1.7687388 1.5201313 3.51921359 3.06179351 5.25 4.625 C6.09175781 5.38425781 6.93351562 6.14351562 7.80078125 6.92578125 C27.63266344 25.77069574 39.34545135 52.23597068 40.35816193 79.54133224 C40.51701956 87.35473213 40.48678934 95.168639 40.45278788 102.98318744 C40.44013443 106.39039975 40.43909867 109.79761705 40.43673706 113.20484924 C40.43056462 119.63238104 40.41421232 126.05984336 40.39403808 132.4873448 C40.37154574 139.81523384 40.36065241 147.1431265 40.35064721 154.47104156 C40.3298414 169.52240589 40.29321939 184.5736802 40.25 199.625 C28.7 199.625 17.15 199.625 5.25 199.625 C5.23018066 196.08821533 5.21036133 192.55143066 5.18994141 188.9074707 C5.12287099 177.18876505 5.04533071 165.47014135 4.96247292 153.75153828 C4.91251644 146.65037973 4.8660728 139.54923176 4.828125 132.44799805 C4.79501061 126.25296201 4.75507481 120.05801235 4.70720994 113.8630721 C4.68213642 110.58798311 4.6613189 107.31296001 4.64665604 104.03780556 C4.62963982 100.36663249 4.60056884 96.6957298 4.56884766 93.0246582 C4.56668747 91.95865891 4.56452728 90.89265961 4.56230164 89.7943573 C4.31887899 67.57141762 -2.3500315 48.69885473 -17.76953125 32.50390625 C-27.39309551 23.34455845 -38.92867702 17.74656007 -51.75 14.625 C-52.49378906 14.43421875 -53.23757813 14.2434375 -54.00390625 14.046875 C-73.93011627 10.98566493 -93.1142978 15.24491357 -109.75390625 26.69140625 C-120.65044557 35.16312458 -128.79334509 45.69571612 -133.75 58.625 C-134.08452368 59.45384358 -134.41904736 60.28268717 -134.76370811 61.13664722 C-139.06972493 73.63142195 -138.3081023 86.46857657 -138.26416016 99.52416992 C-138.2674006 102.24415479 -138.27668294 104.96411117 -138.28575134 107.68408203 C-138.30217508 113.52080936 -138.30441909 119.35739959 -138.29698563 125.1941433 C-138.28641054 133.6535173 -138.29993428 142.11272558 -138.31945018 150.57207755 C-138.35072288 164.32775605 -138.36578855 178.0833993 -138.36914062 191.83911133 C-138.36934461 192.66059193 -138.3695486 193.48207253 -138.36975877 194.32844649 C-138.36996214 195.15089518 -138.37016551 195.97334387 -138.37037504 196.82071525 C-138.37329189 208.46682661 -138.38009173 220.11292701 -138.39160156 231.7590332 C-138.39240686 232.57798418 -138.39321215 233.39693516 -138.39404185 234.24070283 C-138.40784299 247.94265046 -138.42966581 261.64457887 -138.4554714 275.3465088 C-138.47083013 283.77407706 -138.47814701 292.20158202 -138.47467647 300.62916402 C-138.47262117 306.41379928 -138.47736408 312.1984032 -138.48721983 317.98303034 C-138.49259947 321.30899045 -138.49368623 324.63480205 -138.48804665 327.96077156 C-138.44450863 355.56495538 -140.10122245 379.19409481 -153.75 403.625 C-154.29398438 404.61113281 -154.83796875 405.59726562 -155.3984375 406.61328125 C-169.3759236 430.17045904 -194.04959447 446.61821637 -220.25 453.4375 C-249.24633721 460.31163167 -279.17494029 455.08719807 -304.46875 439.75390625 C-309.5952097 436.42781037 -314.21857751 432.71767659 -318.75 428.625 C-319.59175781 427.86574219 -320.43351562 427.10648437 -321.30078125 426.32421875 C-341.13266344 407.47930426 -352.84545135 381.01402932 -353.85816193 353.70866776 C-354.01701956 345.89526787 -353.98678934 338.081361 -353.95278788 330.26681256 C-353.94013443 326.85960025 -353.93909867 323.45238295 -353.93673706 320.04515076 C-353.93056462 313.61761896 -353.91421232 307.19015664 -353.89403808 300.7626552 C-353.87154574 293.43476616 -353.86065241 286.1068735 -353.85064721 278.77895844 C-353.8298414 263.72759411 -353.79321939 248.6763198 -353.75 233.625 C-342.2 233.625 -330.65 233.625 -318.75 233.625 C-318.720271 238.930177 -318.720271 238.930177 -318.68994141 244.3425293 C-318.62287099 256.06123495 -318.54533071 267.77985865 -318.46247292 279.49846172 C-318.41251644 286.59962027 -318.3660728 293.70076824 -318.328125 300.80200195 C-318.29501061 306.99703799 -318.25507481 313.19198765 -318.20720994 319.3869279 C-318.18213642 322.66201689 -318.1613189 325.93703999 -318.14665604 329.21219444 C-318.12963982 332.88336751 -318.10056884 336.5542702 -318.06884766 340.2253418 C-318.06668747 341.29134109 -318.06452728 342.35734039 -318.06230164 343.4556427 C-317.81887899 365.67858238 -311.1499685 384.55114527 -295.73046875 400.74609375 C-286.10690449 409.90544155 -274.57132298 415.50343993 -261.75 418.625 C-261.00621094 418.81578125 -260.26242187 419.0065625 -259.49609375 419.203125 C-239.56988373 422.26433507 -220.3857022 418.00508643 -203.74609375 406.55859375 C-192.92560999 398.14600623 -184.52541378 387.55482134 -179.75 374.625 C-179.41547632 373.72107388 -179.08095264 372.81714775 -178.73629189 371.88582993 C-174.67158131 359.02266096 -175.19060166 346.07545455 -175.23583984 332.70410156 C-175.23259816 329.99382125 -175.22331543 327.28356949 -175.21424866 324.57330322 C-175.19783459 318.76060259 -175.19557702 312.94803962 -175.20301437 307.13532257 C-175.21359504 298.71071345 -175.20005895 290.28627059 -175.18054982 281.86168358 C-175.14928645 268.16202024 -175.13421232 254.4623923 -175.13085938 240.76269531 C-175.13065539 239.94477083 -175.1304514 239.12684634 -175.13024123 238.28413627 C-175.13003786 237.46524524 -175.12983449 236.64635421 -175.12962496 235.80264831 C-175.12670758 224.20468983 -175.11990633 212.60674235 -175.10839844 201.00878906 C-175.10759314 200.1930878 -175.10678785 199.37738655 -175.10595815 198.53696707 C-175.0921569 184.88922833 -175.07033456 171.24150889 -175.0445286 157.59378791 C-175.02917158 149.20070133 -175.02185256 140.8076783 -175.02532353 132.41457793 C-175.02737887 126.6542475 -175.02263574 120.89394853 -175.01278017 115.13362625 C-175.00740089 111.82183586 -175.00631334 108.51019461 -175.01195335 105.19839478 C-175.05562777 77.62782736 -173.38176811 54.0254588 -159.75 29.625 C-159.20601562 28.63886719 -158.66203125 27.65273437 -158.1015625 26.63671875 C-145.34184978 5.13193463 -123.32636273 -10.73990825 -99.75 -18.375 C-99.10853027 -18.58527832 -98.46706055 -18.79555664 -97.80615234 -19.01220703 C-64.86441286 -29.26237135 -26.80595958 -21.34688073 0 0 Z " fill="#000000" transform="translate(412.75,39.375)"/>
<path d="M0 0 C1.95762016 -0.02409439 1.95762016 -0.02409439 3.95478821 -0.04867554 C5.386763 -0.06016234 6.81874506 -0.07077099 8.25073242 -0.08056641 C8.97080664 -0.08589008 9.69088085 -0.09121376 10.4327755 -0.09669876 C14.24456086 -0.12342567 18.05631353 -0.14280147 21.86816406 -0.15722656 C25.80271931 -0.17386874 29.73643598 -0.2186426 33.67067432 -0.26959801 C36.69818569 -0.30327763 39.72549821 -0.31480465 42.75317955 -0.32045364 C44.20326836 -0.32716488 45.65334413 -0.342384 47.1032505 -0.36634445 C49.1350094 -0.398003 51.16721799 -0.39503057 53.19921875 -0.390625 C54.93223991 -0.40275528 54.93223991 -0.40275528 56.70027161 -0.41513062 C60.73911041 0.37868765 62.21691132 2.06054161 64.79370117 5.19287109 C65.71948242 7.50927734 65.71948242 7.50927734 66.10620117 9.75537109 C66.24670898 10.49916016 66.3872168 11.24294922 66.53198242 12.00927734 C66.79370117 14.19287109 66.79370117 14.19287109 66.79370117 18.19287109 C66.02179443 18.20745361 65.2498877 18.22203613 64.45458984 18.23706055 C60.96295024 18.31145142 57.47227628 18.40814199 53.98120117 18.50537109 C52.76625977 18.52792969 51.55131836 18.55048828 50.29956055 18.57373047 C49.13618164 18.60917969 47.97280273 18.64462891 46.77416992 18.68115234 C45.16384888 18.72042847 45.16384888 18.72042847 43.52099609 18.76049805 C40.48806741 19.24132489 39.57338752 19.742803 37.79370117 22.19287109 C36.8621785 24.9874391 36.59399185 26.55743235 37.48120117 29.38037109 C39.10769157 31.62647689 40.21018531 32.17888723 42.79370117 33.19287109 C45.89031798 33.55892823 45.89031798 33.55892823 49.30932617 33.60693359 C50.5597168 33.64560547 51.81010742 33.68427734 53.09838867 33.72412109 C54.4003418 33.75505859 55.70229492 33.78599609 57.04370117 33.81787109 C58.36112305 33.85654297 59.67854492 33.89521484 61.03588867 33.93505859 C64.28835278 34.02933292 67.54081113 34.11493859 70.79370117 34.19287109 C71.30274774 36.06543527 71.80052572 37.9410645 72.29370117 39.81787109 C72.57213867 40.86201172 72.85057617 41.90615234 73.13745117 42.98193359 C73.78488713 46.14974527 73.90983037 48.97028577 73.79370117 52.19287109 C72.80974365 52.20745361 71.82578613 52.22203613 70.81201172 52.23706055 C67.16076343 52.29504108 63.51013206 52.37227295 59.859375 52.45532227 C58.27939874 52.48857297 56.69930366 52.51660456 55.11914062 52.53930664 C52.84738538 52.57285125 50.57671914 52.62516337 48.30541992 52.68115234 C47.59906906 52.68754227 46.8927182 52.69393219 46.16496277 52.70051575 C43.26367949 52.7874682 41.27188325 52.84735817 38.87890625 54.57641602 C37.35085041 56.85251448 36.92444936 58.44715916 36.79370117 61.19287109 C37.93119312 63.97795425 37.93119312 63.97795425 39.79370117 66.19287109 C43.46326714 67.41605975 46.9169112 67.42403233 50.74291992 67.50927734 C51.90184502 67.54044899 51.90184502 67.54044899 53.08418274 67.57225037 C55.54976597 67.63758147 58.01545478 67.69655424 60.48120117 67.75537109 C62.15373809 67.79857196 63.82626436 67.84218676 65.4987793 67.88623047 C69.59697867 67.99324599 73.69528413 68.09455966 77.79370117 68.19287109 C78.96161386 72.83814489 80.12459456 77.48460085 81.28076172 82.1328125 C81.7160917 83.88117727 82.15402808 85.62889274 82.5925293 87.37646484 C85.37797862 98.69284871 87.27947544 109.69968917 87.41870117 121.38037109 C87.44158203 122.38970703 87.46446289 123.39904297 87.48803711 124.43896484 C87.47804688 125.38255859 87.46805664 126.32615234 87.45776367 127.29833984 C87.45212402 128.12487061 87.44648438 128.95140137 87.44067383 129.80297852 C86.45981238 133.4262437 84.74206069 134.93051724 81.79370117 137.19287109 C78.47216797 137.76049805 78.47216797 137.76049805 74.74291992 137.68115234 C74.08411331 137.67407761 73.4253067 137.66700287 72.74653625 137.65971375 C70.65690083 137.63188088 68.57001641 137.56917928 66.48120117 137.50537109 C65.05871403 137.48027314 63.63618458 137.45746257 62.21362305 137.43701172 C58.73943256 137.38209555 55.26683567 137.29590795 51.79370117 137.19287109 C51.78435547 136.28520996 51.77500977 135.37754883 51.76538086 134.44238281 C51.72119633 131.05360295 51.65951007 127.66605884 51.58618164 124.27783203 C51.55807007 122.81538404 51.53680686 121.35278689 51.52270508 119.89013672 C51.50113699 117.7793394 51.45442461 115.67031681 51.40307617 113.56005859 C51.37165527 111.65909424 51.37165527 111.65909424 51.33959961 109.71972656 C50.56258058 104.69968322 47.85152579 100.31427465 43.79370117 97.19287109 C38.35336056 94.84520819 33.23747753 94.85988244 27.41870117 94.88037109 C26.51120117 94.86425781 25.60370117 94.84814453 24.66870117 94.83154297 C18.68168773 94.82722956 14.23349161 95.64983005 8.79370117 98.19287109 C3.80075497 103.1858173 2.56254451 108.1049647 2.37963867 115.02490234 C2.3409668 116.3171875 2.30229492 117.60947266 2.26245117 118.94091797 C2.23100103 120.29573105 2.19975356 121.65054884 2.16870117 123.00537109 C2.13048367 124.37974381 2.09142977 125.75409354 2.05151367 127.12841797 C1.95734713 130.48310099 1.87171917 133.83778003 1.79370117 137.19287109 C-2.24463672 137.29212129 -6.28249755 137.36451672 -10.32177734 137.41259766 C-11.69429906 137.432651 -13.066736 137.45990138 -14.43896484 137.49462891 C-16.41701927 137.54341661 -18.39571002 137.56375986 -20.37426758 137.58349609 C-21.5630249 137.60444336 -22.75178223 137.62539063 -23.9765625 137.64697266 C-27.84203764 137.10348609 -29.45280364 135.90135087 -32.20629883 133.19287109 C-38.30091668 121.00363539 -31.62946617 100.30873694 -28.70629883 87.88037109 C-28.27065261 85.95309952 -27.83705009 84.02536481 -27.40551758 82.09716797 C-26.36245056 77.45675712 -25.29243245 72.82338227 -24.20629883 68.19287109 C-23.14193604 68.18352539 -22.07757324 68.17417969 -20.98095703 68.16455078 C-17.02024971 68.12458452 -13.06031376 68.0588081 -9.10009766 67.98535156 C-7.38828463 67.95718023 -5.67634246 67.93594657 -3.96435547 67.921875 C-1.49875964 67.90039145 0.96528978 67.85371693 3.43041992 67.80224609 C4.57289436 67.80040314 4.57289436 67.80040314 5.7384491 67.79852295 C9.41781528 67.69780788 11.62691538 67.29618369 14.78125 65.34228516 C17.05095074 63.3038604 17.05095074 63.3038604 17.35620117 60.19287109 C16.6546994 56.4515283 15.81132739 55.48114708 12.79370117 53.19287109 C10.12631457 52.7748534 7.85261136 52.58817151 5.18432617 52.58349609 C4.45751648 52.56695984 3.73070679 52.55042358 2.98187256 52.53338623 C0.66906248 52.48494749 -1.6430904 52.46354621 -3.95629883 52.44287109 C-5.5279464 52.41470769 -7.09956342 52.38477972 -8.67114258 52.35302734 C-12.51614052 52.27919062 -16.36077454 52.22959161 -20.20629883 52.19287109 C-19.66726225 47.64748154 -19.07793482 43.17672383 -18.14379883 38.69287109 C-17.96719727 37.83693359 -17.7905957 36.98099609 -17.60864258 36.09912109 C-17.47586914 35.47005859 -17.3430957 34.84099609 -17.20629883 34.19287109 C-16.38427979 34.17828857 -15.56226074 34.16370605 -14.71533203 34.14868164 C-10.9826856 34.07410777 -7.25092424 33.97747598 -3.51879883 33.88037109 C-1.5784375 33.8465332 -1.5784375 33.8465332 0.40112305 33.81201172 C1.64829102 33.7765625 2.89545898 33.74111328 4.18041992 33.70458984 C5.32728271 33.67840576 6.47414551 33.65222168 7.65576172 33.62524414 C11.12283257 33.14752046 13.04674526 32.3438159 15.79370117 30.19287109 C16.83521115 26.61268053 17.40802497 24.39914042 15.68115234 21.00830078 C13.03048122 18.45877414 11.23171796 18.65180099 7.59448242 18.58349609 C6.38598633 18.55126953 5.17749023 18.51904297 3.93237305 18.48583984 C2.03841797 18.46457031 2.03841797 18.46457031 0.10620117 18.44287109 C-1.16803711 18.41322266 -2.44227539 18.38357422 -3.75512695 18.35302734 C-6.90558175 18.28223061 -10.05529223 18.22958062 -13.20629883 18.19287109 C-12.9490319 16.29514918 -12.67486544 14.39971433 -12.39379883 12.50537109 C-12.24297852 11.44962891 -12.0921582 10.39388672 -11.93676758 9.30615234 C-11.17492563 6.05915751 -10.13938639 3.89529829 -8.20629883 1.19287109 C-5.42296376 -0.19879644 -3.11422351 0.03473683 0 0 Z " fill="#000000" transform="translate(408.206298828125,255.80712890625)"/>
<path d="M0 0 C0.65880661 0.00707474 1.31761322 0.01414948 1.99638367 0.0214386 C4.08601909 0.04927146 6.17290351 0.11197306 8.26171875 0.17578125 C9.68420589 0.2008792 11.10673534 0.22368977 12.52929688 0.24414062 C16.00348736 0.29905679 19.47608425 0.3852444 22.94921875 0.48828125 C22.9632373 1.84977295 22.9632373 1.84977295 22.97753906 3.23876953 C23.02172359 6.62754939 23.08340986 10.01509351 23.15673828 13.40332031 C23.18484985 14.8657683 23.20611306 16.32836545 23.22021484 17.79101562 C23.24178294 19.90181294 23.28849531 22.01083554 23.33984375 24.12109375 C23.36079102 25.38840332 23.38173828 26.65571289 23.40332031 27.96142578 C24.03702035 32.05553616 25.44008377 34.23647589 27.94921875 37.48828125 C28.38234375 38.06578125 28.81546875 38.64328125 29.26171875 39.23828125 C34.56193999 43.16437105 41.60031661 42.82436115 47.88671875 42.80078125 C49.1696582 42.82495117 49.1696582 42.82495117 50.47851562 42.84960938 C56.31452568 42.85406095 60.63879679 41.94604591 65.94921875 39.48828125 C70.94216496 34.49533504 72.18037541 29.57618765 72.36328125 22.65625 C72.40195313 21.36396484 72.440625 20.07167969 72.48046875 18.74023438 C72.51191889 17.3854213 72.54316636 16.0306035 72.57421875 14.67578125 C72.61243625 13.30140853 72.65149015 11.92705881 72.69140625 10.55273438 C72.78557279 7.19805136 72.87120075 3.84337232 72.94921875 0.48828125 C77.00598367 0.43873414 81.06263069 0.40249225 85.11962891 0.37841797 C86.4988919 0.36837872 87.87813371 0.35474448 89.25732422 0.33740234 C91.24307015 0.31306371 93.22897325 0.3028487 95.21484375 0.29296875 C96.40883789 0.28249512 97.60283203 0.27202148 98.83300781 0.26123047 C101.83240718 0.47977022 103.46369786 0.85680308 105.94921875 2.48828125 C110.38923566 8.23335106 108.52370548 19.62679023 107.94921875 26.48828125 C106.76420555 34.91371182 104.83885545 43.19856849 102.94921875 51.48828125 C102.53966661 53.35112391 102.13201346 55.21438542 101.7265625 57.078125 C100.82521712 61.22055992 99.89001203 65.35465413 98.94921875 69.48828125 C97.88485596 69.49762695 96.82049316 69.50697266 95.72387695 69.51660156 C91.76316964 69.55656782 87.80323368 69.62234424 83.84301758 69.69580078 C82.13120455 69.72397211 80.41926238 69.74520577 78.70727539 69.75927734 C76.24167956 69.7807609 73.77763014 69.82743541 71.3125 69.87890625 C70.17002556 69.88074921 70.17002556 69.88074921 69.00447083 69.88262939 C65.32510464 69.98334446 63.11600454 70.38496865 59.96166992 72.33886719 C57.69196918 74.37729194 57.69196918 74.37729194 57.38671875 77.48828125 C58.08822052 81.22962405 58.93159253 82.20000526 61.94921875 84.48828125 C64.61660535 84.90629894 66.89030856 85.09298083 69.55859375 85.09765625 C70.28540344 85.1141925 71.01221313 85.13072876 71.76104736 85.14776611 C74.07385744 85.19620486 76.38601032 85.21760614 78.69921875 85.23828125 C80.27086632 85.26644466 81.84248334 85.29637262 83.4140625 85.328125 C87.25906044 85.40196172 91.10369447 85.45156073 94.94921875 85.48828125 C94.41018217 90.0336708 93.82085474 94.50442851 92.88671875 98.98828125 C92.62181641 100.2721875 92.62181641 100.2721875 92.3515625 101.58203125 C92.21878906 102.21109375 92.08601563 102.84015625 91.94921875 103.48828125 C91.12719971 103.50286377 90.30518066 103.51744629 89.45825195 103.5324707 C85.72560552 103.60704458 81.99384416 103.70367637 78.26171875 103.80078125 C76.96814453 103.82333984 75.67457031 103.84589844 74.34179688 103.86914062 C73.09462891 103.90458984 71.84746094 103.94003906 70.5625 103.9765625 C68.84220581 104.01583862 68.84220581 104.01583862 67.0871582 104.0559082 C63.35966057 104.56951579 60.63260916 105.80489084 57.94921875 108.48828125 C57.66752381 111.65734927 57.58906011 113.79836039 59.07739258 116.64941406 C61.71054094 119.23619813 63.50040367 119.02914857 67.1484375 119.09765625 C68.96118164 119.14599609 68.96118164 119.14599609 70.81054688 119.1953125 C72.07318359 119.20949219 73.33582031 119.22367187 74.63671875 119.23828125 C75.91095703 119.26792969 77.18519531 119.29757813 78.49804688 119.328125 C81.64850167 119.39892174 84.79821215 119.45157172 87.94921875 119.48828125 C87.69195182 121.38600316 87.41778536 123.28143802 87.13671875 125.17578125 C86.91048828 126.75939453 86.91048828 126.75939453 86.6796875 128.375 C85.91784555 131.62199483 84.88230631 133.78585405 82.94921875 136.48828125 C80.16588369 137.87994878 77.85714343 137.64641551 74.74291992 137.68115234 C73.43783981 137.69721527 72.1327597 137.7132782 70.78813171 137.72982788 C69.35615692 137.74131469 67.92417486 137.75192334 66.4921875 137.76171875 C65.77211329 137.76704243 65.05203907 137.7723661 64.31014442 137.7778511 C60.49835906 137.80457802 56.68660639 137.82395381 52.87475586 137.83837891 C48.94020061 137.85502108 45.00648394 137.89979494 41.0722456 137.95075035 C38.04473423 137.98442997 35.01742171 137.99595699 31.98974037 138.00160599 C30.53965157 138.00831722 29.08957579 138.02353634 27.63966942 138.0474968 C25.60791052 138.07915535 23.57570193 138.07618291 21.54370117 138.07177734 C20.38835373 138.0798642 19.23300629 138.08795105 18.04264832 138.09628296 C14.00380951 137.30246469 12.5260086 135.62061073 9.94921875 132.48828125 C9.0234375 130.171875 9.0234375 130.171875 8.63671875 127.92578125 C8.49621094 127.18199219 8.35570313 126.43820313 8.2109375 125.671875 C7.94921875 123.48828125 7.94921875 123.48828125 7.94921875 119.48828125 C8.72112549 119.47369873 9.49303223 119.45911621 10.28833008 119.4440918 C13.77996968 119.36970092 17.27064365 119.27301035 20.76171875 119.17578125 C21.97666016 119.15322266 23.19160156 119.13066406 24.44335938 119.10742188 C25.60673828 119.07197266 26.77011719 119.03652344 27.96875 119 C29.57907104 118.96072388 29.57907104 118.96072388 31.22192383 118.9206543 C34.25577529 118.43968116 35.16327318 117.93292579 36.94921875 115.48828125 C38.16119469 112.19863227 38.16513561 110.96329833 36.69921875 107.73828125 C35.07633754 105.22248741 35.07633754 105.22248741 31.94921875 104.48828125 C29.81260617 104.33757328 27.67209751 104.23968465 25.53125 104.171875 C24.27763672 104.12998047 23.02402344 104.08808594 21.73242188 104.04492188 C20.42208984 104.00560547 19.11175781 103.96628906 17.76171875 103.92578125 C16.42641897 103.88257133 15.09113223 103.83895625 13.75585938 103.79492188 C10.48708578 103.68871623 7.21823542 103.58667128 3.94921875 103.48828125 C3.44017218 101.61571708 2.9423942 99.74008784 2.44921875 97.86328125 C2.17078125 96.81914062 1.89234375 95.775 1.60546875 94.69921875 C0.95803279 91.53140707 0.83308955 88.71086658 0.94921875 85.48828125 C1.93317627 85.4632251 2.91713379 85.43816895 3.9309082 85.41235352 C7.58191932 85.31817305 11.23274491 85.21797835 14.88354492 85.1159668 C16.4635789 85.0726582 18.04365844 85.03098019 19.6237793 84.9909668 C21.89515923 84.93316542 24.16631064 84.86949965 26.4375 84.8046875 C27.14385086 84.78797501 27.85020172 84.77126251 28.57795715 84.75404358 C31.61570115 84.66230655 34.04544933 84.45620439 36.94921875 83.48828125 C38.03998269 78.4598014 38.03998269 78.4598014 36.69921875 73.61328125 C35.04943374 71.22652567 35.04943374 71.22652567 31.94921875 70.48828125 C29.29315574 70.33481172 26.6582678 70.23110227 24 70.171875 C22.84107491 70.14070335 22.84107491 70.14070335 21.65873718 70.10890198 C19.19315395 70.04357087 16.72746514 69.9845981 14.26171875 69.92578125 C12.58918184 69.88258038 10.91665556 69.83896559 9.24414062 69.79492188 C5.14594125 69.68790635 1.04763579 69.58659268 -3.05078125 69.48828125 C-4.21869394 64.84300745 -5.38167464 60.19655149 -6.5378418 55.54833984 C-6.97317178 53.79997507 -7.41110815 52.0522596 -7.84960938 50.3046875 C-10.6350587 38.98830364 -12.53655552 27.98146318 -12.67578125 16.30078125 C-12.69866211 15.29144531 -12.72154297 14.28210938 -12.74511719 13.2421875 C-12.73512695 12.29859375 -12.72513672 11.355 -12.71484375 10.3828125 C-12.7092041 9.55628174 -12.70356445 8.72975098 -12.69775391 7.87817383 C-10.89825611 1.23089688 -6.28205433 -0.13366073 0 0 Z " fill="#000000" transform="translate(29.05078125,118.51171875)"/>
<path d="M0 0 C5.94 0 11.88 0 18 0 C18 28.71 18 57.42 18 87 C12.06 87 6.12 87 0 87 C0 58.29 0 29.58 0 0 Z " fill="#000000" transform="translate(426,366)"/>
<path d="M0 0 C5.94 0 11.88 0 18 0 C18 28.71 18 57.42 18 87 C12.06 87 6.12 87 0 87 C0 58.29 0 29.58 0 0 Z " fill="#000000" transform="translate(68,59)"/>
<path d="M0 0 C5.94 0 11.88 0 18 0 C18 14.52 18 29.04 18 44 C12.06 44 6.12 44 0 44 C0 29.48 0 14.96 0 0 Z " fill="#000000" transform="translate(460,409)"/>
<path d="M0 0 C5.94 0 11.88 0 18 0 C18 14.52 18 29.04 18 44 C12.06 44 6.12 44 0 44 C0 29.48 0 14.96 0 0 Z " fill="#000000" transform="translate(392,409)"/>
<path d="M0 0 C5.94 0 11.88 0 18 0 C18 14.52 18 29.04 18 44 C12.06 44 6.12 44 0 44 C0 29.48 0 14.96 0 0 Z " fill="#000000" transform="translate(102,59)"/>
<path d="M0 0 C5.94 0 11.88 0 18 0 C18 14.52 18 29.04 18 44 C12.06 44 6.12 44 0 44 C0 29.48 0 14.96 0 0 Z " fill="#000000" transform="translate(34,59)"/>
<path d="M0 0 C5.94 0 11.88 0 18 0 C18 8.58 18 17.16 18 26 C12.06 26 6.12 26 0 26 C0 17.42 0 8.84 0 0 Z " fill="#000000" transform="translate(426,469)"/>
<path d="M0 0 C5.94 0 11.88 0 18 0 C18 8.58 18 17.16 18 26 C12.06 26 6.12 26 0 26 C0 17.42 0 8.84 0 0 Z " fill="#000000" transform="translate(68,17)"/>
<path d="M0 0 C5.94 0 11.88 0 18 0 C18.1081174 3.39668836 18.18737188 6.78992439 18.25 10.1875 C18.30027344 11.62706055 18.30027344 11.62706055 18.3515625 13.09570312 C18.41081679 17.37682547 18.35871873 20.27538816 16.4375 24.15625 C11.64575634 27.78077405 5.74412309 26.26593162 0 26 C0 17.42 0 8.84 0 0 Z " fill="#000000" transform="translate(460,469)"/>
<path d="M0 0 C0 8.58 0 17.16 0 26 C-5.94 26 -11.88 26 -18 26 C-18.1081174 22.60331164 -18.18737188 19.21007561 -18.25 15.8125 C-18.28351562 14.85279297 -18.31703125 13.89308594 -18.3515625 12.90429688 C-18.41081679 8.62317453 -18.35871873 5.72461184 -16.4375 1.84375 C-11.64575634 -1.78077405 -5.74412309 -0.26593162 0 0 Z " fill="#000000" transform="translate(52,17)"/>
<path d="M0 0 C5.94 0 11.88 0 18 0 C18 8.58 18 17.16 18 26 C5 26 5 26 1 23 C0.03911617 20.11734851 -0.11670941 18.32337729 -0.09765625 15.33203125 C-0.09443359 14.43935547 -0.09121094 13.54667969 -0.08789062 12.62695312 C-0.07951172 11.69818359 -0.07113281 10.76941406 -0.0625 9.8125 C-0.05798828 8.87212891 -0.05347656 7.93175781 -0.04882812 6.96289062 C-0.03704645 4.64189992 -0.01911114 2.32094193 0 0 Z " fill="#000000" transform="translate(392,469)"/>
<path d="M0 0 C13 0 13 0 17 3 C17.96088383 5.88265149 18.11670941 7.67662271 18.09765625 10.66796875 C18.09443359 11.56064453 18.09121094 12.45332031 18.08789062 13.37304688 C18.07951172 14.30181641 18.07113281 15.23058594 18.0625 16.1875 C18.05798828 17.12787109 18.05347656 18.06824219 18.04882812 19.03710938 C18.03704645 21.35810008 18.01911114 23.67905807 18 26 C12.06 26 6.12 26 0 26 C0 17.42 0 8.84 0 0 Z " fill="#000000" transform="translate(102,17)"/>
</svg>
