<?xml version="1.0" encoding="UTF-8"?>
<svg version="1.1" xmlns="http://www.w3.org/2000/svg" width="512" height="512">
<path d="M0 0 C1.11525039 -0.00445784 2.23050078 -0.00891569 3.37954664 -0.01350862 C5.21744662 -0.01323207 5.21744662 -0.01323207 7.09247589 -0.01294994 C9.04500739 -0.01846498 9.04500739 -0.01846498 11.03698397 -0.02409142 C14.65328437 -0.03410378 18.26956817 -0.037827 21.88588047 -0.04048073 C25.78519711 -0.04438613 29.68450064 -0.0539644 33.5838089 -0.0626936 C43.00311703 -0.08245282 52.42242623 -0.09252418 61.84174991 -0.10142139 C66.27925356 -0.10580575 70.71675602 -0.11117223 75.15425873 -0.11641026 C89.90917208 -0.13342307 104.66408469 -0.14791626 119.41900635 -0.155159 C123.24770356 -0.15706885 127.07640077 -0.15898918 130.90509796 -0.16094494 C132.33247846 -0.16167055 132.33247846 -0.16167055 133.78869492 -0.16241082 C149.19657012 -0.17070739 164.6043676 -0.19603777 180.01220888 -0.22852562 C195.83708868 -0.26162024 211.66192901 -0.27960999 227.48684359 -0.28280324 C236.36946971 -0.28496626 245.25198253 -0.29368434 254.13457489 -0.31926441 C261.70113407 -0.34100437 269.26755242 -0.34900571 276.83413929 -0.33929763 C280.69187144 -0.33476225 284.54931324 -0.33659428 288.40700531 -0.35605907 C292.5979378 -0.37702175 296.7882304 -0.36667547 300.97919464 -0.35352612 C302.18661552 -0.36449536 303.3940364 -0.37546461 304.63804579 -0.38676625 C319.73572946 -0.27273563 331.65824282 5.51301715 342.73126984 15.57172108 C346.70553044 19.72346063 349.45705722 24.05098139 352.04376984 29.13422108 C352.37014435 29.77416004 352.69651886 30.41409901 353.03278351 31.07343006 C358.45321675 42.51304017 357.79016902 54.3971195 357.66876984 66.75922108 C357.65872086 68.54437231 357.6495984 70.32952901 357.64142609 72.11468983 C357.61956233 76.45467039 357.58513798 80.7943844 357.54376984 85.13422108 C358.63705597 85.12052479 359.7303421 85.1068285 360.85675812 85.09271717 C371.0961881 85.20798025 380.33928438 90.30687225 387.70001984 97.13422108 C397.63756298 107.51672884 400.04694365 118.67480833 399.82111359 132.57172108 C399.35055728 143.97744409 393.48056451 153.58483564 385.41876984 161.38422108 C377.38850227 168.21472032 367.90038524 171.20550112 357.54376984 171.13422108 C357.54745701 171.86160984 357.55114418 172.5889986 357.55494308 173.33842945 C357.64358731 191.10258697 357.70962127 208.86669987 357.75101852 226.63103199 C357.77157413 235.22201998 357.79955939 243.81285961 357.84552765 252.40375233 C357.88561137 259.89852253 357.91125342 267.39318519 357.92012382 274.88805962 C357.92530245 278.85028442 357.93732461 282.8122018 357.96669006 286.77432728 C357.99420128 290.51722738 358.00214437 294.25969869 357.99620056 298.00269032 C357.99779526 300.00353999 358.01912851 302.00434489 358.0414505 304.00507069 C357.96766656 320.55861949 353.80431025 335.72053329 342.23126984 348.00922108 C332.56766238 357.05147983 319.70250916 363.26826715 306.31090546 363.25447559 C305.27750534 363.25585026 304.24410522 363.25722492 303.17938995 363.25864124 C302.05657623 363.25504597 300.93376251 363.25145069 299.77692413 363.24774647 C298.58625839 363.24789249 297.39559265 363.24803852 296.16884613 363.24818897 C292.91303043 363.24761258 289.65725797 363.24260472 286.40145087 363.23561502 C282.99550805 363.22935458 279.58956433 363.22877555 276.18361664 363.22758961 C269.73806894 363.22448422 263.29253825 363.21628152 256.84699804 363.20624012 C249.50724175 363.19505437 242.16748464 363.18956233 234.82772195 363.18454468 C219.73306178 363.17409824 204.63841751 363.15651415 189.54376984 363.13422108 C190.06777374 361.81357655 190.06777374 361.81357655 190.60236359 360.46625233 C191.05740265 359.30480701 191.51244171 358.1433617 191.98126984 356.94672108 C192.65996124 355.22388905 192.65996124 355.22388905 193.35236359 353.46625233 C197.13555806 342.88571171 196.2750631 332.31298966 191.54376984 322.13422108 C188.75682974 317.0098119 185.64488948 312.08022976 182.57501984 307.12250233 C178.78440269 300.96745246 175.53269775 294.61974427 172.46173859 288.08099842 C171.85928618 286.80335069 171.24757678 285.53001874 170.62580109 284.26166248 C166.68234555 276.21460052 163.44808649 268.02261254 160.61798859 259.52484608 C160.36008545 258.75381046 160.10218231 257.98277485 159.83646393 257.18837452 C158.5358416 253.28643198 157.26019764 249.37857879 156.01935577 245.45721912 C151.93330728 232.82465417 146.39876851 223.20808178 134.17658234 216.91547108 C127.54139852 213.86981293 122.05759812 212.96290135 114.73908234 212.89593983 C113.43795502 212.88124905 113.43795502 212.88124905 112.1105423 212.86626148 C85.58226808 212.58424795 85.58226808 212.58424795 59.54376984 217.13422108 C58.74600128 217.32725819 57.94823273 217.5202953 57.12628937 217.71918201 C37.83424674 222.39534279 18.3649911 231.07111982 2.54376984 243.13422108 C1.44749185 243.93640853 0.35113287 244.7384853 -0.74529266 245.54047108 C-18.44293365 258.73514735 -31.75320043 274.89098244 -43.96697235 293.10663319 C-45.1066697 294.7984885 -46.2782468 296.46879632 -47.45623016 298.13422108 C-47.78623016 298.13422108 -48.11623016 298.13422108 -48.45623016 298.13422108 C-48.52470914 265.81895751 -48.57778044 233.50371464 -48.60942615 201.18839545 C-48.61317815 197.37085804 -48.61706113 193.55332077 -48.62102509 189.73578358 C-48.62181202 188.97579991 -48.62259895 188.21581625 -48.62340973 187.43280278 C-48.63645371 175.13696945 -48.66010199 162.84117832 -48.68768855 150.54537 C-48.71577082 137.92308583 -48.73241238 125.30082372 -48.73849565 112.67850959 C-48.74260625 104.89363716 -48.75557615 97.10888402 -48.77997956 89.32404833 C-48.79775379 83.34856336 -48.79958867 77.37318041 -48.79555321 71.39766598 C-48.79637748 68.95077182 -48.80233071 66.50387308 -48.81384659 64.05700588 C-48.82882255 60.7103568 -48.8251648 57.36421373 -48.81699371 54.01755238 C-48.8301015 52.57295727 -48.8301015 52.57295727 -48.84347409 51.09917843 C-48.74600692 36.27995423 -42.50074735 24.27538897 -32.28435516 13.83734608 C-23.57011135 5.50826221 -12.20016295 0.02263432 0 0 Z M59.54376984 70.13422108 C58.42277996 73.49719071 58.39626257 76.07656921 58.36676788 79.62176991 C58.36019669 80.27581303 58.35362549 80.92985615 58.34685516 81.60371876 C58.32715969 83.76623118 58.31546802 85.92867428 58.30548859 88.09125233 C58.30141306 88.83122644 58.29733753 89.57120056 58.2931385 90.33359814 C58.27229373 94.25029056 58.25798517 98.16694811 58.24860382 102.08368397 C58.23754265 106.1222288 58.20314225 110.16022216 58.16343212 114.19857216 C58.13724696 117.31019054 58.12891034 120.42167786 58.12532234 123.53339672 C58.12046124 125.02170696 58.10886071 126.51001153 58.09028435 127.99821377 C58.06585044 130.08541281 58.06686448 132.17118942 58.07379913 134.25848866 C58.06793289 135.44412907 58.06206665 136.62976948 58.05602264 137.85133839 C58.73390057 142.41393505 60.73263783 145.69780603 64.35626984 148.57172108 C67.76197783 149.44747456 70.15657276 149.02558873 73.54376984 148.13422108 C76.97361362 145.37543369 78.8110987 143.4469467 79.54376984 139.13422108 C79.64533362 137.06334178 79.69211381 134.98953239 79.70490265 132.9162035 C79.71451019 131.65777134 79.72411774 130.39933918 79.73401642 129.10277271 C79.73886503 127.73174694 79.74314371 126.36071904 79.74689484 124.98968983 C79.7526517 123.57728036 79.75840936 122.16487089 79.76416779 120.75246143 C79.77466056 117.79271552 79.78051437 114.83299663 79.78400421 111.87323475 C79.78948289 108.0938595 79.81350442 104.31484561 79.84197617 100.5355835 C79.86066628 97.61779733 79.86581153 94.70009708 79.86734009 91.78225613 C79.8703532 90.38968717 79.87833612 88.99711924 79.89152527 87.60460949 C80.17471551 76.05681825 80.17471551 76.05681825 74.85626984 66.19672108 C68.25635776 63.16432904 63.82184992 64.55975309 59.54376984 70.13422108 Z M123.54376984 70.13422108 C122.31664409 73.81559833 122.34311961 77.2545044 122.30548859 81.09125233 C122.29741684 81.87183506 122.28934509 82.65241779 122.28102875 83.45665455 C122.26720664 85.10835022 122.25647611 86.76007423 122.24860382 88.41180897 C122.23140293 90.92725743 122.18750377 93.44138684 122.14337921 95.9564867 C122.13325042 97.56389895 122.1247349 99.17132233 122.11798859 100.77875233 C122.1004805 101.52582951 122.08297241 102.27290668 122.06493378 103.04262257 C122.08629854 108.2320545 123.28878365 111.12899238 126.54376984 115.13422108 C129.20240728 117.2427956 130.53078191 117.13445722 133.98126984 117.07172108 C138.23053932 115.95349226 139.8408831 114.55257783 142.54376984 111.13422108 C144.5198066 105.64877413 143.76867644 99.31154681 143.78400421 93.54510975 C143.79369218 91.33940124 143.82473116 89.13463239 143.85626984 86.92914295 C143.86280275 85.51183073 143.86805209 84.0945119 143.87189484 82.67718983 C143.88124054 81.39868153 143.89058624 80.12017323 143.90021515 78.80292225 C143.42684078 73.93073272 142.1346876 69.96083036 138.85626984 66.19672108 C132.25635776 63.16432904 127.82184992 64.55975309 123.54376984 70.13422108 Z M187.54376984 70.13422108 C186.63722903 72.8538435 186.41304175 74.45421942 186.39659882 77.25099659 C186.38944351 78.08786503 186.38228821 78.92473347 186.37491608 79.78696156 C186.37222717 80.70182331 186.36953827 81.61668507 186.36676788 82.55926991 C186.36019669 83.52542728 186.35362549 84.49158466 186.34685516 85.48701954 C186.32712352 88.68843124 186.31546045 91.88979605 186.30548859 95.09125233 C186.30141306 96.18426844 186.29733753 97.27728455 186.2931385 98.40342236 C186.27227935 104.18746597 186.25797637 109.97148587 186.24860382 115.75555897 C186.23753365 121.7311159 186.20312598 127.70630104 186.16343212 133.68172646 C186.13729639 138.27568222 186.12891472 142.86954893 186.12532234 147.4635725 C186.12044933 149.66638865 186.1088151 151.86920064 186.09028435 154.07194424 C186.06595597 157.15525963 186.06684655 160.23760681 186.07379913 163.32098866 C186.06098907 164.22977772 186.04817902 165.13856678 186.03498077 166.07489491 C186.08146942 171.73434031 186.87327468 174.772204 190.54376984 179.13422108 C193.20240728 181.2427956 194.53078191 181.13445722 197.98126984 181.07172108 C202.23053932 179.95349226 203.8408831 178.55257783 206.54376984 175.13422108 C207.43439241 172.40389342 207.67197023 169.91653052 207.68421173 167.05577564 C207.68992187 166.25263432 207.69563202 165.44949299 207.7015152 164.62201405 C207.70263306 163.74972157 207.70375092 162.87742908 207.70490265 161.9787035 C207.70986755 161.05302067 207.71483246 160.12733784 207.71994781 159.17360401 C207.73454857 156.11229171 207.74136794 153.05103122 207.74689484 149.98968983 C207.75264796 147.85983243 207.75840567 145.72997505 207.76416779 143.60011768 C207.7746718 139.13386259 207.78051841 134.66762546 207.78400421 130.20135975 C207.78948797 124.48494523 207.81351616 118.76876901 207.84197617 113.0524292 C207.86062087 108.6523059 207.86580913 104.2522398 207.86734009 99.85208035 C207.87036294 97.74499998 207.87837904 95.63792054 207.89152527 93.53087902 C207.908624 90.57971014 207.90669607 87.62912089 207.90021515 84.67792225 C207.90942993 83.81170246 207.91864471 82.94548267 207.92813873 82.0530138 C207.88620553 75.94202621 207.0090732 70.96475457 202.85626984 66.19672108 C196.25635776 63.16432904 191.82184992 64.55975309 187.54376984 70.13422108 Z M265.54376984 96.13422108 C264.24439484 97.27890858 264.24439484 97.27890858 262.91876984 98.44672108 C255.01468798 107.3908137 249.5640585 118.30013873 250.16095734 130.53656483 C252.13088453 143.90392793 257.91463304 153.32985583 267.85626984 162.19672108 C275.46373434 167.68117223 283.42024236 170.39491101 292.8560257 170.36127186 C293.89631424 170.36170994 293.89631424 170.36170994 294.95761871 170.36215687 C297.22474925 170.36077582 299.49154126 170.3452733 301.75861359 170.32953358 C303.34044465 170.32579907 304.92227803 170.32295417 306.50411224 170.32095814 C310.64858237 170.31335609 314.79291024 170.29373741 318.93732452 170.27155018 C323.1739586 170.25101755 327.41061587 170.24194062 331.64728546 170.23187733 C339.94618585 170.21048795 348.2449437 170.17533412 356.54376984 170.13422108 C356.54376984 163.53422108 356.54376984 156.93422108 356.54376984 150.13422108 C354.53097931 150.12487537 352.51818878 150.11552967 350.4444046 150.10590076 C343.76668044 150.07201335 337.08926149 150.01639975 330.41178226 149.95031834 C326.36632566 149.91094222 322.3210835 149.87870582 318.27545929 149.86322498 C314.36536875 149.84799275 310.45586817 149.8134328 306.54604149 149.76591206 C305.06030109 149.75116545 303.57447644 149.74318395 302.0886631 149.74233723 C284.52564784 149.72227722 284.52564784 149.72227722 277.97274017 143.6873827 C272.58141252 137.55947566 272.04465098 132.61831691 272.16095734 124.62640858 C272.84419956 118.39356629 275.61479209 115.01373786 279.98126984 110.75922108 C283.53066807 108.50838317 286.85478539 107.3992123 291.00861359 106.74750233 C296.50424184 105.8864907 296.50424184 105.8864907 301.16876984 103.00922108 C302.96808698 99.2470125 303.387816 96.23032746 302.54376984 92.13422108 C300.75013073 89.32418647 299.52496048 87.6248164 296.54376984 86.13422108 C284.77083687 84.84721586 274.3264354 88.27712917 265.54376984 96.13422108 Z M357.54376984 107.13422108 C357.54376984 120.99422108 357.54376984 134.85422108 357.54376984 149.13422108 C366.29433639 146.94657944 370.59311865 145.03985985 375.56330109 137.81781483 C378.24469926 133.21350163 378.07996581 128.28936241 377.54376984 123.13422108 C375.97806237 117.7674286 372.89887435 114.06365757 368.81330109 110.36078358 C365.61169181 108.49691522 365.61169181 108.49691522 357.54376984 107.13422108 Z M123.54376984 134.13422108 C122.51348062 137.22508873 122.40496781 139.38730788 122.38263702 142.62787342 C122.37302948 143.75269123 122.36342194 144.87750904 122.35352325 146.03641224 C122.34927338 147.25204853 122.3450235 148.46768482 122.34064484 149.72015858 C122.33494476 150.96922993 122.32924469 152.21830128 122.32337189 153.50522327 C122.31391886 156.14982211 122.30702346 158.79430738 122.30353546 161.43890858 C122.29805284 164.82057193 122.27402528 168.20183222 122.24556351 171.58336926 C122.22241292 174.81643504 122.22048599 178.04952151 122.21564484 181.28265858 C122.20329803 182.49424641 122.19095123 183.70583424 122.17823029 184.95413685 C122.18123138 186.08525898 122.18423248 187.21638111 122.18732452 188.38177967 C122.18367889 189.37422688 122.18003326 190.36667408 122.17627716 191.38919544 C122.71684742 195.4270425 124.49944382 198.05259771 127.29376984 200.94672108 C130.5776919 202.67990217 132.88496968 202.58354741 136.54376984 202.13422108 C139.649449 200.33982867 141.14743882 198.98599953 142.66168976 195.73163319 C143.93270952 190.54799739 143.84893259 185.51946254 143.84455109 180.20062733 C143.84883621 179.04932835 143.85312134 177.89802937 143.85753632 176.71184254 C143.86326825 174.28192266 143.86378827 171.85198563 143.85944366 169.42206287 C143.85628386 165.71318653 143.87975772 162.00510827 143.90509796 158.29633045 C143.90737114 155.93109708 143.90807437 153.56586157 143.90705109 151.20062733 C143.91626083 150.09626835 143.92547058 148.99190937 143.93495941 147.85408497 C143.89407346 141.01958743 143.52125058 135.55281008 138.85626984 130.19672108 C132.25635776 127.16432904 127.82184992 128.55975309 123.54376984 134.13422108 Z M59.54376984 166.13422108 C57.88241986 171.11827099 58.31727633 176.29078043 58.29376984 181.50922108 C58.27314484 182.6461742 58.25251984 183.78312733 58.23126984 184.95453358 C58.22611359 186.05281483 58.22095734 187.15109608 58.21564484 188.28265858 C58.20629913 189.28474354 58.19695343 190.2868285 58.18732452 191.31927967 C58.70484454 195.40626993 60.46845467 198.0205018 63.29376984 200.94672108 C66.5776919 202.67990217 68.88496968 202.58354741 72.54376984 202.13422108 C75.70058071 200.3102859 77.17006582 198.96917515 78.66095734 195.63812733 C79.84290642 190.94694003 79.87315442 186.51557999 79.85626984 181.69672108 C79.87238312 180.78084217 79.8884964 179.86496326 79.90509796 178.92133045 C79.90974126 172.45321414 79.25969092 167.25250085 74.85626984 162.19672108 C68.25635776 159.16432904 63.82184992 160.55975309 59.54376984 166.13422108 Z M187.54376984 198.13422108 C186.26729061 201.96365876 186.38812051 205.5745043 186.38263702 209.56537342 C186.37767212 210.42584782 186.37270721 211.28632221 186.36759186 212.17287159 C186.35297611 215.02197536 186.34616948 217.87102346 186.34064484 220.72015858 C186.33489324 222.69929474 186.32913551 224.67843089 186.32337189 226.65756702 C186.31286381 230.80864185 186.30701976 234.95969732 186.30353546 239.11078358 C186.29804882 244.42947557 186.27401629 249.74791181 186.24556351 255.06652355 C186.22693966 259.15517392 186.22173168 263.24376262 186.22019958 267.33245182 C186.21717235 269.2932586 186.20914142 271.25406427 186.1960144 273.21482944 C186.17895805 275.95817758 186.18083306 278.70090001 186.18732452 281.44427967 C186.17810974 282.25380589 186.16889496 283.0633321 186.15940094 283.89738941 C186.20175324 289.61161867 187.35580675 292.86811646 191.29376984 296.94672108 C194.5776919 298.67990217 196.88496968 298.58354741 200.54376984 298.13422108 C203.77240866 296.26878531 205.19858524 294.94361312 206.66332245 291.50908375 C207.69654258 287.54862443 207.83162785 283.82269525 207.81842804 279.76141834 C207.82353897 278.94273273 207.8286499 278.12404713 207.83391571 277.28055286 C207.84776133 274.587169 207.84685882 271.89404245 207.84455109 269.20062733 C207.84844062 267.32025019 207.85277582 265.43987392 207.85753632 263.55949879 C207.86498759 259.62303281 207.86471505 255.68665654 207.85944366 251.75018787 C207.8536488 246.71536208 207.87058579 241.68090414 207.89378834 236.64613914 C207.90854692 232.76413814 207.90939451 228.88222531 207.90627861 225.00020123 C207.9067907 223.14432452 207.91200722 221.28844273 207.92209053 219.43259335 C207.93447968 216.83362768 207.92764874 214.23537332 207.91608429 211.63641834 C207.92372803 210.87619877 207.93137177 210.11597919 207.93924713 209.33272266 C207.8824852 203.53738278 206.77781686 198.69923803 202.85626984 194.19672108 C196.25635776 191.16432904 191.82184992 192.55975309 187.54376984 198.13422108 Z M251.54376984 219.13422108 C250.41998712 222.50556924 250.40309463 225.08341585 250.38263702 228.63763905 C250.37767212 229.29328846 250.37270721 229.94893787 250.36759186 230.62445545 C250.35299631 232.79178387 250.34617277 234.9590391 250.34064484 237.12640858 C250.33489141 238.63471955 250.3291337 240.1430305 250.32337189 241.65134144 C250.31286945 244.81376962 250.30702178 247.97617244 250.30353546 251.13861561 C250.29805103 255.18612557 250.2740212 259.23329908 250.24556351 263.28070354 C250.22691836 266.39657025 250.22173055 269.51235619 250.22019958 272.62827396 C250.21717696 274.12018264 250.20916155 275.61209002 250.1960144 277.10394382 C250.17891326 279.19355937 250.18084343 281.28235646 250.18732452 283.37201405 C250.18367889 284.55987507 250.18003326 285.74773609 250.17627716 286.9715929 C250.6776858 291.28669679 252.31489212 293.86145487 255.29376984 296.94672108 C258.5776919 298.67990217 260.88496968 298.58354741 264.54376984 298.13422108 C269.06916295 295.5195495 270.20930854 293.06676247 271.54376984 288.13422108 C271.84889764 284.99440124 271.84889764 284.99440124 271.81842804 281.68915272 C271.82796005 280.43087162 271.83749207 279.17259052 271.84731293 277.8761797 C271.84705147 276.51557862 271.84611429 275.15497753 271.84455109 273.79437733 C271.84844311 272.38482507 271.85277882 270.97527397 271.85753632 269.56572437 C271.86497798 266.61789611 271.86472214 263.67018766 271.85944366 260.72235584 C271.85365014 256.95869906 271.87058669 253.19553459 271.89378834 249.43195915 C271.90857271 246.522737 271.90939105 243.61363215 271.90627861 240.70437908 C271.90678941 239.31740246 271.91198157 237.93041885 271.92209053 236.54347897 C272.19758909 224.99427237 272.19758909 224.99427237 266.79376984 215.19672108 C260.19690733 212.081536 256.1678992 214.39999339 251.54376984 219.13422108 Z " fill="#000000" transform="translate(80.45623016357422,31.865778923034668)"/>
<path d="M0 0 C0.74115051 -0.01230652 1.48230103 -0.02461304 2.24591064 -0.03729248 C20.40559771 -0.28948938 20.40559771 -0.28948938 27.0637207 6.12451172 C31.18540704 11.08562616 32.96713042 16.4948466 34.6875 22.625 C35.27524432 24.58084672 35.86782428 26.53524579 36.46484375 28.48828125 C36.91706299 29.97062256 36.91706299 29.97062256 37.37841797 31.48291016 C41.53464844 44.62946037 46.80660069 57.27373201 53.26074219 69.44873047 C54.37920553 71.56363353 55.47558856 73.68912673 56.5703125 75.81640625 C60.40270098 83.21492109 64.3618144 90.40013218 69 97.3359375 C72.45587844 102.86945715 72.30038222 109.17445586 71.3125 115.4375 C69.38080781 120.41849721 66.41465702 124.90642948 63.578125 129.41113281 C51.29873097 149.07142804 41.343345 170.36825381 34.76171875 192.6015625 C34.50680664 193.45282715 34.25189453 194.3040918 33.98925781 195.18115234 C33.51368984 196.79349739 33.05459953 198.41084302 32.61621094 200.03369141 C30.67825152 206.67418055 27.5671501 211.38901838 21.65698242 215.10888672 C17.48498848 216.76623332 14.05249861 216.87019929 9.609375 216.8359375 C8.35438202 216.84024277 8.35438202 216.84024277 7.07403564 216.84463501 C5.30227991 216.84667132 3.53050146 216.84117177 1.75878906 216.82861328 C-0.88791549 216.81279632 -3.5330353 216.82834846 -6.1796875 216.84765625 C-21.83840718 216.86937075 -36.76986661 215.01065414 -51.625 209.875 C-52.63224121 209.53130371 -53.63948242 209.18760742 -54.67724609 208.83349609 C-75.51674787 201.45263355 -92.87814731 189.68223295 -108.6875 174.4375 C-109.85539062 173.36435547 -109.85539062 173.36435547 -111.046875 172.26953125 C-115.47808518 168.0818805 -119.20011582 163.59142054 -122.7734375 158.67578125 C-123.24877426 158.02416519 -123.72411102 157.37254913 -124.21385193 156.70118713 C-129.12566439 149.91465019 -133.78986492 142.97080415 -138.37963867 135.96362305 C-139.77322855 133.83959643 -141.17835907 131.72349778 -142.58398438 129.60742188 C-143.48507496 128.2374393 -144.38549189 126.86701334 -145.28515625 125.49609375 C-145.69967545 124.87415634 -146.11419464 124.25221893 -146.54127502 123.61143494 C-150.47063241 117.56804574 -152.77277441 111.71723842 -151.6875 104.4375 C-149.47908079 98.05592516 -145.99382092 92.47166601 -142.21484375 86.921875 C-141.69169083 86.14418762 -141.1685379 85.36650024 -140.62953186 84.56524658 C-139.5261577 82.92929912 -138.41920452 81.29576033 -137.30883789 79.66455078 C-135.64342491 77.21460441 -133.99388808 74.75452768 -132.34570312 72.29296875 C-107.69902182 35.74425561 -74.70114614 10.49183555 -30.88916016 1.95849609 C-20.66304845 0.21801832 -10.34613656 0.09773232 0 0 Z M-48.26953125 75.69140625 C-48.76917892 76.19292709 -49.2688266 76.69444794 -49.78361511 77.21116638 C-50.82990855 78.26414023 -51.87261959 79.32068487 -52.91186523 80.38061523 C-54.50569913 82.00581127 -56.11015134 83.61989927 -57.71679688 85.23242188 C-64.03783621 90.97768464 -64.03783621 90.97768464 -67.1875 98.5625 C-66.66352222 102.62332782 -66.34543329 103.23800942 -63.74145508 106.08618164 C-63.10325836 106.78526642 -62.46506165 107.4843512 -61.80752563 108.20462036 C-58.03852632 112.17425246 -54.19945651 116.06777812 -50.32421875 119.93359375 C-49.45102493 120.80774429 -48.57783112 121.68189484 -47.67817688 122.58253479 C-45.84649384 124.41489427 -44.01356365 126.24600784 -42.17944336 128.07592773 C-40.2990357 129.95273402 -38.42003517 131.83080548 -36.54370117 133.71166992 C-33.82736795 136.43415351 -31.10762689 139.15318323 -28.38671875 141.87109375 C-27.12271492 143.13813393 -27.12271492 143.13813393 -25.83317566 144.43077087 C-24.6660479 145.59317039 -24.6660479 145.59317039 -23.4753418 146.77905273 C-22.79030075 147.46329819 -22.1052597 148.14754364 -21.39945984 148.8525238 C-18.95690304 151.11390535 -17.81694421 151.42256413 -14.4375 151.8125 C-9.64000779 151.33275078 -7.91127913 149.96830572 -4.6875 146.4375 C-3.41580754 142.92164436 -3.3878157 141.23153409 -4.70605469 137.73876953 C-7.36010135 133.31688449 -10.74457489 130.10518685 -14.453125 126.5546875 C-15.99763674 125.04321488 -17.54190032 123.53148865 -19.0859375 122.01953125 C-21.520149 119.65389603 -23.95825671 117.29247961 -26.40136719 114.93603516 C-28.76262343 112.65291917 -31.10851534 110.35487663 -33.453125 108.0546875 C-34.56231293 106.99832596 -34.56231293 106.99832596 -35.69390869 105.92062378 C-36.36500671 105.25958649 -37.03610474 104.59854919 -37.72753906 103.91748047 C-38.32471741 103.3404538 -38.92189575 102.76342712 -39.53717041 102.16891479 C-40.6875 100.4375 -40.6875 100.4375 -40.45318604 98.32098389 C-39.55234771 96.10504368 -38.50500646 94.92580501 -36.78125 93.2734375 C-35.91306641 92.42652344 -35.91306641 92.42652344 -35.02734375 91.5625 C-34.11662109 90.69625 -34.11662109 90.69625 -33.1875 89.8125 C-31.98749559 88.65580785 -30.78948026 87.49704751 -29.59375 86.3359375 C-29.06072266 85.82724121 -28.52769531 85.31854492 -27.97851562 84.79443359 C-25.87250704 82.58089431 -25.67035328 81.28889513 -25.3125 78.1875 C-25.79224922 73.39000779 -27.15669428 71.66127913 -30.6875 68.4375 C-38.20794072 65.71734059 -43.17425739 70.54469633 -48.26953125 75.69140625 Z " fill="#000000" transform="translate(184.6875,263.5625)"/>
</svg>
