<?xml version="1.0" encoding="UTF-8"?>
<svg version="1.1" xmlns="http://www.w3.org/2000/svg" width="512" height="512">
<path d="M0 0 C-1.63168522 3.85335832 -4.214891 6.76028252 -6.9375 9.875 C-10.89667524 14.47214041 -14.72403483 19.13990011 -18.4375 23.9375 C-22.69341825 29.41986804 -27.12462079 34.71838589 -31.66430664 39.96728516 C-35.3645038 44.2469302 -38.97497468 48.58958596 -42.54296875 52.98046875 C-45.57600041 56.70786696 -48.63122899 60.41665201 -51.6875 64.125 C-52.28199951 64.84703613 -52.87649902 65.56907227 -53.48901367 66.31298828 C-56.52971814 70.00547583 -59.57407979 73.69485406 -62.625 77.37890625 C-65.54637597 80.9077404 -68.45303493 84.4482975 -71.35253906 87.99511719 C-72.93935464 89.92619744 -74.54289296 91.84230163 -76.1484375 93.7578125 C-86.5844512 106.38376246 -91.21997836 118.41860402 -90 135 C-87.31537208 148.69927274 -80.35716379 158.46531804 -69.15234375 166.58203125 C-61.56970229 171.57749196 -53.93759793 172.95014306 -45 174 C-45 174.33 -45 174.66 -45 175 C-99.78 175 -154.56 175 -211 175 C-219.67930087 148.96209739 -204.29677617 108.98883005 -192.90625 85.66015625 C-173.28523479 46.63667134 -138.43445846 16.21482941 -97.015625 2.27734375 C-86.49323003 -1.09472526 -75.93661195 -3.46864577 -65 -5 C-64.06542969 -5.13148438 -63.13085938 -5.26296875 -62.16796875 -5.3984375 C-41.02124899 -7.8022121 -20.53022684 -4.94646401 0 0 Z " fill="#000000" transform="translate(301,337)"/>
<path d="M0 0 C13.79317728 6.92473798 25.48928138 15.87128414 36.52880859 26.58007812 C37.87369879 27.87810026 39.2423658 29.1513704 40.61328125 30.421875 C73.49146021 61.67449806 87.27924098 106.60856238 88.94921875 150.75390625 C88.98362061 151.64408447 89.01802246 152.5342627 89.0534668 153.45141602 C89 156 89 156 88 161 C33.55 161 -20.9 161 -77 161 C-77 160.67 -77 160.34 -77 160 C-76.27296875 159.91363281 -75.5459375 159.82726562 -74.796875 159.73828125 C-60.39510897 157.72572677 -50.81840729 152.5630175 -41.03125 141.84375 C-34.1109597 132.15534358 -31.68301258 121.2498715 -28.83203125 109.890625 C-28.34850075 108.00028486 -27.86391467 106.11021446 -27.37834167 104.22039795 C-26.10144587 99.23987186 -24.83797261 94.25603993 -23.57763672 89.27130127 C-22.32924381 84.34176256 -21.06980944 79.41505245 -19.81054688 74.48828125 C-19.31270421 72.53984321 -18.81489126 70.59139759 -18.31710815 68.64294434 C-18.0716412 67.68216476 -17.82617424 66.72138519 -17.57326889 65.73149109 C-16.83431645 62.83707594 -16.09669395 59.94232477 -15.35940552 57.04748535 C-12.2747756 44.94227638 -9.15848169 32.84579312 -5.98770714 20.76284027 C-5.54865122 19.08965705 -5.11031743 17.41628416 -4.67273903 15.74271393 C-4.07417761 13.45511713 -3.47258734 11.16834158 -2.86987305 8.88183594 C-2.69383482 8.20793068 -2.51779659 7.53402542 -2.33642387 6.83969879 C-1.7029411 4.44886086 -1.10941094 2.21882188 0 0 Z " fill="#000000" transform="translate(334,351)"/>
<path d="M0 0 C3.9371562 1.3123854 5.5077659 3.8152418 7.9375 7 C8.41622559 7.62011963 8.89495117 8.24023926 9.38818359 8.87915039 C22.45188796 25.95089241 33.80824101 43.55736902 43 63 C43.29616211 63.61891113 43.59232422 64.23782227 43.89746094 64.87548828 C58.48066345 95.62702402 66.99399215 130.19089416 67.3125 164.25 C67.35600586 165.82394531 67.35600586 165.82394531 67.40039062 167.4296875 C67.44980385 173.43529471 67.29934042 177.40036494 63 182 C59.42274989 184.52791081 57.02500644 185.3724453 52.65893555 185.34057617 C51.09788338 185.34023628 51.09788338 185.34023628 49.5052948 185.33988953 C48.3936647 185.32440567 47.28203461 185.30892181 46.13671875 185.29296875 C44.41603935 185.28660149 44.41603935 185.28660149 42.66059875 185.28010559 C39.00265879 185.26333484 35.345273 185.22568435 31.6875 185.1875 C29.20508609 185.17245114 26.72266353 185.15876309 24.24023438 185.14648438 C18.15996769 185.11343649 12.08002344 185.0632524 6 185 C6.00797607 184.05060547 6.01595215 183.10121094 6.02416992 182.12304688 C6.14857339 156.28589958 2.60243635 131.42570564 -6 107 C-6.40476562 105.84371094 -6.80953125 104.68742187 -7.2265625 103.49609375 C-14.20177764 84.91591542 -24.04040994 67.78649516 -36 52 C-37.11765709 50.50946659 -38.23484926 49.01858443 -39.3515625 47.52734375 C-40.23422215 46.35144775 -41.11697715 45.17562328 -42 44 C-40.54131246 40.64000982 -38.69131052 38.44796894 -36.10107422 35.87402344 C-34.90005569 34.67323151 -34.90005569 34.67323151 -33.67477417 33.44818115 C-32.81014557 32.59387512 -31.94551697 31.73956909 -31.0546875 30.859375 C-30.1696756 29.97719299 -29.2846637 29.09501099 -28.37283325 28.18609619 C-26.02549869 25.84805457 -23.67393215 23.51444126 -21.32019043 21.18286133 C-18.91686073 18.80003474 -16.51922233 16.41149652 -14.12109375 14.0234375 C-9.41928533 9.34368138 -4.71181336 4.66968133 0 0 Z " fill="#000000" transform="translate(445,327)"/>
<path d="M0 0 C3.35999018 1.45868754 5.55203106 3.30868948 8.12597656 5.89892578 C8.92650452 6.6996048 9.72703247 7.50028381 10.55181885 8.32522583 C11.40612488 9.18985443 12.26043091 10.05448303 13.140625 10.9453125 C14.02280701 11.8303244 14.90498901 12.7153363 15.81390381 13.62716675 C18.15194543 15.97450131 20.48555874 18.32606785 22.81713867 20.67980957 C25.19996526 23.08313927 27.58850348 25.48077767 29.9765625 27.87890625 C34.65631862 32.58071467 39.33031867 37.28818664 44 42 C42.56972096 45.76366713 41.06499818 48.37473949 38.4375 51.4375 C33.79340052 57.09959955 29.88677457 63.0901155 26.04638672 69.31103516 C25.10886537 70.82428123 24.1514033 72.32513049 23.19140625 73.82421875 C5.27523487 102.82938304 -1.74330377 136.45509499 -4 170 C-4.0650473 170.96371521 -4.0650473 170.96371521 -4.13140869 171.94689941 C-4.4246788 176.29768817 -4.71366575 180.64874858 -5 185 C-12.15319672 185.10156178 -19.30620695 185.17153366 -26.45996094 185.21972656 C-28.89264881 185.23982071 -31.32528851 185.26710088 -33.7578125 185.30175781 C-37.25793355 185.3503706 -40.75741502 185.37299139 -44.2578125 185.390625 C-45.34240753 185.41127014 -46.42700256 185.43191528 -47.54446411 185.45318604 C-53.70071891 185.45500844 -57.32452474 185.13531528 -62 181 C-66.00151682 176.46551159 -65.49679024 171.24181648 -65.4375 165.5 C-65.42920166 164.45046143 -65.42090332 163.40092285 -65.41235352 162.31958008 C-64.15593101 101.30931293 -37.93685299 46.41685542 0 0 Z " fill="#000000" transform="translate(65,327)"/>
<path d="M0 0 C51.41260826 0 104.80166164 22.49406087 144 55 C145.95581746 56.56564803 147.91390358 58.12846937 149.875 59.6875 C151.25052331 60.79101468 152.62574984 61.89490022 154 63 C152.54131246 66.35999018 150.69131052 68.55203106 148.10107422 71.12597656 C147.3003952 71.92650452 146.49971619 72.72703247 145.67477417 73.55181885 C144.81014557 74.40612488 143.94551697 75.26043091 143.0546875 76.140625 C142.1696756 77.02280701 141.2846637 77.90498901 140.37283325 78.81390381 C138.02549869 81.15194543 135.67393215 83.48555874 133.32019043 85.81713867 C130.91686073 88.19996526 128.51922233 90.58850348 126.12109375 92.9765625 C121.41928533 97.65631862 116.71181336 102.33031867 112 107 C108.23633287 105.56972096 105.62526051 104.06499818 102.5625 101.4375 C72.56478975 76.98188871 37.57481432 67.26246905 0 61 C0 40.87 0 20.74 0 0 Z " fill="#000000" transform="translate(271,242)"/>
<path d="M0 0 C0 20.13 0 40.26 0 61 C-14.355 63.475 -14.355 63.475 -29 66 C-59.06941957 73.95955224 -85.86548797 87.35718882 -110 107 C-113.35999018 105.54131246 -115.55203106 103.69131052 -118.12597656 101.10107422 C-118.92650452 100.3003952 -119.72703247 99.49971619 -120.55181885 98.67477417 C-121.83327789 97.37783127 -121.83327789 97.37783127 -123.140625 96.0546875 C-124.02280701 95.1696756 -124.90498901 94.2846637 -125.81390381 93.37283325 C-128.15194543 91.02549869 -130.48555874 88.67393215 -132.81713867 86.32019043 C-135.19996526 83.91686073 -137.58850348 81.51922233 -139.9765625 79.12109375 C-144.65631862 74.41928533 -149.33031867 69.71181336 -154 65 C-152.66900977 61.0070293 -150.04574699 59.39791581 -146.8125 56.9375 C-146.18102051 56.45144287 -145.54954102 55.96538574 -144.89892578 55.46459961 C-142.94024482 53.96602619 -140.97181917 52.48123016 -139 51 C-138.43555176 50.57235352 -137.87110352 50.14470703 -137.28955078 49.70410156 C-98.72397514 20.64990403 -48.8082078 0 0 0 Z " fill="#000000" transform="translate(241,242)"/>
<path d="M0 0 C4.63371633 0.62497137 8.43321411 2.56035706 12.5625 4.625 C36.33969123 16.1198992 62.16336413 22.20888769 88 27 C87.88930176 27.7120459 87.77860352 28.4240918 87.66455078 29.15771484 C87.14135631 32.5620177 86.63328044 35.96843958 86.125 39.375 C85.95097656 40.49261719 85.77695313 41.61023438 85.59765625 42.76171875 C83.71383346 55.52985102 82.99908768 68.01186022 82 81 C46.36 81 10.72 81 -26 81 C-23.83953728 52.91398469 -16.53399007 23.37564113 0 0 Z " fill="#000000" transform="translate(100,86)"/>
<path d="M0 0 C14.30729617 23.71301864 26 52.8985002 26 81 C-9.64 81 -45.28 81 -82 81 C-82.66 72.42 -83.32 63.84 -84 55 C-84.64693542 49.76312862 -85.31431608 44.58139228 -86.125 39.375 C-86.30675781 38.15683594 -86.48851562 36.93867187 -86.67578125 35.68359375 C-87.10902272 32.78771653 -87.55018677 29.89334011 -88 27 C-87.2471875 26.8548999 -86.494375 26.7097998 -85.71875 26.56030273 C-57.73909729 21.11250476 -30.49203658 14.37040715 -5.12451172 0.93994141 C-3 0 -3 0 0 0 Z " fill="#000000" transform="translate(412,86)"/>
<path d="M0 0 C7.83838254 -0.27651325 15.07491685 0.42203129 22.75 2 C23.82765625 2.22002686 24.9053125 2.44005371 26.015625 2.66674805 C65.97790379 11.27135962 97.8016178 32.16074548 126 61 C125 64 125 64 122.46484375 65.54296875 C106.32971095 73.06555005 89.51001224 78.39113849 72.1875 82.4375 C71.13328857 82.68443604 70.07907715 82.93137207 68.99291992 83.18579102 C62.34347151 84.66772843 55.79740367 85.55780376 49 86 C48.56171875 84.77410156 48.1234375 83.54820313 47.671875 82.28515625 C36.92051738 52.82759556 23.09401678 25.86555433 1.6171875 2.828125 C0 1 0 1 0 0 Z " fill="#000000" transform="translate(268,0)"/>
<path d="M0 0 C-1.1446875 1.299375 -1.1446875 1.299375 -2.3125 2.625 C-23.9233602 27.94784325 -37.65482132 54.8437328 -49 86 C-74.90561159 84.08239086 -103.43619065 75.97106231 -126 63 C-114.73400984 38.05655888 -76.44086574 19.28832323 -52.26660156 9.94335938 C-42.14885229 6.27010561 -31.88774108 3.55004852 -21.3125 1.5625 C-20.44052979 1.39830566 -19.56855957 1.23411133 -18.67016602 1.06494141 C-12.41458601 -0.00184613 -6.33744952 -0.17034119 0 0 Z " fill="#000000" transform="translate(244,0)"/>
<path d="M0 0 C13.93379272 -0.02333048 27.86758243 -0.04091349 41.80139065 -0.05181217 C48.2706768 -0.05704168 54.73994989 -0.06414056 61.20922852 -0.07543945 C67.446703 -0.08626592 73.68416487 -0.09227632 79.92164803 -0.09487724 C82.30720277 -0.09673193 84.69275679 -0.10035336 87.0783062 -0.10573006 C90.40695591 -0.11293729 93.73555279 -0.11399108 97.06420898 -0.11352539 C98.06114273 -0.11712067 99.05807648 -0.12071594 100.08522034 -0.12442017 C100.98690948 -0.1230455 101.88859863 -0.12167084 102.81761169 -0.12025452 C103.6057447 -0.12117631 104.3938777 -0.1220981 105.20589352 -0.12304783 C107 0 107 0 108 1 C108.15825258 2.99782126 108.25119171 5.00088834 108.31640625 7.00390625 C108.35830078 8.21884766 108.40019531 9.43378906 108.44335938 10.68554688 C108.48267578 11.96494141 108.52199219 13.24433594 108.5625 14.5625 C108.60568359 15.84576172 108.64886719 17.12902344 108.69335938 18.45117188 C108.799848 21.63399853 108.90185962 24.81690674 109 28 C108.19594727 28.25579834 107.39189453 28.51159668 106.56347656 28.77514648 C90.27089696 33.9917934 74.34706787 39.35769738 59 47 C58.14116211 47.42394043 57.28232422 47.84788086 56.39746094 48.28466797 C45.92269607 53.49539706 35.85216456 59.0475279 26.23950195 65.73583984 C24.540094 66.89607142 22.77447141 67.95818624 21 69 C18 68 18 68 16.16796875 64.66796875 C15.49258241 63.18130446 14.83355549 61.6871432 14.1875 60.1875 C13.83856689 59.38723389 13.48963379 58.58696777 13.13012695 57.76245117 C6.34413488 41.743289 1.47620255 24.44537244 0.42578125 7.05078125 C0.3834436 6.36777954 0.34110596 5.68477783 0.29748535 4.9810791 C0.19504219 3.32091863 0.09704566 1.66048473 0 0 Z " fill="#000000" transform="translate(74,195)"/>
<path d="M0 0 C35.31 0 70.62 0 107 0 C107 20.624385 100.98838638 41.3565875 92.8125 60.1875 C92.47959961 60.96061523 92.14669922 61.73373047 91.80371094 62.53027344 C90.95590618 64.3954439 89.98711889 66.20466437 89 68 C86 69 86 69 84.28027344 68.20239258 C83.64637695 67.77079834 83.01248047 67.3392041 82.359375 66.89453125 C81.63057129 66.41153564 80.90176758 65.92854004 80.15087891 65.4309082 C79.35858887 64.8968335 78.56629883 64.36275879 77.75 63.8125 C52.897025 47.62520717 26.30591513 36.53580988 -2 28 C-1.86162204 23.70805854 -1.71304061 19.41653071 -1.5625 15.125 C-1.52318359 13.90167969 -1.48386719 12.67835938 -1.44335938 11.41796875 C-1.40146484 10.25136719 -1.35957031 9.08476562 -1.31640625 7.8828125 C-1.27974854 6.80402832 -1.24309082 5.72524414 -1.20532227 4.61376953 C-1 2 -1 2 0 0 Z " fill="#000000" transform="translate(331,195)"/>
<path d="M0 0 C1.23089355 0.04713135 2.46178711 0.0942627 3.72998047 0.14282227 C4.7328434 0.17837471 4.7328434 0.17837471 5.75596619 0.21464539 C7.19912684 0.26583162 8.6422162 0.31905956 10.0852356 0.37408447 C13.88171535 0.51699221 17.67884158 0.63901597 21.47607422 0.76000977 C22.23264816 0.78419983 22.98922211 0.80838989 23.76872253 0.83331299 C41.61986608 1.38756606 59.38908787 0.91231666 77.22216797 0.02172852 C79.09608239 5.05128237 79.9947488 9.9917151 80.78466797 15.27172852 C80.91397705 16.1221875 81.04328613 16.97264648 81.17651367 17.84887695 C82.81316921 28.77666784 83.22216797 38.78983755 83.22216797 50.02172852 C52.86216797 50.02172852 22.50216797 50.02172852 -8.77783203 50.02172852 C-8.77783203 40.56865722 -8.67427053 31.94549566 -7.40283203 22.70922852 C-7.27650391 21.71600586 -7.15017578 20.7227832 -7.02001953 19.69946289 C-4.44103926 0.03473831 -4.44103926 0.03473831 0 0 Z " fill="#000000" transform="translate(218.77783203125,116.978271484375)"/>
<path d="M0 0 C3.94406731 1.3146891 5.33929023 3.78502014 7.625 7.0625 C8.28314697 7.99872192 8.28314697 7.99872192 8.95458984 8.95385742 C19.64957078 24.4540806 28.70055915 41.90519868 34 60 C32.45592909 61.54407091 30.94409043 61.21648176 28.79296875 61.31640625 C27.90673828 61.35846191 27.02050781 61.40051758 26.10742188 61.44384766 C25.14384766 61.48300293 24.18027344 61.5221582 23.1875 61.5625 C21.69766602 61.6251001 21.69766602 61.6251001 20.17773438 61.68896484 C3.07162305 62.35504833 -13.91059644 61.92163163 -31 61 C-32 59 -32 59 -31.55371094 57.27026367 C-30.63140953 54.90377457 -29.70605767 52.54063405 -28.75 50.1875 C-28.39083496 49.3011084 -28.03166992 48.4147168 -27.66162109 47.50146484 C-21.18357668 31.89987756 -13.31921185 17.38032133 -3 4 C-1.99894657 2.66745739 -0.99846324 1.33448452 0 0 Z " fill="#000000" transform="translate(255,29)"/>
<path d="M0 0 C1.52761378 3.05522757 0.26531691 5.72759351 -0.55126953 8.89306641 C-0.72840988 9.60227234 -0.90555023 10.31147827 -1.08805847 11.04217529 C-1.67873538 13.39728795 -2.28016422 15.74948671 -2.8828125 18.1015625 C-3.29847085 19.73858079 -3.71390352 21.37565641 -4.12911987 23.01278687 C-5.00354708 26.45238395 -5.88382531 29.89042455 -6.76757812 33.32763672 C-7.89474511 37.7153019 -9.00273977 42.10755278 -10.10565376 46.50136757 C-10.95920735 49.88919787 -11.82546359 53.27368684 -12.69521713 56.65739059 C-13.10867526 58.27404429 -13.51769869 59.89183928 -13.92206192 61.51079178 C-18.40302081 79.40302081 -18.40302081 79.40302081 -25.5 86.5 C-30.94232236 88.83242387 -36.17203224 88.73499211 -42 88 C-46.50665768 85.86526742 -49.1741532 83.08177871 -52 79 C-52.93942726 76.18171822 -53.22582627 74.18778331 -53.3125 71.25 C-53.36857422 70.02023437 -53.36857422 70.02023437 -53.42578125 68.765625 C-52.43658381 62.34037923 -47.91709538 57.42114536 -43.75 52.6875 C-42.76067674 51.54126312 -41.77240132 50.39412105 -40.78515625 49.24609375 C-40.06610107 48.41247314 -40.06610107 48.41247314 -39.33251953 47.56201172 C-37.56938653 45.49522444 -35.8733795 43.38010693 -34.1875 41.25 C-28.85240893 34.52409089 -23.36484277 27.92368633 -17.89941406 21.30371094 C-15.9479523 18.93687377 -14.00076244 16.56658029 -12.0546875 14.1953125 C-11.41740723 13.41937744 -10.78012695 12.64344238 -10.12353516 11.84399414 C-8.89587954 10.34901868 -7.66896399 8.85343511 -6.44287109 7.35717773 C-5.61263428 6.34699585 -5.61263428 6.34699585 -4.765625 5.31640625 C-4.27868164 4.72287354 -3.79173828 4.12934082 -3.29003906 3.51782227 C-2 2 -2 2 0 0 Z " fill="#000000" transform="translate(292,394)"/>
<path d="M0 0 C31.02 0 62.04 0 94 0 C93 17 93 17 92 21 C89.56236201 20.8562497 87.1249105 20.71002168 84.6875 20.5625 C84.01654297 20.52318359 83.34558594 20.48386719 82.65429688 20.44335938 C79.6410116 20.25944995 76.63769947 20.06787819 73.63525391 19.74829102 C64.76180667 18.80392816 55.91320566 18.80447109 47 18.8125 C46.17973328 18.8117749 45.35946655 18.8110498 44.51434326 18.81030273 C33.77007914 18.81135313 23.19637894 19.0664792 12.5390625 20.5625 C8.9881102 21.00146982 5.57397806 21.07388068 2 21 C0.29456846 14.17827385 0.41291414 7.01954032 0 0 Z " fill="#000000" transform="translate(209,195)"/>
</svg>
