<?xml version="1.0" encoding="UTF-8"?>
<svg version="1.1" xmlns="http://www.w3.org/2000/svg" width="512" height="512">
<path d="M0 0 C3.6110356 3.13641439 5.65898554 6.442262 8.0078125 10.56640625 C8.97245919 12.20140625 9.93865496 13.83549311 10.90625 15.46875 C11.39834961 16.30647949 11.89044922 17.14420898 12.39746094 18.00732422 C14.7316748 21.93067579 17.18052878 25.77865678 19.6328125 29.62890625 C20.64110103 31.21975047 21.64890044 32.81090479 22.65625 34.40234375 C23.43693848 35.63549316 23.43693848 35.63549316 24.23339844 36.89355469 C32.51023213 49.99241582 40.69865414 63.14496377 48.7578125 76.37890625 C49.35899902 77.36600586 49.96018555 78.35310547 50.57958984 79.37011719 C56.33411654 88.84717167 56.33411654 88.84717167 55.8828125 95.50390625 C53.52242584 100.57483182 49.47251958 104.0994521 45.51171875 107.9296875 C44.03553118 109.38057851 42.55962858 110.83175949 41.08398438 112.28320312 C38.76615984 114.55147738 36.44528323 116.81643468 34.11889648 119.07592773 C31.86586652 121.26822655 29.62570772 123.47306296 27.38671875 125.6796875 C26.69494034 126.34454666 26.00316193 127.00940582 25.29042053 127.69441223 C18.98651542 133.93285137 14.84410755 140.71455169 14.4453125 149.75390625 C14.83300462 188.48004105 40.95974435 228.52150041 66.8828125 255.50390625 C67.50043457 256.15407715 68.11805664 256.80424805 68.75439453 257.47412109 C82.29981135 271.67193211 96.73371473 283.83945408 113.8828125 293.50390625 C114.89819092 294.08519287 114.89819092 294.08519287 115.93408203 294.67822266 C131.86731444 303.73095479 148.45507587 310.15834392 166.2578125 314.50390625 C167.10714355 314.71184814 167.95647461 314.91979004 168.83154297 315.1340332 C178.34286356 317.29810983 186.03231545 316.91700458 194.8828125 312.50390625 C204.23559259 305.32069526 212.30245309 296.12184674 220.51928711 287.69604492 C222.28606973 285.8869527 224.06216039 284.08743546 225.83984375 282.2890625 C226.63996635 281.46100853 226.63996635 281.46100853 227.45625305 280.6162262 C230.38862596 277.66391012 232.77778288 275.42748898 236.8828125 274.50390625 C241.95964152 274.76319894 245.31799944 275.98288506 249.5859375 278.6796875 C250.63861816 279.33654541 251.69129883 279.99340332 252.77587891 280.67016602 C254.43756104 281.73255493 254.43756104 281.73255493 256.1328125 282.81640625 C257.3018966 283.5517741 258.47166418 284.2860564 259.64208984 285.01928711 C261.98234266 286.48832658 264.31805304 287.9641554 266.64941406 289.44726562 C269.41783535 291.20815213 272.19124572 292.96052754 274.96875 294.70703125 C277.9961139 296.61236517 281.01904711 298.52444841 284.0390625 300.44140625 C288.64093971 303.3579806 293.26341496 306.24094178 297.88769531 309.12182617 C306.19749605 314.3008217 314.50397553 319.48605312 322.7578125 324.75390625 C323.45922363 325.19549072 324.16063477 325.6370752 324.88330078 326.09204102 C327.92568906 328.04753204 329.84958449 329.45406424 331.8828125 332.50390625 C332.95773551 339.60748567 331.33361117 345.04999729 328.09082031 351.28662109 C327.68759552 352.10095612 327.28437073 352.91529114 326.868927 353.75430298 C325.54377758 356.41792402 324.19065671 359.06615663 322.8359375 361.71484375 C321.90235077 363.57350749 320.97030675 365.43294683 320.03973389 367.29312134 C318.09141802 371.17745778 316.13011037 375.05483409 314.15820312 378.92724609 C311.63269839 383.88751277 309.13192916 388.85972883 306.63969803 393.83678246 C304.71792678 397.67146451 302.78749052 401.50172661 300.85396576 405.33049393 C299.9289162 407.1628583 299.00556709 408.99608216 298.08396149 410.83018112 C296.79489852 413.39019787 295.49531003 415.94457611 294.19238281 418.49755859 C293.8140329 419.25292908 293.43568298 420.00829956 293.04586792 420.78656006 C290.52164138 425.69469569 288.37555872 429.67299084 282.8828125 431.50390625 C212.47514031 435.45200002 131.26263145 389.86059094 77.8828125 348.50390625 C77.34382324 348.08963379 76.80483398 347.67536133 76.24951172 347.24853516 C69.64733806 342.16950609 63.15729595 336.97347713 56.8203125 331.56640625 C56.31580566 331.13739014 55.81129883 330.70837402 55.29150391 330.26635742 C44.5874211 321.03979118 34.42177942 311.22953596 24.43359375 301.23999023 C22.62518124 299.4337843 20.80886111 297.63578283 18.9921875 295.83789062 C12.87475561 289.74914687 7.0820457 283.60888762 1.734375 276.82299805 C-0.05156869 274.58609416 -1.92189725 272.47753718 -3.8671875 270.37890625 C-10.07424331 263.45896086 -15.55922632 255.94581419 -21.1171875 248.50390625 C-21.93243896 247.41795166 -21.93243896 247.41795166 -22.76416016 246.31005859 C-38.84992443 224.80267049 -52.44248689 201.63737365 -64.15380859 177.48388672 C-65.11577474 175.50680982 -66.09464586 173.53871333 -67.07421875 171.5703125 C-82.80833887 139.53041737 -107.89533539 82.93537837 -100.1171875 46.50390625 C-96.93433152 41.5287966 -93.01370589 39.52119211 -87.87963867 36.98901367 C-86.63741798 36.35881317 -86.63741798 36.35881317 -85.37010193 35.71588135 C-82.63941585 34.33482601 -79.90031159 32.97153397 -77.16015625 31.609375 C-75.25417833 30.6530941 -73.34852801 29.69615999 -71.44319153 28.73860168 C-67.45164412 26.73615413 -63.4557893 24.74264276 -59.45678711 22.75512695 C-54.33672632 20.20938647 -49.22876183 17.64037538 -44.12388134 15.0643568 C-40.19201426 13.08381761 -36.25364155 11.11650945 -32.3132267 9.15303993 C-30.42729797 8.21115132 -28.54349013 7.26500346 -26.66188622 6.31450462 C-24.02875511 4.98666887 -21.38729181 3.67710024 -18.74291992 2.37182617 C-17.97020752 1.97759964 -17.19749512 1.58337311 -16.40136719 1.17720032 C-10.7087699 -1.59752171 -6.00635309 -2.88274841 0 0 Z " fill="#000000" transform="translate(100.1171875,76.49609375)"/>
<path d="M0 0 C7.60784002 0.58791231 14.95968983 1.89051133 22.4375 3.375 C40.86437478 6.89843912 59.41976218 9.08518735 78.17553711 9.70996094 C83.9069891 9.9069891 83.9069891 9.9069891 85 11 C85.09506198 13.55593815 85.12555454 16.08464306 85.11352539 18.64086914 C85.11364593 19.4537889 85.11376646 20.26670866 85.11389065 21.10426235 C85.11314147 23.74792104 85.10551303 26.3915101 85.09765625 29.03515625 C85.09618685 30.66239386 85.09516613 32.28963194 85.09460449 33.91687012 C85.08935143 39.9654206 85.07539035 46.01396097 85.0625 52.0625 C85.041875 65.571875 85.02125 79.08125 85 93 C52 93 19 93 -15 93 C-13.83015398 64.92369543 -13.83015398 64.92369543 -12.3125 54.625 C-12.14169922 53.4280249 -11.97089844 52.2310498 -11.79492188 50.99780273 C-9.20747874 33.74023791 -5.15319268 16.67209395 0 0 Z " fill="#000000" transform="translate(221,101)"/>
<path d="M0 0 C2.73683142 5.84723626 4.39711936 11.73979999 5.9375 18 C6.19692383 19.05018311 6.45634766 20.10036621 6.72363281 21.18237305 C12.51054714 45.17081809 15 68.23496774 15 93 C-17.67 93 -50.34 93 -84 93 C-84 65.61 -84 38.22 -84 10 C-68.16 9.01 -68.16 9.01 -52 8 C-38.11261262 6.24210286 -24.39940911 4.37279881 -10.76831055 1.21923828 C-7.10731089 0.37722956 -3.7624782 -0.20616319 0 0 Z " fill="#000000" transform="translate(407,101)"/>
<path d="M0 0 C33 0 66 0 100 0 C100 27.06 100 54.12 100 82 C81.19 83.485 81.19 83.485 62 85 C55.35813877 85.90759787 48.82238295 86.83702117 42.25 88.0625 C40.77371919 88.32256765 39.29715187 88.58101381 37.8203125 88.83789062 C30.52606556 90.1177172 23.2522599 91.50025018 16 93 C3.05951849 65.82105556 0 29.77666937 0 0 Z " fill="#000000" transform="translate(206,211)"/>
<path d="M0 0 C32.67 0 65.34 0 99 0 C99 23.37578125 99 23.37578125 97.375 35.0625 C97.1996875 36.36888428 97.024375 37.67526855 96.84375 39.02124023 C95.01779499 52.18298428 92.23367978 65.11678687 89 78 C88.6896582 79.2377417 88.6896582 79.2377417 88.37304688 80.50048828 C86.26469763 88.74627792 86.26469763 88.74627792 85 92 C82.09351905 93.45324048 80.27614222 92.57984937 77.12109375 91.890625 C75.90276855 91.6318457 74.68444336 91.37306641 73.42919922 91.10644531 C72.77916931 90.96646118 72.1291394 90.82647705 71.45941162 90.68225098 C47.75030828 85.61364018 24.31775375 83.73698241 0 82 C0 54.94 0 27.88 0 0 Z " fill="#000000" transform="translate(323,211)"/>
<path d="M0 0 C4.78815575 3.33164936 7.55843309 7.31444434 10.6875 12.125 C11.20860352 12.9205127 11.72970703 13.71602539 12.26660156 14.53564453 C28.0821829 38.98096943 38.41936147 64.82338106 43.375 93.5625 C43.54290039 94.52510742 43.71080078 95.48771484 43.88378906 96.47949219 C45.00984926 103.54472951 45 109.66497806 45 117 C20.91 117 -3.18 117 -28 117 C-28.99 102.15 -28.99 102.15 -30 87 C-32.56428367 66.11940437 -35.83153265 45.29305591 -42.44702148 25.25830078 C-43.05678777 22.76808526 -43.09490394 20.5542395 -43 18 C-42.16529175 17.71503662 -42.16529175 17.71503662 -41.3137207 17.42431641 C-27.05617617 12.51194292 -13.48072754 6.75495782 0 0 Z " fill="#000000" transform="translate(467,77)"/>
<path d="M0 0 C24.09 0 48.18 0 73 0 C73 40.47787694 57.28045415 80.01816785 33 112 C32.08927734 113.21623047 32.08927734 113.21623047 31.16015625 114.45703125 C30.77730469 114.96621094 30.39445312 115.47539062 30 116 C24.70355341 114.38803799 19.82037982 112.13772619 14.8125 109.8125 C5.05429934 105.34044667 -4.87868764 101.56077845 -15 98 C-14.4579742 92.12329927 -13.20225959 86.66564171 -11.67651367 80.96923828 C-8.59455501 69.42915066 -6.07644203 57.91410037 -4.1875 46.125 C-3.99317383 44.96033203 -3.79884766 43.79566406 -3.59863281 42.59570312 C-1.43910001 28.40882504 -0.96269597 14.44043951 0 0 Z " fill="#000000" transform="translate(439,211)"/>
<path d="M0 0 C1.03755432 0.00565979 2.07510864 0.01131958 3.144104 0.01715088 C6.45591492 0.03953009 9.76664144 0.08973081 13.078125 0.140625 C15.32420312 0.16068794 17.57029821 0.17893906 19.81640625 0.1953125 C25.32068209 0.23939982 30.82432607 0.30632759 36.328125 0.390625 C37.10182828 3.90229213 37.51986447 7.28269479 37.72265625 10.87109375 C39.42453413 38.38547801 43.20730018 65.93078545 51.77514648 92.234375 C52.328125 94.390625 52.328125 94.390625 52.328125 98.390625 C48.41281016 99.87338743 44.49564877 101.35120957 40.578125 102.828125 C39.46695313 103.24900391 38.35578125 103.66988281 37.2109375 104.10351562 C36.14101562 104.50634766 35.07109375 104.90917969 33.96875 105.32421875 C32.98422852 105.69603271 31.99970703 106.06784668 30.98535156 106.45092773 C26.53905877 108.02330746 26.53905877 108.02330746 24.328125 108.390625 C0.0047501 92.55795592 -15.21569087 51.45205814 -21.30078125 24.6171875 C-22.98642899 14.50330106 -22.98642899 14.50330106 -20.25 10.10546875 C-18.4758277 8.0773017 -16.64361019 6.22610207 -14.671875 4.390625 C-14.19234375 3.70178223 -13.7128125 3.01293945 -13.21875 2.30322266 C-9.14448442 -0.75638208 -4.95394252 -0.1015213 0 0 Z " fill="#000000" transform="translate(152.671875,210.609375)"/>
<path d="M0 0 C0 29.37 0 58.74 0 89 C-22.33787879 89 -22.33787879 89 -32.25 87.875 C-33.39952148 87.74955811 -34.54904297 87.62411621 -35.73339844 87.49487305 C-49.96442853 85.82046585 -63.9846544 82.93672502 -78 80 C-73.68531689 55.00449967 -51.87192045 27.13373216 -31.69140625 12.4453125 C-22.4238255 6.08968337 -11.47130469 0 0 0 Z " fill="#000000" transform="translate(306,5)"/>
<path d="M0 0 C17.17152352 2.14644044 29.71109378 10.21145641 42 22 C42.75023437 22.68707031 43.50046875 23.37414062 44.2734375 24.08203125 C59.46845197 38.45065019 70.60961861 58.59413098 78 78 C78 78.66 78 79.32 78 80 C62.6321766 83.24153966 47.32032753 86.24218907 31.6875 87.875 C30.02231323 88.05446167 30.02231323 88.05446167 28.32348633 88.23754883 C18.7782915 89.15160766 9.71239942 89 0 89 C0 59.63 0 30.26 0 0 Z " fill="#000000" transform="translate(323,5)"/>
<path d="M0 0 C5.17388773 1.55216632 9.80443337 3.80095716 14.625 6.1875 C24.47690198 10.97739116 34.60179321 14.59236848 45 18 C44.43281928 23.53001203 43.3622983 28.61395499 41.75 33.9375 C34.86030322 57.87452061 31.26053814 82.70867983 30.2109375 107.57421875 C30 111 30 111 29 117 C19.43 117 9.86 117 0 117 C1.98 114.36 3.96 111.72 6 109 C6.96279556 107.6004017 7.90889135 106.1885208 8.8125 104.75 C9.21082031 104.12609375 9.60914063 103.5021875 10.01953125 102.859375 C11.89513192 99.302459 12.20219028 95.85776146 12.3125 91.875 C12.36857422 90.57175781 12.36857422 90.57175781 12.42578125 89.2421875 C11.26644795 80.4142367 6.42942098 73.04691499 1.625 65.75 C0.72201172 64.34729858 0.72201172 64.34729858 -0.19921875 62.91625977 C-3.45420813 57.8648768 -6.7631173 52.8520031 -10.1015625 47.85546875 C-10.75463379 46.86385742 -11.40770508 45.87224609 -12.08056641 44.85058594 C-13.34050446 42.93840317 -14.61581247 41.03624182 -15.90771484 39.14550781 C-16.47441895 38.28151367 -17.04112305 37.41751953 -17.625 36.52734375 C-18.13289062 35.77187256 -18.64078125 35.01640137 -19.1640625 34.23803711 C-20 32 -20 32 -19.26391602 29.42626953 C-17.58458175 26.20254461 -15.81227156 23.05036605 -13.9375 19.9375 C-13.54699463 19.28644287 -13.15648926 18.63538574 -12.75415039 17.96459961 C-8.90436783 11.65692033 -4.57076496 5.80260233 0 0 Z " fill="#000000" transform="translate(160,77)"/>
<path d="M0 0 C1.02915527 0.00211487 1.02915527 0.00211487 2.07910156 0.00427246 C3.75065482 0.0079126 5.42220361 0.01351561 7.09375 0.01953125 C10.61684157 43.36981799 10.61684157 43.36981799 2.95703125 53.4921875 C-2.59427681 59.6661508 -9.03660211 65.78986545 -17.53515625 67.05078125 C-25.68408286 67.32929229 -34.9446865 65.85968488 -41.65234375 61.05078125 C-44.03038385 58.50742285 -45.96076098 55.90794886 -47.90625 53.01953125 C-48.73085308 51.85351709 -49.5564218 50.6881854 -50.3828125 49.5234375 C-58.33206891 38.10935196 -66.95489895 25.42821432 -70.90625 12.01953125 C-70.57625 11.02953125 -70.24625 10.03953125 -69.90625 9.01953125 C-46.84471878 4.10382219 -23.65294919 -0.06512376 0 0 Z " fill="#000000" transform="translate(298.90625,309.98046875)"/>
<path d="M0 0 C9.8312803 -0.11033333 19.39657743 0.17414513 29.1875 1.1875 C30.46036865 1.31697021 31.7332373 1.44644043 33.04467773 1.57983398 C66.93412255 5.23955164 66.93412255 5.23955164 78 10 C75.33576909 17.93660365 71.99725895 25.19601208 67.9375 32.5 C67.5142041 33.26489746 67.0909082 34.02979492 66.65478516 34.81787109 C64.3831351 38.83244797 62.01896826 42.48600461 59 46 C53.80178129 44.27776188 49.49074084 41.21200866 44.9375 38.25 C28.95875305 27.25582768 28.95875305 27.25582768 10.375 25.8125 C6.82789631 26.68938623 3.48906528 27.83697824 0 29 C0 19.43 0 9.86 0 0 Z " fill="#000000" transform="translate(323,310)"/>
<path d="M0 0 C-1.67369647 4.09457887 -4.5903018 7.06619499 -7.5 10.3125 C-20.86717971 25.62027117 -31.39940271 43.58046094 -38.84375 62.47265625 C-40 65 -40 65 -42 66 C-43.79321289 65.59790039 -43.79321289 65.59790039 -45.97265625 64.84765625 C-46.78250977 64.56929932 -47.59236328 64.29094238 -48.42675781 64.00415039 C-49.7314502 63.53803345 -49.7314502 63.53803345 -51.0625 63.0625 C-51.94905273 62.74982178 -52.83560547 62.43714355 -53.74902344 62.11499023 C-62.44289421 58.97295405 -70.73431063 55.12213783 -79 51 C-69.13844361 27.90180909 -30.83941586 11.62955777 -9.23608398 2.79272461 C-2.27308803 0 -2.27308803 0 0 0 Z " fill="#000000" transform="translate(252,14)"/>
<path d="M0 0 C27.39102459 6.91359996 52.61224798 23.61609899 73.25 42.4375 C73.81130615 42.94571289 74.3726123 43.45392578 74.95092773 43.97753906 C77.43694615 46.29094425 78.9087789 47.72633671 80 51 C70.86535904 55.55548804 61.71180955 59.64589158 52.0625 63 C51.19270508 63.30236572 50.32291016 63.60473145 49.42675781 63.91625977 C43.29330047 66 43.29330047 66 41 66 C40.27296875 64.31197266 40.27296875 64.31197266 39.53125 62.58984375 C30.82897923 42.56627874 20.93943887 24.05037974 5.84765625 8.02734375 C3.55216138 5.50860836 1.76119135 2.90979441 0 0 Z " fill="#000000" transform="translate(376,14)"/>
<path d="M0 0 C13.49478822 3.7785407 26.25939563 9.20881619 39 15 C31.91594773 30.98361543 9.34091372 42.44949559 -5 51 C-6.73254356 50.08973193 -8.46088734 49.17146832 -10.1875 48.25 C-11.63189453 47.48429687 -11.63189453 47.48429687 -13.10546875 46.703125 C-15.97313264 45.01580859 -18.4567893 43.13871467 -21 41 C-20.67837891 40.45287354 -20.35675781 39.90574707 -20.02539062 39.34204102 C-8.64694182 20.33553207 -8.64694182 20.33553207 0 0 Z " fill="#000000" transform="translate(417,324)"/>
<path d="M0 0 C0.4846875 1.13695312 0.969375 2.27390625 1.46875 3.4453125 C5.75125174 13.35667594 10.41195065 22.75593963 16 32 C15.01 32.33 14.02 32.66 13 33 C10.37680235 31.6342526 7.9728752 30.22750802 5.5 28.625 C4.78529541 28.16963867 4.07059082 27.71427734 3.33422852 27.24511719 C-2.83352869 23.24733004 -8.4498667 18.82179355 -14 14 C-14.73476562 13.39800781 -15.46953125 12.79601562 -16.2265625 12.17578125 C-17.8591183 10.83266263 -19.43730222 9.42379131 -21 8 C-21 7.34 -21 6.68 -21 6 C-18.25262623 4.99222971 -15.50250048 3.99358554 -12.75 3 C-11.97269531 2.71382813 -11.19539062 2.42765625 -10.39453125 2.1328125 C-9.64042969 1.86210937 -8.88632813 1.59140625 -8.109375 1.3125 C-7.41811523 1.06113281 -6.72685547 0.80976563 -6.01464844 0.55078125 C-4 0 -4 0 0 0 Z " fill="#000000" transform="translate(212,325)"/>
</svg>
