<?xml version="1.0" encoding="UTF-8"?>
<svg version="1.1" xmlns="http://www.w3.org/2000/svg" width="512" height="512">
<path d="M0 0 C0.83358244 -0.00551417 1.66716487 -0.01102833 2.52600738 -0.0167096 C5.3198453 -0.03030733 8.11279394 -0.01540613 10.90661526 -0.00063419 C12.92953665 -0.00452695 14.9524553 -0.01016719 16.97536749 -0.01740509 C22.53483671 -0.03218114 28.09402332 -0.02196561 33.65348351 -0.00766838 C39.64877388 0.00342516 45.64402408 -0.0084958 51.63931179 -0.01751041 C62.70510184 -0.03064948 73.77081151 -0.02565385 84.83659348 -0.01143513 C95.05860594 0.00161487 105.28058583 0.00681296 115.50260639 0.00424671 C116.18056439 0.0040863 116.85852238 0.00392588 117.55702456 0.0037606 C120.30904211 0.00309702 123.06105964 0.00239461 125.81307716 0.00163526 C151.62981628 -0.00538907 177.44649806 0.01010377 203.26322259 0.03625872 C226.2035705 0.05937646 249.14385538 0.06476103 272.0842123 0.05452633 C277.95901169 0.05192435 283.83381107 0.04933935 289.70861053 0.04692841 C290.43185157 0.04663096 291.1550926 0.04633351 291.90025002 0.04602705 C311.06581145 0.03841386 330.2313677 0.04482275 349.39692682 0.05562443 C351.45890108 0.05677224 353.52087535 0.05791542 355.58284962 0.05905125 C356.95072368 0.0598065 358.31859772 0.06057214 359.68647176 0.06134826 C369.90314918 0.06700869 380.11981029 0.06567523 390.33648777 0.06112003 C401.9515786 0.05601496 413.56661772 0.06215277 425.18169529 0.08201433 C431.11047374 0.09190187 437.03915272 0.09697564 442.96793652 0.08912182 C448.39163656 0.08208394 453.81513557 0.08882529 459.23880904 0.10672545 C461.2043694 0.11078222 463.16994797 0.1097496 465.13550163 0.10320658 C467.80113277 0.09509029 470.46608095 0.10532724 473.13166809 0.12025452 C474.28421747 0.11014804 474.28421747 0.11014804 475.46005067 0.09983739 C480.21595874 0.15156674 483.46579029 0.98036293 487.50291348 3.50057125 C491.44747437 7.87157116 492.62710708 10.26753829 492.63713455 16.08666515 C492.6415924 17.28175174 492.64605024 18.47683833 492.65064317 19.70813966 C492.65055386 21.04619711 492.650364 22.38425455 492.6500845 23.72231197 C492.65338221 25.13456949 492.65710758 26.54682605 492.66122597 27.95908141 C492.67126463 31.85372027 492.67496576 35.74834372 492.67761528 39.64299369 C492.68151282 43.83807486 492.69109153 48.03314377 492.69982815 52.22821712 C492.71960817 62.36616989 492.72966071 72.50412368 492.73855594 82.64209092 C492.74293632 87.41310226 492.74830378 92.18411249 492.75354481 96.95512295 C492.77055862 112.80971325 492.78505358 128.66430284 492.79229355 144.51890087 C492.79420353 148.63502408 492.79612385 152.75114728 492.79807949 156.86727047 C492.79856323 157.89034647 492.79904697 158.91342247 492.79954537 159.96750078 C492.80784858 176.54676185 492.83318972 193.12595085 492.86566017 209.70518044 C492.89870593 226.71648086 492.91674006 243.72774463 492.91993779 260.73907733 C492.92210519 270.2944703 492.93088742 279.84975815 492.95639896 289.4051199 C492.97807207 297.5417242 492.98617314 305.67819787 492.97643218 313.81482777 C492.9718776 317.96748353 492.97384057 322.11986957 492.99319363 326.27248859 C493.01075597 330.07364587 493.00988449 333.87433526 492.99429633 337.67549703 C492.99077842 339.70302872 493.00699814 341.73056493 493.02390081 343.75802922 C492.9448646 354.86171517 492.9448646 354.86171517 488.50291348 359.50057125 C482.87553791 364.15261169 476.19262937 364.08058535 469.22166348 364.04646969 C468.11834179 364.05680737 467.0150201 364.06714504 465.87826443 364.07779598 C462.25299722 364.10715363 458.62829005 364.10872173 455.00291348 364.10994625 C452.48084865 364.12493256 449.95879363 364.14166065 447.43675137 364.16005611 C441.49067631 364.19923742 435.54470251 364.22092985 429.59852791 364.23403001 C422.82449213 364.24993889 416.05064141 364.28837064 409.27671337 364.32862329 C395.35217585 364.41086605 381.42764302 364.46505551 367.50291348 364.50057125 C369.14568264 365.41827297 369.14568264 365.41827297 370.82163906 366.35451412 C372.2746839 367.1684245 373.72768449 367.98241387 375.18064785 368.79646969 C375.90056911 369.19836514 376.62049038 369.60026058 377.36222744 370.01433468 C382.74179297 373.03136218 387.93933412 376.22480692 393.00291348 379.75057125 C393.78988613 380.29431393 394.57685879 380.8380566 395.3876791 381.39827633 C403.42823762 387.02844617 411.04380311 393.12608689 418.50291348 399.50057125 C419.07106777 399.98219723 419.63922207 400.4638232 420.22459316 400.96004391 C430.81879622 409.99812515 430.81879622 409.99812515 431.83885098 416.71150875 C431.93730581 422.16590657 431.30483255 426.38981281 427.50291348 430.50057125 C422.80196397 433.94725441 418.34876028 435.25836621 412.50291348 434.50057125 C408.39989696 432.70788542 405.39426511 430.72985163 402.19041348 427.62557125 C352.17846875 381.44337004 286.6142661 362.14672134 219.61595058 364.41268063 C210.80116321 364.77932689 202.16719855 365.87020297 193.50291348 367.50057125 C192.4737582 367.69393063 191.44460293 367.88729 190.38426113 368.08650875 C173.84453361 371.32010158 158.14764327 376.27165105 142.50291348 382.50057125 C141.67855801 382.82783199 140.85420254 383.15509274 140.0048666 383.49227047 C121.94222834 390.79378539 104.95916236 400.66088256 89.50291348 412.50057125 C88.65084316 413.15283688 87.79877285 413.8051025 86.92088223 414.47713375 C83.17587419 417.41747932 79.53620029 420.46075129 75.95213223 423.59432125 C75.33015957 424.13588863 74.70818691 424.67745602 74.0673666 425.23543453 C72.84289223 426.30541617 71.62384892 427.38165458 70.4111166 428.46492672 C66.2144856 432.13997644 62.85880299 434.23386678 57.19041348 434.87557125 C52.00445275 434.34818541 47.72097003 432.89880607 44.10838223 428.99275875 C41.16760207 424.52443554 40.52069375 419.73022762 41.50291348 414.50057125 C43.48838506 409.50680939 46.41920618 406.26207281 50.37791348 402.75057125 C50.95307705 402.23180416 51.52824062 401.71303707 52.1208334 401.17854977 C57.99417741 395.94846533 64.13495284 391.11265382 70.50291348 386.50057125 C71.10442226 386.06390133 71.70593105 385.62723141 72.32566738 385.17732906 C80.14312098 379.54973484 88.16430655 374.43427672 96.52635098 369.652915 C97.39477627 369.153363 98.26320156 368.653811 99.15794277 368.13912106 C101.27151886 366.92377844 103.38650874 365.71097902 105.50291348 364.50057125 C104.92791607 364.49910469 104.35291866 364.49763813 103.76049709 364.49612713 C89.74595426 364.45901657 75.73164635 364.39994583 61.71729946 364.31666851 C54.93994169 364.27692072 48.16269932 364.24450674 41.38523769 364.22957516 C34.84283878 364.21514058 28.30074012 364.17998054 21.75849819 364.13226223 C19.26432818 364.11744168 16.77010711 364.10952985 14.27589321 364.1086874 C10.77826342 364.10631817 7.28162251 364.07923946 3.78416348 364.04646969 C2.24235661 364.05401524 2.24235661 364.05401524 0.66940212 364.06171322 C-5.32375298 363.9750196 -10.73087987 363.44070033 -15.49708652 359.50057125 C-20.92859592 353.82085041 -20.05594595 347.29153404 -20.0050211 339.79781246 C-20.00963154 338.38209724 -20.01598542 336.9663868 -20.02393007 335.55068636 C-20.04062711 331.66495582 -20.03237552 327.77961827 -20.0199852 323.89388633 C-20.0109385 319.70158174 -20.02490254 315.50934494 -20.03590488 311.31705379 C-20.05369878 303.10616282 -20.04984626 294.89541804 -20.03825432 286.68452132 C-20.02922369 280.01183886 -20.02799439 273.3391974 -20.03234959 266.66651058 C-20.03296252 265.71710695 -20.03357545 264.76770333 -20.03420696 263.78952989 C-20.03548585 261.86088247 -20.0367827 259.93223506 -20.03809732 258.00358766 C-20.04950567 239.91527315 -20.03638542 221.8270397 -20.01489586 203.73873848 C-19.99702465 188.21546114 -20.00012868 172.69230346 -20.0185709 157.16902828 C-20.03997311 139.14579342 -20.04840701 121.12262962 -20.03612185 103.09938383 C-20.03484764 101.17779987 -20.03359016 99.2562159 -20.03234959 97.33463192 C-20.03173248 96.3891563 -20.03111538 95.44368067 -20.03047958 94.46955428 C-20.02702473 87.8042727 -20.03285793 81.13903616 -20.0422678 74.47376156 C-20.05348195 66.35187089 -20.05046006 58.23013487 -20.02914482 50.10826194 C-20.0186265 45.963695 -20.01452578 41.81938598 -20.02774143 37.6748209 C-20.03965517 33.88119862 -20.03312008 30.08807349 -20.01183122 26.29449636 C-20.00524197 24.27115203 -20.01831041 22.24777323 -20.03206015 20.22446489 C-19.93400228 8.91502994 -19.93400228 8.91502994 -15.49708652 4.50057125 C-10.12910578 0.85517228 -6.41848424 -0.08086114 0 0 Z M149.56541348 139.12557125 C149.03343349 139.56876705 148.50145351 140.01196285 147.95335293 140.46858883 C140.88930834 146.37340897 140.88930834 146.37340897 137.26463223 154.45369625 C137.08473857 160.02093137 137.74358614 163.11468936 141.50291348 167.50057125 C144.71764976 170.32564253 147.3628899 171.34096795 151.62791348 171.93807125 C159.03498302 171.10178921 163.9365825 166.09517858 169.19041348 161.12557125 C189.54872679 142.34787232 217.97268612 136.41938491 244.81834316 137.35262203 C267.88003173 138.62357358 289.23265679 148.48646008 306.50291348 163.50057125 C308.18059503 164.84623786 309.86747703 166.18055389 311.56541348 167.50057125 C312.27826504 168.05744625 312.9911166 168.61432125 313.72556973 169.18807125 C317.35829508 171.87069921 320.01112821 171.8000236 324.50291348 171.50057125 C329.84030821 169.51213008 332.95625171 166.59389477 335.50291348 161.50057125 C335.77698732 159.49501624 335.77698732 159.49501624 335.81541348 157.25057125 C335.85279629 156.502915 335.8901791 155.75525875 335.92869473 154.98494625 C334.33261267 145.67202713 323.24620864 138.16212597 315.94431973 132.8482275 C264.98602396 97.19307063 197.49314408 99.11450503 149.56541348 139.12557125 Z M186.50291348 186.50057125 C185.87256191 187.07678219 185.24221035 187.65299313 184.59275723 188.246665 C180.9704629 191.95459277 179.57371965 195.15995898 179.33494473 200.35994625 C179.70422874 205.06617043 181.64453324 207.72593543 185.06541348 210.81307125 C189.54320689 213.91308208 193.13722417 214.14043199 198.50291348 213.50057125 C201.58247645 211.97705202 201.58247645 211.97705202 204.50291348 209.50057125 C216.91055391 200.16777364 227.88819406 196.36554492 243.50291348 197.50057125 C253.79871609 199.45383209 262.08395503 204.15280227 270.19041348 210.65682125 C273.94770022 213.65249582 276.48495108 213.83859494 281.18260098 213.7857275 C285.5673896 213.24685617 288.19645547 210.71692871 291.31541348 207.81307125 C293.71732114 203.13567212 294.09832867 198.36124374 292.50291348 193.37557125 C283.75699789 180.8033176 269.89761583 173.65826441 255.50291348 169.50057125 C254.68822598 169.25564938 253.87353848 169.0107275 253.03416348 168.75838375 C229.65646938 162.91396023 203.96282817 170.38619127 186.50291348 186.50057125 Z M223.50291348 234.50057125 C222.14698116 238.56836819 221.97215763 242.24725384 222.50291348 246.50057125 C224.5043296 250.36044521 226.59739597 253.49503524 230.50291348 255.50057125 C234.97397089 256.60337509 238.42114807 256.86796327 242.81541348 255.37557125 C246.29432009 252.9484271 248.60670608 250.29298605 250.50291348 246.50057125 C250.93303167 242.29037587 250.97287698 238.6136427 249.31541348 234.68807125 C246.78840843 231.63823757 244.05372781 229.27597842 240.50291348 227.50057125 C233.16225745 226.88884992 228.35847768 228.622783 223.50291348 234.50057125 Z " fill="#000000" transform="translate(19.49708652496338,38.49942874908447)"/>
</svg>
