<?xml version="1.0" encoding="UTF-8"?>
<svg version="1.1" xmlns="http://www.w3.org/2000/svg" width="512" height="512">
<path d="M0 0 C12.0299601 9.99098381 18.12984101 22.70389256 21.16015625 37.85546875 C21.24265625 38.92796875 21.32515625 40.00046875 21.41015625 41.10546875 C21.4875 42.04132812 21.4875 42.04132812 21.56640625 42.99609375 C22.26082041 58.62041246 16.57542261 72.980543 6.60546875 84.7890625 C0.21111428 91.53613047 -6.98909919 96.59061339 -15.58984375 100.10546875 C-16.36070312 100.42515625 -17.1315625 100.74484375 -17.92578125 101.07421875 C-31.78065914 105.79449261 -48.12063591 104.17622935 -61.58984375 99.10546875 C-61.95110352 99.62230225 -62.31236328 100.13913574 -62.68457031 100.67163086 C-70.47228627 111.81081965 -78.27991778 122.93538231 -86.12646484 134.03320312 C-87.60241215 136.12326665 -89.07508697 138.21559964 -90.546875 140.30859375 C-95.12511686 146.81491186 -99.7225689 153.30404874 -104.39941406 159.73999023 C-109.61912224 166.92374277 -114.75205645 174.15909055 -119.77734375 181.48046875 C-120.60673462 182.68485596 -120.60673462 182.68485596 -121.45288086 183.91357422 C-122.22257202 185.04110107 -122.22257202 185.04110107 -123.0078125 186.19140625 C-123.45922607 186.85188965 -123.91063965 187.51237305 -124.37573242 188.19287109 C-125.5927432 190.11003627 -126.61152939 192.05770157 -127.58984375 194.10546875 C-126.73712891 195.14380859 -126.73712891 195.14380859 -125.8671875 196.203125 C-114.43147006 210.69345812 -107.7636542 226.33095001 -108.58984375 245.10546875 C-107.68390976 245.18159645 -107.68390976 245.18159645 -106.75967407 245.25926208 C-100.56421577 245.82324849 -94.52816437 246.75790162 -88.42578125 247.953125 C-87.50769684 248.12927841 -86.58961243 248.30543182 -85.64370728 248.48692322 C-82.74993584 249.04312819 -79.85739085 249.60543519 -76.96484375 250.16796875 C-74.98705748 250.54923461 -73.00919352 250.93009766 -71.03125 251.31054688 C-66.21653822 252.23753871 -61.40291536 253.16999987 -56.58984375 254.10546875 C-56.13383789 253.36216309 -55.67783203 252.61885742 -55.20800781 251.85302734 C-54.29100098 250.3808374 -54.29100098 250.3808374 -53.35546875 248.87890625 C-52.75508789 247.90872559 -52.15470703 246.93854492 -51.53613281 245.93896484 C-44.59796968 235.83807155 -34.21679801 230.97445746 -22.58984375 228.10546875 C-9.4705823 226.84905841 2.74848353 229.14606331 13.41015625 237.10546875 C14.42078125 237.82734375 15.43140625 238.54921875 16.47265625 239.29296875 C25.84432765 247.46445335 30.70113653 259.14374172 31.56640625 271.30078125 C32.08922861 284.85059405 27.82332109 295.91021064 18.84765625 305.98046875 C18.04328125 306.68171875 17.23890625 307.38296875 16.41015625 308.10546875 C15.48203125 308.95109375 14.55390625 309.79671875 13.59765625 310.66796875 C3.85641271 318.63124753 -8.52417233 321.01893282 -20.828125 319.90234375 C-31.74610767 318.25839219 -43.99718559 312.32788253 -50.65234375 303.35546875 C-56.66073656 294.97453109 -60.58984375 285.56778201 -60.58984375 275.10546875 C-61.87173584 274.97857666 -63.15362793 274.85168457 -64.47436523 274.72094727 C-69.52102095 274.15851116 -74.46036764 273.25180076 -79.4375 272.2578125 C-80.78345497 271.99358238 -80.78345497 271.99358238 -82.15660095 271.72401428 C-84.98920845 271.16711804 -87.82077774 270.60513384 -90.65234375 270.04296875 C-92.58652186 269.6617709 -94.52076609 269.28090834 -96.45507812 268.90039062 C-101.16743937 267.97262203 -105.87887727 267.04029272 -110.58984375 266.10546875 C-110.91307617 266.97792236 -111.23630859 267.85037598 -111.56933594 268.74926758 C-112.00407227 269.90450928 -112.43880859 271.05975098 -112.88671875 272.25 C-113.31307617 273.39057861 -113.73943359 274.53115723 -114.17871094 275.70629883 C-117.73143629 284.26418726 -123.16791239 291.11556652 -129.4765625 297.81640625 C-131.63966538 300.15943451 -133.62499512 302.59507524 -135.58984375 305.10546875 C-135.19531006 305.68474121 -134.80077637 306.26401367 -134.39428711 306.86083984 C-125.35477149 320.13630106 -116.3367197 333.42607575 -107.33984375 346.73046875 C-106.36939078 348.16536865 -105.39893177 349.60026447 -104.4284668 351.03515625 C-100.47259629 356.88439505 -96.51696534 362.73379547 -92.5625 368.58398438 C-90.11877229 372.19907058 -87.67403805 375.81347426 -85.2286377 379.4274292 C-84.31054183 380.7846407 -83.39281082 382.14209909 -82.47546387 383.49981689 C-81.20722268 385.37680684 -79.93774106 387.25295189 -78.66796875 389.12890625 C-77.9502832 390.19028809 -77.23259766 391.25166992 -76.49316406 392.34521484 C-74.90860346 394.64319358 -73.2862503 396.88949611 -71.58984375 399.10546875 C-70.02734375 398.79296875 -68.46484375 398.48046875 -66.90234375 398.16796875 C-65.13151042 397.81380208 -63.36067708 397.45963542 -61.58984375 397.10546875 C-60.76871094 396.92371094 -59.94757813 396.74195313 -59.1015625 396.5546875 C-45.26260733 394.07960221 -31.38677716 397.82545374 -19.58984375 405.10546875 C-8.69959909 412.85266308 -1.62975834 424.6246222 1.1640625 437.609375 C3.61856339 452.66055973 1.07547879 467.44472013 -7.91015625 479.984375 C-16.12178598 490.35394464 -27.22577718 498.33831945 -40.58984375 500.10546875 C-57.60435487 501.44197846 -71.65254111 499.01978158 -85.1875 487.98828125 C-96.17252853 477.88139225 -101.69913092 464.5589761 -102.5546875 449.765625 C-102.6888795 435.79474718 -98.03799341 424.04534795 -89.58984375 413.10546875 C-92.07734438 408.262018 -94.77529807 403.72649789 -98.02734375 399.35546875 C-101.73527723 394.3545474 -105.21520061 389.23331589 -108.65234375 384.04296875 C-115.05709267 374.38134067 -121.52965537 364.76726435 -128.02734375 355.16796875 C-128.52155823 354.43772491 -129.01577271 353.70748108 -129.52496338 352.95510864 C-137.85225377 340.6530036 -146.20488 328.36835181 -154.58984375 316.10546875 C-156.18699219 316.52119141 -156.18699219 316.52119141 -157.81640625 316.9453125 C-175.49565764 321.41790688 -193.20369793 323.34969122 -210.35546875 315.8125 C-212.9933745 314.97777807 -214.02032092 315.15849226 -216.58984375 316.10546875 C-218.02663905 317.50132405 -218.02663905 317.50132405 -219.18359375 319.32421875 C-219.65023437 320.00033203 -220.116875 320.67644531 -220.59765625 321.37304688 C-221.09007812 322.10974609 -221.5825 322.84644531 -222.08984375 323.60546875 C-223.16246715 325.16817008 -224.23539212 326.73066446 -225.30859375 328.29296875 C-226.12650391 329.49566406 -226.12650391 329.49566406 -226.9609375 330.72265625 C-229.46142336 334.38044133 -232.02640877 337.99166713 -234.58984375 341.60546875 C-235.59020216 343.02188235 -236.59020104 344.43854995 -237.58984375 345.85546875 C-239.58984375 348.68880208 -241.58984375 351.52213542 -243.58984375 354.35546875 C-244.08540771 355.05752441 -244.58097168 355.75958008 -245.09155273 356.48291016 C-246.08583053 357.89145687 -247.08013368 359.29998568 -248.07446289 360.70849609 C-250.66222691 364.37424745 -253.24947425 368.04036197 -255.8359375 371.70703125 C-256.37025391 372.46435547 -256.90457031 373.22167969 -257.45507812 374.00195312 C-258.4682643 375.4380344 -259.48129698 376.874224 -260.49414062 378.31054688 C-260.95755859 378.96732422 -261.42097656 379.62410156 -261.8984375 380.30078125 C-262.34171387 380.93532227 -262.78499023 381.56986328 -263.24169922 382.22363281 C-264.16072175 383.50646976 -265.1093045 384.76851614 -266.08251953 386.01074219 C-267.68529607 388.03287218 -267.68529607 388.03287218 -269.58984375 391.10546875 C-269.11244398 394.50714301 -267.63662882 396.81078891 -265.77734375 399.66796875 C-256.56308058 414.71572228 -254.68329811 430.75264978 -258.68359375 447.75390625 C-263.07971184 464.01196368 -272.22929056 476.76890481 -286.66796875 485.50390625 C-303.53495549 494.74917973 -320.10053346 496.26114181 -338.58984375 491.10546875 C-354.19952001 485.83720301 -367.05630411 474.68530418 -374.58984375 460.10546875 C-381.81606742 442.8449034 -383.24363521 425.09438908 -376.1484375 407.5390625 C-372.41643889 399.51223487 -367.92124906 393.25977182 -361.58984375 387.10546875 C-360.97625 386.47125 -360.36265625 385.83703125 -359.73046875 385.18359375 C-348.89976119 374.72316679 -334.033134 370.16292188 -319.27734375 369.66796875 C-308.20311986 369.90871275 -297.20035207 372.4993389 -287.58984375 378.10546875 C-281.21688154 370.03212834 -275.22224967 361.77691856 -269.4375 353.2734375 C-265.08538015 346.87980512 -260.59485152 340.58344882 -256.12353516 334.27294922 C-254.56083762 332.064476 -253.00243947 329.85302882 -251.4453125 327.640625 C-250.9292041 326.9079541 -250.4130957 326.1752832 -249.88134766 325.42041016 C-248.86534645 323.97702549 -247.85066566 322.53271034 -246.83740234 321.08740234 C-244.61607882 317.9285987 -242.3770852 314.79623244 -240.0234375 311.734375 C-239.28222656 310.76371094 -238.54101562 309.79304688 -237.77734375 308.79296875 C-237.13152344 307.97183594 -236.48570312 307.15070313 -235.8203125 306.3046875 C-234.3975539 304.21889419 -234.3975539 304.21889419 -234.6953125 302.00390625 C-235.74036535 299.78602117 -236.87392763 298.65686606 -238.71484375 297.04296875 C-251.74601669 284.51915705 -258.46677309 265.32316 -258.88134766 247.54589844 C-258.9707827 237.41685996 -257.54092689 228.79880755 -254.58984375 219.10546875 C-254.2096314 217.78851062 -253.8319441 216.47082034 -253.45703125 215.15234375 C-253.17085937 214.146875 -252.8846875 213.14140625 -252.58984375 212.10546875 C-253.60820312 211.32945312 -254.6265625 210.5534375 -255.67578125 209.75390625 C-265.60180263 202.18156318 -275.47789664 194.54781529 -285.32373047 186.87158203 C-289.07680601 183.94659297 -292.83345349 181.02619887 -296.58984375 178.10546875 C-301.1033575 174.59604757 -305.61609197 171.0856501 -310.125 167.5703125 C-320.23607477 159.69067733 -330.39393274 151.87501106 -340.58984375 144.10546875 C-341.37488281 144.51539063 -342.15992188 144.9253125 -342.96875 145.34765625 C-344.01933594 145.88648438 -345.06992187 146.4253125 -346.15234375 146.98046875 C-347.18488281 147.51414063 -348.21742188 148.0478125 -349.28125 148.59765625 C-359.92556579 153.44854869 -372.87413468 153.93241131 -384.08984375 150.54296875 C-397.11417473 145.40889637 -405.51503145 136.47676782 -411.3671875 123.9765625 C-416.61314828 111.6577728 -415.47080878 99.43632777 -410.58984375 87.10546875 C-405.14361979 74.29082414 -395.1054127 67.22812023 -382.58984375 62.10546875 C-370.96265429 58.11085151 -358.58565498 59.84269285 -347.46484375 64.73046875 C-335.87532169 71.05641621 -327.54356814 81.6765813 -323.58984375 94.10546875 C-320.72198807 105.57689147 -322.94482618 116.20104642 -326.58984375 127.10546875 C-319.01599778 133.20225762 -311.42877029 139.27317375 -303.70703125 145.18212891 C-299.08779856 148.71734095 -294.49229914 152.28233781 -289.90234375 155.85546875 C-289.144375 156.44537598 -288.38640625 157.0352832 -287.60546875 157.64306641 C-284.48239674 160.07409405 -281.35986613 162.50581662 -278.23730469 164.9375 C-269.65899874 171.61706461 -261.07286538 178.28530303 -252.44921875 184.90625 C-248.48343593 187.95643542 -244.53410145 191.02752088 -240.58984375 194.10546875 C-239.44313991 193.25247107 -238.29755441 192.39797008 -237.15234375 191.54296875 C-236.41371094 190.99382812 -235.67507812 190.4446875 -234.9140625 189.87890625 C-233.43353613 188.7492273 -231.97461445 187.59022892 -230.546875 186.39453125 C-214.46292774 173.05662377 -195.1265108 168.81382535 -174.58984375 170.10546875 C-166.24888516 171.19528536 -158.76370317 173.56112134 -151.11328125 177.01953125 C-148.91891733 177.96385504 -146.90370344 178.56272668 -144.58984375 179.10546875 C-144.26411377 178.62416504 -143.93838379 178.14286133 -143.6027832 177.64697266 C-137.00349117 167.91091613 -130.31444508 158.25598337 -123.39990234 148.7409668 C-118.22158674 141.61396517 -113.14119757 134.42041732 -108.07373047 127.21435547 C-105.58335597 123.67505719 -103.08629469 120.14048229 -100.58984375 116.60546875 C-97.48234835 112.20455013 -94.37612425 107.80274802 -91.2734375 103.3984375 C-90.45842773 102.24214844 -90.45842773 102.24214844 -89.62695312 101.0625 C-88.5874032 99.58758301 -87.54831472 98.11234063 -86.50976562 96.63671875 C-84.24586724 93.42564752 -81.97449778 90.22880348 -79.58984375 87.10546875 C-81.03276134 83.97085467 -82.8170139 81.40987695 -84.90234375 78.66796875 C-94.16939594 65.62831703 -96.84140116 49.47966228 -94.20751953 33.83447266 C-90.7691303 18.73097869 -82.28233284 5.38708114 -69.22265625 -3.19140625 C-47.35442549 -16.71406773 -20.75421206 -15.18219132 0 0 Z " fill="#000000" transform="translate(447.58984375,11.89453125)"/>
</svg>
