<?xml version="1.0" encoding="UTF-8"?>
<svg version="1.1" xmlns="http://www.w3.org/2000/svg" width="512" height="512">
<path d="M0 0 C139.92 0 279.84 0 424 0 C424 88.87794803 422.22199303 151.65971606 362 215 C361.38898438 215.65226563 360.77796875 216.30453125 360.1484375 216.9765625 C331.03944389 247.18921463 288.15793572 267.75115302 247 274 C245.29070312 274.2616394 245.29070312 274.2616394 243.546875 274.52856445 C233.13006371 275.9838923 222.88473989 276.36058653 212.375 276.3125 C211.54405823 276.31067719 210.71311646 276.30885437 209.85699463 276.30697632 C196.71702753 276.25858533 183.90287007 275.68373414 171 273 C170.16984375 272.82839355 169.3396875 272.65678711 168.484375 272.47998047 C120.1841853 262.1180341 75.32741426 235.27143135 45 196 C44.57750977 195.45923828 44.15501953 194.91847656 43.71972656 194.36132812 C35.78840229 184.15315181 29.11867468 173.38078302 23 162 C22.63277832 161.31776367 22.26555664 160.63552734 21.88720703 159.93261719 C-4.67441197 109.5541214 0 56.58990631 0 0 Z M151 53 C150.02804688 53.77472656 149.05609375 54.54945313 148.0546875 55.34765625 C134.46734316 66.68369042 124.97510494 85.02344686 121 102 C120.66548828 103.38638672 120.66548828 103.38638672 120.32421875 104.80078125 C115.56551179 128.20585015 120.18371271 153.24878747 133.24462891 173.22583008 C147.5095415 194.03781378 165.90859813 207.27618502 190 214 C190.86238281 214.24621094 191.72476563 214.49242187 192.61328125 214.74609375 C216.40043244 220.24710957 241.64792325 214.41931799 262.15234375 201.91796875 C267.06187765 198.61127308 271.56833676 194.91733666 276 191 C276.63550781 190.44828125 277.27101563 189.8965625 277.92578125 189.328125 C290.56836032 177.58651133 298.81594107 160.46290522 303 144 C303.22558594 143.14535156 303.45117188 142.29070312 303.68359375 141.41015625 C309.05039376 117.38909967 302.68173711 92.58825222 290 72 C287.47534074 68.5345033 284.78289948 65.25914825 282 62 C281.36320313 61.17113281 280.72640625 60.34226562 280.0703125 59.48828125 C266.22562769 42.84853743 243.45067464 33.10921749 222.4375 30.3125 C195.96948468 28.00256412 171.01423217 35.56151249 151 53 Z " fill="#000000" transform="translate(44,182)"/>
<path d="M0 0 C0.83550574 -0.00465992 1.67101149 -0.00931984 2.53183559 -0.01412097 C5.33810491 -0.02609422 8.14389217 -0.01666652 10.95016575 -0.00736332 C12.97976001 -0.01153521 15.00935195 -0.01701192 17.03893954 -0.02368313 C22.62148975 -0.03817538 28.20389281 -0.0338812 33.78645122 -0.02651632 C39.804955 -0.02179631 45.82342641 -0.03428412 51.8419199 -0.04453373 C62.95266867 -0.06075433 74.06337878 -0.06316233 85.17413446 -0.05822874 C95.43868268 -0.0536731 105.70321339 -0.05426882 115.96776104 -0.06006908 C117.34416885 -0.06082595 118.72057666 -0.06158193 120.09698446 -0.06233703 C122.17105777 -0.06348221 124.24513107 -0.06463209 126.31920436 -0.06579627 C145.60417948 -0.07650264 164.88914876 -0.0812251 184.17412567 -0.07332611 C185.26476761 -0.07288035 185.26476761 -0.07288035 186.37744271 -0.07242559 C192.28211877 -0.0699766 198.18679475 -0.06736504 204.09147073 -0.06474145 C227.12565998 -0.05463824 250.15977634 -0.06299527 273.19395542 -0.086236 C299.0688832 -0.11230066 324.94376709 -0.1251587 350.81870848 -0.11804825 C353.57695996 -0.11733218 356.33521145 -0.11665779 359.09346294 -0.1160078 C360.11220155 -0.11575309 360.11220155 -0.11575309 361.15152074 -0.11549323 C371.40916611 -0.11318906 381.66677077 -0.12117284 391.92440701 -0.13429928 C403.58817284 -0.14919842 415.25185983 -0.14969482 426.9156267 -0.13222837 C432.86885786 -0.12369213 438.82190653 -0.12163281 444.77512836 -0.13687992 C450.22240347 -0.15065876 455.66933858 -0.14605172 461.11659367 -0.12664068 C463.08960689 -0.12285941 465.06264692 -0.1258634 467.03563642 -0.13625234 C469.71390275 -0.14935467 472.39098387 -0.13789949 475.06919861 -0.12025452 C475.83843239 -0.12990503 476.60766616 -0.13955554 477.40021005 -0.14949849 C482.88153412 -0.07515413 486.12838985 1.14839148 490.59751987 4.38031673 C506.89800706 31.54779537 493.59751987 67.69786453 493.59751987 99.38031673 C324.63751987 99.38031673 155.67751987 99.38031673 -18.40248013 99.38031673 C-18.40248013 9.38031673 -18.40248013 9.38031673 -14.40248013 3.38031673 C-9.75167127 0.22060752 -5.46740982 -0.04774325 0 0 Z M324.00376987 56.23969173 C321.97225609 60.4778498 321.01469071 63.80810026 321.91783237 68.48969173 C323.32633499 72.40759555 325.85186742 75.24673216 329.35777378 77.52338314 C333.96363915 79.28560109 339.08751731 78.75211464 343.95982456 78.7509222 C345.95901498 78.75528725 347.95804644 78.79230203 349.95689487 78.82953548 C351.86341831 78.83533627 351.86341831 78.83533627 353.80845737 78.84125423 C354.9665189 78.84947201 356.12458042 78.85768978 357.31773472 78.86615658 C362.17118756 78.14720681 365.31239233 75.8796322 368.47251987 72.19281673 C370.44534168 67.26076222 370.4792336 62.46858608 368.41001987 57.56781673 C365.88301483 54.51798306 363.14833421 52.1557239 359.59751987 50.38031673 C355.20767806 50.08083096 350.80886425 50.10212909 346.41001987 50.06781673 C345.18992222 50.03881283 343.96982456 50.00980892 342.71275425 49.97992611 C334.97566422 49.92529158 329.31608402 50.04199189 324.00376987 56.23969173 Z M383.00376987 56.23969173 C380.97225609 60.4778498 380.01469071 63.80810026 380.91783237 68.48969173 C382.32633499 72.40759555 384.85186742 75.24673216 388.35777378 77.52338314 C392.96363915 79.28560109 398.08751731 78.75211464 402.95982456 78.7509222 C404.95901498 78.75528725 406.95804644 78.79230203 408.95689487 78.82953548 C410.86341831 78.83533627 410.86341831 78.83533627 412.80845737 78.84125423 C413.9665189 78.84947201 415.12458042 78.85768978 416.31773472 78.86615658 C421.14910022 78.15047865 424.27624677 75.87775959 427.47251987 72.25531673 C429.17416979 67.90665584 429.4919423 63.97407032 428.59751987 59.38031673 C426.18761039 55.12203008 423.12068221 52.24208049 418.59751987 50.38031673 C414.17181487 49.92461119 409.73176635 50.01000492 405.28501987 50.00531673 C403.46840855 49.96857845 403.46840855 49.96857845 401.615098 49.93109798 C393.93174222 49.90586529 388.27579453 50.0889963 383.00376987 56.23969173 Z " fill="#000000" transform="translate(18.402480125427246,53.619683265686035)"/>
<path d="M0 0 C10.22930733 7.87199489 17.48547759 17.89721304 21.984375 29.96484375 C22.30277344 30.7434375 22.62117188 31.52203125 22.94921875 32.32421875 C28.25783394 47.68740003 25.99292654 66.63950909 19.296875 81.08984375 C10.41859425 97.82114925 -3.41881429 109.08886432 -21.390625 114.83984375 C-38.6899921 119.43234674 -56.22073593 116.7605398 -71.96484375 108.3984375 C-87.51782747 99.04929387 -97.00294214 85.19728569 -102.015625 67.96484375 C-105.79066188 51.28326185 -103.42471157 33.32915286 -94.76171875 18.6171875 C-84.32536422 2.76420154 -70.10271247 -7.75450891 -51.3918457 -11.65795898 C-32.80986536 -14.60763119 -15.52352727 -10.47637009 0 0 Z M-61.640625 32.58984375 C-66.97146702 38.97267012 -69.80189098 46.02003957 -69.39453125 54.390625 C-68.1319438 62.96840985 -64.74185085 70.3681162 -58.015625 75.96484375 C-49.75254147 81.00055271 -42.67564506 82.80126012 -33.015625 81.96484375 C-24.46540921 79.85144295 -18.06199487 75.32977318 -13.203125 68.02734375 C-9.37008978 61.35735812 -7.98645107 54.58073086 -9.015625 46.96484375 C-11.57521862 37.73840162 -15.98287386 30.76160272 -24.14453125 25.625 C-37.51644944 18.90315919 -51.48374256 21.91760153 -61.640625 32.58984375 Z " fill="#000000" transform="translate(295.015625,253.03515625)"/>
</svg>
