<?xml version="1.0" encoding="UTF-8"?>
<svg version="1.1" xmlns="http://www.w3.org/2000/svg" width="512" height="512">
<path d="M0 0 C3.82264567 2.67982187 6.95957793 5.94808387 10.20141602 9.29321289 C11.18623261 10.28028866 12.17281931 11.26560106 13.161026 12.24928284 C15.82737592 14.91334513 18.46840327 17.60127857 21.10545468 20.29430318 C23.86969239 23.1086818 26.65672912 25.90029772 29.44139099 28.69444275 C34.70595 33.98382855 39.94979063 39.29326674 45.18643087 44.61027855 C51.15128962 50.66467574 57.13898546 56.6962683 63.12867463 62.72608578 C75.4446398 75.12558517 87.73172878 87.5533132 100 100 C103.87828436 98.20791442 106.44924147 95.7282232 109.359375 92.66015625 C110.40319971 91.58615477 111.44748535 90.51260112 112.4921875 89.43945312 C114.12112273 87.75493036 115.74584367 86.06686213 117.36230469 84.37036133 C118.93321475 82.72627968 120.51992851 81.09879791 122.109375 79.47265625 C122.5805072 78.96944351 123.0516394 78.46623077 123.53704834 77.94776917 C127.56367377 73.86222492 132.26613091 71.18000039 138.06341553 70.90052795 C144.37605881 71.39649199 148.17962133 74.03590722 152.375 78.5625 C154.63704615 83.34759763 154.96009204 87.79714831 154 93 C151.39026469 98.13834289 148.47803296 101.94138726 144.359375 105.93359375 C143.83232971 106.4563942 143.30528442 106.97919464 142.76226807 107.51783752 C141.09849846 109.16498672 139.42454791 110.80131709 137.75 112.4375 C136.61128536 113.56114628 135.47325776 114.68548927 134.3359375 115.81054688 C131.56516123 118.54847511 128.78521099 121.27676027 126 124 C127.13789471 127.7263416 127.13789471 127.7263416 130 130.0625 C130.66 130.371875 131.32 130.68125 132 131 C132.66666667 132.33333333 133.33333333 133.66666667 134 135 C135.32520503 135.68268138 136.65812182 136.3507041 138 137 C138.33 137.99 138.66 138.98 139 140 C139.66 140.33 140.32 140.66 141 141 C141.66 141.33 142.32 141.66 143 142 C143.33 142.99 143.66 143.98 144 145 C144.66 145.33 145.32 145.66 146 146 C146.66 146.33 147.32 146.66 148 147 C148.33 147.99 148.66 148.98 149 150 C150.32710361 150.67898324 151.66136469 151.34404441 153 152 C154.74609375 153.8046875 154.74609375 153.8046875 156.4375 155.875 C159.06684996 159.00301978 161.7855935 161.4674373 165 164 C165 164.66 165 165.32 165 166 C165.66 166 166.32 166 167 166 C167 166.66 167 167.32 167 168 C167.66 168 168.32 168 169 168 C169 168.66 169 169.32 169 170 C169.59589935 170.25824554 170.19179871 170.51649109 170.80575562 170.78256226 C173.1893334 172.10504829 174.39301983 173.37634453 176.10791016 175.47900391 C180.54809103 180.71960499 185.39724745 185.50357885 190.2734375 190.3359375 C191.24782296 191.30590707 192.22190811 192.2761784 193.19570923 193.24673462 C196.25263564 196.29234839 199.31353411 199.33395029 202.375 202.375 C205.94638945 205.92275075 209.51611225 209.47214711 213.08168411 213.02574539 C214.50500213 214.44258603 215.93136105 215.85636975 217.35775757 217.27011108 C218.21600128 218.12505157 219.074245 218.97999207 219.95849609 219.86083984 C220.71681732 220.61392426 221.47513855 221.36700867 222.25643921 222.14291382 C224.74930588 224.79809411 225.23498936 226.62208532 225.4375 230.1875 C225.49808594 230.92355469 225.55867188 231.65960938 225.62109375 232.41796875 C223.92468351 239.47034089 216.79625677 243.99174176 211.125 247.875 C210.38032471 248.3896582 209.63564941 248.90431641 208.8684082 249.43457031 C190.25294734 262.11378285 170.01013448 271.05347152 148 276 C147.28070313 276.16371094 146.56140625 276.32742188 145.8203125 276.49609375 C119.857172 282.08602258 86.76297036 282.07258351 62 272 C62.2784375 271.31421875 62.556875 270.6284375 62.84375 269.921875 C64.11292635 266.71463207 65.31892207 263.49076261 66.5 260.25 C66.9228125 259.10015625 67.345625 257.9503125 67.78125 256.765625 C74.20050233 236.93178126 72.2824015 216.32675591 63.25 197.6875 C59.90461379 191.14085099 55.96687435 185.44426309 51 180 C50.22462891 179.08734375 50.22462891 179.08734375 49.43359375 178.15625 C41.24756533 169.12905074 29.37344214 162.9298479 18 159 C17.15179688 158.68160156 16.30359375 158.36320313 15.4296875 158.03515625 C-2.41506133 152.39038876 -23.33760951 155.04173107 -39.8125 163.25 C-40.76769531 163.77078125 -41.72289062 164.2915625 -42.70703125 164.828125 C-45 166 -45 166 -47 166 C-60.98463533 121.724534 -56.86919547 74.3250235 -35.94384766 32.90966797 C-15.98336384 -5.22107881 -15.98336384 -5.22107881 0 0 Z " fill="#000000" transform="translate(196,63)"/>
<path d="M0 0 C1.78804226 -0.00573832 1.78804226 -0.00573832 3.61220658 -0.01159257 C6.90835191 -0.02010848 10.20427346 -0.01969556 13.50041223 -0.01541197 C17.060152 -0.01294135 20.61986575 -0.02196309 24.17959595 -0.02944946 C31.14870862 -0.04218924 38.11778275 -0.04399105 45.08690511 -0.0416492 C50.75266486 -0.03986504 56.41841293 -0.04161778 62.0841713 -0.04587364 C62.89102984 -0.04646883 63.69788839 -0.04706402 64.52919719 -0.04767724 C66.16841888 -0.04888902 67.80764056 -0.05010315 69.44686224 -0.05131962 C84.81457294 -0.06219242 100.18226169 -0.06003392 115.54997362 -0.05393478 C129.60170471 -0.04876607 143.65336646 -0.06002028 157.70508383 -0.07903299 C172.14126388 -0.09841582 186.57741114 -0.1066666 201.01360428 -0.10290974 C209.11526212 -0.10099834 217.21686094 -0.10347927 225.31850815 -0.11762428 C232.21570021 -0.12954473 239.11279693 -0.13093556 246.00999032 -0.11883412 C249.5270787 -0.11295001 253.04399277 -0.11183286 256.56106949 -0.12383652 C260.37843966 -0.1342824 264.19534198 -0.12621981 268.01269531 -0.11352539 C269.67044505 -0.12458682 269.67044505 -0.12458682 271.36168468 -0.13587171 C278.62774192 -0.08507089 285.47392788 0.56043546 291.47317505 4.98725891 C296.12400256 10.51367009 298.33850589 15.25101691 298.0395813 22.54975891 C297.09825361 28.77535797 293.92982697 33.25240243 289.1333313 37.26069641 C285.58153863 38.94296141 282.77069066 39.51231888 278.85522747 39.52075863 C277.80518715 39.52782422 276.75514682 39.53488981 275.67328709 39.54216951 C274.52602377 39.53975443 273.37876045 39.53733934 272.19673157 39.53485107 C270.97303826 39.54008775 269.74934496 39.54532443 268.48857003 39.5507198 C265.09477332 39.56312953 261.70118379 39.56656326 258.30737865 39.56612289 C254.64604671 39.56777185 250.98475243 39.58083979 247.32344055 39.59231567 C239.31932306 39.61515786 231.31523209 39.6230853 223.31108642 39.62814212 C218.31267067 39.63139977 213.31426261 39.63792263 208.31585121 39.64514351 C194.47448442 39.6647077 180.63312478 39.68111321 166.79174328 39.68402004 C165.46335037 39.6843014 165.46335037 39.6843014 164.10812123 39.68458844 C162.31283875 39.68495468 160.51755627 39.68531838 158.72227379 39.68567955 C157.83110392 39.68586236 156.93993405 39.68604517 156.02175903 39.68623352 C155.12950059 39.68641407 154.23724215 39.68659462 153.31794558 39.68678064 C138.85798146 39.6903228 124.39816621 39.7173486 109.93825372 39.75473141 C95.08968587 39.79281162 80.2411919 39.81217749 65.39257413 39.81247956 C57.0566824 39.81306416 48.72096831 39.82155807 40.3851223 39.85047722 C33.287624 39.8749872 26.19036814 39.88227662 19.09283897 39.86722969 C15.47248431 39.86005933 11.85260844 39.86092289 8.23230743 39.88364029 C4.3049532 39.9080481 0.37828218 39.89359796 -3.54911804 39.87542725 C-4.6896892 39.88862721 -5.83026036 39.90182718 -7.00539428 39.91542715 C-13.84200844 39.84311876 -18.65329431 38.87835721 -23.8666687 34.26069641 C-28.66115687 28.11391671 -29.66946322 22.8815909 -28.8666687 15.26069641 C-27.08133151 9.36398273 -23.93639535 5.64051417 -18.8666687 2.26069641 C-12.6086005 -0.10181556 -6.63407724 -0.02259525 0 0 Z " fill="#000000" transform="translate(55.866668701171875,472.7393035888672)"/>
<path d="M0 0 C3.23128051 1.42176343 5.35909765 3.16783467 7.875 5.625 C23.63165262 19.78799444 43.86424314 25.06296059 64.70947266 24.17041016 C83.58925613 22.76579612 99.78091778 13.59405132 113.5546875 1.1015625 C115 0 115 0 117 0 C138.36933224 53.22927195 138.36933224 53.22927195 146.47796631 74.01330566 C147.07469985 75.54279825 147.672555 77.07185372 148.27154541 78.60046387 C149.08832572 80.68667155 149.90051191 82.7745982 150.7109375 84.86328125 C151.38068604 86.58478394 151.38068604 86.58478394 152.06396484 88.34106445 C153 91 153 91 153 93 C90.3 93 27.6 93 -37 93 C-35.13003774 86.76679246 -33.30083391 80.91381389 -30.8046875 74.96875 C-30.49959763 74.23041428 -30.19450775 73.49207855 -29.88017273 72.73136902 C-29.22379146 71.14414113 -28.56528468 69.5577908 -27.90481567 67.97225952 C-26.12100034 63.6898869 -24.35269878 59.40110276 -22.58203125 55.11328125 C-22.21204514 54.2185762 -21.84205902 53.32387115 -21.46086121 52.40205383 C-16.71771004 40.9200376 -12.07569764 29.39703856 -7.42840576 17.87597656 C-6.70670211 16.08698263 -5.98471545 14.29810282 -5.2624054 12.50935364 C-4.60634913 10.88457386 -3.95102604 9.25949777 -3.29655457 7.63407898 C-1.11235469 2.22470938 -1.11235469 2.22470938 0 0 Z " fill="#000000" transform="translate(132,349)"/>
<path d="M0 0 C10.2449566 9.6423121 15.94026395 20.69596233 16.9453125 34.86328125 C17.14489421 47.68640588 12.68565312 60.92824964 3.70703125 70.359375 C-8.83698235 81.44611139 -21.56760156 84.77537666 -38.0078125 83.875 C-50.49578398 81.98093749 -61.03636365 75.58216755 -69.0078125 65.875 C-77.3234256 53.65104875 -79.99934491 39.79243673 -77.359375 25.3203125 C-73.74600851 12.44190372 -66.64149863 1.90944815 -55 -4.87890625 C-36.92663588 -13.91558831 -15.83528266 -13.45709003 0 0 Z " fill="#000000" transform="translate(221.0078125,259.125)"/>
<path d="M0 0 C18.91893965 6.72309015 35.40436173 17.37084562 50.25 30.75 C50.96542969 31.38164063 51.68085938 32.01328125 52.41796875 32.6640625 C67.19509905 46.49667519 77.46590933 64.89630323 84.25 83.75 C84.63027344 84.79542969 85.01054687 85.84085937 85.40234375 86.91796875 C89.57450084 99.3399761 91.46431199 112.42036622 91.6875 125.5 C91.70973633 126.22598389 91.73197266 126.95196777 91.75488281 127.69995117 C91.73164619 133.24382127 90.31796207 136.30311635 87.25 140.75 C82.26175204 144.72023818 78.17204063 145.3932003 71.8359375 145.1328125 C66.57240068 144.35361823 64.04576726 141.80385393 60.9375 137.6875 C58.85892164 134.06923396 58.12381104 131.2682687 57.85546875 127.171875 C56.17418323 104.03516369 50.4637136 82.91210771 35.25 64.75 C34.56421875 63.9146875 33.8784375 63.079375 33.171875 62.21875 C16.19509755 42.43286549 -7.9713385 29.33530552 -34.109375 27.2578125 C-36.82094662 27.0571011 -39.53170382 26.87315099 -42.24609375 26.71484375 C-49.2117288 26.1758968 -53.37798716 24.50666357 -58.0625 19.0625 C-60.88354082 13.52490135 -61.38351699 8.98594233 -59.6875 3 C-48.69066236 -15.4463083 -16.65747829 -5.14550376 0 0 Z " fill="#000000" transform="translate(393.75,6.25)"/>
<path d="M0 0 C1.49562424 1.29371497 2.9765983 2.60469975 4.4375 3.9375 C5.0459375 4.45441406 5.654375 4.97132812 6.28125 5.50390625 C19.44087633 17.43729467 27.50326069 36.59358388 28.79296875 54.03515625 C29.11052544 60.74422063 29.28342481 67.01158628 24.90625 72.51953125 C20.92067456 76.36730754 17.32910061 77.13391217 11.9375 77.375 C6.99602337 77.22078838 4.15553675 76.38348529 0.4375 72.9375 C-3.41722025 68.08448736 -4.33131649 64.14115547 -5.0625 58.1875 C-7.02699039 44.84107524 -11.25942795 34.88362804 -21.9375 26.125 C-30.18837803 20.17061635 -37.72613005 18.30353571 -47.73583984 17.15136719 C-54.28230275 16.31258915 -58.46366126 14.37669097 -62.875 9.25 C-65.69604082 3.71240135 -66.19601699 -0.82655767 -64.5 -6.8125 C-61.66778015 -11.56332039 -58.57638059 -14.1394714 -53.5625 -16.4375 C-35.71384704 -20.5171921 -13.91510082 -10.87447181 0 0 Z " fill="#000000" transform="translate(398.5625,74.0625)"/>
</svg>
