<?xml version="1.0" encoding="UTF-8"?>
<svg version="1.1" xmlns="http://www.w3.org/2000/svg" width="512" height="512">
<path d="M0 0 C3.99280968 1.33093656 4.74113252 3.6942047 6.546875 7.23828125 C6.88116516 7.87428757 7.21545532 8.51029388 7.55987549 9.16557312 C8.63240601 11.20991485 9.69171726 13.26075193 10.75 15.3125 C11.79263636 17.31661957 12.83806774 19.31922751 13.8861084 21.32052612 C14.57581303 22.6391544 15.26210496 23.95957338 15.94494629 25.2817688 C17.57500633 28.41243603 19.25363882 31.46646288 21.14648438 34.44677734 C21.80455078 35.48914551 22.46261719 36.53151367 23.140625 37.60546875 C24.0382959 38.95934692 24.0382959 38.95934692 24.95410156 40.34057617 C26 43 26 43 25.37841797 45.93920898 C23.93833472 49.13692838 22.433154 52.2606528 20.8046875 55.3671875 C20.34165222 56.25537926 20.34165222 56.25537926 19.8692627 57.16151428 C19.21293201 58.41958776 18.55470607 59.67667407 17.89471436 60.93283081 C16.86456966 62.89486585 15.84075868 64.86008126 14.81884766 66.82641602 C12.41533015 71.45077338 10.00690027 76.07255514 7.59375 80.69189453 C-5.03272156 104.94281915 -11.07337271 131.41443523 -3.19921875 158.375 C-1.42170834 163.7480608 0.53507795 168.90390017 3 174 C3.42925781 174.89847656 3.85851562 175.79695312 4.30078125 176.72265625 C16.72150915 201.03929257 38.27488072 217.61147555 63.84375 226.37890625 C83.70456535 232.22921164 103.80025303 231.56262661 124 228 C138.19537344 260.79377833 144.7869302 298.79220568 131.54003906 333.06079102 C126.88242787 344.46463458 121.1481035 354.69261348 113 364 C112.44828125 364.68320312 111.8965625 365.36640625 111.328125 366.0703125 C89.80199856 392.20918032 53.72042152 404.79576596 21 408 C18.10406966 408.15813976 15.21234539 408.20929051 12.3125 408.23828125 C11.50051147 408.24802979 10.68852295 408.25777832 9.85192871 408.26782227 C-29.45196927 408.6425198 -66.65097931 402.45948574 -98 377 C-98.72703125 376.42636719 -99.4540625 375.85273438 -100.203125 375.26171875 C-105.94894395 370.52254918 -110.47021371 364.88379849 -115 359 C-115.6084375 358.23042969 -116.216875 357.46085937 -116.84375 356.66796875 C-134.07241254 333.68336668 -139.5889841 303.0848456 -136 275 C-132.86057935 253.30272802 -125.23905672 234.54567991 -115.50195312 215.01416016 C-114.12906124 212.25900358 -112.77245089 209.49661304 -111.421875 206.73046875 C-106.76913697 197.25070141 -101.84003161 187.94966389 -96.7421875 178.70239258 C-92.70761935 171.36221775 -88.83462544 163.94631366 -85 156.5 C-80.31312982 147.40748463 -75.53271908 138.37886923 -70.60717773 129.41357422 C-66.54157755 122.01098084 -62.54346946 114.5733266 -58.5625 107.125 C-49.2979165 89.7994043 -39.9379076 72.52626639 -30.51660156 55.28540039 C-27.93734534 50.56282453 -25.36856381 45.83493869 -22.81640625 41.09765625 C-15.38007295 27.30025684 -7.765839 13.61470859 0 0 Z M72.921875 299.0859375 C70.74792899 302.38220523 69.77560321 305.33444408 68.6875 309.125 C63.9433391 324.39829351 54.10280511 336.30179915 40.2890625 344.30859375 C30.38966855 349.39937472 21.39589345 351.0629235 10.375 351.62109375 C6.20892156 352.0888132 3.21219117 352.86862158 0.125 355.75 C-1.4472882 358.8945764 -0.98936706 360.67855345 0 364 C1.55845699 365.98004566 2.55558379 366.86990567 4.98828125 367.58203125 C25.09140649 369.57545039 44.04571397 361.89896003 59.6875 349.75 C72.6151209 338.75687201 82.46154667 323.71550608 86 307 C85.65677029 302.31280442 85.65677029 302.31280442 83.875 298.0625 C79.90736878 295.81417564 76.15524459 295.84041238 72.921875 299.0859375 Z " fill="#000000" transform="translate(232,80)"/>
<path d="M0 0 C3 1 3 1 4.06811523 2.6003418 C4.5584021 3.63928589 4.5584021 3.63928589 5.05859375 4.69921875 C5.62694946 5.8756897 5.62694946 5.8756897 6.20678711 7.07592773 C6.61292236 7.93774658 7.01905762 8.79956543 7.4375 9.6875 C10.92658671 16.88017957 14.55389032 23.9502216 18.4375 30.9375 C24.01177298 41.01424885 29.26502655 51.24460433 34.5 61.5 C39.55339926 71.39783029 44.60756967 81.2810624 50 91 C56.3270236 102.40529254 62.22733208 114.02902931 68.15234375 125.64648438 C68.92967226 127.16927861 69.70701581 128.69206518 70.484375 130.21484375 C70.86238754 130.95697617 71.24040009 131.69910858 71.62986755 132.46372986 C73.81001671 136.72891499 76.04948348 140.95499911 78.34257507 145.16043091 C81.43578324 150.84522895 84.13841895 156.32013693 85.9375 162.5625 C86.13150391 163.20767578 86.32550781 163.85285156 86.52539062 164.51757812 C92.98756802 186.54264642 89.28890694 209.56292908 78.6640625 229.5078125 C66.97595552 250.10729386 49.26703994 263.15938521 26.80981445 269.54223633 C1.85864167 276.26481658 -24.72661785 272.78120628 -47 260 C-59.43955496 252.0746826 -69.82021422 241.90853873 -77 229 C-77.46019531 228.18917969 -77.92039063 227.37835938 -78.39453125 226.54296875 C-86.2192892 211.90996219 -89.08216884 195.31988901 -87.4375 178.875 C-87.37675293 178.22055908 -87.31600586 177.56611816 -87.25341797 176.8918457 C-85.41678408 162.44098722 -79.18387576 149.56981372 -72.4375 136.875 C-71.62265055 135.31805075 -70.80877955 133.76058906 -69.99584961 132.20263672 C-65.33296336 123.29253639 -60.56240804 114.44287844 -55.68920898 105.64599609 C-50.763049 96.69863492 -46.14425922 87.59563668 -41.5 78.5 C-36.00236975 67.7330628 -30.4555175 57.01577094 -24.58837891 46.4440918 C-18.80472297 35.95325556 -13.40652542 25.25816777 -7.96459961 14.58740234 C-7.39480125 13.4722097 -7.39480125 13.4722097 -6.81349182 12.33448792 C-6.09550564 10.92873264 -5.37914333 9.5221464 -4.66465759 8.11460876 C-3.22513301 5.29623112 -1.75809042 2.63713563 0 0 Z " fill="#000000" transform="translate(327,24)"/>
</svg>
