<?xml version="1.0" encoding="UTF-8"?>
<svg version="1.1" xmlns="http://www.w3.org/2000/svg" width="512" height="512">
<path d="M0 0 C0.76180069 -0.00014603 1.52360138 -0.00029205 2.30848694 -0.0004425 C4.80277448 0.00024889 7.29698543 0.00800478 9.79125977 0.01586914 C11.53003397 0.01773607 13.2688087 0.01915867 15.00758362 0.02015686 C19.56628899 0.02396039 24.12496209 0.03377205 28.68365479 0.04486084 C33.34256555 0.05512164 38.00148157 0.05966446 42.66040039 0.06469727 C51.78866971 0.07539639 60.91691517 0.09244663 70.04516602 0.11352539 C70.1769928 0.69436386 70.30881958 1.27520233 70.44464111 1.87364197 C73.82916775 17.00861543 73.82916775 17.00861543 78.79516602 31.67602539 C79.39574524 33.21836395 79.994767 34.76131012 80.59204102 36.30493164 C80.84824219 36.9463208 81.10444336 37.58770996 81.3684082 38.24853516 C82.07029642 40.18277906 82.55960816 42.11546355 83.04516602 44.11352539 C81.40597702 44.11566292 81.40597702 44.11566292 79.7336731 44.11784363 C69.40585238 44.1345552 59.07842359 44.17745573 48.75081062 44.24561596 C43.44197123 44.2798219 38.13341767 44.30498601 32.82446289 44.30908203 C27.6954058 44.31337866 22.5669928 44.3419546 17.43813705 44.38695717 C15.48709752 44.39988859 13.53598074 44.40425539 11.58490372 44.39967918 C-3.01073456 44.06745332 -3.01073456 44.06745332 -15.95483398 50.11352539 C-20.24600896 54.84785097 -22.36843261 61.31989335 -24.84289551 67.16320801 C-25.94654203 69.76939116 -27.06337269 72.36986491 -28.17904663 74.97091675 C-28.78475746 76.38363744 -29.38974038 77.79667041 -29.99404907 79.20999146 C-33.63924655 87.73140138 -37.34575474 96.22605251 -41.05215454 104.72097778 C-42.19609675 107.34349506 -43.33866273 109.96660833 -44.48095703 112.58984375 C-45.18574329 114.20713343 -45.89057505 115.82440328 -46.59545898 117.44165039 C-46.92091202 118.18925125 -47.24636505 118.93685211 -47.5816803 119.70710754 C-49.84035367 124.88456476 -49.84035367 124.88456476 -50.95483398 127.11352539 C-49.92060964 127.10946119 -48.88638529 127.105397 -47.82082081 127.10120964 C-22.62202258 127.00448222 2.57636531 126.96548698 27.77534771 126.9865551 C39.96161432 126.9954158 52.14733185 126.98571747 64.33349609 126.93188477 C74.95862833 126.88499553 85.58312281 126.87338032 96.20832568 126.90360749 C101.83130969 126.91838585 107.45305194 126.91585063 113.07590294 126.8710289 C118.37639722 126.82933525 123.67479359 126.83506514 128.97527313 126.87604713 C130.9129614 126.88287484 132.85079955 126.87286806 134.78828621 126.84409523 C148.35741443 126.65590933 155.08150545 128.75163843 165.04516602 138.11352539 C168.50589862 140.57907496 172.07324312 142.85227748 175.67016602 145.11352539 C177.07504272 146.00007813 177.07504272 146.00007813 178.50830078 146.90454102 C200.29612945 160.48446226 223.99145915 174.42863264 250.48266602 168.73852539 C264.81572008 165.10232879 278.46896111 157.722996 290.54907227 149.31665039 C293.04516602 148.11352539 293.04516602 148.11352539 295.24047852 148.77758789 C297.79956087 150.67197353 299.86766648 152.78410728 302.04516602 155.11352539 C302.83407227 155.91209961 302.83407227 155.91209961 303.63891602 156.72680664 C317.4172934 171.35067536 323.17985788 190.59743691 323.20629883 210.34667969 C323.21126373 211.24526199 323.21622864 212.1438443 323.22134399 213.06965637 C323.23588028 216.02569359 323.24275372 218.98167713 323.24829102 221.93774414 C323.25111839 222.95340769 323.25394577 223.96907124 323.25685883 225.01551247 C323.27181782 230.39152916 323.28106775 235.76751925 323.28540039 241.14355469 C323.29087678 246.66994463 323.31489686 252.19608718 323.34337234 257.72239971 C323.36208521 261.99575999 323.36720894 266.26906172 323.36873627 270.54245949 C323.37174436 272.57842166 323.37970981 274.61438326 323.39292145 276.65030479 C323.50692569 295.57027757 321.47342678 312.70830482 307.85766602 327.05102539 C294.74969427 339.22655592 281.3959134 342.96894568 263.93188477 342.45727539 C249.35590791 341.6707513 237.36299186 334.5165173 227.40844727 324.11743164 C216.07916968 309.71707716 215.04516602 296.39415131 215.04516602 278.11352539 C130.89516602 278.11352539 46.74516602 278.11352539 -39.95483398 278.11352539 C-39.95483398 284.38352539 -39.95483398 290.65352539 -39.95483398 297.11352539 C-42.60211202 311.08527057 -49.18795342 323.43582835 -60.62670898 332.14868164 C-71.06846793 339.09510603 -80.67242143 342.29421024 -93.07983398 342.36352539 C-94.42948242 342.39446289 -94.42948242 342.39446289 -95.80639648 342.42602539 C-110.70734907 342.51166305 -122.76880698 336.20194912 -133.25170898 325.94165039 C-141.1415675 317.68694293 -147.03433435 306.48388326 -147.102005 294.82316589 C-147.10916031 293.97268677 -147.11631561 293.12220764 -147.12368774 292.24595642 C-147.12637665 291.32077713 -147.12906555 290.39559784 -147.13183594 289.44238281 C-147.13840714 288.46127533 -147.14497833 287.48016785 -147.15174866 286.46932983 C-147.17147023 283.2192171 -147.18314639 279.96915073 -147.19311523 276.71899414 C-147.19719076 275.60503077 -147.20126629 274.49106739 -147.20546532 273.34334755 C-147.22632862 267.43869844 -147.24062504 261.53407253 -147.25 255.62939453 C-147.26102002 249.56171065 -147.29536828 243.49439799 -147.3351717 237.4268446 C-147.36146645 232.73644889 -147.36970357 228.04613956 -147.37328148 223.35567665 C-147.37812012 221.12122423 -147.38965524 218.88677495 -147.40831947 216.65239525 C-147.53137977 200.933833 -146.69442927 186.89917772 -139.14233398 172.73852539 C-138.79541504 172.07062988 -138.44849609 171.40273438 -138.09106445 170.71459961 C-135.24104734 165.36707777 -132.04534911 160.60208236 -127.95483398 156.11352539 C-127.2394043 155.30657227 -126.52397461 154.49961914 -125.78686523 153.66821289 C-121.7997357 149.41440748 -118.06070645 146.04798795 -112.88619995 143.29975891 C-103.12589844 137.93181714 -100.12560773 131.02284985 -96.32983398 120.92602539 C-95.68493314 119.3147538 -95.03496642 117.70550205 -94.38037109 116.09814453 C-92.97297436 112.63527343 -91.58523655 109.16535339 -90.20727539 105.69067383 C-86.61693466 96.71631475 -82.69933715 87.88062654 -78.82012939 79.02841187 C-77.55584247 76.13903203 -76.29866037 73.24668069 -75.04418945 70.35302734 C-71.10023359 61.26012465 -67.12235795 52.18261076 -63.07983398 43.13305664 C-62.71729019 42.31602768 -62.3547464 41.49899872 -61.98121643 40.6572113 C-54.56154709 24.13130368 -43.16950526 11.15310026 -25.96264648 4.46899414 C-17.33379695 1.40149771 -9.16030487 -0.04676833 0 0 Z M-77.39233398 200.61352539 C-78.05104492 201.38696289 -78.70975586 202.16040039 -79.38842773 202.95727539 C-83.05671336 208.00688553 -82.49789356 214.13987004 -81.95483398 220.11352539 C-80.26020881 225.68741301 -75.78228372 230.03197151 -70.95483398 233.11352539 C-65.33597666 235.5600836 -59.9478408 235.41970504 -53.93139648 235.41430664 C-52.87125336 235.41859177 -51.81111023 235.42287689 -50.71884155 235.42729187 C-48.48143221 235.43302185 -46.24400425 235.43354527 -44.0065918 235.42919922 C-40.59838796 235.42604258 -37.19105544 235.44950444 -33.78295898 235.47485352 C-31.60327257 235.47712709 -29.42358384 235.47782974 -27.24389648 235.47680664 C-26.23219391 235.48601639 -25.22049133 235.49522614 -24.1781311 235.50471497 C-16.0063671 235.45175165 -8.97174696 234.13043837 -2.95483398 228.11352539 C0.9280491 222.72063222 2.31702911 217.78462752 2.04516602 211.11352539 C0.84126502 205.44926991 -1.77007069 200.31607197 -6.62670898 196.95727539 C-11.45164018 194.07056442 -15.23641796 192.9975905 -20.7800293 192.95239258 C-21.73492249 192.94278503 -22.68981567 192.93317749 -23.67364502 192.92327881 C-24.69971863 192.91902893 -25.72579224 192.91477905 -26.78295898 192.91040039 C-27.84593201 192.90470032 -28.90890503 192.89900024 -30.00408936 192.89312744 C-32.25344856 192.88368519 -34.50282155 192.87714654 -36.75219727 192.87329102 C-40.17806415 192.86360111 -43.60332699 192.83257618 -47.02905273 192.80102539 C-49.21785127 192.79449334 -51.40665408 192.78924366 -53.59545898 192.78540039 C-54.61343567 192.77305359 -55.63141235 192.76070679 -56.68023682 192.74798584 C-65.01995383 192.77385485 -71.79150063 193.85195595 -77.39233398 200.61352539 Z M178.60766602 200.61352539 C177.94895508 201.38696289 177.29024414 202.16040039 176.61157227 202.95727539 C172.94328664 208.00688553 173.50210644 214.13987004 174.04516602 220.11352539 C175.73979119 225.68741301 180.21771628 230.03197151 185.04516602 233.11352539 C190.66402334 235.5600836 196.0521592 235.41970504 202.06860352 235.41430664 C203.12874664 235.41859177 204.18888977 235.42287689 205.28115845 235.42729187 C207.51856779 235.43302185 209.75599575 235.43354527 211.9934082 235.42919922 C215.40161204 235.42604258 218.80894456 235.44950444 222.21704102 235.47485352 C224.39672743 235.47712709 226.57641616 235.47782974 228.75610352 235.47680664 C229.76780609 235.48601639 230.77950867 235.49522614 231.8218689 235.50471497 C239.9936329 235.45175165 247.02825304 234.13043837 253.04516602 228.11352539 C256.9280491 222.72063222 258.31702911 217.78462752 258.04516602 211.11352539 C256.84126502 205.44926991 254.22992931 200.31607197 249.37329102 196.95727539 C244.54835982 194.07056442 240.76358204 192.9975905 235.2199707 192.95239258 C234.26507751 192.94278503 233.31018433 192.93317749 232.32635498 192.92327881 C231.30028137 192.91902893 230.27420776 192.91477905 229.21704102 192.91040039 C228.15406799 192.90470032 227.09109497 192.89900024 225.99591064 192.89312744 C223.74655144 192.88368519 221.49717845 192.87714654 219.24780273 192.87329102 C215.82193585 192.86360111 212.39667301 192.83257618 208.97094727 192.80102539 C206.78214873 192.79449334 204.59334592 192.78924366 202.40454102 192.78540039 C201.38656433 192.77305359 200.36858765 192.76070679 199.31976318 192.74798584 C190.98004617 192.77385485 184.20849937 193.85195595 178.60766602 200.61352539 Z " fill="#000000" transform="translate(146.954833984375,169.886474609375)"/>
<path d="M0 0 C1.53404984 0.52432898 3.06865071 1.04704815 4.60375977 1.56826782 C8.67236236 2.95481018 12.73289518 4.36362528 16.79194641 5.77784729 C20.97931026 7.2331694 25.17312404 8.66966824 29.36621094 10.10839844 C35.95122381 12.37050583 42.53181902 14.6450184 49.109375 16.92871094 C55.58837372 19.17769283 62.07518681 21.40104658 68.57208252 23.59786987 C72.32468217 24.86689753 76.07370543 26.14620685 79.82165527 27.42889404 C81.45458394 27.98604831 83.08876169 28.53955683 84.72424316 29.08917236 C86.92487744 29.830777 89.11919556 30.58860179 91.3125 31.3515625 C92.48586914 31.7527832 93.65923828 32.15400391 94.86816406 32.56738281 C99.88497761 34.86540708 103.93517762 37.74525598 106.046875 43.0234375 C106.30414391 45.16205597 106.30414391 45.16205597 106.31430054 47.50793457 C106.32709549 48.84854195 106.32709549 48.84854195 106.34014893 50.2162323 C106.33924255 51.1896608 106.33833618 52.16308929 106.33740234 53.16601562 C106.34411957 54.19761307 106.35083679 55.22921051 106.35775757 56.29206848 C106.37679486 59.71299028 106.38066661 63.13371596 106.3828125 66.5546875 C106.38924333 68.94486572 106.39597191 71.33504315 106.40298462 73.72521973 C106.41497656 78.74896056 106.41866416 83.77263258 106.41748047 88.79638672 C106.41727875 95.18196173 106.44441932 101.56708429 106.47902489 107.9525528 C106.50146905 112.89965769 106.50531246 117.84665743 106.50426102 122.79380798 C106.50659694 125.14413491 106.51530485 127.49446565 106.53092575 129.84474182 C106.74187882 164.90760703 96.91713057 196.28371441 75.046875 224.0234375 C74.62857422 224.55598145 74.21027344 225.08852539 73.77929688 225.63720703 C63.358748 238.74243931 51.40874824 250.92434726 38.046875 261.0234375 C37.13856934 261.72170654 37.13856934 261.72170654 36.21191406 262.43408203 C23.51659431 272.14609458 10.0472972 280.33240757 -3.953125 288.0234375 C-4.67000488 288.41772949 -5.38688477 288.81202148 -6.12548828 289.21826172 C-12.90801767 292.87093094 -19.21954512 295.93005415 -26.953125 294.0234375 C-74.23388627 276.33063677 -117.77232396 236.24453182 -139.13256836 190.72192383 C-146.19536506 174.91862588 -150.25989058 158.06884242 -150.24365234 140.75048828 C-150.25036957 139.69523453 -150.25708679 138.63998077 -150.26400757 137.55274963 C-150.2828148 134.10803367 -150.28690149 130.66351391 -150.2890625 127.21875 C-150.29549724 124.8064669 -150.3022261 122.39418457 -150.30923462 119.98190308 C-150.32116025 114.94722684 -150.32491978 109.91261903 -150.32373047 104.87792969 C-150.32352635 98.42843503 -150.35094578 91.9793764 -150.38527489 85.52998543 C-150.4074979 80.55772887 -150.41156959 75.58557857 -150.41051102 70.61327744 C-150.41286938 68.23463295 -150.42170607 65.85598564 -150.43717575 63.47739029 C-150.45676279 60.15795221 -150.45102808 56.83947291 -150.43896484 53.52001953 C-150.45020386 52.54121323 -150.46144287 51.56240692 -150.47302246 50.55393982 C-150.42048573 44.86720147 -149.81344635 41.50196468 -145.953125 37.0234375 C-141.36348801 33.30787814 -136.50445632 31.61368261 -130.96484375 29.84375 C-130.08575348 29.55447632 -129.20666321 29.26520264 -128.30093384 28.96716309 C-126.40574028 28.34454742 -124.50920442 27.72600566 -122.61148071 27.11114502 C-118.56860481 25.80104874 -114.53237813 24.47102124 -110.49571228 23.14193726 C-108.41030968 22.45543401 -106.32458224 21.76991678 -104.23854065 21.08535767 C-94.75079248 17.96907975 -85.29346627 14.76743098 -75.84594727 11.53149414 C-73.27907699 10.65304114 -70.71096291 9.77831071 -68.14257812 8.90429688 C-60.74990014 6.38416809 -53.37369867 3.83318593 -46.0390625 1.1484375 C-44.85658936 0.72095215 -43.67411621 0.2934668 -42.45581055 -0.14697266 C-40.35222062 -0.91132296 -38.25392497 -1.69053712 -36.16333008 -2.48974609 C-23.20346364 -7.17873161 -12.51421526 -4.40073276 0 0 Z M12.7578125 90.765625 C11.98695313 91.79945312 11.21609375 92.83328125 10.421875 93.8984375 C9.54373168 95.06437708 8.66479777 96.22972156 7.78515625 97.39453125 C7.33479004 97.99378418 6.88442383 98.59303711 6.42041016 99.21044922 C4.18797679 102.15713428 1.89924432 105.05880366 -0.390625 107.9609375 C-1.31642365 109.13670505 -2.24220481 110.31248637 -3.16796875 111.48828125 C-3.85802002 112.36395752 -3.85802002 112.36395752 -4.56201172 113.25732422 C-5.9449246 115.01302653 -7.32630471 116.76992165 -8.70703125 118.52734375 C-9.16102295 119.10516602 -9.61501465 119.68298828 -10.08276367 120.27832031 C-10.99094069 121.43485858 -11.8986612 122.59175547 -12.8059082 123.74902344 C-15.20939788 126.81311633 -17.62397663 129.8675977 -20.0546875 132.91015625 C-20.56064453 133.54630859 -21.06660156 134.18246094 -21.58789062 134.83789062 C-22.55972684 136.05937284 -23.53483944 137.27825761 -24.51367188 138.49414062 C-26.50407491 141.00198965 -27.93150844 142.95858781 -28.953125 146.0234375 C-32.61330874 143.96984768 -35.57677048 141.69722312 -38.640625 138.8359375 C-42.11501453 135.66231602 -45.62277416 132.56546326 -49.265625 129.5859375 C-50.43544922 128.62880859 -50.43544922 128.62880859 -51.62890625 127.65234375 C-57.65477031 123.42917516 -63.78861716 123.11277373 -70.953125 124.0234375 C-76.90058351 126.34861514 -80.76993886 130.39270404 -84.03125 135.81640625 C-86.13071843 140.84267601 -85.67734578 147.04895931 -84.40625 152.26953125 C-80.45911503 161.52295615 -70.23499635 167.65909609 -62.6640625 173.77734375 C-60.0602088 175.93471533 -57.56539667 178.17087669 -55.078125 180.4609375 C-51.22157708 183.96576825 -47.25028431 187.26111658 -43.140625 190.4609375 C-42.60131348 190.88624756 -42.06200195 191.31155762 -41.50634766 191.74975586 C-35.1314844 196.64322044 -29.8592069 197.92213191 -21.953125 197.0234375 C-13.58131901 195.09997172 -8.87906464 187.4748844 -3.953125 181.0234375 C-3.45651367 180.37616699 -2.95990234 179.72889648 -2.44824219 179.06201172 C-0.2885382 176.24415715 1.86681008 173.42313122 4.01171875 170.59399414 C7.82543312 165.57398048 11.73955764 160.65028882 15.734375 155.7734375 C20.45554345 150.00927729 25.05465015 144.17320698 29.57421875 138.25 C32.26118209 134.73169302 34.9958023 131.25163495 37.734375 127.7734375 C38.19593994 127.18554443 38.65750488 126.59765137 39.13305664 125.99194336 C41.15137219 123.42255189 43.17738622 120.86135098 45.2265625 118.31640625 C45.84789062 117.53910156 46.46921875 116.76179688 47.109375 115.9609375 C47.90021484 114.98447266 47.90021484 114.98447266 48.70703125 113.98828125 C52.37373234 108.61116565 52.81016137 103.35195111 52.046875 97.0234375 C49.92860792 89.83147682 45.01785747 85.32242735 38.671875 81.6484375 C28.22664591 79.16147819 19.6255472 82.53840698 12.7578125 90.765625 Z " fill="#000000" transform="translate(405.953125,4.9765625)"/>
</svg>
