<?xml version="1.0" encoding="UTF-8"?>
<svg version="1.1" xmlns="http://www.w3.org/2000/svg" width="512" height="512">
<path d="M0 0 C2.00667916 -0.00643336 4.01336047 -0.01289838 6.02002436 -0.02303106 C12.31807675 -0.05465661 18.61489089 -0.04141523 24.9128418 0.00219727 C31.37472836 0.04630913 37.83368904 0.02167851 44.29538339 -0.03815764 C49.87733472 -0.08780582 55.45839841 -0.09792523 61.04052931 -0.07644922 C64.35968875 -0.06382876 67.67697892 -0.06865787 70.99604607 -0.10191917 C95.9095839 -0.30604412 95.9095839 -0.30604412 105.36564636 8.78553772 C106.10220963 9.59236496 106.83877289 10.3991922 107.59765625 11.23046875 C108.80142856 12.27870411 110.01537856 13.3155642 111.24609375 14.33203125 C116.70025213 19.37986265 121.90545196 24.45470388 126.59765625 30.23046875 C127.0251416 30.74561035 127.45262695 31.26075195 127.89306641 31.79150391 C154.47372497 63.84121168 176.20955228 103.70779294 182.59765625 145.23046875 C181.85386719 145.08609375 181.11007812 144.94171875 180.34375 144.79296875 C149.66316268 139.57690668 119.6839382 145.23540269 93.59765625 162.23046875 C89.6978143 165.00816263 86.12459872 167.99526746 82.59765625 171.23046875 C82.11345215 171.66697754 81.62924805 172.10348633 81.13037109 172.55322266 C58.75185975 192.92018242 47.18039866 221.45854926 45.4140625 251.3359375 C44.9877989 269.91601575 49.99900249 287.05427149 56.59765625 304.23046875 C49.1493764 305.66327201 41.65150944 305.47467238 34.09765625 305.48046875 C33.31276825 305.48114349 32.52788025 305.48181824 31.71920776 305.48251343 C18.80826472 305.46489779 6.28602432 304.79489723 -6.40234375 302.23046875 C-7.23685059 302.06417969 -8.07135742 301.89789063 -8.93115234 301.7265625 C-45.17187403 294.21841375 -79.80317684 274.93048869 -100.7734375 243.7734375 C-106.74874681 234.51389339 -111.03496563 224.70575716 -114.40234375 214.23046875 C-114.74120605 213.18922852 -114.74120605 213.18922852 -115.08691406 212.12695312 C-122.09437973 189.32847034 -120.15172131 161.08045951 -114.40234375 138.23046875 C-114.13921387 137.18407227 -113.87608398 136.13767578 -113.60498047 135.05957031 C-103.10563192 94.6427232 -83.6575235 56.47784576 -54.9453125 25.984375 C-53.15812477 24.04894128 -51.46618921 22.12289422 -49.80078125 20.08984375 C-47.31439226 17.12561453 -44.79917973 14.69169107 -41.79725647 12.27058411 C-39.36327319 10.28191015 -39.36327319 10.28191015 -37.30735779 7.94487 C-26.96616147 -1.97029625 -13.47594174 -0.09157679 0 0 Z " fill="#000000" transform="translate(126.40234375,132.76953125)"/>
<path d="M0 0 C19.90088402 16.13265133 32.66354433 39.22585597 35.52978516 64.75415039 C36.95454501 91.65450871 31.66287508 118.0958273 13.33203125 138.7109375 C11.11405345 141.10913074 8.82550461 143.43021933 6.52978516 145.75415039 C5.94841797 146.40770508 5.36705078 147.06125977 4.76806641 147.73461914 C-9.85006849 163.82561397 -34.23362559 172.12560065 -55.30029297 173.65209961 C-82.22764211 174.91848484 -107.55212639 166.56244416 -127.65771484 148.44165039 C-147.98028955 129.42662432 -157.52572389 106.06028731 -159.72021484 78.62915039 C-160.29378651 54.53914057 -151.88315646 29.53483715 -135.47021484 11.75415039 C-134.59880859 10.7912207 -133.72740234 9.82829102 -132.82958984 8.83618164 C-98.13487368 -28.31940441 -39.57773085 -31.23668036 0 0 Z M-68.64990234 7.16430664 C-71.42441488 11.11173542 -70.90059492 14.80733064 -70.72021484 19.50415039 C-70.69314453 20.83639648 -70.69314453 20.83639648 -70.66552734 22.19555664 C-70.61848859 24.38285887 -70.55278493 26.56794855 -70.47021484 28.75415039 C-71.52208984 28.72063477 -72.57396484 28.68711914 -73.65771484 28.65258789 C-80.94416488 28.84669414 -87.62690145 31.93940162 -92.93505859 36.93383789 C-98.20337002 43.18074152 -100.88978761 50.59155295 -100.47021484 58.75415039 C-99.21350873 66.62950873 -95.82894529 73.27248156 -89.54833984 78.28930664 C-79.81757352 84.75762612 -69.85320568 84.09847423 -58.52099609 84.14477539 C-57.30541016 84.16797852 -56.08982422 84.19118164 -54.83740234 84.21508789 C-53.73509277 84.22330566 -52.6327832 84.23152344 -51.49707031 84.23999023 C-47.8055791 84.86704948 -46.13695798 86.17764219 -43.47021484 88.75415039 C-41.62158797 92.45140414 -41.9943439 96.71876481 -42.47021484 100.75415039 C-44.26668339 103.68838234 -45.41432195 105.22620394 -48.47021484 106.75415039 C-52.69785589 107.01204183 -56.92931428 107.02516993 -61.16381836 107.04931641 C-63.26466536 107.06650273 -65.36392686 107.11038638 -67.46435547 107.15454102 C-68.8061408 107.16467091 -70.14793948 107.17318609 -71.48974609 107.17993164 C-72.70766846 107.19451416 -73.92559082 107.20909668 -75.18041992 107.22412109 C-79.09093676 106.66547583 -80.71103574 105.53010166 -83.47021484 102.75415039 C-84.50927734 100.06274414 -84.50927734 100.06274414 -85.09521484 97.19165039 C-86.09691628 92.26548852 -86.09691628 92.26548852 -89.47021484 88.75415039 C-93.29561718 88.267281 -95.55498807 88.21440127 -98.90771484 90.19165039 C-101.26911332 94.06434389 -101.16527481 97.33555489 -100.47021484 101.75415039 C-98.42140382 108.64874479 -94.61152336 115.16877942 -88.41162109 119.03930664 C-83.87092564 121.36380945 -79.93893229 122.89137818 -74.78271484 122.81665039 C-73.97447266 122.80762695 -73.16623047 122.79860352 -72.33349609 122.78930664 C-71.71861328 122.77770508 -71.10373047 122.76610352 -70.47021484 122.75415039 C-70.48592529 123.30876953 -70.50163574 123.86338867 -70.51782227 124.43481445 C-70.58034347 126.95782191 -70.61925826 129.48066615 -70.65771484 132.00415039 C-70.68285156 132.8768457 -70.70798828 133.74954102 -70.73388672 134.64868164 C-70.83069972 139.67586119 -70.83069972 139.67586119 -69.10693359 144.30493164 C-66.8653662 146.28970849 -65.46208455 146.6829154 -62.47021484 146.75415039 C-59.80483694 145.57642527 -58.05466065 144.55952073 -56.33349609 142.18774414 C-55.02027653 138.48577224 -55.26126516 134.89812397 -55.34521484 131.00415039 C-55.35423828 130.21137695 -55.36326172 129.41860352 -55.37255859 128.60180664 C-55.39604473 126.65245758 -55.43191347 124.70326465 -55.47021484 122.75415039 C-54.19146484 122.85727539 -52.91271484 122.96040039 -51.59521484 123.06665039 C-44.82208708 123.03470167 -39.39610256 120.37811723 -34.38818359 115.88696289 C-27.52200426 108.4570341 -25.80808966 102.30506402 -26.06396484 92.26196289 C-27.01604237 84.04113968 -30.98117043 78.54954715 -37.11474609 73.22680664 C-46.06497918 67.63105561 -55.13806265 68.30079648 -65.38037109 68.22680664 C-66.58822266 68.20489258 -67.79607422 68.18297852 -69.04052734 68.16040039 C-70.13123535 68.15331055 -71.22194336 68.1462207 -72.34570312 68.13891602 C-76.96017262 67.57067067 -80.35309014 66.09470003 -83.34521484 62.50415039 C-84.80039361 58.94704673 -84.93910167 56.57222881 -84.47021484 52.75415039 C-82.35430891 48.74904273 -80.70427045 46.37245307 -76.47021484 44.75415039 C-72.18954256 44.32593091 -67.89506972 44.42990215 -63.59521484 44.44165039 C-62.42345703 44.42553711 -61.25169922 44.40942383 -60.04443359 44.39282227 C-49.12323714 44.38662408 -49.12323714 44.38662408 -44.47021484 47.75415039 C-42.52555246 50.67114396 -42.16671056 51.8747882 -41.65771484 55.19165039 C-40.95259112 58.54235458 -40.52624856 59.68877772 -38.22021484 62.37915039 C-34.74257259 64.11797152 -33.13493278 63.94916711 -29.47021484 62.75415039 C-27.34680281 61.12268724 -26.56760232 60.24021043 -26.03662109 57.59008789 C-26.0243513 49.86011818 -28.10467782 44.47142285 -32.22021484 38.00415039 C-37.82865402 32.39571121 -44.63225669 28.81889192 -52.68115234 28.71118164 C-54.06173828 28.73245117 -54.06173828 28.73245117 -55.47021484 28.75415039 C-55.43541016 27.5849707 -55.40060547 26.41579102 -55.36474609 25.21118164 C-55.33659768 23.66301898 -55.30929865 22.11484071 -55.28271484 20.56665039 C-55.25757813 19.79772461 -55.23244141 19.02879883 -55.20654297 18.23657227 C-55.14644296 13.56880528 -55.42919461 10.54622162 -58.47021484 6.75415039 C-62.05519005 4.96166279 -65.274738 4.98073258 -68.64990234 7.16430664 Z " fill="#000000" transform="translate(345.47021484375,311.245849609375)"/>
<path d="M0 0 C0.88187988 0.12616699 1.76375977 0.25233398 2.67236328 0.38232422 C12.26192485 1.85135634 21.625663 4.19337559 31.0234375 6.5703125 C48.84436565 10.97887899 65.80819065 8.97707525 83.4375 4.875 C86.46931979 4.19380474 89.50285294 3.52118077 92.5378418 2.85424805 C94.49283938 2.4232933 96.44627127 1.98514507 98.39770508 1.53833008 C121.22162714 -3.57326685 121.22162714 -3.57326685 129.5 0.3125 C132.40898872 2.65845865 132.40898872 2.65845865 132.74609375 5.21875 C133.45065179 22.46974683 124.53589392 38.41484019 116.03086853 52.93545532 C114.37579252 55.79518946 114.37579252 55.79518946 113.44721985 58.76281738 C111.89588331 62.44372429 110.56944432 64.34708319 107.4375 66.875 C99.79246642 69.15546842 91.33661747 68.5212046 83.4453125 68.4765625 C81.0554703 68.49414118 78.66564641 68.51439427 76.27584839 68.53720093 C71.27025337 68.5714405 66.26680141 68.56392103 61.26123047 68.52880859 C54.85736829 68.48854808 48.46115662 68.56606021 42.05835152 68.67690468 C37.12324566 68.74681841 32.18996783 68.74670986 27.25448227 68.72648239 C24.89496165 68.7265355 22.53531918 68.74983668 20.17627335 68.79716873 C2.22937795 69.10790925 2.22937795 69.10790925 -2.4209919 65.3886013 C-5.87891196 61.33181455 -7.70920594 56.82380928 -9.5625 51.875 C-10.40877331 50.31646841 -11.27752474 48.76905621 -12.19921875 47.25390625 C-12.88945918 45.98536493 -13.57327329 44.71330167 -14.25 43.4375 C-14.61738281 42.74575684 -14.98476562 42.05401367 -15.36328125 41.34130859 C-20.39191832 31.62909391 -25.66366268 20.3889618 -25.8125 9.375 C-25.83828125 8.2303125 -25.8640625 7.085625 -25.890625 5.90625 C-25.5625 2.875 -25.5625 2.875 -24.234375 1.03125 C-17.74053764 -3.45981509 -7.35101744 -1.07325721 0 0 Z " fill="#000000" transform="translate(106.5625,28.125)"/>
<path d="M0 0 C0.74128143 0.00093658 1.48256287 0.00187317 2.24630737 0.00283813 C72.56917621 0.19417621 72.56917621 0.19417621 92.5625 20.1875 C92.8125 23.4375 92.8125 23.4375 91.5625 27.1875 C72.7933434 43.97028798 35.48172286 45.56229705 11.5625 46.1875 C10.75441895 46.20941406 9.94633789 46.23132813 9.11376953 46.25390625 C-21.07921353 46.93998047 -64.82611804 47.3600704 -89.765625 27.31640625 C-91.4375 25.1875 -91.4375 25.1875 -91.890625 22.625 C-91.33144693 19.6170076 -90.6492166 18.94872814 -88.1875 17.1875 C-64.01594467 0.77937824 -28.13684757 -0.04637223 0 0 Z " fill="#000000" transform="translate(403.4375,173.8125)"/>
<path d="M0 0 C3.92721118 1.26479301 7.70054969 2.71025928 11.5 4.3125 C33.24277124 12.65995124 57.84190341 15.35597414 81 16 C81.7842334 16.02191406 82.5684668 16.04382813 83.37646484 16.06640625 C114.98223015 16.79506943 151.19766307 15.37925849 180.03125 0.91796875 C182 0 182 0 184 0 C185.35416667 11.26800412 185.35416667 11.26800412 182.41796875 15.0234375 C180.02135195 16.65572786 177.65830189 17.84125302 175 19 C174.09507812 19.43570313 173.19015625 19.87140625 172.2578125 20.3203125 C152.14248486 29.42399737 127.95278205 32.58696106 106 33 C104.53820312 33.0306958 104.53820312 33.0306958 103.046875 33.06201172 C70.24773098 33.64427352 30.99401103 33.38029429 2.25390625 15.26953125 C0 13 0 13 -0.48828125 9.765625 C-0.43027344 8.60546875 -0.37226563 7.4453125 -0.3125 6.25 C-0.26738281 5.07953125 -0.22226562 3.9090625 -0.17578125 2.703125 C-0.11777344 1.81109375 -0.05976563 0.9190625 0 0 Z " fill="#000000" transform="translate(312,218)"/>
<path d="M0 0 C3.94222106 1.27149693 7.74217538 2.71679978 11.5625 4.3125 C60.89574708 23.25244423 129.3656044 21.98111916 178 2 C179.99424906 1.31632236 181.99250363 0.64374124 184 0 C184.21758839 2.03686913 184.37193595 4.08054894 184.5 6.125 C184.5928125 7.26195312 184.685625 8.39890625 184.78125 9.5703125 C183.76520217 14.03076245 182.01885093 15.20258496 178.30908203 17.67822266 C174.72014825 19.73261973 171.08632834 21.26137443 167.1875 22.625 C166.36854248 22.91785889 165.54958496 23.21071777 164.70581055 23.51245117 C150.88946523 28.2779362 136.50498247 30.57352657 122 32 C120.91976562 32.11214844 119.83953125 32.22429687 118.7265625 32.33984375 C85.17313936 35.19462218 48.34112492 34.06494163 16.375 22.5625 C15.63596436 22.29864502 14.89692871 22.03479004 14.13549805 21.76293945 C8.9057173 19.72869923 3.85373559 17.16097117 0 13 C-0.78125 9.5703125 -0.78125 9.5703125 -0.5 6.125 C-0.39171875 4.39636719 -0.39171875 4.39636719 -0.28125 2.6328125 C-0.1884375 1.76398438 -0.095625 0.89515625 0 0 Z " fill="#000000" transform="translate(312,249)"/>
<path d="M0 0 C1.18756373 11.11691607 1.18756373 11.11691607 -1.25390625 14.98828125 C-3.40286132 16.71023013 -5.50239263 17.83275824 -8 19 C-9.02222656 19.49757813 -10.04445313 19.99515625 -11.09765625 20.5078125 C-41.29131967 33.81576161 -75.57543946 33.54553777 -107.93817139 33.03204346 C-109.80652672 33.00300682 -111.67499247 32.98130434 -113.54345703 32.96044922 C-130.39714415 32.64624136 -130.39714415 32.64624136 -136.5 26.4375 C-137.20898438 25.550625 -137.91796875 24.66375 -138.6484375 23.75 C-141.9001415 19.94734283 -145.73405983 17.50531335 -149.88867188 14.78100586 C-151.27052083 13.87109416 -152.63697793 12.93787882 -154 12 C-154 11.67 -154 11.34 -154 11 C-146.11876755 11.72392788 -138.30536857 12.75571674 -130.47460938 13.89453125 C-118.22305323 15.62108507 -106.05464422 16.20759375 -93.6875 16.1875 C-92.99334991 16.18689575 -92.29919983 16.1862915 -91.58401489 16.18566895 C-63.56791923 16.12003967 -31.03566769 14.82889577 -5.55859375 1.8125 C-2 0 -2 0 0 0 Z " fill="#000000" transform="translate(496,280)"/>
<path d="M0 0 C1.19819899 11.21647391 1.19819899 11.21647391 -1.359375 15.0234375 C-3.48439246 16.68305857 -5.56473409 17.84125413 -8 19 C-8.83660156 19.42410156 -9.67320312 19.84820312 -10.53515625 20.28515625 C-25.64438148 27.23412482 -42.58840647 30.12895565 -59 32 C-59.84868652 32.09788818 -60.69737305 32.19577637 -61.57177734 32.29663086 C-71.28383026 33.26239998 -81.00248967 33.11083627 -90.75 33.0625 C-92.5260404 33.05747286 -94.30208218 33.05291211 -96.078125 33.04882812 C-100.38545148 33.03792357 -104.69271005 33.02072652 -109 33 C-110.33838733 30.54429825 -111.67086232 28.08570084 -113 25.625 C-113.3815625 24.92632812 -113.763125 24.22765625 -114.15625 23.5078125 C-117 18.2265625 -117 18.2265625 -117 16 C-115.84927002 16.01571045 -114.69854004 16.0314209 -113.51293945 16.04760742 C-74.91420565 16.52696753 -35.53496897 0 0 0 Z " fill="#000000" transform="translate(496,311)"/>
<path d="M0 0 C0.93274201 12.76474707 0.93274201 12.76474707 -2.3125 17.0625 C-4 18.06640625 -4 18.06640625 -6 19 C-6.7425 19.40089844 -7.485 19.80179687 -8.25 20.21484375 C-31.99646722 32.12427625 -60.56695831 34.21712847 -86.6875 34.0625 C-88.17903494 34.05747144 -89.67057154 34.05291095 -91.16210938 34.04882812 C-94.77481517 34.0387984 -98.38728545 34.01920522 -102 34 C-101.34 28.39 -100.68 22.78 -100 17 C-98.21980469 16.96261719 -96.43960937 16.92523438 -94.60546875 16.88671875 C-63.1097792 16.0950973 -28.9276776 0 0 0 Z " fill="#000000" transform="translate(496,373)"/>
<path d="M0 0 C0.932204 11.79065427 0.932204 11.79065427 -2.3125 16 C-4 17.03125 -4 17.03125 -6 18 C-6.7425 18.4021875 -7.485 18.804375 -8.25 19.21875 C-31.85203328 31.01976664 -60.22418772 33.22148967 -86.1875 33.0625 C-87.63085781 33.05747088 -89.07421733 33.05291049 -90.51757812 33.04882812 C-94.01175505 33.0379438 -97.50586612 33.0207585 -101 33 C-101.33895656 31.27192682 -101.67091525 29.54248026 -102 27.8125 C-102.185625 26.84957031 -102.37125 25.88664062 -102.5625 24.89453125 C-102.96877612 22.2065794 -103.07933572 19.71228981 -103 17 C-102.20754883 16.98541748 -101.41509766 16.97083496 -100.59863281 16.95581055 C-67.00626461 16.272273 -30.84694962 0 0 0 Z " fill="#000000" transform="translate(496,342)"/>
<path d="M0 0 C29.7 0 59.4 0 90 0 C90 2.97 90 5.94 90 9 C60.3 9 30.6 9 0 9 C0 6.03 0 3.06 0 0 Z " fill="#000000" transform="translate(115,110)"/>
</svg>
