<?xml version="1.0" encoding="UTF-8"?>
<svg version="1.1" xmlns="http://www.w3.org/2000/svg" width="512" height="512">
<path d="M0 0 C6.91818902 5.28329361 11.26144055 11.55116864 12.5703125 20.19921875 C12.80379392 25.03665073 12.75878055 29.85767357 12.6953125 34.69921875 C12.6540625 39.15421875 12.6128125 43.60921875 12.5703125 48.19921875 C29.0703125 48.19921875 45.5703125 48.19921875 62.5703125 48.19921875 C62.41283514 38.07292032 62.41283514 38.07292032 62.20996094 27.94750977 C62.14978954 20.2567323 62.41367201 13.91143072 66.5703125 7.19921875 C67.1065625 6.29171875 67.6428125 5.38421875 68.1953125 4.44921875 C74.07060407 -1.11684695 80.00867451 -3.14048567 88.0703125 -3.42578125 C96.66042701 -3.10506053 103.0714491 -0.80109697 109.0078125 5.51171875 C115.82407218 13.58949515 114.93287417 23.29248382 114.7578125 33.19921875 C114.6959375 38.14921875 114.6340625 43.09921875 114.5703125 48.19921875 C131.0703125 48.19921875 147.5703125 48.19921875 164.5703125 48.19921875 C164.49167867 39.71873819 164.49167867 39.71873819 164.39013672 31.23852539 C164.33836982 20.10947719 165.27948092 12.03269973 173.0078125 3.51171875 C179.95589704 -2.75850388 185.96882771 -3.17428263 195.08984375 -3.0703125 C202.8771844 -2.46725245 207.03665909 1.15688644 212.02734375 6.90625 C215.83116323 12.55901465 216.94512579 17.0897157 216.86328125 23.8828125 C216.85903641 24.5831813 216.85479156 25.28355011 216.85041809 26.00514221 C216.83378406 28.21607875 216.7961643 30.42606332 216.7578125 32.63671875 C216.74274576 34.1464711 216.72906086 35.65623791 216.71679688 37.16601562 C216.68393171 40.84405309 216.63225832 44.52154282 216.5703125 48.19921875 C217.56772461 48.17827148 218.56513672 48.15732422 219.59277344 48.13574219 C223.34994729 48.06246661 227.10706026 48.01710666 230.86474609 47.97949219 C232.48041459 47.95957343 234.0960129 47.93242801 235.71142578 47.89746094 C252.23493272 47.54916631 266.24369904 50.8111974 278.7265625 62.328125 C287.55067479 71.28310336 293.79965056 83.60485628 293.79690552 96.32859802 C293.78658295 97.0580513 293.77626038 97.78750458 293.765625 98.5390625 C293.76138016 99.68949791 293.76138016 99.68949791 293.75704956 100.86317444 C293.74594725 103.28785496 293.72086217 105.71215184 293.6953125 108.13671875 C293.6852698 109.79101025 293.67614622 111.4453076 293.66796875 113.09960938 C293.64604067 117.13295798 293.61158093 121.16602355 293.5703125 125.19921875 C295.00697266 125.16779785 295.00697266 125.16779785 296.47265625 125.13574219 C300.05827626 125.06282396 303.64383203 125.01723317 307.22998047 124.97949219 C308.77599137 124.95949372 310.32192777 124.93228544 311.86767578 124.89746094 C329.11789475 124.51882476 329.11789475 124.51882476 336.77734375 131.09375 C344.21147006 139.9749082 345.54798581 146.60106683 344.5703125 158.19921875 C343.15506718 165.24253268 339.28914051 169.03651465 333.8203125 173.38671875 C325.45517971 178.05188896 316.31107115 177.44698026 307.0078125 177.32421875 C302.5734375 177.28296875 298.1390625 177.24171875 293.5703125 177.19921875 C293.5703125 193.69921875 293.5703125 210.19921875 293.5703125 227.19921875 C303.36752505 227.04177592 303.36752505 227.04177592 313.16381836 226.83886719 C322.57998431 226.76277696 328.90227837 228.14704259 336.8203125 233.32421875 C342.67425373 239.44424821 344.88682971 245.2159421 345.1953125 253.69921875 C344.89687507 261.48215278 343.31375842 267.51726681 337.66796875 273.0703125 C331.52286841 277.98875174 325.85474588 279.45749422 317.984375 279.39453125 C316.69998535 279.38953613 315.4155957 279.38454102 314.09228516 279.37939453 C312.47628418 279.36118652 310.8602832 279.34297852 309.1953125 279.32421875 C304.0390625 279.28296875 298.8828125 279.24171875 293.5703125 279.19921875 C293.5703125 295.69921875 293.5703125 312.19921875 293.5703125 329.19921875 C302.05079306 329.12058492 302.05079306 329.12058492 310.53100586 329.01904297 C321.66005406 328.96727607 329.73683152 329.90838717 338.2578125 337.63671875 C344.56352662 344.6241317 344.88171536 350.56251293 344.77734375 359.71875 C344.33637156 367.1320749 341.91414089 371.39446996 336.77734375 376.65625 C328.44441044 382.48192904 319.26940068 381.55060345 309.5703125 381.38671875 C308.01694002 381.37164848 306.46355344 381.35796421 304.91015625 381.34570312 C301.12985635 381.31287372 297.35024187 381.26122129 293.5703125 381.19921875 C293.59125977 382.19663086 293.61220703 383.19404297 293.63378906 384.22167969 C293.70706464 387.97885354 293.75242459 391.73596651 293.79003906 395.49365234 C293.80995782 397.10932084 293.83710324 398.72491915 293.87207031 400.34033203 C294.22036494 416.86383897 290.95833385 430.87260529 279.44140625 443.35546875 C270.48642789 452.17958104 258.16467497 458.42855681 245.44093323 458.42581177 C244.71147995 458.4154892 243.98202667 458.40516663 243.23046875 458.39453125 C242.46351181 458.39170135 241.69655487 458.38887146 240.90635681 458.38595581 C238.48167629 458.3748535 236.05737941 458.34976842 233.6328125 458.32421875 C231.978521 458.31417605 230.32422365 458.30505247 228.66992188 458.296875 C224.63657327 458.27494692 220.6035077 458.24048718 216.5703125 458.19921875 C216.59125977 459.15699219 216.61220703 460.11476563 216.63378906 461.1015625 C216.70670729 464.68718251 216.75229808 468.27273828 216.79003906 471.85888672 C216.81003753 473.40489762 216.83724581 474.95083402 216.87207031 476.49658203 C217.25070649 493.746801 217.25070649 493.746801 210.67578125 501.40625 C202.77820226 508.01705441 197.30721471 509.79259651 186.953125 509.55078125 C179.8020344 508.80759631 175.21657253 505.61985545 170.5703125 500.19921875 C163.76161502 491.44517913 164.30612874 482.31659949 164.4453125 471.69921875 C164.4865625 467.24421875 164.5278125 462.78921875 164.5703125 458.19921875 C148.0703125 458.19921875 131.5703125 458.19921875 114.5703125 458.19921875 C114.72778986 468.32551718 114.72778986 468.32551718 114.93066406 478.45092773 C114.99083546 486.1417052 114.72695299 492.48700678 110.5703125 499.19921875 C110.0340625 500.10671875 109.4978125 501.01421875 108.9453125 501.94921875 C103.07002093 507.51528445 97.13195049 509.53892317 89.0703125 509.82421875 C80.48019799 509.50349803 74.0691759 507.19953447 68.1328125 500.88671875 C61.31655282 492.80894235 62.20775083 483.10595368 62.3828125 473.19921875 C62.4446875 468.24921875 62.5065625 463.29921875 62.5703125 458.19921875 C46.0703125 458.19921875 29.5703125 458.19921875 12.5703125 458.19921875 C12.64896963 467.00879558 12.64896963 467.00879558 12.75048828 475.81811523 C12.79567674 485.90024357 12.45475035 495.27952708 5.5703125 503.19921875 C-2.68414887 509.81263413 -11.188029 509.94465592 -21.4296875 509.19921875 C-28.06951494 507.58050305 -32.69508445 502.74912253 -36.4296875 497.19921875 C-39.00184107 492.04376986 -39.79328297 488.37764263 -39.72265625 482.515625 C-39.71841141 481.8152562 -39.71416656 481.11488739 -39.70979309 480.39329529 C-39.69315906 478.18235875 -39.6555393 475.97237418 -39.6171875 473.76171875 C-39.60212076 472.2519664 -39.58843586 470.74219959 -39.57617188 469.23242188 C-39.54330671 465.55438441 -39.49163332 461.87689468 -39.4296875 458.19921875 C-40.42709961 458.22016602 -41.42451172 458.24111328 -42.45214844 458.26269531 C-46.20932229 458.33597089 -49.96643526 458.38133084 -53.72412109 458.41894531 C-55.33978959 458.43886407 -56.9553879 458.46600949 -58.57080078 458.50097656 C-75.09430772 458.84927119 -89.10307404 455.5872401 -101.5859375 444.0703125 C-110.41004979 435.11533414 -116.65902556 422.79358122 -116.65628052 410.06983948 C-116.64595795 409.3403862 -116.63563538 408.61093292 -116.625 407.859375 C-116.6221701 407.09241806 -116.61934021 406.32546112 -116.61642456 405.53526306 C-116.60532225 403.11058254 -116.58023717 400.68628566 -116.5546875 398.26171875 C-116.5446448 396.60742725 -116.53552122 394.9531299 -116.52734375 393.29882812 C-116.50541567 389.26547952 -116.47095593 385.23241395 -116.4296875 381.19921875 C-117.38746094 381.22016602 -118.34523437 381.24111328 -119.33203125 381.26269531 C-122.91765126 381.33561354 -126.50320703 381.38120433 -130.08935547 381.41894531 C-131.63536637 381.43894378 -133.18130277 381.46615206 -134.72705078 381.50097656 C-151.97726975 381.87961274 -151.97726975 381.87961274 -159.63671875 375.3046875 C-167.07084506 366.4235293 -168.40736081 359.79737067 -167.4296875 348.19921875 C-166.01444218 341.15590482 -162.14851551 337.36192285 -156.6796875 333.01171875 C-148.31455471 328.34654854 -139.17044615 328.95145724 -129.8671875 329.07421875 C-125.4328125 329.11546875 -120.9984375 329.15671875 -116.4296875 329.19921875 C-116.4296875 312.69921875 -116.4296875 296.19921875 -116.4296875 279.19921875 C-126.22690005 279.35666158 -126.22690005 279.35666158 -136.02319336 279.55957031 C-145.43935931 279.63566054 -151.76165337 278.25139491 -159.6796875 273.07421875 C-165.53362873 266.95418929 -167.74620471 261.1824954 -168.0546875 252.69921875 C-167.75625007 244.91628472 -166.17313342 238.88117069 -160.52734375 233.328125 C-154.38224341 228.40968576 -148.71412088 226.94094328 -140.84375 227.00390625 C-139.55936035 227.00890137 -138.2749707 227.01389648 -136.95166016 227.01904297 C-135.33565918 227.03725098 -133.7196582 227.05545898 -132.0546875 227.07421875 C-126.8984375 227.11546875 -121.7421875 227.15671875 -116.4296875 227.19921875 C-116.4296875 210.69921875 -116.4296875 194.19921875 -116.4296875 177.19921875 C-124.91016806 177.27785258 -124.91016806 177.27785258 -133.39038086 177.37939453 C-144.51942906 177.43116143 -152.59620652 176.49005033 -161.1171875 168.76171875 C-167.42290162 161.7743058 -167.74109036 155.83592457 -167.63671875 146.6796875 C-167.19574656 139.2663626 -164.77351589 135.00396754 -159.63671875 129.7421875 C-151.30378544 123.91650846 -142.12877568 124.84783405 -132.4296875 125.01171875 C-130.87631502 125.02678902 -129.32292844 125.04047329 -127.76953125 125.05273438 C-123.98923135 125.08556378 -120.20961687 125.13721621 -116.4296875 125.19921875 C-116.45063477 124.20180664 -116.47158203 123.20439453 -116.49316406 122.17675781 C-116.56643964 118.41958396 -116.61179959 114.66247099 -116.64941406 110.90478516 C-116.66933282 109.28911666 -116.69647824 107.67351835 -116.73144531 106.05810547 C-117.07973994 89.53459853 -113.81770885 75.52583221 -102.30078125 63.04296875 C-93.34580289 54.21885646 -81.02404997 47.96988069 -68.30030823 47.97262573 C-67.20612831 47.98810959 -67.20612831 47.98810959 -66.08984375 48.00390625 C-65.32288681 48.00673615 -64.55592987 48.00956604 -63.76573181 48.01248169 C-61.34105129 48.023584 -58.91675441 48.04866908 -56.4921875 48.07421875 C-54.837896 48.08426145 -53.18359865 48.09338503 -51.52929688 48.1015625 C-47.49594827 48.12349058 -43.4628827 48.15795032 -39.4296875 48.19921875 C-39.44539795 47.24144531 -39.4611084 46.28367188 -39.47729492 45.296875 C-39.53198462 41.7111873 -39.56617797 38.12553575 -39.59448242 34.53955078 C-39.6094808 32.99358907 -39.62988637 31.44766927 -39.65600586 29.90185547 C-39.94692081 12.23019805 -39.94692081 12.23019805 -34.88671875 4.9921875 C-25.92978625 -3.75199126 -11.22968405 -6.9274025 0 0 Z M-64.4296875 100.19921875 C-64.4296875 201.17921875 -64.4296875 302.15921875 -64.4296875 406.19921875 C36.5503125 406.19921875 137.5303125 406.19921875 241.5703125 406.19921875 C241.5703125 305.21921875 241.5703125 204.23921875 241.5703125 100.19921875 C140.5903125 100.19921875 39.6103125 100.19921875 -64.4296875 100.19921875 Z " fill="#000000" transform="translate(167.4296875,2.80078125)"/>
<path d="M0 0 C67.98 0 135.96 0 206 0 C206 67.98 206 135.96 206 206 C138.02 206 70.04 206 0 206 C0 138.02 0 70.04 0 0 Z " fill="#000000" transform="translate(153,153)"/>
</svg>
