<?xml version="1.0" encoding="UTF-8"?>
<svg version="1.1" xmlns="http://www.w3.org/2000/svg" width="512" height="512">
<path d="M0 0 C1.19510954 -0.00384115 2.39021908 -0.00768229 3.62154406 -0.01163983 C4.93086298 -0.01077335 6.24018189 -0.00990687 7.58917713 -0.00901413 C8.99704803 -0.01159872 10.4049182 -0.01461215 11.81278735 -0.01801753 C15.68152641 -0.02607973 19.5502469 -0.02787667 23.41899335 -0.028615 C27.59160158 -0.03046691 31.7642002 -0.03801495 35.93680286 -0.04475021 C45.06085285 -0.05832856 54.18489845 -0.06435749 63.30895686 -0.06876087 C69.00690571 -0.07152416 74.70485286 -0.07576167 80.40280056 -0.08026505 C96.18115825 -0.0924571 111.95951459 -0.10275651 127.73787689 -0.10614014 C128.74760871 -0.1063597 129.75734054 -0.10657927 130.79767029 -0.10680549 C131.80980741 -0.10702377 132.82194453 -0.10724204 133.86475247 -0.10746694 C135.91570103 -0.1079104 137.96664959 -0.10835696 140.01759815 -0.10880661 C141.54360761 -0.10913875 141.54360761 -0.10913875 143.10044555 -0.10947761 C159.58303492 -0.11342518 176.06558006 -0.13087824 192.54815235 -0.15416613 C209.47368643 -0.17788669 226.39919832 -0.19034231 243.32474929 -0.19150805 C252.82654848 -0.19242442 262.32829005 -0.19816711 271.83007336 -0.21632767 C279.92146143 -0.23173815 288.01277408 -0.23684352 296.10417404 -0.22858956 C300.23097251 -0.22468641 304.35761912 -0.22559624 308.48439884 -0.23964691 C312.26645889 -0.2524059 316.04825328 -0.25117094 319.83031306 -0.2390562 C321.83783447 -0.23618117 323.84536056 -0.24801982 325.85284537 -0.26047826 C338.31189419 -0.19252038 348.96844641 2.628411 358.33717823 11.20564651 C369.06617554 22.59030477 370.0304585 36.08049607 371.40628529 51.06393814 C371.52571159 52.32245431 371.64513789 53.58097048 371.76818317 54.8776235 C372.09667174 58.3407123 372.4192431 61.80432965 372.74077213 65.26807058 C373.08971342 69.01568596 373.44421587 72.76277596 373.79799366 76.50993729 C374.48922128 83.8407536 375.17532154 91.17204102 375.85961504 98.5035075 C376.6581611 107.05727605 377.4615791 115.61058494 378.26511931 124.16388553 C379.6999863 139.43939279 381.13007973 154.71534326 382.55763721 169.99153519 C383.9397089 184.78097439 385.3256982 199.57003987 386.71584034 214.35872269 C388.23220399 230.49023839 389.74639748 246.62195502 391.25684971 262.7540254 C391.41832387 264.47859069 391.57979891 266.2031559 391.74127483 267.92772102 C391.82070334 268.77605341 391.90013185 269.6243858 391.98196729 270.49842523 C392.53890709 276.44538105 393.09731702 282.39219775 393.65627193 288.33896446 C394.33890584 295.60222751 395.01900178 302.86572325 395.69600219 310.12951363 C396.04077248 313.82809263 396.38656875 317.52656715 396.73537731 321.22476768 C399.13514614 346.68403052 399.13514614 346.68403052 399.78601551 357.61871719 C399.85059998 358.65270554 399.85059998 358.65270554 399.91648918 359.70758253 C400.73472721 375.43560045 394.94434831 389.18413434 385.07155323 401.13142776 C371.29480293 414.92880194 354.69618618 419.41701453 335.70908648 419.53265798 C334.33756221 419.52617611 332.96603928 419.51940633 331.59451771 419.51237869 C330.09566898 419.51584514 328.59682282 419.52061626 327.09798187 419.52656043 C323.0239196 419.5389649 318.95007094 419.53294878 314.87600839 419.52360177 C310.46486786 419.51676778 306.05376211 419.52731394 301.64262867 419.53554153 C293.01855299 419.54883531 284.39455592 419.54602053 275.77047724 419.53730361 C268.75675912 419.53050982 261.74306293 419.52961766 254.72934246 419.53287506 C253.72853825 419.53333476 252.72773403 419.53379446 251.69660242 419.53426809 C249.66304612 419.53522733 247.62948983 419.53619997 245.59593355 419.53718586 C226.55636621 419.54572711 207.51684231 419.53592574 188.4772821 419.51978476 C172.16648029 419.5063848 155.85574255 419.50870949 139.5449419 419.52254105 C120.5719095 419.5386228 101.59891511 419.5449011 82.62587684 419.53570426 C80.59977782 419.53474868 78.5736788 419.53380557 76.54757977 419.53287506 C75.55088395 419.53241223 74.55418813 419.53194941 73.52728941 419.53147256 C66.52847534 419.52889029 59.52968552 419.53323718 52.53087521 419.54031372 C43.99230049 419.5487579 35.45380843 419.54638762 26.9152431 419.53047149 C22.56486304 419.52262755 18.21462041 419.51943035 13.8642416 419.52941895 C9.87131149 419.53844764 5.87864446 419.53330062 1.88573777 419.51748629 C0.45186241 419.51417267 -0.98203581 419.51575402 -2.41589611 419.52311365 C-21.86317103 419.61516714 -39.52030155 416.13803451 -53.92844677 402.13142776 C-64.40828107 390.46298606 -69.8548708 376.77584556 -69.94649398 361.02991927 C-69.77712114 357.9136562 -69.52246148 354.8187284 -69.22530651 351.71207047 C-69.12691933 350.55360164 -69.02853215 349.39513282 -68.92716354 348.20155889 C-68.60951966 344.50998794 -68.2699452 340.82086084 -67.92844677 337.13142776 C-67.71709462 334.73932627 -67.50673931 332.34713648 -67.29739094 329.95485878 C-66.67725948 322.942743 -66.02817587 315.93344604 -65.37308896 308.92452872 C-65.03518654 305.30319323 -64.70024477 301.68158348 -64.36483288 298.06001663 C-63.56067387 289.38414296 -62.75174857 280.70871638 -61.94235316 272.03332993 C-61.55932021 267.92640971 -61.17688436 263.8194339 -60.79441166 259.71246147 C-59.5206362 246.03645457 -58.24583366 232.36054422 -56.96738052 218.68497372 C-56.88611234 217.81562808 -56.80484415 216.94628245 -56.72111329 216.05059301 C-56.63967733 215.17945869 -56.55824136 214.30832438 -56.47433764 213.41079205 C-56.30938057 211.6462027 -56.14442541 209.88161317 -55.97947216 208.11702347 C-55.89765288 207.24177054 -55.8158336 206.36651761 -55.73153495 205.46474186 C-54.40203605 191.24041426 -53.07999789 177.01540365 -51.76108272 162.79009118 C-50.40112157 148.1232772 -49.03483959 133.45706303 -47.66229433 118.79142123 C-46.89406654 110.58131406 -46.12851036 102.37097788 -45.36999226 94.15996742 C-44.72538346 87.18231878 -44.07498234 80.20523997 -43.41717035 73.22882315 C-43.08243646 69.67698393 -42.75033405 66.12495377 -42.42565823 62.57217979 C-42.07251289 58.70873906 -41.70618688 54.84660898 -41.33874035 50.98450089 C-41.23989656 49.88030436 -41.14105277 48.77610783 -41.03921372 47.6384508 C-39.50756163 31.87249206 -37.05512773 18.44025669 -24.43235302 7.88924026 C-16.89537502 2.59807006 -9.16222693 0.0110709 0 0 Z M33.51686573 77.03377151 C29.81527614 82.40607857 29.76423056 87.2946535 29.77077198 93.61189651 C29.76648685 94.53875763 29.76220173 95.46561874 29.75778675 96.42056656 C29.75204864 98.38659731 29.75153937 100.35264929 29.7558794 102.31868362 C29.75899493 105.26381898 29.73573051 108.20790421 29.71022511 111.15291214 C29.6559141 126.82556293 31.01097103 141.87037727 36.25905323 156.75642776 C36.55948536 157.62904251 36.85991749 158.50165726 37.16945362 159.40071487 C49.76659485 194.87169782 75.51783934 221.65422497 108.97780323 238.07283401 C139.93624146 252.70039538 177.50367704 254.57254155 209.79958057 243.01228714 C222.26772776 238.178301 234.38802738 232.21582718 245.07155323 224.13142776 C245.97647511 223.44693558 246.88139698 222.76244339 247.81374073 222.05720901 C276.5703092 199.36966137 295.43348018 166.94656833 299.85890675 130.40393448 C300.24510522 126.27671542 300.27568172 122.14927206 300.30983448 118.00642776 C300.31790623 117.06009476 300.32597797 116.11376175 300.33429432 115.13875198 C300.34804917 113.14869855 300.35880927 111.15862239 300.36671925 109.16853714 C300.37827564 107.14372668 300.39878465 105.11894754 300.42824268 103.09431839 C300.47102048 100.1481472 300.48709681 97.20287132 300.49733448 94.25642776 C300.52359661 92.91233841 300.52359661 92.91233841 300.55038929 91.54109573 C300.52622871 84.48437654 298.80799768 79.19923853 294.07155323 73.88924026 C293.41155323 73.35041214 292.75155323 72.81158401 292.07155323 72.25642776 C291.41155323 71.70213089 290.75155323 71.14783401 290.07155323 70.57674026 C284.06416941 66.2354668 278.32252552 66.44540763 271.07155323 67.13142776 C264.95793754 68.78082004 260.34556959 72.76165462 257.07155323 78.13142776 C254.49387653 84.04161736 253.64078414 88.76128088 253.66530323 95.17049026 C253.64904896 96.43546844 253.64904896 96.43546844 253.63246632 97.72600174 C253.59847567 100.4028886 253.58268552 103.07935459 253.57155323 105.75642776 C253.45030797 134.56535551 246.60094602 157.78401543 226.44655323 179.19392776 C209.2182386 195.97441159 185.74095017 203.59601578 161.97389698 203.34236526 C139.01667543 202.10143437 118.43981759 193.47232044 102.07155323 177.13142776 C101.30069386 176.37216995 100.52983448 175.61291214 99.73561573 174.83064651 C80.44768711 154.71985405 76.61821699 129.36059994 76.63576221 102.72444534 C76.84491834 87.25407388 76.84491834 87.25407388 70.10670948 73.69392776 C69.13024464 72.92049026 69.13024464 72.92049026 68.13405323 72.13142776 C67.16145557 71.32705276 67.16145557 71.32705276 66.16920948 70.50642776 C54.30035341 62.72646997 42.00357808 67.10629172 33.51686573 77.03377151 Z " fill="#000000" transform="translate(90.92844676971436,80.86857223510742)"/>
<path d="M0 0 C1.05021627 -0.00297112 2.10043254 -0.00594224 3.18247354 -0.0090034 C6.70127747 -0.01767431 10.22004732 -0.0191973 13.73886108 -0.02069092 C16.26211622 -0.02532025 18.78537065 -0.03034506 21.30862427 -0.03573608 C28.16422823 -0.04885149 35.01982099 -0.05534045 41.87543535 -0.05974674 C46.16012603 -0.06251349 50.44481447 -0.06675165 54.72950363 -0.07125092 C66.60388611 -0.08344083 78.47826681 -0.09374042 90.35265541 -0.09712601 C91.49177676 -0.09745536 91.49177676 -0.09745536 92.65391066 -0.09779136 C93.79568436 -0.09811878 93.79568436 -0.09811878 94.9605242 -0.09845281 C96.50284743 -0.09889626 98.04517067 -0.09934283 99.5874939 -0.09979248 C100.35253177 -0.10001391 101.11756965 -0.10023534 101.90579049 -0.10046348 C114.29366069 -0.10440893 126.68147198 -0.12185647 139.06931944 -0.145152 C151.80254941 -0.16890277 164.53574986 -0.18132956 177.26900232 -0.18249393 C184.41224336 -0.18340864 191.55540765 -0.18910936 198.69862747 -0.20731354 C205.42094714 -0.22438527 212.14309671 -0.22593938 218.86544037 -0.21717453 C221.32762161 -0.21640528 223.78981074 -0.22073208 226.2519722 -0.23063278 C229.62388223 -0.24339248 232.99528035 -0.23745327 236.3671875 -0.22705078 C237.33200534 -0.23510719 238.29682319 -0.24316359 239.29087794 -0.25146413 C254.76384804 -0.14050154 266.01386911 5.27726633 276.81454468 16.07794189 C283.06931705 22.49184347 288.8304586 29.2595386 294.56454468 36.14044189 C178.40454468 36.14044189 62.24454468 36.14044189 -57.43545532 36.14044189 C-50.77113195 28.36539796 -50.77113195 28.36539796 -47.49795532 25.20294189 C-44.86234953 22.61715852 -42.42081119 19.97842271 -40.06045532 17.14044189 C-28.79223447 4.16026912 -16.7536411 -0.01484022 0 0 Z " fill="#000000" transform="translate(137.43545532226563,11.85955810546875)"/>
</svg>
