<?xml version="1.0" encoding="UTF-8"?>
<svg version="1.1" xmlns="http://www.w3.org/2000/svg" width="512" height="512">
<path d="M0 0 C2.78099719 1.43474991 5.52349689 2.93055201 8.25488281 4.45751953 C11.07141592 6.02018805 13.91222023 7.53187108 16.75830078 9.04003906 C28.20575549 15.12252595 39.53770999 21.38690338 50.7956543 27.81225586 C59.34643487 32.66741581 68.01879972 37.27808347 76.70788574 41.87884521 C85.89273878 46.74520493 94.97726531 51.75339511 104.00048828 56.91503906 C112.48096173 61.74238549 121.08795069 66.3150124 129.71099854 70.88040161 C138.83820189 75.71590062 147.8669402 80.68856935 156.8269043 85.8293457 C162.50409564 89.06524988 168.23370682 92.18119779 174.01611328 95.22363281 C174.73323486 95.60141373 175.45035645 95.97919464 176.18920898 96.36842346 C179.73793153 98.23560321 183.29125292 100.0932465 186.8515625 101.93823242 C205.49055748 111.65875986 205.49055748 111.65875986 207.76220703 117.84863281 C208.19722334 122.60829128 208.08638776 127.38371341 208.07470703 132.16113281 C208.09082031 133.46759766 208.10693359 134.7740625 208.12353516 136.12011719 C208.12986986 148.58048306 208.12986986 148.58048306 204.76220703 153.84863281 C201.22400694 156.30091945 197.87009035 156.09925055 193.65942383 156.10031509 C192.58049268 156.10467542 192.58049268 156.10467542 191.47976494 156.10912383 C189.05690104 156.11645307 186.63428806 156.10946693 184.21142578 156.1026001 C182.46190765 156.10490337 180.71239049 156.108079 178.96287537 156.11205459 C174.14534176 156.12042951 169.32788704 156.1162651 164.51035309 156.11008215 C159.31874549 156.10556967 154.12715175 156.11253542 148.93554688 156.11804199 C138.76124393 156.12695054 128.58697044 156.12500749 118.41266632 156.11921671 C110.14620216 156.11470597 101.87974628 156.11408477 93.61328125 156.11626434 C91.85069678 156.11672404 91.85069678 156.11672404 90.05250454 156.11719303 C87.6656456 156.11783246 85.27878666 156.11848088 82.89192772 156.11913821 C60.49307189 156.12484579 38.09423241 156.11827691 15.69537926 156.10753748 C-3.53756134 156.09860158 -22.7704778 156.1001535 -42.00341797 156.109375 C-64.32033181 156.12007009 -86.6372313 156.12429642 -108.95414734 156.11815047 C-111.33238729 156.11751335 -113.71062724 156.11688461 -116.08886719 156.11626434 C-117.25910714 156.11595579 -118.4293471 156.11564724 -119.63504887 156.11532934 C-127.89472357 156.11360011 -136.1543892 156.1165224 -144.4140625 156.12122345 C-154.47533051 156.12682383 -164.53656731 156.12533363 -174.59783173 156.11466196 C-179.73444844 156.10939388 -184.87101303 156.1073678 -190.00762939 156.11396027 C-194.70532265 156.11989837 -199.40291523 156.11668015 -204.10059929 156.10600516 C-205.80444171 156.10376202 -207.50829254 156.10492776 -209.21212959 156.10975674 C-211.51987893 156.11579806 -213.82727897 156.10964141 -216.13500977 156.10031509 C-218.06149605 156.09982804 -218.06149605 156.09982804 -220.02690125 156.09933114 C-223.07830086 155.86108555 -224.74936323 155.57662088 -227.23779297 153.84863281 C-231.35063061 147.33122418 -230.64644848 140.20837775 -230.55029297 132.72363281 C-230.55351562 131.46164063 -230.55673828 130.19964844 -230.56005859 128.89941406 C-230.48535816 116.09168482 -230.48535816 116.09168482 -226.29248047 111.90722656 C-221.82797239 108.89853633 -217.11855034 106.42648733 -212.36279297 103.91113281 C-204.25802579 99.57767316 -196.21375929 95.16460528 -188.23779297 90.59863281 C-178.31654349 84.93617218 -168.25030551 79.57483307 -158.14770508 74.24621582 C-149.60368847 69.73695714 -141.12097192 65.15288587 -132.73779297 60.34863281 C-123.6707633 55.15247688 -114.47997055 50.2232201 -105.23779297 45.34863281 C-95.03555781 39.96748776 -84.92384416 34.47294444 -74.91333008 28.74023438 C-66.31602158 23.83969983 -57.58942713 19.19574273 -48.84597778 14.56317139 C-40.72220996 10.25886658 -32.62741002 5.91882558 -24.66381836 1.32226562 C-16.6139465 -3.30294644 -8.56342863 -4.07429162 0 0 Z M-36.46826172 65.50878906 C-41.97096525 72.78499086 -42.40752083 80.92583271 -41.23779297 89.84863281 C-38.30162 99.0013185 -33.25035527 105.44625381 -24.92529297 110.15722656 C-16.84273339 113.90059149 -8.39151075 114.26352362 0.01220703 111.28613281 C8.55298149 107.33054977 13.76859704 101.72302018 17.69189453 93.16894531 C20.03921379 85.8871155 20.02019656 78.1295473 17.19970703 70.97363281 C12.89681452 62.85097958 6.42835375 56.246437 -2.31201172 53.10253906 C-16.21501898 49.26266087 -27.5019897 54.93098824 -36.46826172 65.50878906 Z " fill="#000000" transform="translate(267.23779296875,17.1513671875)"/>
<path d="M0 0 C1.17632264 -0.00352835 1.17632264 -0.00352835 2.37640938 -0.00712797 C5.03212278 -0.01384111 7.68778752 -0.01335905 10.34350872 -0.01294994 C12.2555795 -0.01624712 14.16764958 -0.01997238 16.07971877 -0.02409142 C21.3558783 -0.03413602 26.63202645 -0.03783215 31.90819418 -0.04048073 C37.58997593 -0.04437647 43.27174861 -0.05395524 48.95352459 -0.0626936 C62.68512734 -0.08247788 76.41673086 -0.09252634 90.14834431 -0.10142139 C96.60853803 -0.10580074 103.06873092 -0.11116843 109.52892399 -0.11641026 C130.99290645 -0.13342388 152.45688758 -0.14794444 173.92087555 -0.155159 C175.30940441 -0.15563376 176.69793326 -0.15610965 178.08646212 -0.15658666 C178.77506078 -0.15682303 179.46365945 -0.15705941 180.17312474 -0.15730295 C183.66202288 -0.15850417 187.15092101 -0.15971961 190.63981915 -0.16094494 C191.67840031 -0.16130516 191.67840031 -0.16130516 192.73796291 -0.16167267 C215.19451276 -0.16956827 237.65100985 -0.19300516 260.10753665 -0.22550088 C283.8387008 -0.25977851 307.56982761 -0.27950703 331.30101794 -0.28280324 C344.24170648 -0.28497207 357.18231746 -0.29377528 370.12298298 -0.31926441 C381.14058569 -0.34091509 392.15809201 -0.34904965 403.17571358 -0.33929763 C408.8005874 -0.33473666 414.42526209 -0.33674313 420.05010891 -0.35605907 C425.19519754 -0.37357553 430.33994009 -0.37278736 435.48503181 -0.35716178 C437.35046331 -0.3547681 439.21591806 -0.35919947 441.08131383 -0.37099043 C443.60973469 -0.38598764 446.13690983 -0.3765223 448.66529846 -0.36076355 C449.39600798 -0.37098576 450.1267175 -0.38120796 450.87956974 -0.39173993 C455.69248817 -0.32589886 458.14239096 0.7183841 461.52141094 4.13422108 C463.56326013 8.21791944 462.83859441 13.39555614 462.89641094 17.88422108 C462.93379375 18.9696117 462.97117657 20.05500233 463.00969219 21.17328358 C463.02129375 22.2277367 463.03289532 23.28218983 463.04484844 24.36859608 C463.06466778 25.32991444 463.08448711 26.2912328 463.10490704 27.28168201 C462.31902001 31.12365021 460.52017407 33.68682747 457.52141094 36.13422108 C454.61831799 36.74017537 452.54023158 36.94479568 449.64244366 36.88926792 C448.85139028 36.89798857 448.0603369 36.90670921 447.24531221 36.91569412 C444.58372406 36.93766308 441.92419626 36.91673892 439.26262188 36.89612293 C437.33970227 36.90303373 435.41679058 36.91256128 433.49389553 36.9244864 C428.20149729 36.94959921 422.90974583 36.93712438 417.61734486 36.91856909 C411.91308045 36.90502635 406.20892939 36.92593146 400.50468731 36.94244862 C389.32680511 36.9691688 378.14916424 36.9633477 366.97127247 36.94597277 C357.88912883 36.93243831 348.80705297 36.93057788 339.72490215 36.93711567 C337.78810624 36.93849477 337.78810624 36.93849477 335.81218314 36.93990172 C333.18937745 36.94182002 330.56657177 36.9437653 327.94376612 36.94573727 C304.03497783 36.96237004 280.12632688 36.94510308 256.21756047 36.91368169 C234.38517961 36.88520734 212.55300872 36.88775508 190.72062969 36.91644764 C166.19966805 36.94856576 141.67884128 36.96121032 117.15785885 36.94277406 C114.54454583 36.9408627 111.93123279 36.93897648 109.31791973 36.93711567 C108.03202285 36.93619002 106.74612596 36.93526436 105.4212625 36.93431066 C96.34699137 36.92912383 87.27279459 36.93788795 78.19853497 36.95199299 C67.14433798 36.96879746 56.09039671 36.96431689 45.03622913 36.93230852 C39.39303921 36.91650826 33.75027608 36.91041829 28.10708904 36.93020344 C22.94528088 36.94802754 17.78429678 36.93834938 12.62256384 36.90633813 C10.75117801 36.89961254 8.87972315 36.90309784 7.00838137 36.91759285 C4.47137935 36.93574288 1.93722924 36.9172344 -0.59962177 36.88926792 C-1.69921278 36.91033842 -1.69921278 36.91033842 -2.82101774 36.93183458 C-5.63108322 36.86957086 -7.83413556 36.66142645 -10.05234957 34.8467814 C-13.01489931 31.44344296 -14.11094351 28.95481465 -14.10749531 24.47406483 C-14.1094289 23.43314686 -14.1113625 22.39222889 -14.11335468 21.31976795 C-14.08950703 20.24791248 -14.06565937 19.17605701 -14.04108906 18.07172108 C-14.05204609 16.99599842 -14.06300312 15.92027576 -14.07429218 14.81195545 C-14.00170186 7.00607574 -14.00170186 7.00607574 -11.56843281 2.95062733 C-7.83963843 -0.29028741 -4.73400382 -0.00952035 0 0 Z " fill="#000000" transform="translate(31.478589057922363,460.86577892303467)"/>
<path d="M0 0 C29.7 0 59.4 0 90 0 C90 7.92 90 15.84 90 24 C88.35 25.65 86.7 27.3 85 29 C80.71 29 76.42 29 72 29 C72 79.82 72 130.64 72 183 C75.63 183 79.26 183 83 183 C86.74030185 184.60298651 87.73158465 185.59737698 90 189 C90 196.92 90 204.84 90 213 C60.3 213 30.6 213 0 213 C0 188 0 188 4 184 C7 183 7 183 18 183 C18 132.18 18 81.36 18 29 C13.38 29 8.76 29 4 29 C2.68 27.68 1.36 26.36 0 25 C0 16.75 0 8.5 0 0 Z " fill="#000000" transform="translate(72,188)"/>
<path d="M0 0 C29.7 0 59.4 0 90 0 C90 8.25 90 16.5 90 25 C88.68 26.32 87.36 27.64 86 29 C81.38 29 76.76 29 72 29 C72 79.82 72 130.64 72 183 C75.63 183 79.26 183 83 183 C88 185 88 185 90 188 C90 196.25 90 204.5 90 213 C60.3 213 30.6 213 0 213 C0 189 0 189 4 184 C7 183 7 183 18 183 C18 132.18 18 81.36 18 29 C13.71 29 9.42 29 5 29 C3.35 27.35 1.7 25.7 0 24 C0 16.08 0 8.16 0 0 Z " fill="#000000" transform="translate(350,188)"/>
<path d="M0 0 C29.7 0 59.4 0 90 0 C90 24 90 24 86 29 C81.38 29 76.76 29 72 29 C72 79.82 72 130.64 72 183 C75.63 183 79.26 183 83 183 C86.74030185 184.60298651 87.73158465 185.59737698 90 189 C90 196.92 90 204.84 90 213 C60.3 213 30.6 213 0 213 C0 188 0 188 4 184 C7 183 7 183 18 183 C18 132.18 18 81.36 18 29 C13.38 29 8.76 29 4 29 C0 24 0 24 0 0 Z " fill="#000000" transform="translate(211,188)"/>
<path d="M0 0 C0.69304292 -0.00265183 1.38608583 -0.00530365 2.10013005 -0.00803584 C4.44569941 -0.01575633 6.79121666 -0.01628905 9.1367979 -0.01688576 C10.82612973 -0.02089856 12.5154606 -0.02533648 14.20479029 -0.03016531 C18.8652631 -0.04215679 23.52572553 -0.0477852 28.18621075 -0.05234647 C33.20541163 -0.05829274 38.22460004 -0.06990492 43.24379253 -0.08063698 C55.37359823 -0.105182 67.50340806 -0.1197905 79.63323095 -0.13269705 C83.05711338 -0.13640722 86.4809954 -0.14038058 89.90487742 -0.14444971 C111.150593 -0.16968264 132.39630918 -0.19174345 153.64203644 -0.20417786 C158.56531368 -0.20710772 163.4885909 -0.21006936 168.4118681 -0.21308327 C170.24743235 -0.21420234 170.24743235 -0.21420234 172.12007871 -0.21534403 C191.95592068 -0.22800527 211.79167316 -0.26123756 231.62747327 -0.3028851 C251.97569464 -0.34525963 272.32387014 -0.36886764 292.67213553 -0.37409842 C304.10378503 -0.37751746 315.53529465 -0.38933064 326.96690083 -0.42220116 C336.69993868 -0.45014119 346.43280801 -0.46122761 356.16588286 -0.4500057 C361.13462968 -0.44480367 366.10302321 -0.44780564 371.07171917 -0.47247124 C375.6173563 -0.49484903 380.16238404 -0.49431386 384.70803102 -0.47526737 C386.3554331 -0.47245117 388.00287551 -0.47815509 389.65021238 -0.4930803 C391.88488171 -0.51209441 394.1173573 -0.50046375 396.35197449 -0.48101807 C397.59447442 -0.4823746 398.83697436 -0.48373112 400.11712581 -0.48512876 C404.25897383 0.30831994 405.72697711 1.92533155 408.36474895 5.13701439 C412.09450915 12.59653478 409.36474895 21.79701705 409.36474895 30.13701439 C270.10474895 30.13701439 130.84474895 30.13701439 -12.63525105 30.13701439 C-12.63525105 7.13701439 -12.63525105 7.13701439 -8.63525105 1.13701439 C-5.74096782 -0.31012722 -3.23543794 0.00607131 0 0 Z " fill="#000000" transform="translate(57.63525104522705,415.8629856109619)"/>
</svg>
