<?xml version="1.0" encoding="UTF-8"?>
<svg version="1.1" xmlns="http://www.w3.org/2000/svg" width="512" height="512">
<path d="M0 0 C-1.51052023 3.67670584 -3.6488615 5.71874462 -6.625 8.3125 C-7.52476562 9.10527344 -8.42453125 9.89804688 -9.3515625 10.71484375 C-10.92214334 12.06999093 -12.49820148 13.41889974 -14.0859375 14.75390625 C-30.66999979 28.79959166 -49.13321778 50.74880833 -51.3125 73.22265625 C-51.55853827 79.91951028 -51.28556471 85.60977109 -47 91 C-41.57913279 95.68165804 -35.47361624 97.33422961 -28.4375 96.9375 C-3.29582621 93.52651072 17.96185389 76.63163733 37.14453125 61.27734375 C38.08683594 60.52582031 39.02914062 59.77429688 40 59 C40.70511719 58.40316406 41.41023437 57.80632812 42.13671875 57.19140625 C44.87794734 55.43862906 47.29329855 55.88986471 50.40625 56.375 C67.71833577 60.54658693 83.96283421 71.93425671 98.5 81.8125 C99.95604775 82.79329972 101.41243145 83.77360088 102.86914062 84.75341797 C112.03399605 90.93070644 121.13826585 97.18947111 130.11083984 103.64355469 C133.665913 106.19615051 137.23941727 108.72270718 140.8125 111.25 C141.52067871 111.75249268 142.22885742 112.25498535 142.95849609 112.77270508 C147.12375173 115.71687441 151.34132477 118.54384814 155.625 121.3125 C163.11710607 126.26612843 169.73292914 131.66020136 171.875 140.6875 C172.4497551 146.88077949 170.38874984 152.54298106 167.375 157.875 C161.2846136 163.32429309 154.11889506 165.10185108 146.02172852 165.13378906 C136.16364132 164.44404693 129.1296592 158.1844815 121.45605469 152.50097656 C117.41358544 149.54259825 113.25982399 146.75309456 109.1015625 143.9609375 C108.31210739 143.43078033 107.52265228 142.90062317 106.70927429 142.35440063 C105.08457952 141.2644809 103.45955052 140.17505923 101.834198 139.08612061 C97.79428789 136.37780714 93.76074324 133.66012824 89.73046875 130.9375 C88.96354202 130.41940765 88.1966153 129.90131531 87.40644836 129.36752319 C83.12269593 126.46479281 78.87972352 123.51713649 74.67578125 120.5 C73.8058252 119.88068604 72.93586914 119.26137207 72.03955078 118.62329102 C70.54048209 117.54885991 69.05184273 116.45961695 67.57763672 115.35131836 C62.85904754 111.98064314 59.78958291 111.49236731 54 112 C53.05728998 115.25639659 53.05728998 115.25639659 53 119 C57.06228674 124.05018037 62.61823165 127.24764395 68 130.75 C70.13890448 132.15881559 72.27685836 133.56907504 74.4140625 134.98046875 C74.99507721 135.36347641 75.57609192 135.74648407 76.17471313 136.14109802 C83.79088441 141.16855344 91.34821829 146.28351926 98.90820312 151.39489746 C101.33127561 153.03294146 103.75542296 154.66938497 106.1796875 156.30566406 C113.83137861 161.47445375 121.46682116 166.65920846 129 172 C128.59754037 177.83566459 127.87546456 181.37097288 124 186 C118.67022476 189.82152287 113.43709668 190.3885468 106.984375 189.49462891 C100.82646139 187.95969621 95.66839205 183.49444009 90.61279297 179.84521484 C86.00691098 176.59243442 81.25793319 173.55480191 76.52722168 170.48797607 C73.7178806 168.66451432 70.91602663 166.8296771 68.11328125 164.99609375 C67.06350098 164.31015137 66.0137207 163.62420898 64.93212891 162.91748047 C63.12095923 161.73305694 61.3105731 160.54743307 59.50146484 159.35986328 C57.50356043 158.04839342 55.50243778 156.74203211 53.5 155.4375 C52.4584375 154.75558594 51.416875 154.07367188 50.34375 153.37109375 C48.16483901 151.83168534 48.16483901 151.83168534 46 152 C44.40604084 154.24883311 44.40604084 154.24883311 42.875 157 C42.33617187 157.928125 41.79734375 158.85625 41.2421875 159.8125 C40.83226562 160.534375 40.42234375 161.25625 40 162 C41.04897461 162.37560059 41.04897461 162.37560059 42.11914062 162.75878906 C45.37688356 164.16237932 48.13274694 165.90496828 51.09375 167.859375 C51.67425613 168.2408519 52.25476227 168.6223288 52.8528595 169.0153656 C54.7381396 170.25590701 56.61910556 171.50282134 58.5 172.75 C59.79819732 173.60621523 61.09662024 174.4620885 62.39526367 175.31762695 C66.26810894 177.87149962 70.13500422 180.43426755 74 183 C74.57526428 183.38178406 75.15052856 183.76356812 75.7432251 184.15692139 C82.1713339 188.4242305 88.59091404 192.70417446 95 197 C92.75321417 204.4072794 90.51224414 210.26890486 83.625 214.4375 C75.69616353 216.13653639 67.82340965 214.76070112 60.77807617 210.72827148 C58.61032369 209.23467259 56.52008561 207.67260004 54.4375 206.0625 C52.87794546 204.90318658 51.31804043 203.74434451 49.7578125 202.5859375 C48.17117175 201.39155865 46.5852349 200.19624414 45 199 C41.95374146 196.70618368 38.89033281 194.4387168 35.8125 192.1875 C35.13050537 191.66615479 34.44851074 191.14480957 33.74584961 190.60766602 C30.34598816 188.1309541 28.40368959 187.05347152 24.13671875 186.48828125 C23.10160156 186.65714844 22.06648437 186.82601562 21 187 C18.75954689 189.79244537 18.75954689 189.79244537 18.8984375 192.83203125 C20.52118256 197.4988619 23.57686355 199.08032983 27.625 201.6875 C29.16897589 202.72636933 30.7119227 203.7667695 32.25390625 204.80859375 C33.04039551 205.33308105 33.82688477 205.85756836 34.63720703 206.39794922 C38.35188991 208.9166255 41.95691171 211.57852697 45.5625 214.25 C46.81377961 215.17190551 48.06507947 216.09378353 49.31640625 217.015625 C50.64478516 217.99789062 50.64478516 217.99789062 52 219 C51.05311338 224.9900871 48.39173991 228.94993722 43.8125 232.875 C35.62340021 236.15063992 28.06113189 235.12431447 20 232 C17.15306716 230.75494885 14.3523625 229.43029619 11.5625 228.0625 C10.87591309 227.72677979 10.18932617 227.39105957 9.48193359 227.04516602 C5.71783819 225.12316371 2.82470103 223.22926179 0 220 C0.37511719 219.41734375 0.75023437 218.8346875 1.13671875 218.234375 C6.99644805 208.8470001 12.93224408 198.37337776 12 187 C9.07470976 177.73128148 3.3937847 172.53073606 -5 168 C-6.65725224 167.31026292 -8.32212822 166.63794083 -10 166 C-9.90460938 165.02160156 -9.80921875 164.04320312 -9.7109375 163.03515625 C-8.80148575 152.28036053 -8.69224888 144.09467726 -15.15234375 135.015625 C-21.03253826 128.60086735 -28.42698835 127.02011082 -36.75 126.4375 C-37.92046875 126.35371094 -39.0909375 126.26992188 -40.296875 126.18359375 C-41.18890625 126.12300781 -42.0809375 126.06242188 -43 126 C-43.30292969 125.20335937 -43.60585937 124.40671875 -43.91796875 123.5859375 C-47.81743477 113.72328806 -50.83547511 108.62841016 -60.59765625 103.98046875 C-69.92646242 100.17310233 -79.24557478 101.60996705 -88.50390625 104.9296875 C-91.17566667 105.98573632 -91.17566667 105.98573632 -94 108 C-95.9375 107.9375 -95.9375 107.9375 -98 107 C-98.58523437 106.22269531 -99.17046875 105.44539063 -99.7734375 104.64453125 C-104.31541621 99.24993548 -111.80684197 96.01430483 -118.75 95 C-126.12552661 94.64054293 -131.89842938 97.05192489 -138 101 C-138.556875 101.598125 -139.11375 102.19625 -139.6875 102.8125 C-140.120625 103.204375 -140.55375 103.59625 -141 104 C-143.125 103.875 -143.125 103.875 -145 103 C-146 100 -146 100 -145.23413086 98.2644043 C-144.81526611 97.62414307 -144.39640137 96.98388184 -143.96484375 96.32421875 C-143.49272461 95.59058105 -143.02060547 94.85694336 -142.53417969 94.10107422 C-142.00727539 93.30459473 -141.48037109 92.50811523 -140.9375 91.6875 C-139.81628674 89.9545044 -138.69519777 88.22142838 -137.57421875 86.48828125 C-136.98431152 85.58416504 -136.3944043 84.68004883 -135.78662109 83.74853516 C-133.48408315 80.20631431 -131.22095297 76.63990073 -128.95922852 73.0715332 C-122.66686939 63.14450755 -116.32409538 53.24952645 -109.98388672 43.35302734 C-106.67629805 38.18849034 -103.37437101 33.02050894 -100.0859375 27.84375 C-99.46074219 26.85955078 -98.83554688 25.87535156 -98.19140625 24.86132812 C-97.02382086 23.02206727 -95.85708301 21.18226796 -94.69140625 19.34179688 C-91.20152098 13.84374161 -87.6359691 8.40257051 -84 3 C-82.83585571 3.2309436 -82.83585571 3.2309436 -81.64819336 3.46655273 C-63.25231847 7.00515531 -46.72699187 3.2958291 -28.76953125 -1 C-8.26640887 -5.81881294 -8.26640887 -5.81881294 0 0 Z " fill="#000000" transform="translate(246,156)"/>
<path d="M0 0 C2.95676829 1.59288226 5.751497 3.41471943 8.5625 5.25 C9.38298828 5.77779053 10.20347656 6.30558105 11.04882812 6.84936523 C12.79539513 7.97468457 14.53963752 9.10361865 16.28173828 10.23583984 C19.04427988 12.02873778 21.81605467 13.80659321 24.58984375 15.58203125 C26.3936048 16.7416034 28.19700063 17.90174389 30 19.0625 C30.85408447 19.6100293 31.70816895 20.15755859 32.58813477 20.72167969 C33.38405029 21.23762695 34.17996582 21.75357422 35 22.28515625 C35.70125 22.73769775 36.4025 23.19023926 37.125 23.65649414 C40.68710423 26.20887169 40.68710423 26.20887169 42 28 C42.61022742 32.7095907 41.64922322 35.27699987 39.0625 39.17578125 C38.42296387 40.15571045 37.78342773 41.13563965 37.12451172 42.14526367 C36.42342285 43.19045166 35.72233398 44.23563965 35 45.3125 C33.89993664 46.99015198 32.79989335 48.6678176 31.70114136 50.34632874 C30.56035892 52.08548704 29.41389101 53.82079299 28.26660156 55.55566406 C24.74337216 60.89474345 21.3138986 66.29389461 17.875 71.6875 C16.54189672 73.77098055 15.20856515 75.85431504 13.875 77.9375 C7.89991764 87.28100529 1.94967819 96.64030626 -4 106 C-8.03872787 112.3534959 -12.07935355 118.70577156 -16.12451172 125.05517578 C-17.43674455 127.11559655 -18.7482042 129.17650986 -20.05908203 131.23779297 C-22.18299404 134.57661962 -24.30997006 137.91347784 -26.4375 141.25 C-27.0876709 142.27327393 -27.7378418 143.29654785 -28.40771484 144.35083008 C-29.6537699 146.30249222 -30.90805822 148.24892757 -32.17138672 150.18945312 C-33.4060309 152.0870798 -34.62083564 153.99774176 -35.81689453 155.91992188 C-36.4045459 156.82806641 -36.99219727 157.73621094 -37.59765625 158.671875 C-38.10949463 159.48237305 -38.62133301 160.29287109 -39.14868164 161.12792969 C-41.66993455 163.67744403 -43.46282433 163.8724316 -47 164 C-49.0637207 163.27832031 -49.0637207 163.27832031 -50.92578125 162.078125 C-51.6317041 161.6349292 -52.33762695 161.1917334 -53.06494141 160.73510742 C-54.17748291 159.99997925 -54.17748291 159.99997925 -55.3125 159.25 C-56.09286621 158.75282471 -56.87323242 158.25564941 -57.67724609 157.7434082 C-59.30974158 156.6999964 -60.93729897 155.64882195 -62.56005859 154.59033203 C-64.92105266 153.05145717 -67.29552013 151.53620089 -69.67578125 150.02734375 C-73.81202582 147.39133999 -77.93711587 144.74806438 -82 142 C-82.73702148 141.52256348 -83.47404297 141.04512695 -84.23339844 140.55322266 C-87.51127184 138.31088907 -89.627057 136.80564542 -91.31640625 133.15625 C-90.84231627 128.42705614 -88.58056896 125.36922665 -85.9375 121.5 C-84.8160255 119.79452114 -83.69494711 118.08878176 -82.57421875 116.3828125 C-81.98431152 115.49754883 -81.3944043 114.61228516 -80.78662109 113.70019531 C-77.87530902 109.3002074 -75.06955535 104.83409397 -72.25 100.375 C-66.50577913 91.34414142 -60.73441744 82.33066566 -54.96191406 73.31787109 C-50.62993688 66.55242192 -46.30988915 59.7795387 -42 53 C-35.61607241 42.96001418 -29.21575452 32.93064293 -22.7890625 22.91796875 C-20.39143019 19.18126544 -18.01063054 15.43497782 -15.6484375 11.67578125 C-15.1433667 10.87825439 -14.6382959 10.08072754 -14.11791992 9.2590332 C-13.19212197 7.79693926 -12.27257861 6.33085815 -11.3605957 4.86010742 C-8.09357631 -0.27210437 -5.94331374 -1.85881417 0 0 Z " fill="#000000" transform="translate(116,109)"/>
<path d="M0 0 C2.44005713 2.37881395 4.1805597 5.13240387 6 8 C6.51433594 8.78149414 7.02867187 9.56298828 7.55859375 10.36816406 C9.23263326 12.93754867 10.86932094 15.52789762 12.5 18.125 C13.74211338 20.08989061 14.98430298 22.05473303 16.2265625 24.01953125 C16.8546582 25.01549316 17.48275391 26.01145508 18.12988281 27.03759766 C21.03321465 31.63668754 23.95389047 36.22468883 26.875 40.8125 C27.73254883 42.16045654 27.73254883 42.16045654 28.60742188 43.53564453 C33.73608583 51.59436373 38.88661707 59.63902117 44.03857422 67.68286133 C48.93649126 75.33223792 53.81817343 82.9917737 58.68896484 90.65844727 C61.87743263 95.67429598 65.07702552 100.68280748 68.2890625 105.68359375 C69.01823831 106.81965559 69.74740502 107.95572327 70.4765625 109.09179688 C71.87351384 111.2672311 73.2718749 113.44176093 74.671875 115.61523438 C75.91893262 117.55776644 77.15932626 119.50460006 78.39160156 121.45654297 C79.37001642 123.00376914 80.36306482 124.54203139 81.38183594 126.06298828 C83.17578476 128.867472 83.99054461 130.79944622 84.1484375 134.1484375 C82.58461674 138.0313938 80.08139377 139.55081181 76.625 141.625 C75.96814209 142.04031982 75.31128418 142.45563965 74.63452148 142.88354492 C73.20172861 143.78680927 71.76354643 144.68156704 70.32080078 145.56884766 C67.88609018 147.07024399 65.47107223 148.59987712 63.05859375 150.13671875 C59.11105298 152.64865086 55.15640627 155.14845708 51.18701172 157.62573242 C49.7078442 158.55520708 48.23563122 159.49582713 46.77001953 160.4465332 C46.06603027 160.89988037 45.36204102 161.35322754 44.63671875 161.8203125 C43.70218872 162.42963623 43.70218872 162.42963623 42.7487793 163.05126953 C39.99462688 164.54542509 38.03525213 164.62084703 35 164 C31.93420757 161.31862102 29.83569977 158.41506617 27.71484375 154.95703125 C27.10761475 153.97460449 26.50038574 152.99217773 25.87475586 151.97998047 C25.23546143 150.93471191 24.59616699 149.88944336 23.9375 148.8125 C22.58438511 146.62304755 21.23021345 144.43424786 19.875 142.24609375 C19.21242188 141.17472168 18.54984375 140.10334961 17.8671875 138.99951172 C15.43625391 135.09437964 12.94993606 131.22803402 10.4375 127.375 C6.31650865 121.04446892 2.23965521 114.68733386 -1.8125 108.3125 C-2.40313232 107.38332764 -2.99376465 106.45415527 -3.60229492 105.49682617 C-4.8051997 103.60379699 -6.00791692 101.71064862 -7.21044922 99.81738281 C-10.09694849 95.27301698 -12.98552743 90.72997577 -15.875 86.1875 C-16.44420166 85.29248779 -17.01340332 84.39747559 -17.59985352 83.4753418 C-21.44566263 77.43192747 -25.30538064 71.39756236 -29.17236328 65.36767578 C-31.20733373 62.19159147 -33.23679869 59.01204272 -35.265625 55.83203125 C-37.56499952 52.23002943 -39.88474945 48.6436154 -42.234375 45.07421875 C-43.15632236 43.65369279 -44.0782032 42.23312366 -45 40.8125 C-45.62310059 39.88751709 -45.62310059 39.88751709 -46.25878906 38.94384766 C-48.67492586 35.18435571 -49.88763056 32.45664511 -49 28 C-47.14453125 26.0390625 -47.14453125 26.0390625 -44 24 C-43.2682959 23.51885742 -42.5365918 23.03771484 -41.78271484 22.54199219 C-39.10035545 20.79323725 -36.39731252 19.0808871 -33.6875 17.375 C-32.71361328 16.76124512 -31.73972656 16.14749023 -30.73632812 15.51513672 C-28.76129996 14.2705318 -26.78587981 13.02654868 -24.81005859 11.78320312 C-22.25973902 10.16482483 -19.72984433 8.52017783 -17.20703125 6.859375 C-16.4900708 6.39354004 -15.77311035 5.92770508 -15.03442383 5.44775391 C-13.71621942 4.59067584 -12.40436199 3.72372324 -11.1003418 2.84521484 C-7.27362482 0.38395075 -4.50927314 -1.16329653 0 0 Z " fill="#000000" transform="translate(403,112)"/>
<path d="M0 0 C3.49339929 1.57587327 7.02509422 2.89970753 10.6328125 4.19140625 C11.76589844 4.59875 12.89898437 5.00609375 14.06640625 5.42578125 C18.40206227 6.8331103 22.04683115 7.48679352 26.59375 7.40625 C27.40328125 7.40302734 28.2128125 7.39980469 29.046875 7.39648438 C30.7219695 7.38481576 32.39720267 7.33820775 34.0703125 7.25585938 C37.98734648 7.29627322 40.29184382 7.5348525 43.12573242 10.37841797 C44.97563797 12.99285539 46.5967562 15.66672127 48.1953125 18.44140625 C49.27351294 20.11743841 50.3580875 21.78938842 51.44921875 23.45703125 C52.55437845 25.20037008 53.65715984 26.94521841 54.7578125 28.69140625 C55.99083662 30.63805174 57.22391093 32.58466545 58.45703125 34.53125 C59.07884277 35.51464355 59.7006543 36.49803711 60.34130859 37.51123047 C63.24298502 42.09720893 66.15627593 46.67577516 69.0703125 51.25390625 C69.64136719 52.15125488 70.21242188 53.04860352 70.80078125 53.97314453 C74.60072867 59.94222861 78.40461873 65.90878801 82.21557617 71.87084961 C83.56765423 73.98649213 84.91810145 76.10317785 86.2668457 78.22094727 C89.49938089 83.28478994 92.76689499 88.31660474 96.1328125 93.29296875 C96.74503662 94.2061084 97.35726074 95.11924805 97.98803711 96.06005859 C99.13772141 97.76943884 100.29938451 99.47084488 101.47485352 101.16259766 C101.98201904 101.91976074 102.48918457 102.67692383 103.01171875 103.45703125 C103.45974854 104.10961914 103.90777832 104.76220703 104.36938477 105.43457031 C105.46044511 108.08562441 104.96107646 109.73318082 104.1953125 112.44140625 C101.7657953 113.3356012 100.6636611 113.65740751 98.2668457 112.55200195 C97.59999756 112.07851318 96.93314941 111.60502441 96.24609375 111.1171875 C95.48925293 110.58923584 94.73241211 110.06128418 93.95263672 109.51733398 C93.14584473 108.93540283 92.33905273 108.35347168 91.5078125 107.75390625 C90.24348389 106.86457397 90.24348389 106.86457397 88.95361328 105.95727539 C86.35962015 104.12952362 83.77751335 102.28576425 81.1953125 100.44140625 C79.7185694 99.40075049 78.24076725 98.36159531 76.76171875 97.32421875 C71.14108752 93.37774893 65.54042841 89.40365378 59.953125 85.41015625 C23.71807214 57.22264465 23.71807214 57.22264465 -18.6171875 45.50390625 C-24.75537817 46.55269782 -28.98344514 49.62781923 -33.4921875 53.6953125 C-49.83900661 68.11335316 -73.04988184 86.08021886 -95.8046875 86.44140625 C-98.8046875 85.62890625 -98.8046875 85.62890625 -100.8046875 84.44140625 C-103.15172141 79.74733843 -102.28166827 74.17393728 -100.93359375 69.27734375 C-96.65978272 57.5348728 -89.82918358 47.91121495 -81.8046875 38.44140625 C-81.12792969 37.64089844 -80.45117188 36.84039062 -79.75390625 36.015625 C-61.59448407 15.20034583 -29.30247087 -13.42711133 0 0 Z " fill="#000000" transform="translate(308.8046875,154.55859375)"/>
<path d="M0 0 C3.37842526 3.55623711 4.76169768 6.25099212 5.42578125 11.125 C4.83136831 16.53470311 2.34826473 19.67892105 -0.8125 24 C-1.40345459 24.83450684 -1.99440918 25.66901367 -2.60327148 26.52880859 C-4.38411123 29.03283807 -6.18754667 31.51878589 -8 34 C-8.7434668 35.02335449 -8.7434668 35.02335449 -9.50195312 36.06738281 C-11.7304638 39.1311932 -13.97499874 42.18256144 -16.23046875 45.2265625 C-20.33876261 50.79225545 -24.29724787 56.46465645 -28.2734375 62.125 C-28.73129639 62.76711426 -29.18915527 63.40922852 -29.66088867 64.07080078 C-30.56544167 65.37395078 -31.43506033 66.70194748 -32.27075195 68.05029297 C-33.51171875 69.9921875 -33.51171875 69.9921875 -36 73 C-40.86622639 74.03416165 -45.75685284 72.43740363 -50.375 70.8125 C-55.36838979 67.36468324 -58.11503452 63.8387093 -60.0625 58.125 C-60.84923146 52.9084743 -59.22618358 50.23039266 -56.24243164 46.17626953 C-54.05550562 43.40275218 -51.81624209 40.67541363 -49.5625 37.95605469 C-42.45015214 29.05228421 -36.20388333 17.98686757 -32.75 7.125 C-29.88062494 2.00111597 -24.52582763 -0.86572212 -18.984375 -2.6484375 C-12.12923191 -3.86293135 -6.04726474 -3.50741355 0 0 Z " fill="#000000" transform="translate(185,273)"/>
<path d="M0 0 C5.60346443 0.75675654 9.96459734 1.49826116 14.125 5.375 C17.166576 10.63349935 17.41767415 15.79229162 16.83984375 21.72265625 C14.98944596 28.58833984 11.28023196 33.8042127 6.5625 39 C5.48844625 40.21660097 4.41689246 41.43541286 3.34765625 42.65625 C2.53965576 43.57857422 2.53965576 43.57857422 1.71533203 44.51953125 C-0.78641121 47.43835972 -3.14547126 50.46207541 -5.5 53.5 C-12.6929899 62.7201524 -12.6929899 62.7201524 -16.3125 67.1875 C-17.09496094 68.16332031 -17.87742188 69.13914062 -18.68359375 70.14453125 C-22.39452654 73.92161257 -25.985297 73.57179579 -31.125 73.6875 C-36.85092357 73.6295974 -41.37428431 73.10449331 -45.875 69.375 C-48.09995338 66.27354983 -48.91095206 64.4993189 -48.7890625 60.6875 C-47.52414187 56.10351414 -45.04601674 52.99746588 -42.1875 49.25 C-40.99455672 47.64437 -39.80320602 46.03755578 -38.61328125 44.4296875 C-37.99533691 43.59920898 -37.37739258 42.76873047 -36.74072266 41.91308594 C-34.30992753 38.60628848 -31.95716358 35.24920576 -29.61621094 31.87841797 C-28.4542498 30.20781371 -27.28428537 28.542748 -26.10644531 26.88330078 C-23.14043185 22.69825414 -20.30192736 18.48828584 -17.62890625 14.109375 C-8.92697009 0.26333245 -8.92697009 0.26333245 0 0 Z " fill="#000000" transform="translate(207.875,293.625)"/>
<path d="M0 0 C3.62439551 2.42391008 6.41961948 4.8384585 8.0390625 8.98828125 C7.64530705 14.26151602 5.6800492 18.28664589 3.2265625 22.86328125 C2.64237549 23.96289185 2.64237549 23.96289185 2.04638672 25.0847168 C-2.15826721 32.74138014 -7.32023363 39.60549439 -12.73999023 46.43505859 C-13.75858755 47.73086266 -14.73797816 49.05736404 -15.70703125 50.390625 C-16.9609375 51.98828125 -16.9609375 51.98828125 -18.6484375 52.73828125 C-25.42781927 53.47118739 -29.97428923 53.27506854 -35.9609375 49.98828125 C-40.56717602 45.07496016 -40.31790415 39.68158511 -40.21875 33.2578125 C-39.24167681 20.86674791 -26.30654817 10.22093918 -18.12890625 1.6953125 C-12.71989521 -2.56367457 -6.09124917 -3.14269628 0 0 Z " fill="#000000" transform="translate(132.9609375,265.01171875)"/>
<path d="M0 0 C11.85976775 3.41065216 11.85976775 3.41065216 15.125 8.88671875 C17.15433142 13.78791652 15.56445126 18.53136506 13.75390625 23.2421875 C8.94002641 33.60876807 1.54179806 45.76689692 -8.83203125 51.328125 C-14.85157024 53.19363978 -20.81058318 53.01651495 -26.5 50.375 C-29.29601339 47.71878728 -31.29781223 45.47530002 -33 42 C-31.81958594 37.16196492 -28.6063517 33.92897363 -25.375 30.3125 C-24.278668 29.06101592 -23.18361814 27.8084075 -22.08984375 26.5546875 C-21.5572998 25.94592773 -21.02475586 25.33716797 -20.47607422 24.70996094 C-18.56820063 22.49978122 -16.7452322 20.2300502 -14.9375 17.9375 C-10.11330318 11.82821058 -5.04998836 5.92259664 0 0 Z " fill="#000000" transform="translate(230,333)"/>
<path d="M0 0 C3.4375 0.9375 3.4375 0.9375 5.4375 2.5625 C6.862059 5.94582762 6.45322606 8.51065354 5.4375 11.9375 C3.51849187 16.02759899 1.26929698 19.90829511 -1 23.8125 C-1.63309082 24.92077148 -2.26618164 26.02904297 -2.91845703 27.17089844 C-4.7873667 30.43380376 -6.67211327 33.68700082 -8.5625 36.9375 C-9.06120605 37.79956055 -9.55991211 38.66162109 -10.07373047 39.54980469 C-12.50109092 43.74212203 -14.9581132 47.91489038 -17.44970703 52.06933594 C-18.57410924 53.95698966 -19.6767841 55.85617854 -20.77734375 57.7578125 C-21.47598082 58.9430514 -22.17516927 60.12796551 -22.875 61.3125 C-23.46925781 62.33085938 -24.06351562 63.34921875 -24.67578125 64.3984375 C-26.73681587 67.17208657 -28.44854067 68.47798776 -31.5625 69.9375 C-34.43111125 69.80089946 -35.9812538 69.35267586 -38.3125 67.6875 C-39.96235242 65.37770661 -40.28986312 63.76878733 -40.5625 60.9375 C-39.57836914 58.22412109 -39.57836914 58.22412109 -38.03515625 55.3359375 C-37.47586426 54.28116211 -36.91657227 53.22638672 -36.34033203 52.13964844 C-33.62142218 47.24247437 -30.8520639 42.3834211 -28 37.5625 C-27.40010254 36.54389893 -26.80020508 35.52529785 -26.18212891 34.47583008 C-24.93533721 32.35928615 -23.68728392 30.2434849 -22.43798828 28.12841797 C-20.57620273 24.96081354 -18.73659255 21.78127159 -16.90234375 18.59765625 C-15.74748516 16.60671901 -14.59254072 14.61583158 -13.4375 12.625 C-12.63977173 11.22918701 -12.63977173 11.22918701 -11.82592773 9.80517578 C-11.32391846 8.94520996 -10.82190918 8.08524414 -10.3046875 7.19921875 C-9.8701123 6.44600342 -9.43553711 5.69278809 -8.98779297 4.91674805 C-6.32928477 1.22498272 -4.60371253 -0.08076689 0 0 Z " fill="#000000" transform="translate(385.5625,19.0625)"/>
<path d="M0 0 C2 2 2 2 2.50390625 5.4453125 C2.3329482 11.43557481 -0.97331594 15.92552148 -4.0625 20.875 C-5.34499517 22.99534111 -6.62619825 25.11646415 -7.90625 27.23828125 C-8.91171875 28.88884521 -8.91171875 28.88884521 -9.9375 30.57275391 C-12.03552106 34.05902516 -14.07674225 37.57202009 -16.09375 41.10546875 C-16.42733017 41.68927307 -16.76091034 42.27307739 -17.104599 42.87457275 C-18.71775706 45.70045905 -20.32738691 48.52833917 -21.93579102 51.35693359 C-30.6255682 66.5091315 -30.6255682 66.5091315 -35.5 68.25 C-39 68 -39 68 -41.9375 65.9375 C-44.38062951 62.4578913 -44.39742732 61.16057733 -44 57 C-42.86108398 54.34472656 -42.86108398 54.34472656 -41.24609375 51.640625 C-40.64571289 50.61928467 -40.04533203 49.59794434 -39.42675781 48.5456543 C-38.77030273 47.45808838 -38.11384766 46.37052246 -37.4375 45.25 C-36.41682558 43.5224113 -35.39617258 41.79480952 -34.37680054 40.06645203 C-33.31145253 38.26355184 -32.24067606 36.46395361 -31.16943359 34.66455078 C-27.63285862 28.70904042 -24.19918572 22.69386268 -20.75 16.6875 C-19.51643768 14.54510478 -18.28211885 12.40314489 -17.046875 10.26171875 C-16.52963867 9.36412842 -16.01240234 8.46653809 -15.47949219 7.54174805 C-14.99125977 6.70297119 -14.50302734 5.86419434 -14 5 C-13.48985352 4.09612549 -12.97970703 3.19225098 -12.45410156 2.26098633 C-11 0 -11 0 -8.6875 -1.4375 C-5.18611436 -2.17034816 -3.2351761 -1.43785604 0 0 Z " fill="#000000" transform="translate(190,425)"/>
<path d="M0 0 C3.86582969 0.96107825 5.67124462 4.83060878 7.69848633 8.06518555 C8.21048584 8.96277588 8.72248535 9.86036621 9.25 10.78515625 C9.83765137 11.80955811 10.42530273 12.83395996 11.03076172 13.8894043 C11.65354004 14.98551025 12.27631836 16.08161621 12.91796875 17.2109375 C14.24945062 19.54458691 15.58147715 21.87791872 16.9140625 24.2109375 C17.42570953 25.10838936 17.42570953 25.10838936 17.94769287 26.02397156 C20.38907909 30.29775337 22.87957353 34.54029572 25.390625 38.7734375 C26.08329768 39.94810473 26.77560433 41.12298789 27.4675293 42.2980957 C28.7845015 44.53095858 30.10986969 46.75889593 31.44458008 48.98120117 C37.18175212 58.76404331 37.18175212 58.76404331 37.10546875 64.5234375 C35.10546875 67.5234375 35.10546875 67.5234375 32.10546875 69.5234375 C28.54296875 69.6484375 28.54296875 69.6484375 25.10546875 68.5234375 C22.24890686 65.35105396 20.07097098 61.96083488 17.9609375 58.26171875 C17.37328613 57.23715576 16.78563477 56.21259277 16.18017578 55.15698242 C15.55739746 54.0610376 14.93461914 52.96509277 14.29296875 51.8359375 C13.30195814 50.10123805 12.31093651 48.36654479 11.3192749 46.63221741 C10.63340431 45.4324352 9.94806728 44.23234783 9.26324463 43.03196716 C6.8110203 38.73856751 4.32344099 34.46700804 1.8203125 30.203125 C1.12780567 29.01924447 0.43550127 27.83524551 -0.2565918 26.65112305 C-1.57709301 24.39433922 -2.90261278 22.14048281 -4.23364258 19.88989258 C-4.83072021 18.86532959 -5.42779785 17.8407666 -6.04296875 16.78515625 C-6.57067871 15.88756592 -7.09838867 14.98997559 -7.64208984 14.06518555 C-8.91774943 11.47631773 -9.60583759 9.39154629 -9.89453125 6.5234375 C-7.15338591 1.04114682 -6.09198794 0.43432559 0 0 Z " fill="#000000" transform="translate(354.89453125,416.4765625)"/>
<path d="M0 0 C5.76865369 1.88792303 7.9640377 6.79870559 10.8359375 11.89453125 C11.47402344 13.01956055 12.11210937 14.14458984 12.76953125 15.30371094 C13.45085003 16.51478882 14.13183219 17.72605613 14.8125 18.9375 C16.2346289 21.46096814 17.6593188 23.98297377 19.0859375 26.50390625 C19.44588806 27.14053192 19.80583862 27.77715759 20.17669678 28.43307495 C22.58485684 32.67411015 25.06795161 36.85998233 27.6015625 41.02734375 C28.24818848 42.09944092 28.89481445 43.17153809 29.56103516 44.27612305 C30.78367963 46.29525216 32.01973347 48.30634097 33.27099609 50.30786133 C36.64146452 55.91066022 38.26904126 59.56176365 37.4375 66.125 C36.4375 68.125 36.4375 68.125 34.4375 69.125 C29.50694544 70.0141164 29.50694544 70.0141164 26.4375 69.125 C20.45208281 63.55081002 16.76519525 54.98593792 12.8125 47.9375 C11.75776679 46.06728222 10.70173341 44.19780278 9.64558411 42.3283844 C8.93734846 41.07441884 8.22981693 39.82005533 7.522995 38.56529236 C5.30924024 34.6416518 3.05275333 30.74644682 0.76171875 26.8671875 C0.20758301 25.92254639 -0.34655273 24.97790527 -0.91748047 24.00463867 C-1.94298026 22.26008666 -2.97667379 20.52031502 -4.02001953 18.78637695 C-6.67148459 14.24348354 -8.46088965 10.52389656 -8.5625 5.125 C-5.96959481 1.23564222 -4.71377511 0.16539562 0 0 Z " fill="#000000" transform="translate(154.5625,25.875)"/>
<path d="M0 0 C2.98072357 2.19622629 3.89853229 3.38599967 4.50793457 7.0736084 C4.51111694 8.27843872 4.51429932 9.48326904 4.51757812 10.72460938 C4.52809204 11.72534233 4.52809204 11.72534233 4.53881836 12.74629211 C4.5563863 14.94587143 4.54478153 17.14415821 4.53125 19.34375 C4.5339453 20.8754501 4.53782804 22.40714853 4.54284668 23.93884277 C4.54874004 27.1467317 4.54018457 30.35417468 4.52148438 33.56201172 C4.49869424 37.67146043 4.51181829 41.77986422 4.53577423 45.8892746 C4.550237 49.05149186 4.54562418 52.21346188 4.53526306 55.37568665 C4.53259706 56.89073307 4.53586112 58.40580204 4.54518127 59.92082214 C4.5553556 62.03961532 4.53983731 64.15672285 4.51757812 66.27539062 C4.51439575 67.48022095 4.51121338 68.68505127 4.50793457 69.9263916 C3.89853229 73.61400033 2.98072357 74.80377371 0 77 C-3.8598602 77.5514086 -5.99581534 77.73989308 -9.18640137 75.38903809 C-11.59847393 72.21163537 -11.50709736 70.24335606 -11.51757812 66.27539062 C-11.5245874 65.60823532 -11.53159668 64.94108002 -11.53881836 64.25370789 C-11.5563863 62.05412857 -11.54478153 59.85584179 -11.53125 57.65625 C-11.5339453 56.1245499 -11.53782804 54.59285147 -11.54284668 53.06115723 C-11.54874004 49.8532683 -11.54018457 46.64582532 -11.52148438 43.43798828 C-11.49869424 39.32853957 -11.51181829 35.22013578 -11.53577423 31.1107254 C-11.550237 27.94850814 -11.54562418 24.78653812 -11.53526306 21.62431335 C-11.53259706 20.10926693 -11.53586112 18.59419796 -11.54518127 17.07917786 C-11.5553556 14.96038468 -11.53983731 12.84327715 -11.51757812 10.72460938 C-11.51280457 8.91736389 -11.51280457 8.91736389 -11.50793457 7.0736084 C-10.40268651 0.38554279 -6.25469668 -0.8935281 0 0 Z " fill="#000000" transform="translate(273,9)"/>
<path d="M0 0 C3.5 0.5625 3.5 0.5625 5.68838501 2.68174744 C7.87423708 6.15759577 7.99581039 8.1341368 7.98583984 12.21704102 C7.98963654 12.86483521 7.99343323 13.51262939 7.99734497 14.18005371 C8.00472076 16.30933937 7.98341494 18.43724308 7.9609375 20.56640625 C7.9585514 22.05183248 7.9576481 23.53726176 7.9581604 25.02268982 C7.95503765 28.13047271 7.93851222 31.23779255 7.91162109 34.34545898 C7.87761214 38.32572894 7.86999368 42.30549138 7.87151146 46.28588963 C7.87096726 49.35113861 7.85999261 52.41627701 7.84550858 55.48148918 C7.8391525 56.94907737 7.83520447 58.41667805 7.83372116 59.88427925 C7.82937701 61.93552051 7.81185394 63.98622744 7.79052734 66.03735352 C7.78290375 67.20363785 7.77528015 68.36992218 7.76742554 69.57154846 C7.50748706 72.47876295 7.11069859 74.1545791 5.5 76.5625 C2.39079391 78.11710305 -1.13083028 78.28970693 -4.5 77.5625 C-7.83479276 74.21041697 -7.88338019 71.44773318 -7.90405273 66.83789062 C-7.91091599 66.17073532 -7.91777924 65.50358002 -7.92485046 64.81620789 C-7.94311181 62.61683714 -7.93928272 60.41818009 -7.93359375 58.21875 C-7.93815552 56.68705005 -7.94346108 55.15535215 -7.94947815 53.62365723 C-7.95840761 50.41584957 -7.95598772 47.20829091 -7.94604492 44.00048828 C-7.93454822 39.89107693 -7.95477734 35.78252398 -7.98396206 31.6732254 C-8.00231249 28.5110326 -8.00203411 25.34904603 -7.99632454 22.18681335 C-7.99617122 20.67175593 -8.00222455 19.15668462 -8.01461601 17.64167786 C-8.02950564 15.52294099 -8.01886726 13.4057966 -8.00170898 11.28710938 C-8.00154282 10.08227905 -8.00137665 8.87744873 -8.00120544 7.6361084 C-7.17111942 2.54566215 -4.98954298 0.80189084 0 0 Z " fill="#000000" transform="translate(268.5,425.4375)"/>
<path d="M0 0 C1.485 0.99 1.485 0.99 3 2 C2.67 2.66 2.34 3.32 2 4 C1.34 2.68 0.68 1.36 0 0 Z " fill="#000000" transform="translate(421,276)"/>
</svg>
