<?xml version="1.0" encoding="UTF-8"?>
<svg version="1.1" xmlns="http://www.w3.org/2000/svg" width="512" height="512">
<path d="M0 0 C1.52791146 1.30425337 3.04932702 2.61617574 4.5625 3.9375 C5.5525 4.71287109 5.5525 4.71287109 6.5625 5.50390625 C25.56939251 20.79372502 37.54581196 46.06841426 40.5625 69.9375 C42.29291056 95.97450069 39.34121448 121.04729973 23.84765625 142.73828125 C22.22614112 145.08856078 22.22614112 145.08856078 22.5625 148.9375 C25.3281769 152.7300865 28.71420171 155.96873067 32 159.3125 C32.87849609 160.26511719 33.75699219 161.21773437 34.66210938 162.19921875 C39.09907198 167.08350381 39.09907198 167.08350381 45.05517578 169.12597656 C47.3740101 168.60961163 49.38925291 167.88730565 51.5625 166.9375 C63.18352401 164.32903993 75.26067061 165.69740847 85.6875 171.5625 C97.29476875 179.26754166 106.84646593 190.08844906 116.6328125 199.91015625 C118.16529733 201.44450977 119.69800577 202.97863998 121.23092651 204.51255798 C125.23448592 208.51990705 129.2350312 212.53025167 133.23492432 216.54125977 C137.32925462 220.64588117 141.42647254 224.74761801 145.5234375 228.84960938 C153.53926312 236.87610956 161.55190269 244.90578209 169.5625 252.9375 C167.92506066 257.11365799 164.86468208 259.9023153 161.73583984 262.99121094 C161.14057999 263.58676285 160.54532013 264.18231476 159.93202209 264.7959137 C157.96719823 266.75934643 155.99538961 268.71560373 154.0234375 270.671875 C152.65822521 272.0333564 151.29345439 273.39528061 149.92910767 274.75762939 C146.33976841 278.33933824 142.7444632 281.9149999 139.14788818 285.48944092 C135.47778681 289.13907121 131.81335171 292.79438092 128.1484375 296.44921875 C120.95866348 303.61755329 113.76257484 310.779513 106.5625 317.9375 C103.60200035 316.60209507 101.50323924 315.13447855 99.19863892 312.85452271 C98.55392136 312.22122543 97.9092038 311.58792816 97.24494934 310.93544006 C96.54874985 310.24147629 95.85255035 309.54751251 95.13525391 308.83251953 C94.39328262 308.10047806 93.65131134 307.36843658 92.88685608 306.61421204 C90.43195176 304.18853296 87.98491387 301.7551177 85.5390625 299.3203125 C83.83279736 297.62555629 82.12652901 295.93080333 80.42025757 294.23605347 C76.8403994 290.67721328 73.26523014 287.11372919 69.69238281 283.54785156 C65.13087844 278.99728484 60.55115042 274.46554427 55.9666996 269.93811226 C52.4322165 266.44103704 48.91137631 262.93046137 45.3940239 259.4161644 C43.71261726 257.74078215 42.02624394 256.07036822 40.33470535 254.40521622 C23.38054166 237.69666997 23.38054166 237.69666997 19.5625 226.9375 C19.11519531 225.70515625 18.66789063 224.4728125 18.20703125 223.203125 C17.43843055 219.30888148 17.23183641 215.64716279 17.25 211.6875 C17.23388672 211.00042969 17.21777344 210.31335938 17.20117188 209.60546875 C17.19508579 202.99597983 18.69392532 198.78894048 20.5625 191.9375 C13.3025 184.6775 6.0425 177.4175 -1.4375 169.9375 C-5.0675 172.2475 -8.6975 174.5575 -12.4375 176.9375 C-26.01034044 184.02252271 -42.00147311 189.59006531 -57.4375 189.9375 C-58.48679687 189.97617187 -59.53609375 190.01484375 -60.6171875 190.0546875 C-91.2729178 190.66916762 -117.3038826 179.79562081 -139.4375 158.9375 C-140.05367187 158.38578125 -140.66984375 157.8340625 -141.3046875 157.265625 C-160.17294699 139.70162308 -169.35875122 112.52076444 -170.3984375 87.375 C-171.03166554 57.41118792 -159.62027861 30.3209271 -139.1640625 8.56640625 C-102.13035392 -27.1408801 -41.00416028 -32.36511583 0 0 Z M-99.4375 55.9375 C-107.10280414 66.29150559 -110.48623514 77.8721422 -108.9375 90.6875 C-106.72209276 102.41701914 -100.41564299 113.46436553 -90.70703125 120.453125 C-80.01245482 127.44785657 -69.20467525 130.47696206 -56.48828125 128.47265625 C-45.02133133 125.99133162 -35.68747772 120.22444004 -28.4375 110.9375 C-20.78714436 98.52030245 -18.04770363 85.57991094 -21.2734375 71.21484375 C-25.45493528 59.44210336 -33.12343604 50.24676132 -44.2109375 44.5 C-63.92368417 35.19854312 -84.73874171 40.10380934 -99.4375 55.9375 Z " fill="#000000" transform="translate(320.4375,160.0625)"/>
<path d="M0 0 C-0.40089844 0.52464844 -0.80179688 1.04929688 -1.21484375 1.58984375 C-21.77017164 29.60288697 -30.54351485 64.93442837 -25.66845703 99.33984375 C-20.31199516 133.45743532 -2.84360135 165.81732413 25.17944336 186.63891602 C56.54461726 209.14837582 92.78657885 218.05279404 130.99609375 211.921875 C137.49939977 210.78530327 143.71796515 209.03218586 150 207 C151.95725871 206.41307108 153.9154934 205.82937992 155.875 205.25 C157.2502194 204.83405803 158.6252605 204.41752533 160 204 C160.14695312 205.83111328 160.14695312 205.83111328 160.296875 207.69921875 C161.09184848 216.71748599 162.1687756 224.95974404 165.1953125 233.53125 C166 236 166 236 166 239 C154.70211767 241.50523548 143.51710926 243.75808697 132 245 C131.01902344 245.11214844 130.03804688 245.22429687 129.02734375 245.33984375 C80.0783425 250.04771871 30.97540562 238.08121914 -13 217 C-14.23097412 216.41629639 -14.23097412 216.41629639 -15.48681641 215.82080078 C-48.97008236 199.86674023 -80.3156487 178.33595064 -107.59375 153.1953125 C-108.91087138 151.99365306 -110.23587501 150.79972467 -111.5949707 149.64575195 C-117.85533714 144.30962475 -123.63528791 138.51629696 -129.43725586 132.69311523 C-131.19077192 130.93421804 -132.9495981 129.18075759 -134.70898438 127.42773438 C-135.84146675 126.29459147 -136.97363902 125.16113855 -138.10546875 124.02734375 C-138.62328415 123.51155258 -139.14109955 122.99576141 -139.67460632 122.46434021 C-148.97104339 113.10862442 -148.97104339 113.10862442 -149.0546875 109.90625 C-147.6849316 107.43054305 -146.06176317 105.56771869 -144.125 103.5 C-142.90683594 102.18708984 -142.90683594 102.18708984 -141.6640625 100.84765625 C-140.34535156 99.43806641 -140.34535156 99.43806641 -139 98 C-138.08925879 97.00041398 -137.18042798 95.99908429 -136.2734375 94.99609375 C-128.93067145 86.88545674 -121.45930926 78.98656403 -113.140625 71.86328125 C-110.66813514 69.71113223 -108.27728643 67.48019281 -105.875 65.25 C-100.06859966 59.95687262 -93.96093411 55.12467134 -87.73339844 50.33935547 C-86.09544306 49.07374657 -84.47162877 47.79229334 -82.8515625 46.50390625 C-59.6483122 28.23938303 -33.68652275 13.16939927 -7.01171875 0.59375 C-5.95730591 0.09391602 -5.95730591 0.09391602 -4.8815918 -0.41601562 C-3 -1 -3 -1 0 0 Z " fill="#000000" transform="translate(149,164)"/>
<path d="M0 0 C3.55689505 0.59768146 6.52284158 1.54460859 9.78125 3.08203125 C10.69495361 3.51314209 11.60865723 3.94425293 12.55004883 4.38842773 C13.52353271 4.85837158 14.4970166 5.32831543 15.5 5.8125 C16.51666748 6.30242432 17.53333496 6.79234863 18.58081055 7.29711914 C46.75658904 21.06286845 73.10790778 38.69699969 97 59 C98.08196106 59.90763576 99.16399676 60.81518255 100.24609375 61.72265625 C115.84064784 74.87423944 131.46224757 88.78681188 144.6328125 104.4140625 C145.97096126 106.06355757 145.97096126 106.06355757 147.7421875 107.3984375 C149 109 149 109 148.9765625 111.35546875 C147.71642038 114.7679336 145.88838119 116.68901601 143.375 119.3125 C142.11816406 120.63701172 142.11816406 120.63701172 140.8359375 121.98828125 C140.3819458 122.46354248 139.9279541 122.93880371 139.46020508 123.4284668 C137.85448948 125.15660445 136.32142891 126.93645718 134.78515625 128.7265625 C130.43368819 133.72731789 125.75859488 138.38754283 121.0625 143.0625 C120.20720703 143.92166016 119.35191406 144.78082031 118.47070312 145.66601562 C111.18898599 152.93662411 103.62725818 159.63277074 95.5 165.9375 C94.55253906 166.67709961 94.55253906 166.67709961 93.5859375 167.43164062 C92.05891686 168.62317946 90.52970071 169.81190381 89 171 C85.65175135 169.55451496 83.55954982 167.74975261 81.05859375 165.11328125 C80.31552979 164.34266357 79.57246582 163.5720459 78.80688477 162.77807617 C78.02498779 161.96443604 77.24309082 161.1507959 76.4375 160.3125 C70.05776599 153.81430432 64.2147487 148.08815107 56 144 C54.65228516 143.30583984 54.65228516 143.30583984 53.27734375 142.59765625 C41.57104383 136.91738413 29.79064041 135.27456557 17 134 C17.17015625 133.45214844 17.3403125 132.90429688 17.515625 132.33984375 C19.11024285 127.12340768 20.61627306 121.88449948 22.0625 116.625 C22.38347656 115.46226562 22.70445312 114.29953125 23.03515625 113.1015625 C25.62513428 102.58710437 26.40812836 92.31281016 26.375 81.5 C26.37412384 80.79823639 26.37324768 80.09647278 26.37234497 79.3734436 C26.25408377 50.55003832 16.98776442 23.38315808 0 0 Z " fill="#000000" transform="translate(363,163)"/>
<path d="M0 0 C1.47363281 1.94580078 1.47363281 1.94580078 3.203125 4.6953125 C4.16968018 6.21946777 4.16968018 6.21946777 5.15576172 7.77441406 C5.84686035 8.88010742 6.53795898 9.98580078 7.25 11.125 C7.96436405 12.25789235 8.67937685 13.39037586 9.39501953 14.52246094 C10.86884633 16.85524681 12.33913195 19.19021585 13.80761719 21.52636719 C15.88493938 24.82523841 17.98976535 28.10588589 20.1015625 31.3828125 C21.05627441 32.8675708 21.05627441 32.8675708 22.03027344 34.38232422 C23.23681347 36.25792231 24.44570385 38.13201108 25.65722656 40.00439453 C26.20088867 40.85372559 26.74455078 41.70305664 27.3046875 42.578125 C27.77890137 43.31450195 28.25311523 44.05087891 28.74169922 44.80957031 C30.07980762 47.13892781 31.06006818 49.48652407 32 52 C28.77178557 54.10563035 25.54226149 56.20924356 22.3125 58.3125 C20.94448242 59.20485352 20.94448242 59.20485352 19.54882812 60.11523438 C18.66259766 60.69208984 17.77636719 61.26894531 16.86328125 61.86328125 C16.05157471 62.39219971 15.23986816 62.92111816 14.40356445 63.46606445 C7.29922012 68 7.29922012 68 5 68 C3.30730199 65.44707841 1.73415833 62.89024412 0.1875 60.25 C-3.96509963 53.29925786 -8.24662993 46.45775169 -12.6875 39.6875 C-17.58997311 32.20082231 -22.37307479 24.66028705 -27 17 C-22.23669252 12.9656683 -17.03756348 9.64386707 -11.8125 6.25 C-10.89791016 5.64800781 -9.98332031 5.04601562 -9.04101562 4.42578125 C-8.16767578 3.85730469 -7.29433594 3.28882812 -6.39453125 2.703125 C-5.59893799 2.18395508 -4.80334473 1.66478516 -3.98364258 1.12988281 C-2 0 -2 0 0 0 Z " fill="#000000" transform="translate(48,96)"/>
<path d="M0 0 C5.5701546 2.07488877 10.27421754 5.16618574 15.25 8.375 C16.17296875 8.9525 17.0959375 9.53 18.046875 10.125 C19.36171875 10.97191406 19.36171875 10.97191406 20.703125 11.8359375 C21.50395508 12.34688965 22.30478516 12.8578418 23.12988281 13.38427734 C25 15 25 15 25.94824219 16.88208008 C26.0235927 19.96540899 24.81279953 21.49024871 23.125 24.05078125 C22.15167725 25.54834961 22.15167725 25.54834961 21.15869141 27.07617188 C20.44632324 28.14416016 19.73395508 29.21214844 19 30.3125 C17.90361201 31.98669749 16.80723051 33.6608993 15.71133423 35.3354187 C14.57441056 37.06835094 13.43172838 38.7973749 12.28808594 40.52587891 C10.05286372 43.91026776 7.85567758 47.3176677 5.6640625 50.73046875 C4.31790052 52.8204363 2.97155399 54.91028499 1.625 57 C0.98949219 57.99040283 0.35398437 58.98080566 -0.30078125 60.0012207 C-0.88988281 60.90831787 -1.47898437 61.81541504 -2.0859375 62.75 C-2.6020459 63.54921875 -3.1181543 64.3484375 -3.64990234 65.171875 C-5 67 -5 67 -7 68 C-9.60228299 66.55295015 -12.07002433 65.05636521 -14.5625 63.4375 C-15.28179687 62.97875488 -16.00109375 62.52000977 -16.7421875 62.04736328 C-21.87178799 58.76511216 -26.97181188 55.43592855 -32 52 C-30.33021931 47.12500811 -27.64356037 43.05443711 -24.875 38.75 C-24.36018066 37.94240234 -23.84536133 37.13480469 -23.31494141 36.30273438 C-21.5473925 33.53251642 -19.77355319 30.76637729 -18 28 C-16.93846236 26.3385058 -15.8769364 24.67700408 -14.81588745 23.01519775 C-2.85941768 4.28912652 -2.85941768 4.28912652 0 0 Z " fill="#000000" transform="translate(464,96)"/>
<path d="M0 0 C10.30906065 2.43247498 20.11364638 6.25795879 30 10 C28.02924221 17.56426171 25.75184516 24.96597336 23.20703125 32.35546875 C22.85613937 33.38311844 22.5052475 34.41076813 22.14372253 35.46955872 C21.03648005 38.70996546 19.92457639 41.94874944 18.8125 45.1875 C18.05502803 47.4015865 17.29786373 49.61577829 16.54101562 51.83007812 C14.69756181 57.22127308 12.85029181 62.61114832 11 68 C9.27499542 67.54039752 7.55078612 67.07780964 5.8269043 66.61401367 C4.86664841 66.35673996 3.90639252 66.09946625 2.91703796 65.83439636 C-1.53994867 64.55950948 -5.85543634 62.95546001 -10.1875 61.3125 C-11.04408203 60.99216797 -11.90066406 60.67183594 -12.78320312 60.34179688 C-14.85713814 59.56551952 -16.92932344 58.78491815 -19 58 C-16.36238712 47.17331734 -12.56855367 36.70937636 -8.9375 26.1875 C-8.29329659 24.3132621 -7.6494139 22.43891393 -7.00585938 20.56445312 C-6.09977333 17.92548028 -5.19325 15.28666856 -4.28416443 12.64872742 C-2.83381251 8.43965282 -1.39841639 4.22671248 0 0 Z " fill="#000000" transform="translate(359,49)"/>
<path d="M0 0 C2.48086534 7.26573624 4.95846712 14.53257818 7.43187714 21.80085564 C8.58041436 25.17556936 9.73008343 28.54988867 10.88232422 31.92333984 C12.20615406 35.7993186 13.52508621 39.67694811 14.84375 43.5546875 C15.46715271 45.3766011 15.46715271 45.3766011 16.10314941 47.23532104 C16.4835437 48.35633209 16.86393799 49.47734314 17.25585938 50.63232422 C17.59339233 51.62271698 17.93092529 52.61310974 18.27868652 53.6335144 C19 56 19 56 19 58 C4.645 62.95 4.645 62.95 -10 68 C-11.89055206 65.1641719 -12.81832156 62.93647539 -13.89526367 59.73413086 C-14.25871384 58.65969223 -14.622164 57.5852536 -14.99662781 56.47825623 C-15.57644157 54.73911705 -15.57644157 54.73911705 -16.16796875 52.96484375 C-16.56703934 51.77524551 -16.96610992 50.58564728 -17.37727356 49.36000061 C-18.21926622 46.84483077 -19.05925101 44.32908557 -19.89624023 41.81225586 C-20.97090272 38.58235639 -22.05649708 35.3562504 -23.14503002 32.13100338 C-24.18034233 29.05706373 -25.20478268 25.97950624 -26.23046875 22.90234375 C-26.62308395 21.7408934 -27.01569916 20.57944305 -27.42021179 19.38279724 C-27.95120232 17.77586754 -27.95120232 17.77586754 -28.49291992 16.13647461 C-28.80887619 15.19066025 -29.12483246 14.24484589 -29.45036316 13.27037048 C-30 11 -30 11 -29 9 C-27.05299967 8.19906938 -25.06607566 7.4944376 -23.06640625 6.8359375 C-21.2575293 6.23652344 -21.2575293 6.23652344 -19.41210938 5.625 C-18.78071045 5.42003906 -18.14931152 5.21507812 -17.4987793 5.00390625 C-15.57130087 4.37785853 -13.64777234 3.7407292 -11.72460938 3.1015625 C-2.29404677 0 -2.29404677 0 0 0 Z " fill="#000000" transform="translate(153,49)"/>
<path d="M0 0 C10.23 0 20.46 0 31 0 C31 20.13 31 40.26 31 61 C20.77 61 10.54 61 0 61 C0 40.87 0 20.74 0 0 Z " fill="#000000" transform="translate(240,34)"/>
<path d="M0 0 C4.84115976 2.33092877 7.70301121 5.14098526 10 10 C10.7664865 15.24808614 10.63108796 19.55375675 8.5 24.4375 C4.65594032 28.37766117 1.05848502 30.76400579 -4.53125 31.1953125 C-8.89512771 30.97186093 -11.62649538 30.21731178 -15.4375 28 C-19.05040311 23.77025978 -21.15374838 19.52340037 -20.90625 13.8515625 C-19.89612375 8.78150573 -17.62179255 5.62179255 -14 2 C-9.54263662 -0.73434897 -5.08206828 -0.64329978 0 0 Z " fill="#000000" transform="translate(261,229)"/>
</svg>
