<?xml version="1.0" encoding="UTF-8"?>
<svg version="1.1" xmlns="http://www.w3.org/2000/svg" width="512" height="512">
<path d="M0 0 C9.95964741 -0.13298828 19.79508813 0.25021137 29.73046875 0.953125 C31.21518645 1.05576309 32.69991262 1.15827886 34.18464661 1.26068115 C37.28343166 1.47576216 40.38190018 1.69489138 43.48022461 1.91650391 C46.59469263 2.13872968 49.70951079 2.35386612 52.82495117 2.56201172 C104.02120147 5.98638312 104.02120147 5.98638312 117 11 C113.50924899 14.57401663 109.88893873 17.91041495 106.0625 21.125 C105.50111328 21.59873047 104.93972656 22.07246094 104.36132812 22.56054688 C99.73909255 26.43544425 95.00866919 30.16006372 90.24804688 33.86254883 C84.99819838 37.96161532 79.90427957 42.22765153 74.8515625 46.56640625 C73.17890838 47.99389052 71.49201686 49.40549532 69.7734375 50.77734375 C64.64014958 54.89489597 61.44872367 58.80284388 60.5 65.5625 C61.38157722 71.62334339 64.53727442 74.80300098 69.125 78.5625 C78.42185098 85.48144355 87.37039465 89.05184966 99 88 C113.69564602 85.34598756 125.00001522 80.01078239 136.3203125 70.29296875 C141.9979532 65.43469602 141.9979532 65.43469602 146 64 C153.9086183 65.30242183 161.2927771 70.10068555 168.25 73.8125 C184.99438942 83.71821607 184.99438942 83.71821607 203.39331055 88.0859375 C212.45193611 88.25390367 217.75645546 90.38599016 225 96 C227.07564911 97.46924969 229.15941298 98.92708432 231.25 100.375 C232.33152344 101.12910156 233.41304688 101.88320313 234.52734375 102.66015625 C242.9365518 108.405683 251.78033641 113.67240281 261 118 C260.7473789 123.79765432 260.43181255 127.82143388 256 132 C251.75191316 134.52925925 247.83268824 134.58832726 243 134 C240.97762948 133.04605164 238.9717304 132.05464649 237 131 C234.70112992 131.19530151 234.70112992 131.19530151 233 132 C232.58009927 134.74723247 232.58009927 134.74723247 233 138 C234.28636135 139.41499749 235.57362229 140.82926945 236.875 142.23046875 C239.14953132 145.80811697 238.62274865 149.95213379 238 154 C236.42161123 157.70921361 234.57956543 160.1160182 231 162 C224.95085464 163.50074217 221.49483772 163.05268762 216 160 C212.74899636 159.74803177 212.74899636 159.74803177 210 160 C209.65235838 162.92018963 209.43505504 165.12801973 211.078125 167.6640625 C212.34640698 169.14372481 213.67143246 170.5742202 215 172 C216.60725691 175.21451382 216.47397924 178.51333076 216 182 C213.91777985 185.94134529 211.79714323 188.67466981 208 191 C205.30859375 191.36328125 205.30859375 191.36328125 202.4375 191.3125 C201.48746094 191.30863281 200.53742188 191.30476562 199.55859375 191.30078125 C197 191 197 191 194 189 C191.37468476 188.83286431 191.37468476 188.83286431 189 189 C188.34 190.32 187.68 191.64 187 193 C187.804375 193.99 188.60875 194.98 189.4375 196 C192.21004559 199.93369716 193.30179975 203.18008047 193 208 C192.18236998 212.41089881 191.09284231 215.87404126 187.9375 219.125 C180.2765815 221.40697572 172.88787483 218.53966653 166 215.1875 C165.17274414 214.80021729 164.34548828 214.41293457 163.49316406 214.01391602 C161.67048556 213.16018249 159.85061441 212.30043652 158.03320312 211.43554688 C153.47775938 209.27955772 148.89577926 207.18195681 144.31640625 205.07739258 C139.20652614 202.72778519 134.1030926 200.36430447 129 198 C129 194.14477909 130.65116113 191.67093948 132.4375 188.375 C136.22148129 181.04882837 138.18146412 175.46687062 135.9375 167.375 C133.39533117 160.87204135 129.79123509 156.52214997 123.4375 153.5 C117.28850798 151.28448532 111.35671677 152.08335746 105 153 C104.75765625 152.40832031 104.5153125 151.81664062 104.265625 151.20703125 C101.37516507 144.3922161 98.73174931 139.05478164 91.703125 135.71484375 C85.65775793 134.11614119 79.1978822 134.72921874 73 135 C72.65388672 134.11248047 72.65388672 134.11248047 72.30078125 133.20703125 C69.26138487 125.84280208 65.55946307 121.15198265 58.25 117.71875 C52.74392573 115.95986516 46.53035161 116.52523957 41 118 C40.62875 116.824375 40.2575 115.64875 39.875 114.4375 C37.32775356 107.80526848 33.77174269 103.48955866 27.25 100.5 C20.71297258 98.20613345 15.08873666 98.834439 8.6875 101.25 C3.24967934 104.79090648 -0.08965782 109.3269413 -3.3125 114.8125 C-3.67150391 115.40998047 -4.03050781 116.00746094 -4.40039062 116.62304688 C-5.27344624 118.07813956 -6.13766691 119.53852729 -7 121 C-13.51694175 120.05363317 -18.64578345 116.45991518 -24.25 113.1875 C-25.36375 112.55779297 -26.4775 111.92808594 -27.625 111.27929688 C-28.68203125 110.66505859 -29.7390625 110.05082031 -30.828125 109.41796875 C-31.7965332 108.85875732 -32.76494141 108.2995459 -33.76269531 107.72338867 C-36 106 -36 106 -36.97827148 104.26196289 C-37.01229916 100.71964334 -35.74471042 97.66177883 -34.51953125 94.390625 C-34.23927094 93.61544525 -33.95901062 92.8402655 -33.67025757 92.04159546 C-32.72752409 89.44069731 -31.76991528 86.84552584 -30.8125 84.25 C-30.14573666 82.41887705 -29.48015509 80.5873234 -28.81567383 78.75537109 C-27.73915641 75.78832301 -26.66161869 72.82167503 -25.58018494 69.85641479 C-22.55258125 61.55122178 -19.57702224 53.22796085 -16.6171875 44.8984375 C-16.16148175 43.61685184 -15.70574756 42.3352763 -15.24998474 41.05371094 C-13.44716433 35.98364452 -11.64482536 30.91340813 -9.84463501 25.84240723 C-8.57985719 22.28208332 -7.31178913 18.72294738 -6.04296875 15.1640625 C-5.66337006 14.09296234 -5.28377136 13.02186218 -4.89266968 11.91830444 C-4.54032257 10.93157745 -4.18797546 9.94485046 -3.82495117 8.92822266 C-3.51933762 8.06895172 -3.21372406 7.20968079 -2.89884949 6.32437134 C-2.05238438 4.13546289 -1.08796209 2.07781065 0 0 Z " fill="#000000" transform="translate(119,281)"/>
<path d="M0 0 C1.05960937 0.36222656 2.11921875 0.72445312 3.2109375 1.09765625 C15.10329268 5.60696831 24.99140491 13.14409296 34 22 C35.04800781 23.02867187 35.04800781 23.02867187 36.1171875 24.078125 C54.53532129 43.42791536 58.50684208 68.55651136 58.29296875 94.15234375 C58.28735946 96.14872414 58.28309568 98.14510872 58.28010559 100.14149475 C58.26876166 105.34463307 58.23938695 110.54751204 58.20599365 115.75054932 C58.17506485 121.08040867 58.16155196 126.41031076 58.14648438 131.74023438 C58.1145052 142.16026893 58.06343854 152.58011273 58 163 C56.59041455 162.5372227 55.18144859 162.07255829 53.7727356 161.60713196 C52.98804964 161.34858083 52.20336369 161.0900297 51.39489937 160.82364368 C47.57184152 159.50883376 43.84928439 157.96901343 40.1171875 156.41796875 C39.29985138 156.08130692 38.48251526 155.74464508 37.64041138 155.39778137 C35.05076143 154.33051964 32.46281085 153.2592123 29.875 152.1875 C28.16418479 151.48082367 26.45324809 150.77444137 24.7421875 150.06835938 C23.90322433 149.72214539 23.06426117 149.3759314 22.19987488 149.01922607 C18.90931662 147.66294141 15.6169522 146.31106715 12.32461548 144.95910645 C10.09335857 144.03851854 7.86709107 143.10669731 5.64135742 142.17285156 C4.31442645 141.62401981 2.98736734 141.07549774 1.66015625 140.52734375 C0.52199463 140.05159912 -0.61616699 139.57585449 -1.78881836 139.08569336 C-8.1108908 136.94821475 -14.73732693 136.68825833 -20.9375 139.375 C-23.56161396 140.86436198 -25.7007972 142.58505263 -28.02734375 144.52734375 C-28.57849854 144.98254395 -29.12965332 145.43774414 -29.69750977 145.90673828 C-30.79005256 146.82230536 -31.86135507 147.76403232 -32.90600586 148.73388672 C-35.35097505 150.80456717 -37.05215276 151.94499414 -40.30541992 152.13378906 C-42.9157845 151.90130545 -45.42817557 151.50205089 -48 151 C-48.76892578 150.85892822 -49.53785156 150.71785645 -50.33007812 150.57250977 C-51.89730029 150.2727469 -53.46246292 149.96205947 -55.02563477 149.6418457 C-75.08141214 145.55580194 -95.62955683 144.56143634 -116 143 C-116.0700233 134.13223428 -116.12307346 125.26456615 -116.15543652 116.3965826 C-116.17098215 112.27722733 -116.19201278 108.1580635 -116.22631836 104.03881836 C-116.25931393 100.05115994 -116.27693606 96.0636837 -116.28463173 92.07589912 C-116.29010416 90.56712546 -116.30078622 89.05835986 -116.31719017 87.54966545 C-116.56495421 63.78099311 -109.91949751 42.10105828 -94 24 C-93.34515625 23.24976563 -92.6903125 22.49953125 -92.015625 21.7265625 C-81.80552641 10.78717116 -69.08289362 3.66351559 -55 -1 C-53.55560547 -1.50853516 -53.55560547 -1.50853516 -52.08203125 -2.02734375 C-35.7300076 -6.81599305 -15.96476214 -5.5968419 0 0 Z " fill="#000000" transform="translate(285,132)"/>
<path d="M0 0 C0.68349518 0.26658417 1.36699036 0.53316833 2.07119751 0.80783081 C10.82847071 4.25618171 19.48886614 7.94785227 28.1484375 11.6328125 C29.82147639 12.34277365 31.49465303 13.05241029 33.16796875 13.76171875 C33.9812262 14.10652283 34.79448364 14.4513269 35.63238525 14.80657959 C37.97579725 15.79805275 40.32123824 16.78459104 42.66699219 17.77050781 C45.10802024 18.79716037 47.53129826 19.84585614 49.95019531 20.92480469 C51.24328613 21.48796387 51.24328613 21.48796387 52.5625 22.0625 C53.2529541 22.37429199 53.9434082 22.68608398 54.65478516 23.00732422 C60.94962103 24.49435044 67.39218769 20.82127219 73.09765625 18.47265625 C74.08087357 18.07454239 75.06409088 17.67642853 76.07710266 17.26625061 C79.20743112 15.99838141 82.33447799 14.72268972 85.4609375 13.4453125 C88.59823684 12.16469885 91.73622097 10.88594874 94.87690735 9.61366272 C96.82878482 8.8229203 98.77871767 8.02735744 100.72648621 7.22654724 C102.04849785 6.69082848 102.04849785 6.69082848 103.3972168 6.14428711 C104.1718779 5.82753525 104.946539 5.51078339 105.74467468 5.18443298 C107.7734375 4.5078125 107.7734375 4.5078125 110.7734375 4.5078125 C111.03937714 5.25996033 111.30531677 6.01210815 111.57931519 6.78704834 C114.13637054 14.01882577 116.69386306 21.25044839 119.25179863 28.48191452 C120.82042048 32.91657395 122.38871007 37.35135065 123.95666122 41.78624725 C124.71922829 43.94275885 125.48218432 46.09913256 126.24517822 48.25549316 C127.25867826 51.12006331 128.27030259 53.98528652 129.28070068 56.85095215 C131.7457954 63.83466279 134.24012648 70.80550081 136.79785156 77.75585938 C137.27469541 79.05973566 137.75127422 80.3637089 138.22756958 81.66778564 C139.1168667 84.09620426 140.01476837 86.52149479 140.9225769 88.9430542 C141.31438141 90.0166217 141.70618591 91.09018921 142.10986328 92.19628906 C142.45687286 93.13039612 142.80388245 94.06450317 143.16140747 95.0269165 C143.81569953 97.67912388 143.81705043 99.00192021 142.7734375 101.5078125 C140.7956543 102.7722168 140.7956543 102.7722168 138.22265625 103.83203125 C137.29646484 104.22068359 136.37027344 104.60933594 135.41601562 105.00976562 C133.95325195 105.59661133 133.95325195 105.59661133 132.4609375 106.1953125 C131.49736328 106.59814453 130.53378906 107.00097656 129.54101562 107.41601562 C118.65101781 111.92144092 107.71150316 113.67113831 96.3359375 109.6328125 C84.23316131 104.35724339 73.35254292 96.45299802 62.79589844 88.61889648 C55.45373869 83.27283005 49.88245371 80.40384118 40.63671875 80.4453125 C28.90602367 80.24491239 19.06826131 73.88244069 8.9609375 68.5078125 C6.94083485 67.45827374 4.91935708 66.4113773 2.89648438 65.3671875 C0.0630195 63.90400156 -2.76782824 62.43727111 -5.58857727 60.94970703 C-6.4176207 60.51255371 -7.24666412 60.07540039 -8.10083008 59.625 C-9.19093132 59.04661377 -9.19093132 59.04661377 -10.30305481 58.45654297 C-14.24714615 56.51120132 -17.90703732 55.57428874 -22.2265625 56.5078125 C-28.6772441 59.70223949 -34.27240401 64.27583622 -39.9140625 68.6953125 C-51.08626656 77.44613958 -62.07824606 80.85866421 -76.24316406 79.79345703 C-83.3109069 78.77557678 -89.33972026 74.92743934 -93.9765625 69.6328125 C-95.0903125 68.0859375 -95.0903125 68.0859375 -96.2265625 66.5078125 C-94.80672652 61.90160043 -92.53753894 59.57245717 -88.9765625 56.3828125 C-88.44571045 55.90690674 -87.9148584 55.43100098 -87.36791992 54.94067383 C-82.9853954 51.0623279 -78.42700064 47.42820842 -73.79858398 43.84960938 C-68.97035573 40.11604282 -64.24276725 36.27187429 -59.5390625 32.3828125 C-58.81187012 31.78178711 -58.08467773 31.18076172 -57.33544922 30.56152344 C-55.93006225 29.39925979 -54.52494084 28.23667494 -53.12011719 27.07373047 C-49.79206789 24.32152467 -46.45080185 21.58573752 -43.1015625 18.859375 C-40.84175139 17.01099689 -38.59446428 15.1499733 -36.3515625 13.28125 C-13.66848461 -5.53248707 -13.66848461 -5.53248707 0 0 Z " fill="#000000" transform="translate(284.2265625,280.4921875)"/>
<path d="M0 0 C0.62777344 0.59167969 1.25554687 1.18335938 1.90234375 1.79296875 C5.92811988 5.92828981 8.61600072 10.60005298 11.25 15.6875 C11.5795166 16.31019775 11.9090332 16.93289551 12.24853516 17.57446289 C19.00264589 31.28133468 18.37361202 45.42236783 18.1875 60.3125 C18.1724227 62.42121438 18.1587397 64.52993921 18.14648438 66.63867188 C18.11372769 71.75937674 18.06211407 76.87957055 18 82 C15.38553389 78.67676882 14.0600048 75.70125115 12.6875 71.6875 C10.0383358 64.66248421 7.30797779 59.20946274 0.25 56 C-7.70004352 53.67669621 -15.74003115 56.23059336 -23.26171875 58.984375 C-24.09661331 59.28184631 -24.93150787 59.57931763 -25.79170227 59.88580322 C-27.54064753 60.51232711 -29.28756547 61.14453742 -31.0324707 61.78222656 C-33.68580549 62.74938234 -36.34693796 63.69215434 -39.00976562 64.6328125 C-40.7192693 65.24856018 -42.42827199 65.86570087 -44.13671875 66.484375 C-44.9222966 66.76166443 -45.70787445 67.03895386 -46.51725769 67.324646 C-52.26246221 69.44978651 -57.78091873 72.05234819 -61.55859375 77.0703125 C-64.16181671 83.15606928 -64.36175025 88.44283779 -64 95 C-71.90759224 98.67944704 -79.90371659 102.0711054 -88 105.3125 C-89.11761719 105.76689453 -90.23523438 106.22128906 -91.38671875 106.68945312 C-92.45535156 107.11806641 -93.52398437 107.54667969 -94.625 107.98828125 C-95.58664062 108.37540283 -96.54828125 108.76252441 -97.5390625 109.16137695 C-100 110 -100 110 -103 110 C-103.00808685 108.89467926 -103.01617371 107.78935852 -103.02450562 106.65054321 C-103.10218089 96.20509553 -103.18997329 85.75977467 -103.28752708 75.31449318 C-103.33735235 69.94520244 -103.38368314 64.57593006 -103.421875 59.20654297 C-103.45890231 54.01931433 -103.50530855 48.83224473 -103.55806351 43.64515305 C-103.57651512 41.67177511 -103.59165668 39.69836321 -103.60334396 37.72493362 C-103.62036547 34.94878296 -103.64943689 32.17298925 -103.68115234 29.39697266 C-103.68331253 28.59135895 -103.68547272 27.78574524 -103.68769836 26.95571899 C-103.76108397 21.88724622 -104.45281594 17.26931547 -105.67136574 12.34541893 C-106.2216453 8.41814702 -105.55971373 5.79303404 -103.28515625 2.5703125 C-92.08678049 -9.74986891 -78.48776314 -17.99015331 -62 -21 C-61.15308594 -21.1546875 -60.30617188 -21.309375 -59.43359375 -21.46875 C-36.67811984 -24.52597398 -16.08096295 -15.75444594 0 0 Z " fill="#000000" transform="translate(455,181)"/>
<path d="M0 0 C6.09506722 6.14939046 6.09506722 6.14939046 6.3984375 9.4921875 C6.26824219 10.224375 6.13804687 10.9565625 6.00390625 11.7109375 C5.88660156 12.443125 5.76929688 13.1753125 5.6484375 13.9296875 C5.34892295 15.42470031 5.02543696 16.91515423 4.67567444 18.3992157 C4.09146997 21.79118005 4.02770444 25.03713006 3.98608398 28.47973633 C3.97618439 29.19247711 3.96628479 29.9052179 3.95608521 30.63955688 C3.92463851 32.9823277 3.89977979 35.32511874 3.875 37.66796875 C3.85441591 39.2975058 3.83341907 40.92703769 3.81202698 42.55656433 C3.75695649 46.83576258 3.70748125 51.11500782 3.65917969 55.39428711 C3.60885466 59.7648535 3.55322613 64.13535205 3.49804688 68.50585938 C3.39064918 77.07416131 3.28916374 85.64252018 3.19140625 94.2109375 C-0.13936862 94.05565241 -3.47007943 93.8990311 -6.80078125 93.7421875 C-8.20106567 93.67692871 -8.20106567 93.67692871 -9.62963867 93.61035156 C-30.57813097 92.62109176 -30.57813097 92.62109176 -34.80859375 91.2109375 C-35.36328125 89.42578125 -35.36328125 89.42578125 -35.68359375 87.1484375 C-36.71603154 81.99444249 -38.28994451 78.15758558 -41.80859375 74.2109375 C-49.21036456 69.33528972 -58.22670998 66.68524548 -66.54003906 63.76171875 C-68.80888187 62.96083579 -71.07034045 62.14114268 -73.33203125 61.3203125 C-87.5173084 55.89319191 -87.5173084 55.89319191 -102.0078125 58.109375 C-110.71065626 63.43302346 -113.36790054 74.16130359 -116.80859375 83.2109375 C-117.13859375 83.2109375 -117.46859375 83.2109375 -117.80859375 83.2109375 C-117.8834474 77.04030935 -117.93752479 70.86995278 -117.97338867 64.69897461 C-117.98835931 62.6051777 -118.00874308 60.5114115 -118.03491211 58.41772461 C-118.212421 43.83763194 -118.16924415 30.41212693 -111.30859375 17.1484375 C-110.96747559 16.48070312 -110.62635742 15.81296875 -110.27490234 15.125 C-101.68180165 -0.84724936 -86.85725952 -11.92240697 -69.921875 -17.7890625 C-44.30253021 -25.39080817 -19.37896154 -17.68689406 0 0 Z " fill="#000000" transform="translate(156.80859375,179.7890625)"/>
<path d="M0 0 C5.07818897 3.56860573 7.22847954 6.78280745 9.1640625 12.70703125 C9.43419159 13.48011627 9.70432068 14.25320129 9.9826355 15.04971313 C10.88072126 17.63168191 11.75234344 20.22183766 12.625 22.8125 C13.26027243 24.65119798 13.89769829 26.48915316 14.53710938 28.32641602 C15.93445695 32.34509832 17.32327447 36.36660355 18.70800781 40.38964844 C22.44618218 51.2118362 26.32484195 61.98448447 30.1852417 72.76351929 C31.47086392 76.35608168 32.75287769 79.94991026 34.03369141 83.54418945 C34.84532181 85.81984412 35.65700679 88.09547932 36.46875 90.37109375 C36.85694916 91.46079971 37.24514832 92.55050568 37.64511108 93.67323303 C39.43169639 98.67410916 41.23861391 103.6647052 43.11328125 108.63330078 C43.6015741 109.93195824 43.6015741 109.93195824 44.09973145 111.2568512 C44.69571126 112.83445804 45.2976126 114.40984856 45.90710449 115.98228455 C47.83671997 121.08870331 49.70818518 126.23163974 48.3125 131.6875 C44.96422118 137.58684839 40.47201544 139.29083354 34.359375 141.453125 C33.51836243 141.75820984 32.67734985 142.06329468 31.81085205 142.37762451 C30.03428935 143.01845121 28.25564257 143.6535257 26.47509766 144.28320312 C23.76699936 145.24396905 21.06906964 146.22996818 18.37109375 147.21875 C16.63857565 147.84009088 14.90551877 148.45993189 13.171875 149.078125 C11.97301666 149.51865204 11.97301666 149.51865204 10.74993896 149.96807861 C5.61178086 151.75857734 1.44207267 152.70874155 -4 152 C-9.32891079 148.74300565 -11.2379723 145.18809915 -13.1640625 139.29296875 C-13.43414627 138.520065 -13.70423004 137.74716125 -13.98249817 136.95083618 C-14.8806853 134.36870105 -15.75236533 131.77837068 -16.625 129.1875 C-17.26102246 127.34587873 -17.8991807 125.50499389 -18.53930664 123.66479492 C-19.57238636 120.69261122 -20.6034306 117.71981787 -21.6275177 114.74452209 C-25.68944955 102.94401563 -29.91506488 91.20261162 -34.13031006 79.45620728 C-37.00022672 71.4565005 -39.86323177 63.45443785 -42.70263672 55.44384766 C-44.24221593 51.10395799 -45.81520547 46.77814391 -47.41064453 42.45849609 C-48.16066462 40.39297003 -48.91050981 38.32738045 -49.66015625 36.26171875 C-50.01331406 35.32656937 -50.36647186 34.39141998 -50.73033142 33.42793274 C-52.59921008 28.22271284 -53.50418599 24.51995268 -52 19 C-48.03307657 13.29702339 -41.85666258 11.70714462 -35.5625 9.5 C-34.48734131 9.11271729 -33.41218262 8.72543457 -32.30444336 8.32641602 C-30.17097434 7.55891986 -28.03567515 6.79648912 -25.8984375 6.03955078 C-23.45784001 5.16420846 -21.03866193 4.25491168 -18.625 3.30859375 C-5.46034586 -1.7580659 -5.46034586 -1.7580659 0 0 Z " fill="#000000" transform="translate(452,245)"/>
<path d="M0 0 C2.16238122 0.67141504 4.27441481 1.42204885 6.39346313 2.21960449 C7.16555618 2.49866638 7.93764923 2.77772827 8.73313904 3.06524658 C10.35150823 3.65362535 11.96736529 4.24895691 13.58071899 4.85095215 C16.03641768 5.76589205 18.49996552 6.65641337 20.96572876 7.54382324 C22.54632594 8.12183291 24.12642247 8.70121387 25.70596313 9.28210449 C26.43421799 9.54581848 27.16247284 9.80953247 27.91279602 10.08123779 C33.00434851 11.99610097 38.25855762 14.02475238 41.28799438 18.76647949 C42.77641762 26.04321531 39.85968182 32.9779093 37.37002563 39.71179199 C36.82883842 41.20831047 36.82883842 41.20831047 36.27671814 42.73506165 C35.07988662 46.04006968 33.8716235 49.34076938 32.66299438 52.64147949 C30.93423413 57.39411785 29.21062613 62.14861865 27.48721313 66.90319824 C27.26238251 67.52220316 27.03755188 68.14120808 26.8059082 68.77897072 C23.34405174 78.31118313 19.95888212 87.86822007 16.62119865 97.44458771 C15.87405793 99.58694848 15.12513803 101.72867819 14.37553406 103.87017822 C14.13024302 104.57098511 13.88495199 105.27179199 13.6322279 105.99383545 C13.14025043 107.39929153 12.64821646 108.80472784 12.15612507 110.21014404 C10.94666509 113.66705443 9.74207761 117.12552791 8.54742432 120.58758545 C7.63423231 123.23373235 6.71460985 125.87745067 5.7870636 128.51860046 C4.94328544 130.9214371 4.10891609 133.32760723 3.28587341 135.73762512 C-1.25765042 148.5705519 -1.25765042 148.5705519 -7.14950562 151.51647949 C-13.5163036 151.95166284 -18.3338344 150.80216226 -24.28622437 148.62976074 C-25.12869217 148.33087448 -25.97115997 148.03198822 -26.8391571 147.7240448 C-28.6086866 147.09222602 -30.37593967 146.45399851 -32.14096069 145.80969238 C-34.83300874 144.8304334 -37.5341654 143.88038126 -40.23739624 142.93249512 C-41.96262871 142.31248141 -43.68726034 141.69079272 -45.41122437 141.06726074 C-46.2133989 140.78683426 -47.01557343 140.50640778 -47.84205627 140.21748352 C-52.6138514 138.44744782 -55.98161705 136.68471355 -59.14950562 132.51647949 C-60.34924265 127.92675569 -60.00029564 124.94003238 -58.50424194 120.47619629 C-58.12788605 119.33733978 -57.75153015 118.19848328 -57.36376953 117.02511597 C-56.96306244 115.86726593 -56.56235535 114.70941589 -56.14950562 113.51647949 C-55.78239471 112.44169342 -55.41528381 111.36690735 -55.03704834 110.259552 C-53.8690121 106.88607494 -52.67491711 103.52281859 -51.47372437 100.16101074 C-51.02651802 98.90305313 -50.57955398 97.64500937 -50.1328125 96.3868866 C-48.94817382 93.05291942 -47.76014997 89.72016896 -46.57123184 86.38772583 C-45.33618943 82.92470728 -44.10373688 79.46076708 -42.87094116 75.99694824 C-41.38314972 71.81740037 -39.89485806 67.63803222 -38.40489197 63.45925903 C-35.78342128 56.1070117 -33.16744854 48.75288499 -30.56233215 41.39482117 C-29.18108757 37.49404323 -27.79691713 33.5943079 -26.41210938 29.6947937 C-25.78374062 27.92344089 -25.15658417 26.15165752 -24.53070068 24.37942505 C-23.67413656 21.95507353 -22.81282668 19.5324602 -21.95028687 17.11022949 C-21.70751007 16.41934738 -21.46473328 15.72846527 -21.21459961 15.01664734 C-17.12707632 3.59086578 -12.80985053 -2.88151163 0 0 Z " fill="#000000" transform="translate(71.14950561523438,245.4835205078125)"/>
<path d="M0 0 C9.31892029 6.50928327 15.41211024 15.14988031 17.515625 26.375 C19.08751427 37.51241055 16.26707875 48.51033658 9.59375 57.6484375 C2.44870528 65.76203272 -7.10227571 71.05158512 -17.92578125 71.84765625 C-29.96634767 72.04056252 -39.969566 68.90122373 -49.171875 60.8984375 C-56.74446508 53.01442055 -60.5555052 42.08273778 -60.375 31.234375 C-59.4311071 19.64546769 -55.21013864 11.21590081 -46.7890625 3.33203125 C-33.6811989 -7.76433895 -14.57412226 -9.12855672 0 0 Z " fill="#000000" transform="translate(277.1640625,16.35546875)"/>
<path d="M0 0 C6.54943988 5.08928337 10.32211511 12.67698182 11.9296875 20.71484375 C12.72127775 30.37224477 10.12792064 38.30139647 3.88671875 45.73828125 C-2.36675949 52.05416946 -9.60926416 54.73239916 -18.4453125 55.02734375 C-28.13720134 54.76289931 -33.86451208 51.82814834 -40.8984375 45.1328125 C-47.25413226 38.05695809 -48.43877215 30.52912181 -48.34375 21.29296875 C-47.69664163 12.82509348 -43.31558497 6.31363294 -37.0703125 0.71484375 C-25.35259151 -7.26191564 -12.20786061 -7.57808706 0 0 Z " fill="#000000" transform="translate(423.0703125,71.28515625)"/>
<path d="M0 0 C7.70305303 5.46095402 12.02864757 11.0859427 15 20 C15.87070503 31.10505756 14.7497766 38.7027367 7.625 47.3125 C1.34214567 54.03649091 -5.0506004 56.98242249 -14.25 57.375 C-22.62953916 57.1908343 -30.38708596 54.53342875 -36.50390625 48.6953125 C-42.53712373 41.85871619 -45.56601237 34.32193445 -45.2421875 25.12890625 C-44.18756118 15.85840071 -40.33545166 8.29771155 -33.01171875 2.3984375 C-23.13854693 -4.15811543 -10.7372821 -5.25229279 0 0 Z " fill="#000000" transform="translate(122,69)"/>
<path d="M0 0 C3.9095064 2.6063376 6.18895039 5.16578447 7.265625 9.84375 C7.78489756 16.35826032 5.13006021 21.23118086 1.99511719 26.77490234 C0.53713981 29.36398603 -0.88148484 31.97367504 -2.3046875 34.58203125 C-3.45130649 36.65985872 -4.5997653 38.73667191 -5.75 40.8125 C-6.30389404 41.82006348 -6.85778809 42.82762695 -7.4284668 43.86572266 C-14.60902126 56.6299636 -14.60902126 56.6299636 -21.1875 58.875 C-23.40625 58.921875 -23.40625 58.921875 -25.6875 58.625 C-26.4403125 58.53734375 -27.193125 58.4496875 -27.96875 58.359375 C-32.24855072 57.42505231 -33.87050976 56.3240695 -36.4375 52.6875 C-38.60645591 49.12540703 -38.52994047 45.97995089 -38.1875 41.875 C-37.22877525 39.37246772 -36.25943702 37.21189749 -35 34.875 C-34.65267822 34.21145508 -34.30535645 33.54791016 -33.94750977 32.86425781 C-33.15905522 31.3732517 -32.36186927 29.88684144 -31.55761719 28.40429688 C-30.57666052 26.59340752 -29.60725342 24.77624303 -28.64550781 22.95507812 C-26.99376543 19.83282211 -25.31342568 16.72755223 -23.625 13.625 C-23.09559814 12.6246875 -22.56619629 11.624375 -22.02075195 10.59375 C-16.97216604 1.49837418 -10.93860367 -3.86068365 0 0 Z " fill="#000000" transform="translate(208.1875,425.125)"/>
<path d="M0 0 C3.19336817 3.28729076 4.44226042 6.12073572 4.625 10.69921875 C4.47801458 17.38583039 1.42676437 22.33931596 -1.875 28 C-2.76650757 29.5773291 -2.76650757 29.5773291 -3.67602539 31.18652344 C-5.38835133 34.19932358 -7.12932602 37.19394393 -8.875 40.1875 C-9.68748887 41.62296799 -10.49888232 43.05905725 -11.30859375 44.49609375 C-14.61336588 50.17154063 -17.01286704 53.9232727 -22.875 57.1875 C-27.45386191 58.22537537 -31.05168794 57.58390951 -35.25 55.5625 C-38.27913901 52.82185042 -39.62421838 51.08699563 -40.875 47.1875 C-41.01771487 40.31255097 -38.74664874 35.07270713 -35.4375 29.1875 C-34.99446533 28.37659912 -34.55143066 27.56569824 -34.0949707 26.73022461 C-32.70591751 24.20572029 -31.29267106 21.69602546 -29.875 19.1875 C-29.42286133 18.3742627 -28.97072266 17.56102539 -28.50488281 16.72314453 C-27.20518778 14.39022508 -25.88834545 12.06814169 -24.5625 9.75 C-24.16683838 9.04681641 -23.77117676 8.34363281 -23.36352539 7.61914062 C-20.7244082 3.10790487 -17.98580735 -0.41800015 -13.0625 -2.625 C-8.04938505 -3.05469557 -4.22000123 -2.66043556 0 0 Z " fill="#000000" transform="translate(178.875,408.8125)"/>
<path d="M0 0 C3.23300086 1.47593517 5.72160787 3.26592945 8 6 C9.79884241 11.39652722 9.90805313 15.76112922 7.78027344 21.00732422 C6.06716143 24.37459913 4.25141464 27.65849374 2.375 30.9375 C1.75753906 32.05318359 1.14007813 33.16886719 0.50390625 34.31835938 C-11.4994385 55.88647462 -11.4994385 55.88647462 -17 59 C-21.46864792 59.8015512 -25.82952711 60.0916834 -29.97265625 58.0078125 C-32.75540996 55.80622357 -35.02403347 53.41588287 -36 50 C-36.71023605 42.73622223 -34.63753411 38.33750495 -31.125 32.0625 C-30.6297583 31.15314697 -30.1345166 30.24379395 -29.62426758 29.30688477 C-28.10069641 26.52760975 -26.55155656 23.76372562 -25 21 C-24.08461101 19.33074255 -23.16924524 17.66147237 -22.25390625 15.9921875 C-21.40106604 14.47248024 -20.54572842 12.95417088 -19.6875 11.4375 C-19.30416504 10.74213135 -18.92083008 10.0467627 -18.52587891 9.33032227 C-14.12852311 1.76736036 -8.71831059 -1.35367484 0 0 Z " fill="#000000" transform="translate(238,442)"/>
<path d="M0 0 C3.4285785 2.02008139 6.20847086 4.41694171 8 8 C9.74643044 16.83940959 5.66830015 23.69789434 1.49365234 31.13232422 C0.37918023 33.11755368 -0.70522141 35.11690362 -1.78515625 37.12109375 C-11.22229329 54.46395703 -11.22229329 54.46395703 -18 59 C-22.88547094 59.89486349 -26.95770878 59.49271949 -31.4375 57.375 C-34.40320952 54.62629361 -35.76108285 52.86250641 -37 49 C-36.88765492 40.83893217 -33.92924581 35.25052422 -29.9375 28.25 C-29.34839844 27.19466064 -28.75929688 26.13932129 -28.15234375 25.05200195 C-26.45263298 22.02415919 -24.73020946 19.01049131 -23 16 C-22.56574707 15.23284668 -22.13149414 14.46569336 -21.68408203 13.67529297 C-16.37416802 4.32596285 -11.84304169 -2.33913887 0 0 Z " fill="#000000" transform="translate(143,389)"/>
</svg>
