<?xml version="1.0" encoding="UTF-8"?>
<svg version="1.1" xmlns="http://www.w3.org/2000/svg" width="512" height="512">
<path d="M0 0 C1.60706761 -0.00346263 3.21413284 -0.00823125 4.82119316 -0.01418173 C9.20812197 -0.02663809 13.59485353 -0.02054596 17.98178279 -0.01122308 C22.72417109 -0.00441087 27.46652642 -0.01492451 32.20890808 -0.02316284 C41.48744479 -0.03647894 50.76590856 -0.03363199 60.04444809 -0.02492492 C67.58698002 -0.01814083 75.12949157 -0.01723479 82.67202568 -0.02049637 C83.74683937 -0.02095607 84.82165306 -0.02141577 85.92903687 -0.0218894 C88.11270842 -0.0228486 90.29637997 -0.02382124 92.48005151 -0.02480717 C112.93964027 -0.03335474 133.39918865 -0.02353665 153.85877078 -0.00740607 C171.40374642 0.00599844 188.94866252 0.00366668 206.49363708 -0.01016235 C226.88319231 -0.02622604 247.2727122 -0.03253284 267.66227287 -0.02332556 C269.83745984 -0.02236994 272.01264681 -0.02142683 274.18783379 -0.02049637 C275.25798499 -0.02003354 276.3281362 -0.01957072 277.43071624 -0.01909386 C284.9623396 -0.01650649 292.49394049 -0.02086949 300.02556038 -0.02793503 C309.20664011 -0.0363589 318.38764291 -0.03405113 327.56871385 -0.0180928 C332.25059409 -0.01022235 336.93234618 -0.0070976 341.61422539 -0.01704025 C345.90430881 -0.02601293 350.19414591 -0.0210121 354.48420715 -0.0051076 C356.03181074 -0.00177069 357.57943537 -0.00342919 359.12702531 -0.01073496 C374.59071086 -0.07810617 387.35785979 2.66150262 398.96458435 13.39657593 C419.73447496 35.10666735 433.33268661 77.69972941 433.1638031 107.31063843 C432.75107585 122.7584297 427.87853479 136.00274308 417.17552185 147.24813843 C413.15537199 150.95591178 409.04966637 153.65206942 403.86302185 155.38095093 C403.53302185 209.50095093 403.20302185 263.62095093 402.86302185 319.38095093 C406.16302185 319.71095093 409.46302185 320.04095093 412.86302185 320.38095093 C422.24467428 324.02159217 427.53938008 329.83935717 431.8200531 338.85360718 C434.93803783 346.40917318 435.26230878 352.89628728 435.30052185 361.00595093 C435.33339294 362.21380249 435.36626404 363.42165405 435.40013123 364.66610718 C435.46649459 375.87548205 432.6149722 385.51195394 424.76145935 393.75985718 C418.36519654 399.22168653 411.65041167 400.53103539 403.45017624 400.52240944 C402.69733974 400.52555125 401.94450325 400.52869307 401.16885352 400.53193009 C398.63182162 400.54129667 396.09483246 400.54356667 393.55778503 400.54589844 C391.72607367 400.55117879 389.89436352 400.55689127 388.06265473 400.56300008 C383.01748403 400.57855019 377.97231778 400.58788395 372.9271307 400.59621859 C367.48988873 400.60626592 362.05266286 400.62199964 356.61543274 400.63700867 C345.95585034 400.66549783 335.29626269 400.68859976 324.63666353 400.70978643 C315.96888927 400.72710732 307.30112124 400.74634123 298.63335419 400.7669487 C297.4007046 400.76987729 296.16805501 400.77280589 294.89805241 400.77582323 C292.39396823 400.78178029 289.88988407 400.7877415 287.38579991 400.79370682 C264.5498351 400.84788231 241.71386075 400.89642244 218.87787868 400.94263695 C198.05260059 400.98481922 177.2273406 401.03223804 156.40208435 401.08407593 C132.99954912 401.14231184 109.59700983 401.19714742 86.19445443 401.2466768 C83.69579584 401.25197477 81.19713727 401.25727738 78.6984787 401.26258469 C76.85443595 401.26649944 76.85443595 401.26649944 74.97313981 401.27049328 C66.32536239 401.2890863 57.67759278 401.31009432 49.0298233 401.33205032 C38.47630977 401.35878234 27.92279581 401.38180248 17.36926422 401.40013529 C11.98813588 401.409576 6.6070245 401.42064136 1.22591019 401.43623924 C-3.70922771 401.45049694 -8.64435112 401.45989594 -13.57950613 401.4655693 C-15.35624471 401.46843547 -17.13298161 401.47301094 -18.90971044 401.47955807 C-56.99238651 401.61569112 -56.99238651 401.61569112 -67.31666565 393.25595093 C-76.10126419 384.20743741 -77.51993293 374.44150477 -77.57447815 362.38095093 C-77.60734924 361.12927124 -77.64022034 359.87759155 -77.67408752 358.58798218 C-77.74681039 345.82842457 -74.4776599 335.59259962 -65.4611969 326.41220093 C-60.76102239 322.30448539 -56.59882215 320.3905958 -50.38697815 319.79110718 C-49.18815002 319.67134521 -49.18815002 319.67134521 -47.96510315 319.54916382 C-47.3618219 319.49365356 -46.75854065 319.43814331 -46.13697815 319.38095093 C-45.90337907 298.10190076 -45.72703658 276.82306195 -45.61885643 255.54298973 C-45.56729105 245.66220617 -45.49699176 235.78221924 -45.38258362 225.90194702 C-45.28291247 217.29025483 -45.21839692 208.67913949 -45.1960932 200.06688654 C-45.18305462 195.50635215 -45.15241894 190.94746798 -45.07967758 186.38746262 C-45.01174636 182.09417256 -44.99086998 177.80321019 -45.00590134 173.50943375 C-45.00315223 171.93474416 -44.98328281 170.35997605 -44.9449234 168.78575134 C-44.83814807 164.17740012 -44.84945408 159.85033832 -46.13697815 155.38095093 C-49.13121626 152.36493956 -52.24072644 150.95331057 -56.13697815 149.38095093 C-66.67823707 140.88770803 -73.83438011 128.92264044 -75.36451721 115.36483765 C-77.2191127 90.12950845 -67.45483534 65.46478345 -58.01197815 42.56845093 C-57.61671936 41.60906616 -57.22146057 40.6496814 -56.81422424 39.66122437 C-50.63446826 25.06100976 -43.32783614 10.16644081 -28.13697815 3.38095093 C-18.79717472 0.29336614 -9.72979389 -0.04600425 0 0 Z M10.48802185 151.00595093 C4.86302185 154.38095093 4.86302185 154.38095093 -13.13697815 160.38095093 C-13.13697815 213.18095093 -13.13697815 265.98095093 -13.13697815 320.38095093 C20.19302185 320.38095093 53.52302185 320.38095093 87.86302185 320.38095093 C90.50302185 314.77095093 93.14302185 309.16095093 95.86302185 303.38095093 C98.45762086 299.46846036 100.90481045 295.96134828 103.86302185 292.38095093 C104.85882263 291.14151733 104.85882263 291.14151733 105.8747406 289.87704468 C116.18916323 277.69420538 128.50664336 269.96508313 142.86302185 263.38095093 C144.19973272 262.72108255 145.53512461 262.05838074 146.86302185 261.38095093 C146.48790466 260.89626343 146.11278748 260.41157593 145.7263031 259.91220093 C134.58072613 245.31346031 130.07316874 232.91004295 131.86302185 214.38095093 C134.15273033 201.87562001 141.72169227 191.80910261 151.86302185 184.38095093 C164.41567749 176.82628988 178.18430132 175.45716848 192.4841156 178.03329468 C204.20148457 181.58355082 214.08975636 189.44979988 220.3981781 199.93173218 C226.52223955 211.69778609 227.80587922 224.77705372 225.17552185 237.77938843 C222.12167614 246.6609897 216.90765331 254.29308358 210.86302185 261.38095093 C211.89040466 261.87723999 212.91778748 262.37352905 213.9763031 262.88485718 C239.4733033 275.32000874 255.71901929 290.52034117 267.86302185 316.38095093 C268.52302185 317.70095093 269.18302185 319.02095093 269.86302185 320.38095093 C303.19302185 320.38095093 336.52302185 320.38095093 370.86302185 320.38095093 C370.86302185 267.58095093 370.86302185 214.78095093 370.86302185 160.38095093 C364.92302185 158.40095093 358.98302185 156.42095093 352.86302185 154.38095093 C347.23802185 151.00595093 347.23802185 151.00595093 344.94895935 149.52938843 C341.46490179 147.61119943 338.68212122 147.27523073 334.86302185 148.38095093 C332.310778 149.71478691 329.93048573 151.20930784 327.51927185 152.78329468 C314.99119308 160.31856558 299.19009555 161.23073383 285.0466156 158.69735718 C277.78258677 156.59070141 271.34944839 153.22082092 264.86302185 149.38095093 C261.56450978 147.73169489 258.41460997 147.74440163 254.86302185 148.38095093 C252.28767517 149.68777974 249.93692772 151.20510265 247.51927185 152.78329468 C234.99119308 160.31856558 219.19009555 161.23073383 205.0466156 158.69735718 C197.78258677 156.59070141 191.34944839 153.22082092 184.86302185 149.38095093 C181.56450978 147.73169489 178.41460997 147.74440163 174.86302185 148.38095093 C172.28767517 149.68777974 169.93692772 151.20510265 167.51927185 152.78329468 C154.99119308 160.31856558 139.19009555 161.23073383 125.0466156 158.69735718 C117.78258677 156.59070141 111.34944839 153.22082092 104.86302185 149.38095093 C101.56450978 147.73169489 98.41460997 147.74440163 94.86302185 148.38095093 C92.28767517 149.68777974 89.93692772 151.20510265 87.51927185 152.78329468 C74.99119308 160.31856558 59.19009555 161.23073383 45.0466156 158.69735718 C37.78258677 156.59070141 31.34944839 153.22082092 24.86302185 149.38095093 C19.59015108 146.74451554 15.12023792 147.93650672 10.48802185 151.00595093 Z " fill="#000000" transform="translate(77.13697814941406,-0.380950927734375)"/>
<path d="M0 0 C147.84 0 295.68 0 448 0 C448 52.70949721 448 52.70949721 433.90234375 67.1484375 C425.3813308 75.23363145 415.26832004 80.23932961 403.3681097 80.26006222 C401.41641964 80.2706606 401.41641964 80.2706606 399.42530149 80.2814731 C397.99348987 80.27922205 396.56167855 80.27677559 395.12986755 80.27415466 C393.59937547 80.27860967 392.06888569 80.28392458 390.53839928 80.29002339 C386.33984001 80.30418264 382.14135485 80.30586707 377.94277513 80.30542648 C373.41155686 80.30707654 368.88036894 80.32014669 364.34916687 80.33161926 C354.44399901 80.35445475 344.5388526 80.36238846 334.63366199 80.36744571 C328.44553544 80.37070472 322.2574151 80.37722848 316.06929207 80.3844471 C298.92690322 80.40401193 281.78452014 80.42041656 264.64211941 80.42332363 C262.9970939 80.42360499 262.9970939 80.42360499 261.31883556 80.42389202 C259.09570348 80.42425827 256.87257141 80.42462197 254.64943933 80.42498314 C252.99414972 80.42525735 252.99414972 80.42525735 251.30541992 80.42553711 C249.64810316 80.42580793 249.64810316 80.42580793 247.95730526 80.42608423 C230.06134238 80.42962455 212.16549993 80.45663858 194.26957881 80.494035 C175.88398139 80.5321463 157.49844369 80.55148132 139.1128059 80.55178314 C128.79485946 80.55236711 118.47705666 80.56082001 108.15914726 80.58978081 C99.37179605 80.61433254 90.58464084 80.62155205 81.79726457 80.60653328 C77.3174736 80.59937964 72.83806939 80.60015475 68.35832214 80.62294388 C64.2490839 80.643647 60.14052696 80.64082898 56.03129519 80.62006903 C54.55279426 80.61659563 53.07424302 80.62139199 51.59580796 80.63577347 C36.04069714 80.77721026 24.06651807 76.85221856 12.8515625 65.90234375 C-5.0444237 47.04170402 0 26.86931172 0 0 Z " fill="#000000" transform="translate(32,432)"/>
</svg>
