<?xml version="1.0" encoding="UTF-8"?>
<svg version="1.1" xmlns="http://www.w3.org/2000/svg" width="512" height="512">
<path d="M0 0 C0.81076996 -0.0065712 1.62153992 -0.0131424 2.45687866 -0.01991272 C5.12978227 -0.03955365 7.80262964 -0.05129403 10.47558594 -0.0612793 C11.39641716 -0.06535482 12.31724838 -0.06943035 13.26598358 -0.07362938 C18.14965079 -0.09446114 23.03329023 -0.10876967 27.91699219 -0.11816406 C32.91268106 -0.12916156 37.90791629 -0.16349198 42.9034462 -0.20333576 C46.78502105 -0.22974675 50.66649236 -0.23787783 54.54814911 -0.24144554 C56.38658425 -0.24625658 58.22501655 -0.25770942 60.06336212 -0.27648354 C86.53634389 -0.5298167 111.99785707 6.38982557 131.56469727 25.02368164 C132.96092222 26.39352686 134.33580191 27.78502242 135.70996094 29.17700195 C136.52207031 29.99040039 137.33417969 30.80379883 138.17089844 31.6418457 C154.2252724 48.54551249 162.92565757 71.03280032 162.82348633 94.23339844 C162.82363235 95.11224197 162.82377838 95.99108551 162.82392883 96.89656067 C162.82323621 99.78043143 162.81547442 102.66423633 162.80761719 105.5480957 C162.8057507 107.55591293 162.80432788 109.56373062 162.80332947 111.57154846 C162.79952249 116.84045686 162.78970781 122.10933742 162.77862549 127.37823486 C162.76837217 132.76102319 162.76382346 138.14381604 162.75878906 143.52661133 C162.74808385 154.07675372 162.73102937 164.62687552 162.70996094 175.17700195 C160.82858421 176.13530394 158.94511174 177.08949205 157.06079102 178.04199219 C156.01216385 178.573806 154.96353668 179.10561981 153.88313293 179.65354919 C149.17683411 181.91306237 144.3549889 183.62212571 139.39746094 185.23950195 C137.85384888 185.74646606 137.85384888 185.74646606 136.27905273 186.26367188 C69.40215349 207.62450534 -29.68760568 208.47821864 -94.29003906 176.17700195 C-94.33666836 165.5011125 -94.37206211 154.82524783 -94.39366341 144.14927673 C-94.40403826 139.19038255 -94.41808033 134.23155876 -94.44091797 129.27270508 C-94.46287359 124.47457196 -94.47465485 119.67650595 -94.47979355 114.87832642 C-94.483449 113.06058701 -94.49058518 111.24285069 -94.50149918 109.42514038 C-94.66050764 81.80873286 -90.26133841 55.43794088 -71.29003906 34.17700195 C-70.63777344 33.37133789 -69.98550781 32.56567383 -69.31347656 31.7355957 C-52.49947443 11.61546955 -26.0496416 0.0928593 0 0 Z " fill="#000000" transform="translate(225.2900390625,272.822998046875)"/>
<path d="M0 0 C1.54171783 -0.00322074 3.08343537 -0.0065854 4.62515259 -0.01008606 C7.83393056 -0.0160315 11.04268176 -0.01793034 14.25146484 -0.01733398 C18.3569601 -0.01723174 22.46228483 -0.03096811 26.56773949 -0.04810619 C29.74192086 -0.05922605 32.91606069 -0.06125332 36.09025955 -0.06072426 C37.60448426 -0.06190114 39.11871016 -0.06630651 40.6329155 -0.07405663 C42.7454716 -0.0838717 44.8576525 -0.08097447 46.97021484 -0.07495117 C48.16947601 -0.07637619 49.36873718 -0.07780121 50.6043396 -0.07926941 C53.74680594 0.16468827 55.95874541 0.82390654 58.7890625 2.16796875 C58.90121094 3.58722656 58.90121094 3.58722656 59.015625 5.03515625 C61.04755016 26.79821746 69.20755621 46.36028564 84.69921875 61.91015625 C86.7890625 64.16796875 86.7890625 64.16796875 86.7890625 66.16796875 C85.57992187 66.65265625 84.37078125 67.13734375 83.125 67.63671875 C68.203496 73.70661276 54.87069455 80.2561165 42.7890625 91.16796875 C41.94730469 91.92722656 41.10554687 92.68648438 40.23828125 93.46875 C14.07700016 118.32806997 6.34088457 150.9172953 5.2265625 185.91796875 C5.16178711 187.83996094 5.16178711 187.83996094 5.09570312 189.80078125 C4.99084916 192.92309941 4.88868232 196.04547996 4.7890625 199.16796875 C-29.70265641 196.43840826 -63.31933305 190.95257164 -96.515625 180.96875 C-97.74531006 180.6015686 -98.97499512 180.23438721 -100.24194336 179.8560791 C-103.23241974 178.96271608 -106.22205499 178.06664692 -109.2109375 177.16796875 C-109.28078479 165.30137359 -109.33392389 153.43482822 -109.36637402 141.5680685 C-109.38195702 136.05645364 -109.40305909 130.54498056 -109.43725586 125.03344727 C-109.47011405 119.70363556 -109.48784573 114.3739593 -109.49556923 109.04405403 C-109.50106563 107.02172784 -109.51179713 104.99940815 -109.52812767 102.97714043 C-109.74419596 75.08352548 -102.84377605 50.14756276 -82.890625 29.8125 C-82.00632812 28.93980469 -81.12203125 28.06710938 -80.2109375 27.16796875 C-79.47101563 26.42933594 -78.73109375 25.69070312 -77.96875 24.9296875 C-56.18343256 4.38126538 -28.61892326 0.01417718 0 0 Z " fill="#000000" transform="translate(109.2109375,194.83203125)"/>
<path d="M0 0 C8.4420988 -0.04677122 16.88414157 -0.08209289 25.32633877 -0.10362434 C29.24828676 -0.11396919 33.17014478 -0.1279535 37.09204102 -0.15087891 C40.89166686 -0.17294526 44.69120733 -0.18463807 48.49089241 -0.18975449 C49.92542931 -0.19339072 51.35996267 -0.20048655 52.7944622 -0.21146011 C60.59516973 -0.26864564 68.26429104 -0.00644517 76.01586914 0.87939453 C77.0362699 0.99438954 77.0362699 0.99438954 78.07728481 1.11170769 C101.44438175 4.04856028 123.96370261 17.05522173 139 35 C152.02921305 51.90452106 160.20603031 71.75319569 160.11352539 93.23999023 C160.11367142 94.13834091 160.11381744 95.03669159 160.1139679 95.96226501 C160.1132751 98.91106642 160.10551247 101.85980347 160.09765625 104.80859375 C160.09578982 106.86125148 160.09436698 108.91390966 160.09336853 110.96656799 C160.08956107 116.35384361 160.07974597 121.74109202 160.06866455 127.12835693 C160.05841229 132.6317915 160.05386275 138.1352305 160.04882812 143.63867188 C160.03812205 154.42579317 160.02106698 165.21289432 160 176 C157.45020811 177.12628338 154.89937833 178.25010641 152.34790039 179.37255859 C151.63141579 179.68934067 150.91493118 180.00612274 150.17673492 180.33250427 C144.68671067 182.74434883 139.16904039 184.8523356 133.4375 186.625 C132.06078125 187.05474121 132.06078125 187.05474121 130.65625 187.49316406 C105.56555596 195.11058983 79.22051958 199.14639248 53 199 C52.9906543 198.01418945 52.98130859 197.02837891 52.97167969 196.01269531 C52.97056398 169.20750277 52.97056398 169.20750277 48 143 C47.79246094 142.30648437 47.58492188 141.61296875 47.37109375 140.8984375 C42.75725004 126.14518876 35.171168 112.62419201 25 101 C24.41089844 100.2678125 23.82179688 99.535625 23.21484375 98.78125 C9.94155614 82.77439785 -8.79335723 73.03691653 -28 66 C-26.470548 62.50640965 -24.37383952 59.98952335 -21.875 57.125 C-9.23027035 41.8374812 -2.59970306 23.92274117 -0.46386719 4.26855469 C-0.37627136 3.4666571 -0.28867554 2.66475952 -0.19842529 1.83856201 C-0.13294495 1.23183655 -0.0674646 0.62511108 0 0 Z " fill="#000000" transform="translate(352,195)"/>
<path d="M0 0 C2.48907731 1.93131151 4.84844836 3.94112872 7.1875 6.05078125 C7.87199219 6.64246094 8.55648437 7.23414063 9.26171875 7.84375 C22.58740163 20.12222794 30.73584969 38.24846804 31.5234375 56.27734375 C31.8831878 77.59254884 27.17432751 97.07155986 12.78125 113.4609375 C-2.68526738 128.90416194 -21.50398386 137.66509516 -43.5 138.23828125 C-65.57606195 137.86411071 -84.28426792 129.73429565 -99.8125 114.05078125 C-113.62343348 99.2890951 -120.44747602 79.62999874 -120.0625 59.5390625 C-118.66261038 40.00622761 -111.24918013 20.69505355 -96.8125 7.05078125 C-69.36316892 -16.56283544 -30.30811513 -21.00520757 0 0 Z " fill="#000000" transform="translate(303.8125,130.94921875)"/>
<path d="M0 0 C17.20339264 13.82516867 28.12893638 30.78379278 30.9375 53.015625 C32.04125877 64.14530387 32.04125877 64.14530387 28.3671875 68.90234375 C26.89095328 70.26481313 25.36526051 71.57485278 23.8046875 72.83984375 C10.72699436 84.39466141 1.8839182 100.64990313 -1.6328125 117.65234375 C-3.35306469 125.60910249 -3.35306469 125.60910249 -7.0703125 128.08984375 C-9.1640625 129.02734375 -9.1640625 129.02734375 -11.6328125 129.90234375 C-12.65375 130.33546875 -13.6746875 130.76859375 -14.7265625 131.21484375 C-34.14492983 139.19996676 -54.05936867 139.07217522 -73.67578125 131.76953125 C-92.11186073 123.91664549 -105.87678911 110.55415976 -114.23046875 92.4375 C-122.03678021 72.93310082 -122.98320846 51.43862839 -114.6328125 31.90234375 C-106.08208459 13.64773633 -92.60888319 -1.44373905 -73.55615234 -8.91162109 C-48.87334592 -17.72003952 -21.4967806 -16.10496514 0 0 Z " fill="#000000" transform="translate(172.6328125,54.09765625)"/>
<path d="M0 0 C15.81187964 13.48094906 24.44841662 31.85055152 26.3203125 52.44140625 C27.17946991 73.06118401 21.05922403 92.80822674 7.1328125 108.19140625 C-6.43938027 122.60216085 -23.8257504 132.32668843 -43.953125 133.1796875 C-56.41603313 133.45399673 -70.83398066 133.19272983 -81.5546875 125.94140625 C-82.5411463 123.39202678 -83.09453908 121.39637392 -83.5546875 118.75390625 C-83.86637862 117.30309569 -84.18562297 115.8538909 -84.51171875 114.40625 C-84.67752441 113.66487793 -84.84333008 112.92350586 -85.01416016 112.15966797 C-90.68271307 88.89658223 -105.97145189 70.27467305 -125.5546875 56.94140625 C-123.49645279 34.08416813 -116.1090699 14.1592689 -98.0859375 -1.1171875 C-68.05032178 -24.15376313 -29.42398501 -23.71015306 0 0 Z " fill="#000000" transform="translate(433.5546875,58.05859375)"/>
</svg>
