<?xml version="1.0" encoding="UTF-8"?>
<svg version="1.1" xmlns="http://www.w3.org/2000/svg" width="512" height="512">
<path d="M0 0 C0.79375031 0.00215515 1.58750061 0.0043103 2.40530396 0.00653076 C14.2724814 0.05820316 25.73934986 0.46562884 37.3125 3.3125 C38.13105469 3.50585938 38.94960938 3.69921875 39.79296875 3.8984375 C84.56096428 14.73911803 121.82780772 43.21446766 145.79296875 82.29296875 C161.38969499 108.58647722 168.77418993 137.52376764 168.625 168 C168.62284485 168.79341797 168.6206897 169.58683594 168.61846924 170.40429688 C168.41725698 216.5923971 149.5952176 257.66307265 117.3125 290.5 C116.33691545 291.46288163 115.33743954 292.40233233 114.3125 293.3125 C113.75594727 293.82893066 113.19939453 294.34536133 112.62597656 294.87744141 C109.54100105 296.79106383 107.4099321 296.65473771 103.796875 296.60546875 C102.54648437 296.59580078 101.29609375 296.58613281 100.0078125 296.57617188 C98.70585937 296.55103516 97.40390625 296.52589844 96.0625 296.5 C94.74507813 296.48646484 93.42765625 296.47292969 92.0703125 296.45898438 C88.81729679 296.42362551 85.565104 296.37427033 82.3125 296.3125 C85.71291819 292.76261288 89.21217275 289.82037091 93.1875 286.9375 C104.90148072 278.15073954 115.31522324 267.6022448 123.3125 255.3125 C122.78914063 255.0959375 122.26578125 254.879375 121.7265625 254.65625 C118.35470953 252.77936097 115.59994997 250.3283887 112.6875 247.8125 C112.10226562 247.31363281 111.51703125 246.81476563 110.9140625 246.30078125 C104.3544709 240.68902054 104.3544709 240.68902054 104.00952148 237.59448242 C103.98446533 236.46373291 103.95940918 235.3329834 103.93359375 234.16796875 C103.89943359 232.93369141 103.86527344 231.69941406 103.83007812 230.42773438 C103.79043945 228.48350586 103.79043945 228.48350586 103.75 226.5 C103.68990539 223.95173279 103.62624184 221.40354663 103.55859375 218.85546875 C103.53466553 217.72133545 103.5107373 216.58720215 103.48608398 215.41870117 C103.27218642 211.29554498 103.27218642 211.29554498 102.3125 207.3125 C100.48665695 206.06560823 100.48665695 206.06560823 98.3125 205.3125 C95.74733605 203.73407263 93.25404042 202.04838477 90.75 200.375 C90.07775391 199.93220703 89.40550781 199.48941406 88.71289062 199.03320312 C88.06384766 198.60072266 87.41480469 198.16824219 86.74609375 197.72265625 C85.86522095 197.13689819 85.86522095 197.13689819 84.96655273 196.53930664 C84.42071533 196.13446045 83.87487793 195.72961426 83.3125 195.3125 C82.75780029 194.91764404 82.20310059 194.52278809 81.6315918 194.1159668 C79.59203335 191.32747554 79.80495821 188.37826587 79.7734375 185.046875 C79.76108063 184.33525208 79.74872375 183.62362915 79.73599243 182.89044189 C79.71643376 181.38423878 79.70519538 179.87790798 79.70166016 178.37158203 C79.68762415 176.08274547 79.62037565 173.79944961 79.55078125 171.51171875 C79.36086027 159.27121917 79.36086027 159.27121917 83.3125 154.81640625 C87.30986948 151.73846219 91.01759 151.36526748 95.9375 151.5 C102.85932968 151.58564272 102.85932968 151.58564272 109.3125 149.3125 C110.66963364 146.95537315 111.27094801 144.94527749 111.44921875 142.23046875 C111.72744955 139.55306744 112.07797143 137.72355915 113.3125 135.3125 C116.27973198 133.17847356 119.26428716 131.58544746 122.5625 130.015625 C125.75715395 128.03711772 126.44346211 126.91677894 127.3125 123.3125 C127.09388079 118.2613756 127.09388079 118.2613756 124.3125 114.3125 C116.79139967 112.25866106 111.10788238 113.93865226 104.3125 117.3125 C103.70148438 117.70824219 103.09046875 118.10398437 102.4609375 118.51171875 C99.05956851 119.77950174 96.78390126 119.24247409 93.3125 118.3125 C91.17474175 116.52721395 89.49206271 114.93923089 87.6875 112.875 C83.35240518 108.03827278 80.34053686 105.53806986 73.67138672 105.04125977 C72.27842535 105.02010168 70.88530319 105.00811425 69.4921875 105.00390625 C67.97265209 104.97876562 66.45312093 104.95336734 64.93359375 104.92773438 C62.55258107 104.89891392 60.17164154 104.87487563 57.79052734 104.85620117 C55.48238309 104.83458756 53.17505154 104.79517824 50.8671875 104.75390625 C50.15464813 104.75379044 49.44210876 104.75367462 48.70797729 104.7535553 C45.80184064 104.69520524 43.79255444 104.64667622 41.36743164 102.95849609 C39.7605098 100.45123688 39.87864181 98.32122599 39.875 95.375 C39.85566406 94.33472656 39.83632813 93.29445313 39.81640625 92.22265625 C40.43371777 88.60141939 41.45242034 87.55511859 44.3125 85.3125 C46.59445036 84.00797206 48.9171581 82.88469788 51.2890625 81.75390625 C53.9379242 79.86697581 54.46231247 78.42985428 55.3125 75.3125 C55.4270872 73.35652314 55.48727734 71.39678911 55.5 69.4375 C55.79574833 64.81358862 56.39920562 62.49694745 59.75 59.25 C60.36746094 58.74339844 60.98492187 58.23679688 61.62109375 57.71484375 C64.26202546 55.5252491 65.2468496 53.75329553 65.75 50.375 C65.6216298 47.130489 65.6216298 47.130489 62.9375 45.1875 C62.07125 44.56875 61.205 43.95 60.3125 43.3125 C58.16824715 40.48598488 58.30622361 39.37212569 58.6875 35.75 C58.89375 34.615625 59.1 33.48125 59.3125 32.3125 C59.3125 31.3225 59.3125 30.3325 59.3125 29.3125 C21.66046409 16.17794353 -12.6646846 14.27273492 -50.6875 26.3125 C-50.6875 26.9725 -50.6875 27.6325 -50.6875 28.3125 C-50.20410156 28.67601563 -49.72070312 29.03953125 -49.22265625 29.4140625 C-46.77526019 32.44061335 -47.19129153 35.94992036 -47.125 39.6875 C-47.05117598 46.74221954 -47.05117598 46.74221954 -44.6875 53.3125 C-42.42148135 54.60292763 -42.42148135 54.60292763 -39.6875 55.3125 C-33.85892857 57.14107143 -33.85892857 57.14107143 -31.6875 59.3125 C-31.31640625 62.17578125 -31.31640625 62.17578125 -31.25 65.625 C-31.21003906 66.75550781 -31.17007813 67.88601562 -31.12890625 69.05078125 C-31.84271838 73.21884511 -33.51112047 74.79803324 -36.6875 77.3125 C-37.80161255 78.20642456 -37.80161255 78.20642456 -38.93823242 79.1184082 C-41.6024612 81.21484634 -44.29629475 83.26726868 -47 85.3125 C-47.91201172 86.01117188 -48.82402344 86.70984375 -49.76367188 87.4296875 C-57.95235718 93.65191433 -65.17441127 98.52705734 -75.0625 101.5 C-76.65532528 101.98804167 -78.24656597 102.48129427 -79.8359375 102.98046875 C-80.52864746 103.18953857 -81.22135742 103.3986084 -81.93505859 103.61401367 C-83.90307458 104.2647109 -83.90307458 104.2647109 -85.6875 106.3125 C-87.03486276 109.99183677 -86.8910528 113.80915886 -86.9375 117.6875 C-86.96328125 118.97398438 -86.9890625 120.26046875 -87.015625 121.5859375 C-86.43254252 128.2080885 -83.43315906 131.98397461 -78.8125 136.5625 C-77.96945313 137.41328125 -77.12640625 138.2640625 -76.2578125 139.140625 C-70.40138487 144.08921734 -64.42118479 143.66889318 -57.10546875 143.79101562 C-56.32558594 143.81744141 -55.54570312 143.84386719 -54.7421875 143.87109375 C-54.03562012 143.88454834 -53.32905273 143.89800293 -52.60107422 143.91186523 C-50.1275883 144.42972571 -49.23217465 145.34529498 -47.6875 147.3125 C-47.0515228 150.10911498 -46.74309922 152.87151359 -46.41015625 155.71875 C-45.89179759 158.35891097 -45.89179759 158.35891097 -44.09375 160 C-40.2919077 162.07373217 -36.21713232 163.19067735 -32.08789062 164.41796875 C-25.54681924 166.45758783 -25.54681924 166.45758783 -23.6875 169.3125 C-23.02734375 171.94140625 -23.02734375 171.94140625 -22.625 174.875 C-22.17110444 179.07515335 -22.17110444 179.07515335 -19.6875 182.3125 C-16.72325218 183.3089326 -13.92045448 183.45835205 -10.80859375 183.5234375 C-9.88755859 183.55179688 -8.96652344 183.58015625 -8.01757812 183.609375 C-6.08548396 183.6615585 -4.15315931 183.70579962 -2.22070312 183.7421875 C-1.30095703 183.773125 -0.38121094 183.8040625 0.56640625 183.8359375 C1.40502197 183.85575684 2.2436377 183.87557617 3.10766602 183.89599609 C5.83181507 184.41060115 6.69127108 185.0834273 8.3125 187.3125 C10.59769032 194.18628625 10.60056682 202.49043109 8.3125 209.3125 C3.28745256 216.71789631 -3.65837471 222.52343951 -10.53271484 228.16625977 C-12.86363297 230.4879345 -13.78314356 232.1717672 -14.6875 235.3125 C-14.65739779 237.47985889 -14.59188981 239.6468807 -14.5 241.8125 C-14.84775221 248.7240751 -17.10845576 251.70441736 -22 256.1875 C-22.58177002 256.68572266 -23.16354004 257.18394531 -23.76293945 257.69726562 C-31.21921593 264.10373382 -33.46248901 272.21361388 -36.44140625 281.3359375 C-37.6875 284.3125 -37.6875 284.3125 -40.6875 286.3125 C-48.11528276 287.12280357 -56.29409829 285.33531058 -62.515625 281.0546875 C-64.24211758 278.48796853 -64.06287688 276.31595887 -64.125 273.25 C-64.53178747 265.79499702 -66.57391521 260.04676768 -70.22851562 253.58984375 C-71.83299254 249.98567741 -72.0965039 247.48440771 -72.1640625 243.55859375 C-72.195 242.29208984 -72.2259375 241.02558594 -72.2578125 239.72070312 C-72.27585937 238.41037109 -72.29390625 237.10003906 -72.3125 235.75 C-72.3636141 233.1444587 -72.41816358 230.53898195 -72.4765625 227.93359375 C-72.49412598 226.7830249 -72.51168945 225.63245605 -72.52978516 224.44702148 C-72.67182486 221.62403734 -73.04643991 219.05967076 -73.6875 216.3125 C-74.53675049 216.03849365 -75.38600098 215.7644873 -76.26098633 215.48217773 C-81.72041896 213.61854099 -87.03261971 211.39349725 -92.36547852 209.19946289 C-94.37700199 208.37417863 -96.39251539 207.5591913 -98.40820312 206.74414062 C-99.69296824 206.21677858 -100.97748249 205.68880488 -102.26171875 205.16015625 C-103.42276123 204.68586182 -104.58380371 204.21156738 -105.7800293 203.72290039 C-110.10796618 201.62343852 -110.10796618 201.62343852 -111.6875 199.3125 C-112.3830243 195.43003269 -112.24300143 191.50036012 -112.25 187.5625 C-112.28673828 186.49 -112.32347656 185.4175 -112.36132812 184.3125 C-112.39088718 178.97873325 -112.33080197 175.34897418 -108.71484375 171.234375 C-108.174646 170.7300293 -107.63444824 170.22568359 -107.07788086 169.70605469 C-105.14477666 167.76853778 -104.72583446 165.91457648 -104.5546875 163.2265625 C-104.43753053 157.16653598 -104.43753053 157.16653598 -105.6875 151.3125 C-106.99869652 150.60328501 -108.33615429 149.94185443 -109.6875 149.3125 C-112.25266395 147.73407263 -114.74595958 146.04838477 -117.25 144.375 C-117.92224609 143.93220703 -118.59449219 143.48941406 -119.28710938 143.03320312 C-119.93615234 142.60072266 -120.58519531 142.16824219 -121.25390625 141.72265625 C-122.13477905 141.13689819 -122.13477905 141.13689819 -123.03344727 140.53930664 C-126.35865662 138.07300745 -126.35865662 138.07300745 -127.6875 136.3125 C-128.08813477 133.48095703 -128.08813477 133.48095703 -128.12890625 130.0703125 C-128.15533203 128.83925781 -128.18175781 127.60820312 -128.20898438 126.33984375 C-128.22251953 125.05207031 -128.23605469 123.76429688 -128.25 122.4375 C-128.28452073 119.89830859 -128.3271732 117.35921155 -128.37890625 114.8203125 C-128.39123291 113.69254395 -128.40355957 112.56477539 -128.41625977 111.40283203 C-128.6899496 108.28459089 -129.26547082 106.09046097 -130.6875 103.3125 C-132.70485205 101.96839738 -132.70485205 101.96839738 -134.6875 101.3125 C-138.84698056 110.01295193 -142.33385184 118.72244523 -145 128 C-145.24186035 128.82910889 -145.4837207 129.65821777 -145.73291016 130.51245117 C-149.18064178 142.9488249 -150.06628517 155.22621726 -150 168.0625 C-149.99676727 169.19017792 -149.99676727 169.19017792 -149.99346924 170.34063721 C-149.94306936 181.29314337 -149.53544686 191.67872123 -146.6875 202.3125 C-146.49945801 203.06499023 -146.31141602 203.81748047 -146.11767578 204.59277344 C-137.13668044 240.15951554 -115.74903535 271.21792994 -85.671875 292.203125 C-82.6875 294.3125 -82.6875 294.3125 -80.6875 296.3125 C-109.04831069 298.31546124 -109.04831069 298.31546124 -115.56152344 292.88745117 C-117.820004 290.50755123 -119.76673343 287.96887929 -121.6875 285.3125 C-123.17733938 283.76101209 -124.67712273 282.21900143 -126.1875 280.6875 C-153.49255935 249.42518567 -168.15908276 210.27731879 -168.0625 168.875 C-168.06228851 168.03756256 -168.06207703 167.20012512 -168.06185913 166.33731079 C-168.02819054 152.95843345 -167.07264246 140.30662716 -163.6875 127.3125 C-163.51089844 126.57950684 -163.33429688 125.84651367 -163.15234375 125.09130859 C-153.05086464 83.46012014 -124.42592659 46.74688483 -88.23828125 24.43359375 C-73.45213001 15.52602814 -58.20475924 8.75970333 -41.4375 4.5 C-40.28761597 4.20766479 -40.28761597 4.20766479 -39.11450195 3.90942383 C-26.11069483 0.80127694 -13.30627138 -0.06513036 0 0 Z " fill="#0051CC" transform="translate(255.6875,7.6875)"/>
<path d="M0 0 C0.75318512 -0.0049649 1.50637024 -0.00992981 2.28237915 -0.01504517 C4.77436232 -0.0296517 7.26628184 -0.03646605 9.75830078 -0.04199219 C11.49081423 -0.04774462 13.22332765 -0.05350234 14.95584106 -0.05926514 C18.58905331 -0.06977065 22.22224345 -0.07561634 25.85546875 -0.07910156 C30.50830107 -0.0845872 35.16084089 -0.1086185 39.81358147 -0.13707352 C43.39267834 -0.15570707 46.97170482 -0.16090586 50.5508461 -0.16243744 C52.26603928 -0.16546257 53.98123126 -0.17348643 55.6963768 -0.18662262 C58.09728953 -0.20369934 60.49748849 -0.20179922 62.8984375 -0.1953125 C63.60510559 -0.20452728 64.31177368 -0.21374207 65.03985596 -0.22323608 C72.01121878 -0.16430755 75.50230337 2.82528127 80.22314453 7.61035156 C81.06425781 8.45791016 81.90537109 9.30546875 82.77197266 10.17871094 C84.06844727 11.50032227 84.06844727 11.50032227 85.39111328 12.84863281 C86.27476562 13.74130859 87.15841797 14.63398438 88.06884766 15.55371094 C90.24336057 17.7517321 92.41305756 19.95429211 94.57861328 22.16113281 C90.93200663 26.64633193 87.0291205 30.75393798 82.88330078 34.77832031 C82.36568176 35.28333069 81.84806274 35.78834106 81.3147583 36.30865479 C79.15185331 38.41758 76.98809599 40.52507428 74.8046875 42.61279297 C67.71089439 49.41021752 61.80992287 55.30825809 60.01220703 65.31347656 C60.02409792 73.79167943 61.91030734 80.49282687 68.01611328 86.59863281 C75.71907182 91.29555875 81.60391868 92.15719178 90.57861328 91.16113281 C95.82716152 89.78752245 99.11685137 86.79171002 102.53564453 82.71191406 C103.08865234 82.08172363 103.64166016 81.4515332 104.21142578 80.80224609 C105.90294 78.89198946 105.90294 78.89198946 107.30126953 76.88720703 C110.975217 72.60510304 114.89244487 71.6283088 120.32422638 71.20505428 C127.8717536 70.96190674 133.62886167 71.21668051 139.60353565 76.18463326 C142.8680598 79.28130104 145.88341338 82.56349643 148.89111328 85.90722656 C150.24090182 87.3224331 151.59616586 88.7324352 152.95654297 90.13746643 C156.50159606 93.82016302 159.98681094 97.5539352 163.45684814 101.30725098 C169.02406069 107.31951382 174.65615603 113.26853173 180.33139038 119.17878914 C182.29099868 121.24261158 184.20944049 123.33938431 186.12670898 125.44248962 C193.29629333 133.43596071 193.29629333 133.43596071 203.29736328 136.3840332 C204.250625 136.32478165 205.20388672 136.26553009 206.18603516 136.20448303 C208.57861328 136.16113281 208.57861328 136.16113281 211.32861328 138.47363281 C213.5365999 144.98719334 213.91379119 151.39187493 210.89111328 157.66113281 C204.17273502 164.92424445 204.17273502 164.92424445 198.96923828 165.39941406 C188.49172453 165.647017 188.49172453 165.647017 183.57861328 161.16113281 C180.18665619 157.88224096 176.85569153 154.55478697 173.57861328 151.16113281 C173.55283203 151.88558594 173.52705078 152.61003906 173.50048828 153.35644531 C173.14721432 159.37816054 172.70150602 163.46561608 168.57861328 168.16113281 C163.09264172 172.99401252 159.75934902 173.53432113 152.53955078 173.42285156 C144.44409745 172.70729038 138.92370849 164.69636975 133.57861328 159.16113281 C133.55283203 159.88558594 133.52705078 160.61003906 133.50048828 161.35644531 C133.14721432 167.37816054 132.70150602 171.46561608 128.57861328 176.16113281 C124.15480077 180.05830098 121.69565124 181.33498391 115.82861328 181.47363281 C114.80251953 181.51101563 113.77642578 181.54839844 112.71923828 181.58691406 C104.60476588 180.48681768 99.14706606 172.96115921 93.70361328 167.41113281 C92.82447266 166.52296875 91.94533203 165.63480469 91.03955078 164.71972656 C88.88128809 162.5380045 86.7278516 160.35173935 84.57861328 158.16113281 C84.63082031 159.57265625 84.63082031 159.57265625 84.68408203 161.01269531 C84.71115234 162.25792969 84.73822266 163.50316406 84.76611328 164.78613281 C84.81832031 166.63078125 84.81832031 166.63078125 84.87158203 168.51269531 C84.50031474 173.13621065 83.22605722 176.39631373 80.04345703 179.80566406 C75.59681897 183.20603434 73.40763389 184.34179029 67.82861328 184.47363281 C66.80251953 184.51101563 65.77642578 184.54839844 64.71923828 184.58691406 C57.42470038 183.59797795 52.57130723 177.42994898 47.64111328 172.41113281 C46.62500977 171.3940625 46.62500977 171.3940625 45.58837891 170.35644531 C42.29268452 167.03231253 39.10171478 163.65856778 36.04345703 160.11425781 C32.57487807 156.09702435 28.86752517 152.3743441 25.07861328 148.66113281 C21.06218204 144.70549716 17.14396789 140.78679529 13.57861328 136.41113281 C8.84302075 130.91403797 4.19174979 130.21814157 -2.73388672 129.53613281 C-10.3779862 128.49815383 -14.40543707 124.77758348 -19.42138672 119.16113281 C-20.27585892 118.31490356 -21.13033112 117.46867432 -22.01069641 116.59680176 C-25.30079135 112.60415335 -25.18813102 108.7128917 -25.21118164 103.70605469 C-25.23439987 102.77181671 -25.2576181 101.83757874 -25.28153992 100.87503052 C-25.34929355 97.79309336 -25.37865079 94.71245905 -25.40185547 91.62988281 C-25.4281036 89.47481106 -25.45449851 87.31974109 -25.48103333 85.16467285 C-25.52900305 80.64551425 -25.55426177 76.12680662 -25.56762695 71.60742188 C-25.58940316 65.84695574 -25.69898049 60.09180385 -25.83028698 54.33293915 C-25.91641889 49.87833638 -25.93878226 45.42498417 -25.94436073 40.96961975 C-25.95755333 38.84852432 -25.99375807 36.72743093 -26.05443382 34.60716248 C-26.53774096 16.35632092 -26.53774096 16.35632092 -19.45127583 8.67313385 C-13.09406268 2.56909852 -8.9807961 0.01412555 0 0 Z " fill="#0051CC" transform="translate(144.42138671875,319.8388671875)"/>
<path d="M0 0 C0.85514191 -0.00571014 1.71028381 -0.01142029 2.59133911 -0.01730347 C3.52647339 -0.01842133 4.46160767 -0.01953918 5.42507935 -0.02069092 C6.41235016 -0.02565582 7.39962097 -0.03062073 8.41680908 -0.03573608 C11.68796481 -0.05036013 14.95907206 -0.05715981 18.23025513 -0.06268311 C20.50085451 -0.06843395 22.77145387 -0.0741917 25.04205322 -0.07995605 C29.80514757 -0.09046646 34.56822503 -0.09630901 39.33132935 -0.09979248 C45.43695093 -0.10528004 51.54234983 -0.12931366 57.64790154 -0.15776443 C62.33875177 -0.17637954 67.02954822 -0.1815958 71.72043228 -0.18312836 C73.97151025 -0.18615749 76.22258722 -0.19419477 78.473629 -0.20731354 C81.62168121 -0.22435163 84.76918734 -0.22249919 87.91726685 -0.21600342 C89.31389557 -0.22982559 89.31389557 -0.22982559 90.73873901 -0.243927 C95.65106543 -0.21214484 98.80419345 0.01104056 102.80056763 3.14044189 C103.80905258 3.84636978 104.81753754 4.55229767 105.85658264 5.27961731 C110.93417407 9.3616062 114.78553795 13.32336634 115.94293213 19.91629028 C116.55333349 25.70206476 116.49849747 31.48238639 116.42947388 37.29278564 C116.44011909 39.44169501 116.45417224 41.59058991 116.47145081 43.73945618 C116.49356432 48.22792543 116.47217266 52.71352088 116.41995239 57.20172119 C116.35719603 62.92434898 116.40692454 68.63949631 116.49002171 74.36163998 C116.54116379 78.79511923 116.53017009 83.22684808 116.50123405 87.66046333 C116.49512482 89.76818812 116.50824624 91.87606798 116.54184151 93.98353386 C116.77525618 112.06234662 116.77525618 112.06234662 110.22701168 119.20053196 C100.96079692 128.07977987 91.85326243 130.13689411 79.23245239 130.38372803 C67.03336215 130.09684977 60.04400836 124.97660379 51.71304321 116.43936157 C46.27745597 110.71425599 40.97968992 104.89201452 35.79782104 98.93603516 C17.73650476 75.22731934 17.73650476 75.22731934 -7.37625122 62.54190063 C-14.89107943 62.7227922 -21.34292868 64.29497022 -27.34005737 69.00762939 C-29.54256105 71.40750254 -29.54256105 71.40750254 -31.44943237 74.01544189 C-32.86841037 75.68197541 -34.29016934 77.34614614 -35.71505737 79.00762939 C-36.29545776 79.75125732 -36.87585815 80.49488525 -37.47384644 81.26104736 C-40.06863683 84.08712213 -42.22346973 85.02354386 -46.00411987 85.47637939 C-52.23817502 85.55569307 -56.40261323 85.5774996 -61.19943237 81.14044189 C-65.09660054 76.71662938 -66.37328347 74.25747986 -66.51193237 68.39044189 C-66.54931519 67.36434814 -66.586698 66.33825439 -66.62521362 65.28106689 C-65.77591055 59.01648274 -61.08092286 54.72768784 -56.74411011 50.42633057 C-56.2118985 49.89061432 -55.67968689 49.35489807 -55.13134766 48.802948 C-53.38687283 47.04973532 -51.63526226 45.30386374 -49.88302612 43.55841064 C-48.66252395 42.33656013 -47.4423187 41.11441295 -46.22239685 39.89198303 C-43.67281311 37.33945931 -41.11966836 34.79056689 -38.56393433 32.24420166 C-35.28632421 28.97802174 -32.01782333 25.70289601 -28.75190639 22.4250288 C-26.23768971 19.90359408 -23.71874023 17.3869311 -21.19832039 14.87169838 C-19.99076534 13.6654781 -18.78469589 12.4577687 -17.58013725 11.24855614 C-15.89999797 9.56334868 -14.21360042 7.88466701 -12.52536011 6.20758057 C-11.77952919 5.45567696 -11.77952919 5.45567696 -11.01863098 4.68858337 C-7.45008866 1.16368532 -4.96446084 0.01987768 0 0 Z " fill="#0051CC" transform="translate(277.1994323730469,319.85955810546875)"/>
<path d="M0 0 C15.84 0 31.68 0 48 0 C48 52.8 48 105.6 48 160 C32.16 160 16.32 160 0 160 C0 107.2 0 54.4 0 0 Z " fill="#0052CC" transform="translate(400,304)"/>
<path d="M0 0 C15.84 0 31.68 0 48 0 C48 52.8 48 105.6 48 160 C32.16 160 16.32 160 0 160 C0 107.2 0 54.4 0 0 Z " fill="#0052CC" transform="translate(64,304)"/>
</svg>
