<?xml version="1.0" encoding="UTF-8"?>
<svg version="1.1" xmlns="http://www.w3.org/2000/svg" width="512" height="512">
<path d="M0 0 C4.96725556 3.21043447 9.13609487 7.24751578 13.18359375 11.53125 C16.92794752 15.05534766 19.70237489 15.66773743 24.80078125 15.59375 C26.39792969 15.57441406 26.39792969 15.57441406 28.02734375 15.5546875 C30.79429657 15.42423563 33.43830523 15.11741156 36.17578125 14.71875 C44.97452222 13.75837378 53.10014319 16.55213371 60.14453125 21.74609375 C70.31951251 30.0621842 73.24640115 38.03787473 75.26953125 50.85546875 C76.57756248 55.98047041 78.75146864 59.3056448 82.92578125 62.53125 C85.31335706 63.90869758 87.63102906 65.1097422 90.11328125 66.28125 C99.50273674 70.94915073 104.66083911 77.98832432 108.02734375 87.91796875 C110.40451513 97.75945824 109.07898933 106.17900938 104.61328125 115.09375 C100.60704285 122.92230219 100.60704285 122.92230219 101.17578125 131.40625 C102.58025054 134.53711983 104.0575766 137.60941576 105.59399414 140.67651367 C109.97024452 149.66206918 110.23226732 158.90225101 107.17578125 168.40625 C102.79015358 179.75427489 96.29431764 185.3705478 85.50634766 190.39111328 C80.94004156 192.60930094 78.53310654 194.73098194 76.17578125 199.40625 C75.53859766 202.08132249 75.05058516 204.57703342 74.67578125 207.28125 C72.86231772 218.22165192 68.91115141 226.43987592 59.78125 233.171875 C49.96657127 239.3833153 40.54662037 240.80011087 29.17578125 238.40625 C22.79000154 237.88282543 18.44870932 238.64841657 13.17578125 242.40625 C10.8463648 244.63741339 8.62878998 246.95533694 6.3984375 249.28515625 C0.21218037 255.18873731 -8.1344328 257.3752426 -16.51171875 257.78125 C-28.6706672 257.42638054 -36.43124949 252.79921926 -44.82421875 244.40625 C-50.79483327 239.41746987 -55.12569653 237.85182968 -62.82421875 238.40625 C-63.60796875 238.57125 -64.39171875 238.73625 -65.19921875 238.90625 C-75.29619771 240.82948409 -84.44432094 238.86755628 -93.01171875 233.28125 C-103.0399099 225.77587423 -106.99791206 217.32623663 -108.76171875 205.21875 C-108.87386719 204.25582031 -108.98601562 203.29289063 -109.1015625 202.30078125 C-110.1442504 198.12439348 -111.80451989 194.79016848 -115.44360352 192.29663086 C-117.3135801 191.28190509 -119.20794836 190.36637189 -121.13671875 189.46875 C-131.93825693 184.03819964 -137.47269162 177.72716377 -141.609375 166.22265625 C-144.30774231 156.48351596 -142.71480319 147.50033954 -138.26171875 138.65625 C-134.25769897 130.86234991 -134.25769897 130.86234991 -134.82421875 122.40625 C-136.40738001 118.45330456 -138.25956198 114.64934982 -140.1953125 110.859375 C-143.85530203 103.10054827 -143.27962728 94.81855047 -141.07421875 86.6171875 C-136.77140288 75.03544144 -129.5567388 68.50631989 -118.51171875 63.34375 C-113.12697503 60.75307807 -110.77170756 56.93615649 -108.82421875 51.40625 C-108.51154841 49.51686598 -108.24269365 47.61985108 -108.01171875 45.71875 C-106.66970158 37.20532858 -103.52917981 30.01970577 -96.82421875 24.40625 C-96.22609375 23.90351562 -95.62796875 23.40078125 -95.01171875 22.8828125 C-87.57032704 16.92388555 -80.35031071 14.61686088 -70.82421875 14.40625 C-68.81970754 14.71128431 -66.81973657 15.04705679 -64.82421875 15.40625 C-55.66954186 16.14459087 -55.66954186 16.14459087 -47.38671875 12.80859375 C-45.55594601 11.16547521 -44.0674104 9.37375204 -42.51171875 7.46875 C-33.06680497 -4.01078239 -13.09946944 -6.33480387 0 0 Z M-68.2890625 75.7421875 C-82.70161538 90.88758205 -89.53240613 109.35128638 -89.29467773 130.03955078 C-88.65973289 147.61821055 -81.52195645 163.39310404 -69.82421875 176.40625 C-69.30601562 177.01726562 -68.7878125 177.62828125 -68.25390625 178.2578125 C-59.39319296 188.00904974 -47.2796254 193.81740402 -34.82421875 197.40625 C-33.98632812 197.65117187 -33.1484375 197.89609375 -32.28515625 198.1484375 C-14.86517508 202.40147638 3.47052163 198.67323567 19.01953125 190.328125 C23.79351741 187.42119283 28.0240161 184.13834214 32.17578125 180.40625 C32.78679687 179.88804687 33.3978125 179.36984375 34.02734375 178.8359375 C46.46220874 167.53667662 54.70055886 149.40329102 55.51171875 132.71484375 C55.92163187 110.71393287 49.96596301 92.01287958 34.54589844 75.80029297 C20.9752596 61.99267576 3.07267347 55.32543087 -16.03125 54.41015625 C-35.87013546 54.38972485 -53.99473047 62.12657915 -68.2890625 75.7421875 Z " fill="#0051CC" transform="translate(272.82421875,11.59375)"/>
<path d="M0 0 C22.00029274 17.82534129 36.3217096 41.92146259 39.34375 70.21875 C39.46509884 73.65696709 39.50912752 75.9776731 37.95924377 79.08983612 C35.04612319 81.92998179 32.07069062 81.55365249 28.21850586 81.50793457 C27.41768302 81.51417453 26.61686018 81.5204145 25.79176998 81.52684355 C23.09916475 81.54284202 20.40745623 81.5301429 17.71484375 81.51757812 C15.78825348 81.52299621 13.86166735 81.5301171 11.93508911 81.53881836 C6.69546016 81.55709193 1.45614539 81.54996753 -3.78348923 81.53730202 C-9.2593955 81.52719523 -14.73527435 81.53656123 -20.21118164 81.54284668 C-29.40808964 81.55012986 -38.60486928 81.54051778 -47.80175781 81.52148438 C-58.4440429 81.4997144 -69.08602149 81.50676529 -79.72829914 81.52879 C-88.85532161 81.54692488 -97.98225165 81.54951168 -107.10928631 81.53903532 C-112.56494358 81.53278987 -118.02045665 81.5319936 -123.47610474 81.54518127 C-128.60450762 81.55671134 -133.73251424 81.54876614 -138.86087418 81.52560425 C-140.74630194 81.52030192 -142.63176289 81.52185683 -144.51717758 81.53065491 C-147.08474168 81.54153416 -149.65102415 81.52794023 -152.21850586 81.50793457 C-152.97034684 81.51685746 -153.72218782 81.52578034 -154.49681187 81.53497362 C-157.81003103 81.4846581 -159.53225818 81.45602469 -161.95924377 79.08983612 C-166.16177895 70.6511551 -161.53891891 57.53670739 -159 49 C-150.0759899 22.72838148 -130.96851987 1.45789714 -106.2421875 -10.91796875 C-71.8526913 -27.37132168 -30.30067293 -22.99908982 0 0 Z " fill="#0051CC" transform="translate(318,422)"/>
<path d="M0 0 C18.68216919 15.56847432 30.86524656 36.04276692 34.8125 60.125 C34.94882835 61.99689317 35.03148191 63.87340539 35.0625 65.75 C35.10117187 67.16152344 35.10117187 67.16152344 35.140625 68.6015625 C34.8125 71.125 34.8125 71.125 33.484375 72.8984375 C30.50691768 75.08283376 27.83731681 75.24931564 24.27571106 75.24525452 C23.34603012 75.24662918 22.41634918 75.24800385 21.45849609 75.24942017 C20.44070068 75.24582489 19.42290527 75.24222961 18.37426758 75.23852539 C17.30093674 75.23867142 16.2276059 75.23881744 15.12174988 75.2389679 C11.56682325 75.2382701 8.01194874 75.23048386 4.45703125 75.22265625 C1.99509205 75.2207916 -0.46684753 75.21936792 -2.92878723 75.21836853 C-9.41430686 75.21454706 -15.89980415 75.20471991 -22.38531494 75.19366455 C-29.00101418 75.18344249 -35.61671702 75.1788692 -42.23242188 75.17382812 C-55.21745745 75.16309734 -68.20247754 75.14621706 -81.1875 75.125 C-81.52532501 74.02424637 -81.86315002 72.92349274 -82.21121216 71.78938293 C-82.66167418 70.33196054 -83.11227346 68.87458056 -83.56298828 67.41723633 C-83.78477249 66.69328926 -84.0065567 65.96934219 -84.23506165 65.22345734 C-85.79398643 60.19594728 -87.58073381 55.4646126 -90.0625 50.8125 C-90.57502319 49.82407104 -90.57502319 49.82407104 -91.09790039 48.81567383 C-99.34484099 33.14858709 -110.26582393 18.07278405 -125.1875 8.125 C-120.78892546 -2.45029624 -105.90444475 -8.76619823 -95.9296875 -13.3828125 C-63.84914256 -26.54608278 -27.278453 -21.20720534 0 0 Z " fill="#0051CC" transform="translate(450.1875,401.875)"/>
<path d="M0 0 C2.765625 2.19921875 2.765625 2.19921875 4.75 4.3125 C4.75 5.6325 4.75 6.9525 4.75 8.3125 C2.6953125 10.28515625 2.6953125 10.28515625 -0.125 12.375 C-17.74932105 26.25330659 -29.49950311 45.47299907 -35.94921875 66.78515625 C-36.17331421 67.51416138 -36.39740967 68.2431665 -36.6282959 68.9942627 C-37.17236484 70.76593714 -37.71169135 72.53906685 -38.25 74.3125 C-52.50582865 74.38260965 -66.76163053 74.43529822 -81.01759624 74.46793652 C-87.63703575 74.48360031 -94.25635953 74.50485193 -100.87573242 74.53881836 C-107.26236422 74.57138586 -113.64888462 74.58934764 -120.03559303 74.59713173 C-122.47367926 74.60267989 -124.91175932 74.6135139 -127.3497982 74.62969017 C-130.76157235 74.65142927 -134.17288466 74.65446833 -137.5847168 74.65307617 C-138.59532166 74.663862 -139.60592651 74.67464783 -140.64715576 74.6857605 C-146.17788351 74.66129896 -150.13227872 74.43022128 -154.25 70.3125 C-156.65307686 50.73333282 -146.00498152 29.08443945 -134.375 14.125 C-133.01860238 12.5050737 -131.64371066 10.90043775 -130.25 9.3125 C-129.59644531 8.56355469 -128.94289063 7.81460937 -128.26953125 7.04296875 C-94.64688607 -28.97678809 -37.60917065 -29.26223737 0 0 Z " fill="#0051CC" transform="translate(181.25,402.6875)"/>
<path d="M0 0 C9.88705197 8.11061251 18.13055475 20.48498515 20.16503906 33.3046875 C21.46453822 51.46879791 18.73424233 66.96660376 6.69238281 81.30859375 C-3.65952294 92.10759178 -16.76204782 98.6817649 -31.7878418 99.05444336 C-45.87598317 99.17510947 -57.21901464 96.33276304 -68.65917969 87.76171875 C-69.38878906 87.21515625 -70.11839844 86.66859375 -70.87011719 86.10546875 C-81.44591272 77.5151674 -87.64610787 65.19589188 -89.65917969 51.76171875 C-90.59867853 35.26628722 -88.03285071 20.78960655 -77.10839844 7.70703125 C-56.57208631 -13.72974152 -24.46921873 -18.26190074 0 0 Z " fill="#0051CC" transform="translate(290.6591796875,298.23828125)"/>
<path d="M0 0 C9.89994712 9.4531986 16.09846615 22.18829735 16.45654297 35.89038086 C16.59864526 51.33620622 11.96293157 64.75330532 1.1640625 76.06640625 C-9.56105555 85.44184652 -23.0950199 90.8399079 -37.44921875 90.28515625 C-51.73371972 88.97593848 -64.03449258 83.50781345 -73.8359375 72.90234375 C-84.62534279 59.74112954 -87.29926829 45.66036271 -85.8359375 29.06640625 C-84.97368412 24.78776516 -83.67083895 21.01896446 -81.8359375 17.06640625 C-81.47371094 16.27105469 -81.11148438 15.47570312 -80.73828125 14.65625 C-74.79815585 2.91695133 -65.21118115 -5.17047512 -53.0234375 -10.0625 C-34.31527247 -15.96583866 -15.20951438 -12.44170522 0 0 Z " fill="#0051CC" transform="translate(155.8359375,287.93359375)"/>
<path d="M0 0 C8.20234093 7.80113947 15.43652717 19.8070045 16.34863281 31.35205078 C16.69230396 48.99516849 14.03201621 62.86972992 1.4453125 76.24609375 C-7.10427676 84.07089084 -18.18108331 89.46657879 -29.8125 90.3125 C-30.50085938 90.37566406 -31.18921875 90.43882812 -31.8984375 90.50390625 C-43.90058728 91.12195715 -56.1933015 87.42856135 -65.8125 80.3125 C-66.75996094 79.63574219 -66.75996094 79.63574219 -67.7265625 78.9453125 C-77.24593798 71.52271576 -84.07086894 59.22244167 -85.8125 47.3125 C-86.90000227 30.19771024 -83.53040897 16.12758302 -72.19360352 2.77807617 C-53.15441924 -17.42560479 -20.79575399 -17.14244586 0 0 Z " fill="#0051CC" transform="translate(425.8125,287.6875)"/>
<path d="M0 0 C3.22657247 2.75207652 4.75651526 5.56114814 5.4453125 9.76953125 C5.7486629 15.05793997 4.23597938 17.44191881 1.125 21.8125 C-0.37322839 23.48312166 -1.91896115 25.11209436 -3.50415039 26.70043945 C-4.87060448 28.07635002 -4.87060448 28.07635002 -6.2646637 29.48005676 C-7.25040634 30.46222079 -8.23641007 31.44412285 -9.22265625 32.42578125 C-10.24137597 33.44584984 -11.25979878 34.46621503 -12.27793884 35.48686218 C-14.40382075 37.61568088 -16.53324845 39.74086939 -18.6652832 41.86352539 C-21.39809507 44.58489991 -24.12177108 47.31521436 -26.84288883 50.04827595 C-28.94019725 52.1528049 -31.04223761 54.25255525 -33.14575005 56.35088158 C-34.15234633 57.35614416 -35.1574603 58.36289328 -36.16105843 59.37114906 C-37.56094987 60.77611343 -38.96793594 62.17399803 -40.37524414 63.5715332 C-41.17370255 64.36840042 -41.97216095 65.16526764 -42.79481506 65.98628235 C-46.20193599 68.97743197 -49.33370127 68.96774319 -53.7421875 69.140625 C-63.08035511 67.70398383 -71.86210362 55.94639496 -78.375 49.5625 C-79.29236938 48.67727661 -79.29236938 48.67727661 -80.22827148 47.77416992 C-84.43886292 43.59547243 -86.57935354 40.47331818 -87.25 34.4375 C-86.79698266 30.05833239 -85.69330428 27.18922989 -82.875 23.8125 C-78.54653004 20.83066514 -75.07422071 20.17399921 -69.875 20.8125 C-62.81732089 23.74210265 -58.06251514 29.34316814 -52.875 34.8125 C-49.53921487 33.36094106 -47.35001397 31.53324062 -44.79296875 28.9609375 C-44.02533203 28.19136719 -43.25769531 27.42179687 -42.46679688 26.62890625 C-41.67337891 25.82324219 -40.87996094 25.01757812 -40.0625 24.1875 C-39.28068359 23.40503906 -38.49886719 22.62257813 -37.69335938 21.81640625 C-33.41944771 17.51035991 -29.33388867 13.10430956 -25.3737793 8.50927734 C-23.59767452 6.4985381 -21.71925394 4.68857865 -19.6875 2.9375 C-19.05457031 2.38320312 -18.42164063 1.82890625 -17.76953125 1.2578125 C-11.96995881 -3.16660359 -6.61020263 -2.73030109 0 0 Z " fill="#0051CC" transform="translate(296.875,105.1875)"/>
</svg>
