<?xml version="1.0" encoding="UTF-8"?>
<svg version="1.1" xmlns="http://www.w3.org/2000/svg" width="512" height="512">
<path d="M0 0 C1.66289062 0.00676758 1.66289062 0.00676758 3.359375 0.01367188 C6.07297399 0.02536842 8.78645761 0.04175914 11.5 0.0625 C10.71367187 0.8359375 9.92734375 1.609375 9.1171875 2.40625 C6.654932 4.90525559 4.93570888 6.87203583 3.5 10.0625 C3.90276033 13.91687303 5.05762969 16.25748275 7.37890625 19.3203125 C7.96720215 20.1055127 8.55549805 20.89071289 9.16162109 21.69970703 C9.78891113 22.52067871 10.41620117 23.34165039 11.0625 24.1875 C12.01116943 25.45956299 12.01116943 25.45956299 12.97900391 26.75732422 C15.66943687 30.36086548 18.37964676 33.94015544 21.20703125 37.4375 C25.01179673 42.26372504 27.68914927 45.83924671 27.01953125 52.18359375 C26.181977 55.21264333 25.17340962 56.41732485 22.5 58.0625 C15.48050011 59.86161552 8.73127697 58.26394667 1.6875 57.125 C-11.95516974 54.45612426 -11.95516974 54.45612426 -25.5 56.0625 C-27.68900963 69.40067765 -29.79473566 82.75042413 -31.75 96.125 C-32.01248535 97.87925293 -32.01248535 97.87925293 -32.28027344 99.66894531 C-34.35958318 109.88388445 -34.35958318 109.88388445 -31.96484375 119.46484375 C-28.78096688 121.52856109 -25.74912368 122.10499293 -22.0625 122.625 C-20.96760254 122.80204468 -20.96760254 122.80204468 -19.85058594 122.98266602 C-15.53968746 123.66487879 -11.21715674 124.2309251 -6.88671875 124.7734375 C-5.48087524 124.95604126 -5.48087524 124.95604126 -4.04663086 125.14233398 C-2.21478648 125.37661177 -0.38088859 125.59546968 1.45483398 125.79711914 C6.56524453 126.44365502 9.7804792 127.20163741 13.5 131.0625 C15.05024464 134.16298928 14.78992015 136.64144218 14.5 140.0625 C11.24217225 145.24341206 6.27217186 148.38006653 1.375 151.875 C-0.33414461 153.11867751 -2.04248505 154.36346098 -3.75 155.609375 C-4.56855469 156.20427734 -5.38710937 156.79917969 -6.23046875 157.41210938 C-9.04759483 159.46070795 -11.85383233 161.51440136 -14.625 163.625 C-15.37007812 164.18316406 -16.11515625 164.74132812 -16.8828125 165.31640625 C-19.01307415 167.61647136 -19.41715669 168.92826136 -19.5 172.0625 C-17.35121772 177.99519371 -13.02792161 182.82182891 -9.1875 187.75 C-4.89239714 193.30513703 -0.61370374 198.86143881 3.4921875 204.55859375 C4.11569092 205.42202393 4.73919434 206.2854541 5.3815918 207.17504883 C6.55973015 208.81412167 7.73082257 210.45828885 8.89379883 212.1081543 C12.79496212 217.63562616 12.79496212 217.63562616 18.5 221.0625 C22.3533908 220.63767639 24.69106042 219.50784299 27.7578125 217.18359375 C28.93561279 216.3011499 28.93561279 216.3011499 30.13720703 215.40087891 C30.95817871 214.77358887 31.77915039 214.14629883 32.625 213.5 C33.47304199 212.86755371 34.32108398 212.23510742 35.19482422 211.58349609 C38.79836548 208.89306313 42.37765544 206.18285324 45.875 203.35546875 C50.71441072 199.54030831 54.26823775 196.90974479 60.62109375 197.5234375 C63.44573636 198.33383393 64.82835049 199.69432986 66.5 202.0625 C70.01478226 209.09206451 65.72001486 222.88637833 64.51660156 230.4621582 C62.5602903 239.86277941 62.5602903 239.86277941 64.57543945 248.72045898 C67.42548974 250.70786561 70.156577 251.00098351 73.5703125 251.58203125 C74.62679489 251.7652166 74.62679489 251.7652166 75.70462036 251.95210266 C77.96744103 252.33817404 80.23274969 252.70341109 82.5 253.0625 C83.23359741 253.17978455 83.96719482 253.29706909 84.72302246 253.41790771 C89.18071356 254.12360396 93.64346248 254.78712829 98.11132812 255.42504883 C100.39570865 255.75297274 102.67824958 256.09215772 104.9609375 256.43164062 C112.51535402 257.53076012 119.84585949 258.34401411 127.5 258.0625 C120.35669887 273.19834802 102.63724176 284.58392137 89.125 293.75 C81.72699145 298.95247053 77.29594065 303.88149699 73.1875 311.9375 C72.68065674 312.92737915 72.68065674 312.92737915 72.16357422 313.93725586 C68.10664128 322.31918743 67.21665341 330.42542791 67.2265625 339.65234375 C67.20627823 341.67383371 67.18542754 343.69531805 67.1640625 345.71679688 C67.14149021 348.86096996 67.12499085 352.00491953 67.11914062 355.14916992 C67.10955753 358.21312476 67.07572356 361.27610926 67.0390625 364.33984375 C67.04410797 365.26619125 67.04915344 366.19253876 67.05435181 367.1469574 C66.93275884 375.31672121 64.95425163 382.76518072 59.375 388.9375 C49.9531595 397.31498749 38.79180444 396.65666772 26.9375 396.59375 C25.13728629 396.59644988 23.337074 396.60033641 21.53686523 396.60534668 C17.77801525 396.61121843 14.01954747 396.60275425 10.26074219 396.58398438 C5.46605498 396.56119613 0.67226367 396.57433177 -4.12239075 396.59827423 C-7.83555737 396.6127954 -11.54851498 396.60809742 -15.26168823 396.59776306 C-17.02855539 396.59511319 -18.79544212 396.5983036 -20.56228638 396.60768127 C-40.66220351 396.6909765 -40.66220351 396.6909765 -49.12109375 389.984375 C-49.72050781 389.26765625 -50.31992188 388.5509375 -50.9375 387.8125 C-51.55496094 387.10609375 -52.17242187 386.3996875 -52.80859375 385.671875 C-57.30425826 378.73630019 -57.9318797 372.47352947 -57.90625 364.421875 C-57.91708618 363.41844055 -57.92792236 362.4150061 -57.93908691 361.38116455 C-57.97315546 358.19154382 -57.98889252 355.00227812 -58 351.8125 C-57.5278989 330.27009346 -57.5278989 330.27009346 -64.375 310.1875 C-64.84679687 309.34445312 -65.31859375 308.50140625 -65.8046875 307.6328125 C-70.10788709 301.10860668 -74.81453703 297.10467952 -81.1875 292.6875 C-82.81613473 291.53009461 -84.44374861 290.37125134 -86.0703125 289.2109375 C-86.84407227 288.66147461 -87.61783203 288.11201172 -88.41503906 287.54589844 C-108.8209164 273.02761849 -124.98584206 254.23618087 -136.5 232.0625 C-136.83628418 231.42119141 -137.17256836 230.77988281 -137.51904297 230.11914062 C-156.63872325 193.15502412 -159.58183505 149.35515181 -147.1875 109.78515625 C-143.88868773 99.73081583 -139.52159154 90.36211575 -134.5 81.0625 C-133.93410156 80.00289063 -133.36820313 78.94328125 -132.78515625 77.8515625 C-120.15684089 55.20973591 -101.16763687 36.95752389 -79.5 23.0625 C-78.91879395 22.68851074 -78.33758789 22.31452148 -77.73876953 21.92919922 C-54.73888891 7.37715796 -27.10884176 -0.21077449 0 0 Z M-82.5 72.0625 C-83.10328125 72.60132812 -83.7065625 73.14015625 -84.328125 73.6953125 C-106.03731475 93.88283007 -117.08000452 125.88566419 -118.42553711 154.80444336 C-119.40570746 188.6152332 -106.08278411 219.44140517 -83.5 244.0625 C-82.90832031 244.73667969 -82.31664062 245.41085937 -81.70703125 246.10546875 C-69.81897535 258.97146241 -53.49205728 266.75136935 -37.98046875 274.25390625 C-23.07722396 281.47562378 -13.49424685 290.32450617 -7.5625 306.125 C-5.52721481 312.37823829 -4.37345438 318.55129464 -3.5 325.0625 C1.78 325.0625 7.06 325.0625 12.5 325.0625 C13.33917064 306.32102236 5.55277905 289.18759481 -6.5 275.0625 C-15.67072342 265.27105076 -27.86683987 259.13740152 -40.02124023 253.93945312 C-50.78872179 249.29098775 -59.67831091 242.74858704 -68.5 235.0625 C-69.12519531 234.52238281 -69.75039062 233.98226562 -70.39453125 233.42578125 C-88.94449293 216.17909557 -99.76203962 189.12981701 -100.71875 164.18359375 C-101.46674748 133.56085899 -91.90005278 107.07816717 -71.09765625 84.44921875 C-65.38815451 78.50520351 -59.2726199 73.75123685 -52.5 69.0625 C-56.46 62.1325 -56.46 62.1325 -60.5 55.0625 C-67.22167084 55.0625 -77.78293718 67.62195466 -82.5 72.0625 Z M-3.5 343.0625 C-3.5 351.6425 -3.5 360.2225 -3.5 369.0625 C1.78 369.0625 7.06 369.0625 12.5 369.0625 C12.5 360.4825 12.5 351.9025 12.5 343.0625 C7.22 343.0625 1.94 343.0625 -3.5 343.0625 Z " fill="#0051CC" transform="translate(257.5,45.9375)"/>
<path d="M0 0 C17.82 2.475 17.82 2.475 36 5 C35.2575 10.2903125 35.2575 10.2903125 34.5 15.6875 C31.4836687 33.48656818 31.4836687 33.48656818 37 50 C42.04022865 55.70928555 47.59818278 59.21570712 55.15234375 60.3125 C66.33142606 60.94120059 74.69395821 54.41839667 83 47.75 C84.85097465 46.28242339 86.70498282 44.81866187 88.5625 43.359375 C89.36816406 42.71452148 90.17382812 42.06966797 91.00390625 41.40527344 C93 40 93 40 95 40 C96.41699219 41.6171875 96.41699219 41.6171875 98.046875 43.875 C98.645 44.69613281 99.243125 45.51726562 99.859375 46.36328125 C100.48328125 47.23339844 101.1071875 48.10351562 101.75 49 C102.97365945 50.68771674 104.19761512 52.37521876 105.421875 54.0625 C106.01548828 54.89136719 106.60910156 55.72023437 107.22070312 56.57421875 C108.38781013 58.1653789 109.58910702 59.73213087 110.82617188 61.26953125 C111.38369141 61.96433594 111.94121094 62.65914062 112.515625 63.375 C113.01868164 63.98085937 113.52173828 64.58671875 114.04003906 65.2109375 C115 67 115 67 114.9375 68.99658203 C113.6457989 71.75692036 111.94549114 72.89479008 109.484375 74.6796875 C108.56269531 75.36160156 107.64101563 76.04351562 106.69140625 76.74609375 C105.23541016 77.79990234 105.23541016 77.79990234 103.75 78.875 C91.70852177 87.22107487 91.70852177 87.22107487 85.59375 100.03125 C84.3966005 107.97596938 85.87028954 114.45593355 90.421875 121.11328125 C97.38119729 129.43346112 106.85005184 130.59689095 117 132 C118.36980399 132.19522606 119.73959592 132.39053674 121.109375 132.5859375 C123.53844404 132.92799008 125.96932189 133.25761296 128.40234375 133.5703125 C131 134 131 134 132 135 C131.92438753 146.71993254 129.75846188 158.44344808 128 170 C122.98299638 170.08734718 118.39713063 169.85943058 113.4375 169 C98.55876759 166.58869831 98.55876759 166.58869831 84.5703125 170.8046875 C78.76777961 175.22154089 74.45931658 180.73121363 73 188 C71.51652371 200.50011173 77.96641025 208.73470441 85.31518555 218.11132812 C86.38287404 219.45855744 87.45390244 220.80315251 88.52954102 222.14404297 C89.01479248 222.75650879 89.50004395 223.36897461 90 224 C90.55679443 224.69625488 91.11358887 225.39250977 91.68725586 226.10986328 C93 228 93 228 93 230 C91.3828125 231.41699219 91.3828125 231.41699219 89.125 233.046875 C88.30386719 233.645 87.48273438 234.243125 86.63671875 234.859375 C85.76660156 235.48328125 84.89648438 236.1071875 84 236.75 C82.31228326 237.97365945 80.62478124 239.19761512 78.9375 240.421875 C78.10863281 241.01548828 77.27976562 241.60910156 76.42578125 242.22070312 C74.8346211 243.38781013 73.26786913 244.58910702 71.73046875 245.82617188 C71.03566406 246.38369141 70.34085938 246.94121094 69.625 247.515625 C69.01914062 248.01868164 68.41328125 248.52173828 67.7890625 249.04003906 C66 250 66 250 63.99902344 249.93530273 C61.25425143 248.65107929 60.14976689 246.97801967 58.390625 244.51953125 C57.71773437 243.60236328 57.04484375 242.68519531 56.3515625 241.74023438 C54.96508624 239.80870286 53.57964664 237.87642673 52.1953125 235.94335938 C46.91453389 228.75005543 41.31521961 221.93005157 32.1328125 220.18359375 C24.81447919 219.55362733 18.04873138 220.6943439 12 225 C3.50310999 232.76473169 2.31769321 241.91053164 0.875 252.875 C0.54259962 255.33121044 0.20685251 257.78697113 -0.1328125 260.2421875 C-0.27605957 261.3235498 -0.41930664 262.40491211 -0.56689453 263.51904297 C-1 266 -1 266 -2 267 C-10.46193887 266.94540685 -18.94041992 265.69987145 -27.3125 264.5625 C-28.71870605 264.37929199 -28.71870605 264.37929199 -30.15332031 264.19238281 C-31.02698242 264.06831055 -31.90064453 263.94423828 -32.80078125 263.81640625 C-33.58622314 263.70756104 -34.37166504 263.59871582 -35.1809082 263.48657227 C-35.7812085 263.32600342 -36.38150879 263.16543457 -37 263 C-38.25629857 260.48740286 -37.89886861 259.41640258 -37.44140625 256.66796875 C-37.30226807 255.79301758 -37.16312988 254.91806641 -37.01977539 254.01660156 C-36.86887451 253.08299805 -36.71797363 252.14939453 -36.5625 251.1875 C-33.63961943 234.02765999 -33.63961943 234.02765999 -39 218 C-43.33694518 212.3874827 -49.77489123 208.68932858 -56.77734375 207.546875 C-68.40650422 207.09018988 -76.25916256 213.31515102 -85.0625 220.25 C-86.02349609 220.99507812 -86.98449219 221.74015625 -87.97460938 222.5078125 C-90.32294851 224.33040406 -92.66438315 226.16115298 -95 228 C-99.51031677 223.73787903 -103.26785755 219.0262455 -107.0625 214.125 C-107.67416016 213.34769531 -108.28582031 212.57039062 -108.91601562 211.76953125 C-112.35675083 207.34307191 -115.35597625 202.94518157 -118 198 C-117.03513672 197.30777344 -117.03513672 197.30777344 -116.05078125 196.6015625 C-113.58310629 194.82033065 -111.12558294 193.02603519 -108.67333984 191.22363281 C-107.54719493 190.40013729 -106.41721966 189.58185718 -105.28369141 188.76855469 C-96.54843733 182.49216757 -90.02176822 177.40175608 -87.5625 166.5 C-86.4431994 158.6971833 -88.30259936 153.23413769 -92.65234375 146.75390625 C-99.26802491 138.1439328 -109.22340296 137.28212642 -119.25 135.9375 C-121.58949262 135.62021587 -123.92809872 135.29630391 -126.265625 134.96484375 C-127.29461914 134.8268335 -128.32361328 134.68882324 -129.38378906 134.54663086 C-132 134 -132 134 -135 132 C-133.35 120.45 -131.7 108.9 -130 97 C-126.473125 97.495 -122.94625 97.99 -119.3125 98.5 C-101.51343182 101.5163313 -101.51343182 101.5163313 -85 96 C-79.29071445 90.95977135 -75.78429288 85.40181722 -74.6875 77.84765625 C-74.05879941 66.66857394 -80.58160333 58.30604179 -87.25 50 C-88.71757661 48.14902535 -90.18133813 46.29501718 -91.640625 44.4375 C-92.28547852 43.63183594 -92.93033203 42.82617188 -93.59472656 41.99609375 C-95 40 -95 40 -95 38 C-93.39868164 36.59887695 -93.39868164 36.59887695 -91.16015625 34.98828125 C-89.93522461 34.09786133 -89.93522461 34.09786133 -88.68554688 33.18945312 C-87.81994141 32.57005859 -86.95433594 31.95066406 -86.0625 31.3125 C-84.38582552 30.10149617 -82.71004153 28.88925845 -81.03515625 27.67578125 C-80.2064502 27.07588379 -79.37774414 26.47598633 -78.52392578 25.85791016 C-74.62058446 22.98458577 -70.80489988 20.00193084 -67 17 C-61.70330745 21.96564927 -57.52432565 27.70482325 -53.171875 33.49414062 C-47.43088953 41.01358355 -41.73907698 46.18076349 -32.0625 47.8125 C-24.33635191 48.51217044 -18.04873791 45.64769394 -12 41 C-4.91191652 33.72034669 -4.1503003 24.8440739 -2.875 15.1875 C-2.54196066 12.74309297 -2.20616726 10.29905907 -1.8671875 7.85546875 C-1.72394043 6.77934326 -1.58069336 5.70321777 -1.43310547 4.59448242 C-1 2 -1 2 0 0 Z M-40.22265625 98.83984375 C-50.59955443 111.45176615 -54.43124857 125.89464709 -53 142 C-50.15660812 156.3251319 -42.71311705 168.80072023 -30.6875 177.3125 C-17.94228496 185.19706185 -4.24896419 188.07480895 10.515625 185.3515625 C25.32951424 181.16502858 37.08240129 173.0317345 44.68359375 159.58984375 C51.21513302 146.73996084 53.4089263 133.08615294 49.3125 119.0625 C44.443877 105.33568794 35.86337115 94.19736243 23 87 C0.81374021 77.32301435 -23.27713557 80.85472058 -40.22265625 98.83984375 Z " fill="#0051CC" transform="translate(375,20)"/>
<path d="M0 0 C2.21585882 2.21585882 2.40438724 3.02193622 3 6 C3.1640332 6.80074951 3.32806641 7.60149902 3.49707031 8.42651367 C3.74602051 9.7003894 3.74602051 9.7003894 4 11 C4.17370117 11.85762939 4.34740234 12.71525879 4.52636719 13.59887695 C5.02441957 16.06461002 5.51299696 18.53206509 6 21 C6.23203125 22.14855469 6.4640625 23.29710937 6.703125 24.48046875 C7.14188857 26.65234841 7.57231065 28.82591248 8 31 C7.02160156 31.30292969 6.04320313 31.60585938 5.03515625 31.91796875 C-11.37573314 37.10951064 -23.72166018 44.17439453 -32 60 C-37.90551778 73.49832636 -38.83491692 86.96783509 -34 101 C-28.73190878 113.83498587 -21.03506845 123.12669142 -8.41796875 129.25390625 C-5.96915836 130.27330351 -3.51796994 131.16764781 -1 132 C0.2375 132.4125 1.475 132.825 2.75 133.25 C16.04759836 136.22587383 29.69924704 133.59134913 41.33203125 126.79296875 C49.24963801 121.47205879 55.2108306 115.23503519 60 107 C63.125871 107.60502118 65.11672629 108.59204164 67.64453125 110.51171875 C68.32193359 111.02283203 68.99933594 111.53394531 69.69726562 112.06054688 C70.39529297 112.59744141 71.09332031 113.13433594 71.8125 113.6875 C72.84213867 114.46383789 72.84213867 114.46383789 73.89257812 115.25585938 C87.03237494 125.23812696 87.03237494 125.23812696 90.375 131 C91.09816406 132.2065625 91.09816406 132.2065625 91.8359375 133.4375 C93.19364922 136.42628821 93.8029287 138.71376542 94 142 C92.46118164 144.33349609 92.46118164 144.33349609 90.16015625 146.5234375 C89.34482422 147.31621094 88.52949219 148.10898437 87.68945312 148.92578125 C86.82255859 149.73402344 85.95566406 150.54226563 85.0625 151.375 C84.19947266 152.20644531 83.33644531 153.03789062 82.44726562 153.89453125 C80.31300368 155.94625268 78.16417616 157.97993333 76 160 C72.57928561 158.73305487 69.6859394 157.27561952 66.6796875 155.21484375 C65.50599609 154.41916992 65.50599609 154.41916992 64.30859375 153.60742188 C63.50550781 153.05634766 62.70242187 152.50527344 61.875 151.9375 C60.27039501 150.83927671 58.66370962 149.7440852 57.0546875 148.65234375 C56.34812012 148.16757568 55.64155273 147.68280762 54.91357422 147.18334961 C50.95581857 144.73588321 47.55796217 144.62639654 43 145 C37.64816724 146.65747059 34.63981803 148.72076905 31.92602539 153.78198242 C30.04190796 158.29482366 29.23985063 163.09213692 28.3125 167.875 C27.8949628 169.95634046 27.47455086 172.03710703 27.05078125 174.1171875 C26.87200439 175.03097168 26.69322754 175.94475586 26.5090332 176.88623047 C26 179 26 179 25 180 C23.36527118 180.08700342 21.72685945 180.10701063 20.08984375 180.09765625 C19.10048828 180.09443359 18.11113281 180.09121094 17.09179688 180.08789062 C16.05087891 180.07951172 15.00996094 180.07113281 13.9375 180.0625 C12.89271484 180.05798828 11.84792969 180.05347656 10.77148438 180.04882812 C8.1809334 180.03699913 5.59049441 180.02051689 3 180 C2.84442627 179.24380371 2.68885254 178.48760742 2.52856445 177.70849609 C1.8082281 174.2598693 1.06067233 170.81769029 0.3125 167.375 C0.06822266 166.18519531 -0.17605469 164.99539063 -0.42773438 163.76953125 C-1.87121471 157.22818999 -2.99301304 152.5838613 -8 148 C-13.55660422 144.68740903 -17.87727903 144.56690297 -24 146 C-26.95670338 147.32137346 -29.57283578 148.99918819 -32.25 150.8125 C-32.930625 151.25142578 -33.61125 151.69035156 -34.3125 152.14257812 C-38.0413693 154.57429231 -41.57322092 157.15099181 -45 160 C-48.04332765 158.6415798 -50.12309151 157.11536976 -52.453125 154.7421875 C-53.071875 154.11699219 -53.690625 153.49179687 -54.328125 152.84765625 C-54.96234375 152.19667969 -55.5965625 151.54570312 -56.25 150.875 C-56.8996875 150.21628906 -57.549375 149.55757812 -58.21875 148.87890625 C-59.81711727 147.25703357 -61.41061897 145.6306719 -63 144 C-59.76396956 137.81302438 -56.09862374 132.09818595 -52.03540039 126.4309082 C-48.48215692 121.43181519 -47.05725481 117.14976805 -48 111 C-50.19978097 105.31551927 -53.16718619 102.49304449 -58.6015625 99.93261719 C-63.10572933 98.18120052 -67.7803468 97.23549978 -72.5 96.25 C-75.965 95.5075 -79.43 94.765 -83 94 C-83 86.74 -83 79.48 -83 72 C-81.329375 71.5875 -79.65875 71.175 -77.9375 70.75 C-76.85210937 70.47542969 -75.76671875 70.20085937 -74.6484375 69.91796875 C-72.1145238 69.28042087 -69.5798682 68.65901219 -67.0390625 68.05078125 C-65.71340351 67.72191057 -64.38788031 67.39249198 -63.0625 67.0625 C-61.22365234 66.61583984 -61.22365234 66.61583984 -59.34765625 66.16015625 C-54.34281801 64.42569072 -51.72409837 62.3233522 -49.1875 57.6875 C-47.4638391 52.33507931 -47.12181205 48.36761979 -49.66796875 43.30859375 C-52.00769873 38.78608915 -54.81840171 34.6550212 -57.75 30.5 C-58.25660156 29.77296875 -58.76320313 29.0459375 -59.28515625 28.296875 C-60.51873889 26.52796405 -61.75869908 24.76350337 -63 23 C-59.37068427 18.67116166 -55.65033216 14.53343578 -51.625 10.5625 C-50.31402344 9.26505859 -50.31402344 9.26505859 -48.9765625 7.94140625 C-48.32429688 7.30074219 -47.67203125 6.66007813 -47 6 C-42.01416328 7.63261712 -38.10467975 10.5539573 -33.875 13.5625 C-32.45807203 14.5671147 -31.03888874 15.568558 -29.6171875 16.56640625 C-28.99440918 17.00927979 -28.37163086 17.45215332 -27.72998047 17.90844727 C-23.20954171 20.76067443 -18.14844807 20.54770724 -13 20 C-8.7440777 18.66701302 -6.31584733 16.43535713 -3.6875 12.8125 C-1.63365006 8.75768896 -0.76739524 4.45291185 0 0 Z " fill="#0051CC" transform="translate(96,227)"/>
<path d="M0 0 C23.76 0 47.52 0 72 0 C72 16.82638889 72 16.82638889 67.3125 21.78515625 C63.36915279 25.26023098 60.79027376 27.11381842 55.46191406 27.17700195 C54.04969574 27.19625481 54.04969574 27.19625481 52.60894775 27.21589661 C51.58815125 27.22328354 50.56735474 27.23067047 49.515625 27.23828125 C48.46727478 27.246353 47.41892456 27.25442474 46.33880615 27.26274109 C44.11618711 27.27658934 41.89354673 27.28730817 39.67089844 27.29516602 C36.27758223 27.31236024 32.88524484 27.35623845 29.4921875 27.40039062 C27.3333405 27.41051905 25.17448522 27.41903468 23.015625 27.42578125 C22.00292542 27.44328934 20.99022583 27.46079742 19.94683838 27.47883606 C13.94908811 27.46044485 10.58191476 26.96469745 6 23 C-0.89972507 15.71695687 0 10.36650167 0 0 Z " fill="#0052CC" transform="translate(226,485)"/>
<path d="M0 0 C4.56252638 2.17947788 8.59038603 5.01815861 12.75 7.875 C13.59691406 8.45507812 14.44382812 9.03515625 15.31640625 9.6328125 C21.30144816 13.76042761 27.13501735 18.0513549 32.91430664 22.46044922 C39.00032421 27.07280125 45.28515966 31.3733645 51.61914062 35.63671875 C55.5455009 38.28542738 59.35699337 40.96294437 63 44 C61.37815499 47.58513106 59.20743761 50.58992323 56.875 53.75 C56.15054688 54.73484375 55.42609375 55.7196875 54.6796875 56.734375 C54.12539062 57.48203125 53.57109375 58.2296875 53 59 C50.01415322 58.39972294 47.99024954 57.50849464 45.5234375 55.734375 C44.86214844 55.26322266 44.20085937 54.79207031 43.51953125 54.30664062 C42.81183594 53.79294922 42.10414062 53.27925781 41.375 52.75 C40.62863281 52.21568359 39.88226563 51.68136719 39.11328125 51.13085938 C36.73731739 49.42722586 34.36804308 47.71462242 32 46 C30.4922743 44.91133811 28.98446324 43.82279443 27.4765625 42.734375 C25.2361025 41.11622431 22.99623941 39.49727589 20.75805664 37.87597656 C14.13372029 33.08105426 7.45852724 28.36038071 0.76953125 23.65625 C-2.83325342 21.1220958 -6.41852351 18.56416994 -10 16 C-8.55797524 11.84848662 -6.4989562 8.70021555 -3.875 5.1875 C-3.15054687 4.21167969 -2.42609375 3.23585937 -1.6796875 2.23046875 C-0.84824219 1.12638672 -0.84824219 1.12638672 0 0 Z " fill="#0051CC" transform="translate(29,47)"/>
<path d="M0 0 C2.22366612 8.51713121 4.44077773 17.03593378 6.64957428 25.5569334 C7.67544611 29.51365329 8.70355359 33.46976373 9.73681641 37.42456055 C10.73415824 41.24220925 11.72556686 45.06135392 12.71290588 48.88160133 C13.0903548 50.33776325 13.46992697 51.79337654 13.85166931 53.24841881 C14.38658702 55.28878732 14.91387572 57.33098799 15.43945312 59.3737793 C15.7414563 60.53515915 16.04345947 61.696539 16.35461426 62.89311218 C16.93989161 65.71063814 17.13390141 68.13639092 17 71 C14.75194998 71.67321284 12.50147776 72.33834123 10.25 73 C8.99703125 73.37125 7.7440625 73.7425 6.453125 74.125 C3 75 3 75 -1 75 C-3.39526504 65.91125268 -5.77791389 56.81932083 -8.14435005 47.72302437 C-9.24348518 43.49971997 -10.34699541 39.27765948 -11.46044922 35.05810547 C-12.53406757 30.98886557 -13.5962641 26.91680326 -14.65047836 22.84249496 C-15.05547332 21.2856343 -15.46463015 19.72985037 -15.8779335 18.17517471 C-16.45445513 16.00373134 -17.01629309 13.8289908 -17.57470703 11.65283203 C-17.89891632 10.41373077 -18.22312561 9.17462952 -18.55715942 7.89797974 C-18.70329681 6.94164642 -18.8494342 5.98531311 -19 5 C-16.48768622 2.48768622 -14.62148234 2.21338287 -11.1875 1.375 C-10.14980469 1.11460938 -9.11210938 0.85421875 -8.04296875 0.5859375 C-5.25294095 0.04870493 -2.82596746 -0.04480447 0 0 Z " fill="#0051CC" transform="translate(113,0)"/>
<path d="M0 0 C0.67126129 2.4363189 1.33716354 4.87388883 2 7.3125 C2.19078125 8.00279297 2.3815625 8.69308594 2.578125 9.40429688 C3.37716184 12.35787949 4 14.92559219 4 18 C-4.64614509 20.24638614 -13.29517091 22.48121493 -21.94808483 24.70138645 C-25.9659836 25.73268755 -29.98278071 26.76792561 -33.99731445 27.81225586 C-37.8723161 28.82013274 -41.74987473 29.81754288 -45.62941933 30.80778313 C-47.10832666 31.18721683 -48.58627766 31.57039855 -50.06322289 31.95739937 C-52.13372781 32.49924335 -54.20724697 33.02760371 -56.28198242 33.55297852 C-57.46112717 33.8572023 -58.64027191 34.16142609 -59.85514832 34.47486877 C-62.97086046 34.99513424 -64.98731995 34.85514297 -68 34 C-68.50744423 32.10614563 -69.00564574 30.20981334 -69.5 28.3125 C-69.7784375 27.25675781 -70.056875 26.20101562 -70.34375 25.11328125 C-70.94233449 22.27356794 -71.05127345 19.88199527 -71 17 C-62.33479888 14.7778518 -53.66830095 12.56085519 -45.000103 10.35042572 C-40.97516441 9.32387598 -36.95069526 8.29555691 -32.92724609 7.26318359 C-29.0444576 6.26697176 -25.16050595 5.2754218 -21.27570343 4.28709412 C-19.79372015 3.90919312 -18.31216382 3.52961372 -16.83104706 3.14833069 C-14.75663375 2.61462095 -12.68078328 2.08689654 -10.60449219 1.56054688 C-8.83244415 1.10754211 -8.83244415 1.10754211 -7.02459717 0.64538574 C-4 0 -4 0 0 0 Z " fill="#0051CB" transform="translate(76,134)"/>
<path d="M0 0 C23.76 0 47.52 0 72 0 C72 6.27 72 12.54 72 19 C48.24 19 24.48 19 0 19 C0 12.73 0 6.46 0 0 Z " fill="#0051CC" transform="translate(226,450)"/>
<path d="M0 0 C3.42673696 1.52739084 6.05841282 3.54331171 8.9375 5.9375 C9.90558594 6.74058594 10.87367188 7.54367187 11.87109375 8.37109375 C15.6471023 11.5366456 19.40671455 14.72161455 23.16186523 17.91186523 C27.4477556 21.548628 31.79080168 25.11048974 36.15234375 28.65625 C40.06345547 31.87527199 43.91858408 35.15918943 47.76171875 38.45898438 C50.69812204 40.9946086 50.69812204 40.9946086 54 43 C53.45230629 47.18238834 51.10111111 49.59868545 48.4375 52.75 C47.61121094 53.73484375 46.78492188 54.7196875 45.93359375 55.734375 C44.97646484 56.85585938 44.97646484 56.85585938 44 58 C39.69697417 57.50230063 37.04861325 54.7535564 33.9375 52 C32.77021664 50.98879161 31.60223754 49.97838584 30.43359375 48.96875 C29.85335449 48.46472656 29.27311523 47.96070313 28.67529297 47.44140625 C26.32026667 45.41516386 23.9133513 43.45619665 21.5 41.5 C17.46016323 38.21176077 13.46922667 34.87261796 9.5 31.5 C-0.44361604 22.84641261 -0.44361604 22.84641261 -11 15 C-9.3718356 11.24269753 -6.98598083 8.383177 -4.375 5.25 C-3.55773437 4.26515625 -2.74046875 3.2803125 -1.8984375 2.265625 C-1.27195312 1.51796875 -0.64546875 0.7703125 0 0 Z " fill="#0052CC" transform="translate(425,373)"/>
<path d="M0 0 C5.94 0 11.88 0 18 0 C18 20.79 18 41.58 18 63 C12.06 63 6.12 63 0 63 C0 42.21 0 21.42 0 0 Z " fill="#0052CC" transform="translate(376,397)"/>
<path d="M0 0 C20.46 0 40.92 0 62 0 C62 5.94 62 11.88 62 18 C41.54 18 21.08 18 0 18 C0 12.06 0 6.12 0 0 Z " fill="#0052CB" transform="translate(429,327)"/>
<path d="M0 0 C2.4375 1.5 2.4375 1.5 4 3 C3.49312774 8.39506505 2.07297005 12.61754279 -0.4375 17.4375 C-0.78514404 18.1176416 -1.13278809 18.7977832 -1.4909668 19.49853516 C-4.22755416 24.74792214 -7.20213849 29.83925866 -10.3125 34.875 C-10.73265381 35.55876709 -11.15280762 36.24253418 -11.58569336 36.94702148 C-13.52916306 40.01822687 -14.93702443 41.95801629 -18 44 C-15.3098066 20.97909528 -15.3098066 20.97909528 -13.625 10.75 C-13.43164062 9.52796875 -13.23828125 8.3059375 -13.0390625 7.046875 C-10.83685052 0.58926092 -6.41900227 -0.81696393 0 0 Z " fill="#0052CB" transform="translate(406,256)"/>
</svg>
