<?xml version="1.0" encoding="UTF-8"?>
<svg version="1.1" xmlns="http://www.w3.org/2000/svg" width="512" height="512">
<path d="M0 0 C1.20918503 0.64407544 2.41881949 1.28730784 3.62890625 1.9296875 C16.05438892 8.64703415 26.76603429 17.30466406 37 27 C38.43472656 28.33804688 38.43472656 28.33804688 39.8984375 29.703125 C62.93882937 51.62613608 79.51310117 83.31413254 81.17700195 115.41479492 C81.46183855 131.98865372 81.57866669 147.91635161 77 164 C76.81808105 164.66692871 76.63616211 165.33385742 76.44873047 166.02099609 C71.59210438 183.43801173 59.91856779 210.49289025 44.29150391 221.16699219 C42.64257682 223.08049807 42.64257682 223.08049807 43.34472656 226.30102539 C43.67479864 227.71685807 44.02526687 229.12801618 44.390625 230.53515625 C44.57917053 231.31746109 44.76771606 232.09976593 44.9619751 232.90577698 C45.62089067 235.60935109 46.30857054 238.30456482 47 241 C47.52030864 243.05709695 48.04048584 245.11422715 48.56054688 247.17138672 C50.5757114 255.1000091 52.59784066 263.02703403 54.66552734 270.94213867 C55.55472849 274.35297283 56.42709356 277.76776334 57.296875 281.18359375 C57.56868591 282.20778915 57.84049683 283.23198456 58.12054443 284.28721619 C60.57493578 294.03248485 61.58386993 302.84062197 56.56640625 311.83203125 C53.54745759 316.01037666 49.90543253 318.36485582 45 320 C35.20374906 320.99716451 28.02621129 319.04182586 19.1875 315 C17.91410193 314.43955728 16.63955064 313.88172937 15.36401367 313.32617188 C12.38226372 312.02454579 9.40638764 310.71037284 6.43261719 309.390625 C-0.04009722 306.52972978 -6.54739399 303.7498536 -13.0546875 300.96875 C-13.67280745 300.7045224 -14.29092739 300.4402948 -14.92777824 300.1680603 C-17.45058514 299.08969426 -19.97343367 298.01142591 -22.49643612 296.93351746 C-26.86721859 295.06578249 -31.23559447 293.19253002 -35.6027832 291.31640625 C-36.79110748 290.80597778 -37.97943176 290.29554932 -39.20376587 289.76965332 C-41.43416149 288.81135834 -43.66437992 287.85265079 -45.89437866 286.89343262 C-47.92636922 286.02080183 -49.96006567 285.15213057 -51.99560547 284.28781128 C-54.0623537 283.40191508 -56.12061408 282.49603638 -58.17138672 281.57376099 C-63.86485509 279.06536634 -68.24267 277.3726358 -74.4765625 277.6171875 C-75.79374268 277.64917236 -77.11092285 277.68115723 -78.46801758 277.71411133 C-79.48504257 277.75442978 -79.48504257 277.75442978 -80.52261353 277.79556274 C-84.15597842 277.93284699 -87.79019764 277.9690564 -91.42578125 278.00390625 C-92.51849586 278.01543983 -92.51849586 278.01543983 -93.63328552 278.02720642 C-124.36567257 278.20140994 -154.11019624 269.51408637 -181 255 C-182.02222656 254.45859375 -183.04445313 253.9171875 -184.09765625 253.359375 C-202.46502444 243.17450865 -219.45411429 228.85409552 -232 212 C-232.72445312 211.0409375 -233.44890625 210.081875 -234.1953125 209.09375 C-256.24893793 178.66435742 -264.93918092 142.85900589 -259.41455078 105.69824219 C-253.15808575 67.65274167 -230.17419691 35.58755781 -199.921875 12.66796875 C-173.82666697 -6.05108123 -143.76425098 -17.00859725 -112 -21 C-111.05769531 -21.13148438 -110.11539063 -21.26296875 -109.14453125 -21.3984375 C-72.2381183 -25.74036844 -32.41089669 -17.95201099 0 0 Z M-170.5546875 115.96484375 C-174.6724602 121.76311288 -174.72578561 127.00857157 -174 134 C-172.25662943 139.68944289 -167.79437795 143.7234928 -163 147 C-157.94561691 149.31659225 -153.16700865 149.92463365 -147.765625 148.34765625 C-141.05739917 145.72514514 -137.26021795 141.80127565 -133.625 135.6875 C-132.05741539 128.94688619 -132.25076892 122.81949514 -135.73828125 116.75 C-139.38685534 111.68943903 -144.17414188 108.94195271 -150 107 C-159.18179041 105.99835014 -164.82508616 109.04934817 -170.5546875 115.96484375 Z M-106.5546875 115.96484375 C-110.6724602 121.76311288 -110.72578561 127.00857157 -110 134 C-108.25662943 139.68944289 -103.79437795 143.7234928 -99 147 C-93.94561691 149.31659225 -89.16700865 149.92463365 -83.765625 148.34765625 C-77.05739917 145.72514514 -73.26021795 141.80127565 -69.625 135.6875 C-68.05741539 128.94688619 -68.25076892 122.81949514 -71.73828125 116.75 C-75.38685534 111.68943903 -80.17414188 108.94195271 -86 107 C-95.18179041 105.99835014 -100.82508616 109.04934817 -106.5546875 115.96484375 Z M-42.5546875 115.96484375 C-46.6724602 121.76311288 -46.72578561 127.00857157 -46 134 C-44.25662943 139.68944289 -39.79437795 143.7234928 -35 147 C-29.94561691 149.31659225 -25.16700865 149.92463365 -19.765625 148.34765625 C-13.05739917 145.72514514 -9.26021795 141.80127565 -5.625 135.6875 C-4.05741539 128.94688619 -4.25076892 122.81949514 -7.73828125 116.75 C-11.38685534 111.68943903 -16.17414188 108.94195271 -22 107 C-31.18179041 105.99835014 -36.82508616 109.04934817 -42.5546875 115.96484375 Z " fill="#000000" transform="translate(431,192)"/>
<path d="M0 0 C0.8005481 -0.00701431 1.60109619 -0.01402863 2.42590332 -0.02125549 C4.99753496 -0.03867725 7.5689365 -0.04510832 10.140625 -0.046875 C11.01811401 -0.04754974 11.89560303 -0.04822449 12.79968262 -0.04891968 C25.55667974 -0.03330685 37.91398099 0.29993315 50.390625 3.203125 C51.16100098 3.37473145 51.93137695 3.54633789 52.72509766 3.72314453 C85.13417493 11.08974162 114.5530809 25.90504442 138.390625 49.203125 C139.31230469 50.06292969 140.23398437 50.92273437 141.18359375 51.80859375 C165.09325634 74.63911783 180.14666877 107.24711111 182.390625 140.203125 C182.44083327 143.53743814 182.43251595 146.86877492 182.390625 150.203125 C181.33657471 150.26258301 181.33657471 150.26258301 180.26123047 150.32324219 C144.84112882 152.40779377 112.90323866 159.59599366 81.390625 176.203125 C80.22789062 176.80769531 79.06515625 177.41226563 77.8671875 178.03515625 C40.04501531 198.59068462 10.23356564 234.71889618 -2.42333984 275.84814453 C-5.39883008 285.39387938 -5.39883008 285.39387938 -6.63867188 295.22607422 C-7.609375 298.203125 -7.609375 298.203125 -9.145401 299.25119019 C-11.41519573 300.2515454 -13.70265434 301.07520339 -16.05078125 301.875 C-17.89363049 302.55639455 -19.73486691 303.24216243 -21.57470703 303.93164062 C-22.55755676 304.29523682 -23.54040649 304.65883301 -24.55303955 305.03344727 C-29.82111364 307.04957052 -34.972994 309.32630466 -40.13671875 311.59375 C-41.21861984 312.06585907 -42.30052094 312.53796814 -43.41520691 313.02438354 C-45.65027344 313.99972514 -47.88484109 314.9762107 -50.118927 315.95379639 C-66.08943295 322.93903553 -82.06287192 329.91712128 -98.171875 336.578125 C-99.3158374 337.05282227 -100.4597998 337.52751953 -101.63842773 338.01660156 C-110.06195 341.47437883 -116.64792211 343.81597083 -125.671875 340.640625 C-131.7500444 338.02247897 -135.05954834 334.30277832 -137.984375 328.453125 C-139.84968146 318.7535314 -137.88611573 310.05434794 -135.27765274 300.69129372 C-134.66632968 298.48699074 -134.0768388 296.27785318 -133.49313354 294.06608582 C-131.83398699 287.78695519 -130.15173912 281.51463188 -128.41992188 275.25512695 C-127.35651531 271.40563888 -126.33041153 267.54778678 -125.32720566 263.68219566 C-124.93997913 262.21969015 -124.53885016 260.76078882 -124.12332535 259.30607033 C-121.60563425 251.45448534 -121.60563425 251.45448534 -122.6703949 243.58798218 C-124.18324682 241.54390325 -125.73253104 239.91026598 -127.609375 238.203125 C-140.18439086 222.52933735 -149.52748103 205.93472702 -155.359375 186.578125 C-155.55821289 185.92207275 -155.75705078 185.26602051 -155.96191406 184.59008789 C-159.21226599 173.23755084 -160.01917269 161.96003689 -159.984375 150.203125 C-159.98349884 149.47768494 -159.98262268 148.75224487 -159.98171997 148.00482178 C-159.83077846 110.00829912 -143.89729517 77.10258968 -117.609375 50.203125 C-117.06555176 49.6373877 -116.52172852 49.07165039 -115.96142578 48.48876953 C-86.9645108 18.77204397 -41.42250231 0.24332403 0 0 Z M-69.484375 136.078125 C-73.39511687 141.82921599 -74.52824747 147.35229099 -73.609375 154.203125 C-71.42268417 161.39170743 -66.6155355 165.82108362 -60.296875 169.578125 C-53.67571206 171.11793033 -47.43088579 171.00728628 -41.43359375 167.61328125 C-37.26906005 164.39401644 -34.26606813 160.1732044 -32.609375 155.203125 C-31.8834277 148.20291889 -31.92344289 142.61553821 -36.1796875 136.8203125 C-39.81144362 132.7122605 -43.82695436 129.54496525 -49.34375 128.8671875 C-57.6398579 128.75972496 -63.74710626 129.75881451 -69.484375 136.078125 Z M-5.484375 136.078125 C-9.39511687 141.82921599 -10.52824747 147.35229099 -9.609375 154.203125 C-7.42268417 161.39170743 -2.6155355 165.82108362 3.703125 169.578125 C10.32428794 171.11793033 16.56911421 171.00728628 22.56640625 167.61328125 C26.73093995 164.39401644 29.73393187 160.1732044 31.390625 155.203125 C32.1165723 148.20291889 32.07655711 142.61553821 27.8203125 136.8203125 C24.18855638 132.7122605 20.17304564 129.54496525 14.65625 128.8671875 C6.3601421 128.75972496 0.25289374 129.75881451 -5.484375 136.078125 Z M61.015625 133.390625 C56.53919799 138.18679679 54.19616697 142.57286429 53.890625 149.203125 C54.17327618 155.14791756 55.95989388 159.61111315 60.0390625 163.9609375 C65.38445197 168.79279611 69.89861839 170.63689593 77.1171875 170.45703125 C82.71912664 169.83138513 87.45775175 167.13599825 91.390625 163.203125 C95.31993115 157.89984578 96.07388758 152.61898085 95.84375 146.109375 C94.94132347 140.32139797 92.03181091 136.72422413 87.828125 132.828125 C79.15658826 127.0471005 69.55767576 127.01111874 61.015625 133.390625 Z " fill="#000000" transform="translate(159.609375,-0.203125)"/>
</svg>
