<?xml version="1.0" encoding="UTF-8"?>
<svg version="1.1" xmlns="http://www.w3.org/2000/svg" width="512" height="512">
<path d="M0 0 C1.12810345 -0.00085442 2.2562069 -0.00170885 3.4184953 -0.00258917 C7.20024713 -0.00423687 10.98195465 0.00126585 14.76370239 0.00672913 C17.47391284 0.00756804 20.18412243 0.00689695 22.89433289 0.00628662 C28.73011611 0.00576266 34.56588814 0.00889615 40.40166855 0.01452446 C48.83919291 0.02265671 57.27671187 0.02525645 65.71423973 0.02651245 C79.4040702 0.02870025 93.0938947 0.03535299 106.78372192 0.04481506 C120.08092214 0.0539962 133.37812074 0.0610736 146.67532349 0.06532288 C147.90509465 0.06571696 147.90509465 0.06571696 149.15970968 0.06611901 C153.27270546 0.06742406 157.38570125 0.06868776 161.49869704 0.06993091 C195.61193879 0.08029507 229.72517347 0.09790602 263.83840942 0.12025452 C263.52788269 1.52775611 263.21672144 2.93511771 262.90530396 4.34242249 C262.73209625 5.12616241 262.55888855 5.90990234 262.38043213 6.71739197 C261.86424495 9.005722 261.32125254 11.28593314 260.76809692 13.56556702 C253.72526964 43.99785759 258.5169266 73.46955742 274.83840942 100.12025452 C278.36780541 105.3669062 282.09071814 110.40702476 286.61184692 114.83900452 C288.83840942 117.12025452 288.83840942 117.12025452 288.83840942 119.12025452 C289.70659302 119.50310608 289.70659302 119.50310608 290.59231567 119.89369202 C293.06533409 121.24417512 294.74882588 122.79209532 296.77590942 124.74525452 C308.61700259 135.42734999 323.72410382 142.70458205 339.02590942 146.93275452 C339.70605103 147.12764465 340.38619263 147.32253479 341.08694458 147.52333069 C347.05132506 149.04630833 353.07572969 149.60164962 359.18728638 150.18544006 C360.58036892 150.32146763 360.58036892 150.32146763 362.00159454 150.46024323 C364.28032974 150.6824349 366.55925871 150.90237351 368.83840942 151.12025452 C368.88489529 164.4556362 368.92036091 177.79099839 368.94203377 191.12644482 C368.95243935 197.31964177 368.96653931 203.51278299 368.98928833 209.70594788 C369.01113213 215.69061132 369.02300227 221.67522139 369.02816391 227.65992165 C369.03183904 229.93508557 369.03901526 232.2102468 369.04986954 234.4853878 C369.14621566 255.53082244 368.4210924 273.86082738 354.83840942 291.12025452 C354.22223755 291.94525452 353.60606567 292.77025452 352.97122192 293.62025452 C342.42782242 305.97881804 327.5069519 311.20451683 311.83840942 313.12025452 C306.10760059 313.54070912 300.36978056 313.39030383 294.62966919 313.28285217 C292.97332971 313.26397593 291.3169709 313.2467378 289.66059875 313.23098755 C286.12598857 313.19559847 282.59160716 313.15210516 279.05716133 313.10303116 C273.44127199 313.0284765 267.82554082 312.99321938 262.20924377 312.96653748 C261.2549237 312.96183555 260.30060362 312.95713363 259.31736475 312.95228922 C257.36750898 312.942746 255.41765279 312.93328649 253.46779621 312.92390895 C240.42158554 312.85949831 227.37679822 312.76978492 214.33181763 312.57533264 C205.49213833 312.44386578 196.65424953 312.37458911 187.81356472 312.37372816 C183.15580838 312.37086382 178.50289113 312.33857094 173.84631538 312.22934341 C150.5376032 311.70400013 135.48860037 313.281908 117.37628365 328.99182129 C113.3334036 332.38245434 108.94783463 335.22015727 104.53762817 338.10462952 C102.88446861 339.21907795 101.23273789 340.33565161 99.58303833 341.45521545 C97.89744007 342.59372671 96.21172766 343.732069 94.52590942 344.87025452 C93.19230377 345.77088623 93.19230377 345.77088623 91.83175659 346.68971252 C75.44954748 357.746467 58.97161331 368.65439572 42.44265747 379.4903717 C40.70212149 380.63253675 38.96164121 381.77478667 37.22122192 382.91712952 C36.39940933 383.45553467 35.57759674 383.99393982 34.73088074 384.54866028 C31.05424145 386.96591131 27.40140852 389.40542635 23.80618286 391.94252014 C22.89858719 392.58293243 22.89858719 392.58293243 21.97265625 393.23628235 C20.39872659 394.35548991 18.83278813 395.48591274 17.26760864 396.61732483 C14.83840942 398.12025452 14.83840942 398.12025452 11.83840942 398.12025452 C11.83840942 370.07025452 11.83840942 342.02025452 11.83840942 313.12025452 C5.56840942 313.12025452 -0.70159058 313.12025452 -7.16159058 313.12025452 C-23.43917565 311.03966094 -35.60513846 306.02941702 -47.16159058 294.12025452 C-47.80741089 293.48345764 -48.4532312 292.84666077 -49.11862183 292.19056702 C-62.5993072 278.03437889 -63.61115216 260.84407134 -63.56564331 242.4332428 C-63.57135281 240.34436174 -63.5783193 238.25548379 -63.58644104 236.16661072 C-63.60432389 230.51776374 -63.60321316 224.86907252 -63.59749866 219.22020578 C-63.59439961 214.49377359 -63.60050725 209.767371 -63.6065374 205.04094303 C-63.62056516 193.88522604 -63.61903602 182.72958565 -63.6076355 171.5738678 C-63.59615719 160.08866403 -63.61022927 148.60369385 -63.63703197 137.11852086 C-63.65922733 127.23535847 -63.66581767 117.3522692 -63.65995556 107.46908367 C-63.65659384 101.57615047 -63.65894885 95.68336696 -63.67620659 89.79045486 C-63.69173467 84.2466293 -63.68765515 78.70314833 -63.66890144 73.15933609 C-63.66523172 71.13296573 -63.66827646 69.10656951 -63.67878723 67.08022308 C-63.77408412 47.17796775 -59.8563892 31.3747681 -45.66159058 16.43666077 C-32.59009986 4.32510765 -17.4148174 -0.04819475 0 0 Z M63.83840942 107.12025452 C63.83840942 116.69025452 63.83840942 126.26025452 63.83840942 136.12025452 C124.88840942 136.12025452 185.93840942 136.12025452 248.83840942 136.12025452 C248.83840942 126.55025452 248.83840942 116.98025452 248.83840942 107.12025452 C187.78840942 107.12025452 126.73840942 107.12025452 63.83840942 107.12025452 Z M63.83840942 179.12025452 C63.83840942 188.69025452 63.83840942 198.26025452 63.83840942 208.12025452 C124.88840942 208.12025452 185.93840942 208.12025452 248.83840942 208.12025452 C248.83840942 198.55025452 248.83840942 188.98025452 248.83840942 179.12025452 C187.78840942 179.12025452 126.73840942 179.12025452 63.83840942 179.12025452 Z " fill="#000000" transform="translate(63.161590576171875,77.87974548339844)"/>
<path d="M0 0 C1.19885105 0.98636323 2.38633691 1.98669026 3.5625 3 C4.26246094 3.5465625 4.96242188 4.093125 5.68359375 4.65625 C16.30243809 13.34272232 23.73358514 25.26373705 28.5625 38 C29.18125 39.60101563 29.18125 39.60101563 29.8125 41.234375 C36.38338682 61.40334705 33.9691717 84.49735521 24.8125 103.375 C21.4543121 109.89135344 17.54412112 115.59636309 12.5625 121 C11.79035156 121.85207031 11.01820313 122.70414063 10.22265625 123.58203125 C-4.42379814 139.01518304 -24.78505988 147.80402525 -45.99682617 148.42211914 C-69.8890375 148.56534964 -89.60788718 140.61398319 -107.0625 124.359375 C-122.56736549 108.9565152 -130.61454483 88.18231035 -130.6875 66.4375 C-130.68147703 53.27370661 -128.12845599 41.95263822 -122.4375 30 C-122.01855469 29.08605469 -121.59960938 28.17210937 -121.16796875 27.23046875 C-117.22052637 19.27870442 -111.64426073 13.21547809 -105.4375 7 C-104.7053125 6.25621094 -103.973125 5.51242188 -103.21875 4.74609375 C-75.6669958 -21.52059729 -30.12749559 -21.87830037 0 0 Z M-63.4375 31 C-63.4375 54.1 -63.4375 77.2 -63.4375 101 C-53.8675 101 -44.2975 101 -34.4375 101 C-34.4375 77.9 -34.4375 54.8 -34.4375 31 C-44.0075 31 -53.5775 31 -63.4375 31 Z " fill="#000000" transform="translate(479.4375,52)"/>
</svg>
