<?xml version="1.0" encoding="UTF-8"?>
<svg version="1.1" xmlns="http://www.w3.org/2000/svg" width="512" height="512">
<path d="M0 0 C1.1034375 0.350625 2.206875 0.70125 3.34375 1.0625 C30.5421571 10.56873937 51.67817839 30.59010284 64.25 56.3125 C69.49214683 68.19859337 73.17284374 80.90303478 73.12025452 93.93466187 C73.12153615 95.10616411 73.12153615 95.10616411 73.12284368 96.30133307 C73.12448584 98.90843186 73.11899787 101.51546577 73.11352539 104.12255859 C73.11324322 105.99534097 73.11340184 107.86812345 73.1139679 109.74090576 C73.1142547 114.81891061 73.10837675 119.89689183 73.10139394 124.97489119 C73.09514105 130.2840103 73.09455507 135.59312997 73.09336853 140.9022522 C73.09026093 150.95310912 73.08205522 161.00395517 73.07201904 171.05480731 C73.06084019 182.49849992 73.05534298 193.94219305 73.05032361 205.38588977 C73.03987215 228.92393254 73.02228374 252.46196566 73 276 C71.89103363 276.00808685 70.78206726 276.01617371 69.63949585 276.02450562 C59.13643199 276.10233342 48.63349186 276.19016186 38.13059044 276.28752708 C32.7322682 276.33725671 27.33396335 276.3835869 21.93554688 276.421875 C16.71588324 276.45902493 11.49637398 276.50546124 6.27684402 276.55806351 C4.29560711 276.57645096 2.3143373 276.59161517 0.33304977 276.60334396 C-20.70410989 276.73221913 -39.11315013 277.9412216 -56 292 C-56.64582031 292.53238281 -57.29164062 293.06476563 -57.95703125 293.61328125 C-68.16258337 302.89733882 -74.55362096 316.31756596 -75.375 329.99609375 C-75.98639087 347.64480344 -72.36157668 361.67516432 -60.625 375.25 C-48.3726056 388.32058434 -33.36160606 394.31182429 -15.63476181 395.10595894 C-13.26000701 395.16010481 -10.88654022 395.18854729 -8.51123047 395.20532227 C-7.62219528 395.21522186 -6.7331601 395.22512146 -5.81718445 395.23532104 C-2.91721132 395.26657531 -0.01722189 395.29154868 2.8828125 395.31640625 C4.90876662 395.33700705 6.93471674 395.35800428 8.96066284 395.37937927 C14.26400494 395.43427741 19.56738372 395.48382743 24.87078857 395.53222656 C30.29410016 395.58267881 35.7173592 395.6382404 41.140625 395.69335938 C51.76037166 395.80054571 62.38016417 395.90207658 73 396 C73.04965192 399.4778126 73.07920927 402.95553207 73.10546875 406.43359375 C73.11960815 407.40695679 73.13374756 408.38031982 73.14831543 409.38317871 C73.30385346 436.93645327 59.25869235 461.35964821 40.50390625 480.5546875 C17.1711438 502.69973954 -11.56354859 508.80779896 -42.72460938 508.13183594 C-69.4945216 507.054335 -93.81534122 492.08740432 -111.8125 473.125 C-125.93089291 456.72352125 -137.09482161 434.08757691 -137.13422108 412.12423229 C-137.14090784 410.38730768 -137.14090784 410.38730768 -137.14772969 408.61529368 C-137.14754533 407.35257193 -137.14736097 406.08985018 -137.14717102 404.78886414 C-137.15047302 403.4263668 -137.1541993 402.06387044 -137.1583125 400.70137531 C-137.16830278 396.96242783 -137.1720445 393.22349641 -137.17470181 389.48453748 C-137.17861382 385.44950837 -137.18819165 381.41449186 -137.19691467 377.37947083 C-137.21665579 367.63616299 -137.22674319 357.89285416 -137.23564246 348.14953133 C-137.24003 343.55577526 -137.24539567 338.96202033 -137.25063133 334.36826515 C-137.26764273 319.08742735 -137.2821348 303.80659025 -137.28938007 288.52574444 C-137.29128982 284.56232896 -137.29321018 280.5989135 -137.29516602 276.63549805 C-137.29564976 275.65046623 -137.2961335 274.66543441 -137.2966319 273.65055314 C-137.30492434 257.70946242 -137.33024838 241.76844693 -137.36274669 225.82738902 C-137.39587493 209.44306569 -137.41383411 193.0587805 -137.41702431 176.67442352 C-137.41918429 167.48259014 -137.42785737 158.29086641 -137.45348549 149.09906578 C-137.47527154 141.26736523 -137.48320432 133.43580096 -137.47351871 125.60407355 C-137.46899652 121.6140692 -137.47073748 117.62434556 -137.49028015 113.63438034 C-137.63232186 82.92882628 -137.63232186 82.92882628 -133 69 C-132.62210485 67.83960048 -132.24420969 66.67920095 -131.85486317 65.48363781 C-122.90332901 39.32422667 -103.88446254 19.27504726 -79.81640625 6.28125 C-55.73104024 -5.50584548 -25.59801847 -8.6081832 0 0 Z M-67.984375 74.26953125 C-76.00737441 85.13789673 -77.0733929 96.92040045 -76 110 C-73.85130002 120.41198621 -67.37274748 130.44251569 -59 137 C-57.11353082 137.78866106 -55.22260525 138.56671918 -53.328125 139.3359375 C-49.75529512 141.24731699 -48.29156698 142.08517037 -47.0456543 145.99438477 C-46.76039767 149.68403255 -46.77973261 153.2404207 -46.9375 156.9375 C-46.97471367 159.42568319 -47.00487847 161.91398369 -47.02734375 164.40234375 C-47.0420874 165.55822998 -47.05683105 166.71411621 -47.07202148 167.9050293 C-46.94821738 173.22524849 -46.11748125 176.71059856 -42.5625 180.8125 C-37.94907617 184.75078863 -35.40981587 185.4454588 -29.5078125 185.31640625 C-25.80778087 184.84957983 -23.74186303 183.4743642 -21 181 C-17.12679521 175.79120735 -16.87977966 170.93080233 -17.0703125 164.59765625 C-17.08191406 162.76750977 -17.08191406 162.76750977 -17.09375 160.90039062 C-17.11455655 158.34508579 -17.17437491 155.78979681 -17.2734375 153.23632812 C-17.2577893 149.52966031 -17.13170216 146.53460794 -16 143 C-13.3851749 140.70399039 -11.00742385 139.47944861 -7.7878418 138.18432617 C0.2742893 134.75938547 5.18532509 126.52239633 9 119 C9.51240234 118.00806641 9.51240234 118.00806641 10.03515625 116.99609375 C13.84888034 107.9318472 13.47750144 95.14115489 10.375 85.9375 C4.85336225 73.37960858 -3.82510063 64.21919973 -16.5546875 58.875 C-35.8841957 51.95837087 -55.03933968 59.31032086 -67.984375 74.26953125 Z M-74 222 C-76.7579093 226.42376056 -76.64722237 230.942077 -76 236 C-73.83701163 240.40608743 -71.60319521 243.1987497 -67 245 C-61.95674616 245.68426057 -58.16923116 245.5739862 -53.5625 243.3125 C-50.20343988 240.28115306 -48.30644369 238.25860352 -47.68359375 233.66796875 C-47.41786348 227.95048191 -48.03152848 224.39749547 -52 220 C-55.79916666 216.64779412 -59.60068965 216.43211014 -64.4921875 216.578125 C-68.45823817 217.24531109 -71.28396195 219.06791347 -74 222 Z M-14 222 C-16.7579093 226.42376056 -16.64722237 230.942077 -16 236 C-13.83701163 240.40608743 -11.60319521 243.1987497 -7 245 C-1.95674616 245.68426057 1.83076884 245.5739862 6.4375 243.3125 C9.79656012 240.28115306 11.69355631 238.25860352 12.31640625 233.66796875 C12.58213652 227.95048191 11.96847152 224.39749547 8 220 C4.20083334 216.64779412 0.39931035 216.43211014 -4.4921875 216.578125 C-8.45823817 217.24531109 -11.28396195 219.06791347 -14 222 Z " fill="#000000" transform="translate(158,4)"/>
<path d="M0 0 C1.12628349 -0.00765109 2.25256697 -0.01530219 3.41298026 -0.02318513 C7.17140164 -0.04375462 10.92920676 -0.03587844 14.68766785 -0.02792358 C17.38872284 -0.03662166 20.08973331 -0.04686096 22.79077148 -0.05889893 C29.35691651 -0.08434339 35.92289777 -0.0879865 42.4890838 -0.0832984 C47.82917379 -0.07972591 53.16921425 -0.08324445 58.50929832 -0.09174728 C59.65127175 -0.09353285 59.65127175 -0.09353285 60.81631535 -0.09535449 C62.36316477 -0.09777811 63.91001419 -0.10020638 65.4568636 -0.10263924 C79.95007468 -0.12437159 94.4431926 -0.12007433 108.9364089 -0.10786955 C122.1777602 -0.09753486 135.41881708 -0.12003546 148.66011015 -0.15806599 C162.27487026 -0.19686762 175.88949124 -0.21332684 189.50430697 -0.20581949 C197.14053106 -0.20200189 204.77650466 -0.206907 212.41268349 -0.23524857 C218.91422063 -0.2591358 225.41535313 -0.26182032 231.91689614 -0.23766823 C235.2301882 -0.22593045 238.54213855 -0.22686116 241.85547638 -0.24767303 C268.75354031 -0.40440237 268.75354031 -0.40440237 278.47285175 8.2623806 C280.09788274 9.91254179 281.29196494 11.56072762 282.52043152 13.52139282 C282.93035339 14.14272095 283.34027527 14.76404907 283.76261902 15.40420532 C287.61069291 22.3838152 287.77097676 30.78184327 286.52043152 38.52139282 C283.80175256 47.10012182 279.36892676 53.17741776 271.59515268 57.62220323 C265.33928047 60.68719487 259.9386943 61.09294268 253.04086304 61.04278564 C251.91457955 61.05043674 250.78829607 61.05808783 249.62788278 61.06597078 C245.8694614 61.08654027 242.11165628 61.07866409 238.35319519 61.07070923 C235.65214019 61.07940731 232.95112973 61.08964661 230.25009155 61.10168457 C223.68394653 61.12712903 217.11796526 61.13077214 210.55177923 61.12608404 C205.21168924 61.12251155 199.87164879 61.1260301 194.53156471 61.13453293 C193.38959129 61.1363185 193.38959129 61.1363185 192.22454769 61.13814013 C190.67769826 61.14056376 189.13084884 61.14299202 187.58399943 61.14542489 C173.09078835 61.16715723 158.59767044 61.16285998 144.10445414 61.1506552 C130.86310283 61.1403205 117.62204596 61.16282111 104.38075288 61.20085163 C90.76599278 61.23965326 77.1513718 61.25611249 63.53655607 61.24860513 C55.90033198 61.24478754 48.26435837 61.24969264 40.62817955 61.27803421 C34.12664241 61.30192144 27.62550991 61.30460596 21.1239669 61.28045388 C17.81067484 61.2687161 14.49872448 61.2696468 11.18538666 61.29045868 C-15.71267727 61.44718801 -15.71267727 61.44718801 -25.43198872 52.78040504 C-27.0570197 51.13024386 -28.2511019 49.48205802 -29.47956848 47.52139282 C-29.88949036 46.9000647 -30.29941223 46.27873657 -30.72175598 45.63858032 C-34.56982987 38.65897044 -34.73011372 30.26094238 -33.47956848 22.52139282 C-30.76088953 13.94266382 -26.32806372 7.86536788 -18.55428964 3.42058241 C-12.29841743 0.35559077 -6.89783126 -0.05015704 0 0 Z " fill="#000000" transform="translate(144.4795684814453,309.4786071777344)"/>
<path d="M0 0 C1.4540625 1.2684375 1.4540625 1.2684375 2.9375 2.5625 C3.57816406 3.11421875 4.21882813 3.6659375 4.87890625 4.234375 C26.43458521 24.13192481 40.48031076 56.23817004 42.15722656 85.38110352 C42.30185333 89.60832082 42.32408325 93.83315168 42.3125 98.0625 C42.31195618 98.81095184 42.31141235 99.55940369 42.31085205 100.33053589 C42.2704208 112.45748402 41.39907957 123.87432702 37.9375 135.5625 C37.63199219 136.63177734 37.63199219 136.63177734 37.3203125 137.72265625 C30.75999928 160.03582034 17.72010222 183.38225726 -1.0625 197.5625 C-4.78238682 199.42244341 -9.00314381 199.0000354 -13.0625 198.5625 C-16.78898866 197.29273349 -19.40000373 195.35749553 -21.9375 192.3125 C-24.02578081 187.20781358 -24.7138003 182.75969726 -23.0625 177.5 C-21.43686233 173.71656524 -19.10908151 171.47886916 -16.14453125 168.6953125 C4.22292533 147.83108868 10.51708976 119.88475812 10.2109375 91.71875 C9.54407618 66.54968716 -2.14105326 44.29041729 -18.67578125 25.75390625 C-21.97474626 22.00729407 -24.01173469 18.72264075 -24.09375 13.6171875 C-23.71887933 8.68763819 -22.34439105 5.3765896 -19.0625 1.5625 C-13.35577469 -2.51373236 -6.29988918 -2.95709084 0 0 Z " fill="#000000" transform="translate(449.0625,76.4375)"/>
<path d="M0 0 C12.50122403 9.78063391 21.20778621 28.39287165 23.171875 43.69921875 C25.00548274 66.4006468 20.73226638 86.6877087 6.671875 104.94921875 C1.91715453 110.38201791 -2.18123971 113.17823514 -9.328125 114.19921875 C-14.39202049 113.47580511 -18.67614372 112.02601084 -22.22265625 108.19140625 C-25.21303788 103.64771684 -25.74811463 99.0104991 -24.828125 93.69921875 C-22.87463397 89.32339885 -20.31991465 86.04304546 -17.328125 82.32421875 C-8.79048671 71.60636811 -7.73737494 59.99032032 -8.828125 46.69921875 C-10.69263176 37.66435172 -15.74404237 30.2603723 -21.640625 23.32421875 C-24.90301775 19.40934745 -25.2402349 16.03931534 -25.16796875 11.1171875 C-24.5733549 6.88654414 -22.7177385 3.79991233 -19.828125 0.69921875 C-13.28340495 -3.17913387 -6.80646375 -3.75938405 0 0 Z " fill="#000000" transform="translate(407.828125,119.30078125)"/>
<path d="M0 0 C4.61581142 2.18643699 6.72864085 4.49599804 9 9 C9.82885269 14.54808604 9.7240695 19.47140883 7.3125 24.5625 C4.21064779 27.8320199 1.61649202 29.75850523 -2.90234375 30.43359375 C-9.05071801 30.44150672 -13.31314296 30.4465054 -18 26 C-21.88937897 20.55860924 -21.79042609 15.48149391 -21 9 C-16.63929544 -0.20593186 -9.3488659 -1.1401056 0 0 Z " fill="#000000" transform="translate(362,160)"/>
<path d="M0 0 C4.61581142 2.18643699 6.72864085 4.49599804 9 9 C9.82885269 14.54808604 9.7240695 19.47140883 7.3125 24.5625 C4.21064779 27.8320199 1.61649202 29.75850523 -2.90234375 30.43359375 C-9.05071801 30.44150672 -13.31314296 30.4465054 -18 26 C-21.88937897 20.55860924 -21.79042609 15.48149391 -21 9 C-16.63929544 -0.20593186 -9.3488659 -1.1401056 0 0 Z " fill="#000000" transform="translate(132,90)"/>
</svg>
