<?xml version="1.0" encoding="UTF-8"?>
<svg xmlns="http://www.w3.org/2000/svg" xmlns:xlink="http://www.w3.org/1999/xlink" width="72px" height="72px" viewBox="0 0 72 72" version="1.1">
<g id="surface1">
<path style=" stroke:none;fill-rule:nonzero;fill:rgb(0%,0%,0%);fill-opacity:1;" d="M 22.21875 0.5625 C 22.375 0.613281 22.527344 0.660156 22.6875 0.710938 C 26.515625 2.046875 29.484375 4.863281 31.253906 8.480469 C 31.992188 10.152344 32.507812 11.941406 32.5 13.773438 C 32.5 13.9375 32.5 13.9375 32.5 14.105469 C 32.5 14.472656 32.5 14.839844 32.5 15.203125 C 32.5 15.46875 32.5 15.730469 32.5 15.996094 C 32.5 16.707031 32.5 17.421875 32.5 18.136719 C 32.496094 18.882812 32.496094 19.628906 32.496094 20.375 C 32.496094 21.789062 32.496094 23.203125 32.496094 24.617188 C 32.492188 26.226562 32.492188 27.835938 32.492188 29.445312 C 32.488281 32.753906 32.488281 36.066406 32.484375 39.375 C 32.328125 39.375 32.171875 39.378906 32.011719 39.378906 C 30.535156 39.390625 29.058594 39.402344 27.582031 39.414062 C 26.820312 39.421875 26.0625 39.429688 25.304688 39.433594 C 24.570312 39.441406 23.835938 39.445312 23.101562 39.453125 C 22.824219 39.457031 22.542969 39.457031 22.265625 39.460938 C 19.308594 39.476562 16.71875 39.648438 14.34375 41.625 C 14.253906 41.699219 14.164062 41.773438 14.070312 41.851562 C 12.632812 43.15625 11.734375 45.042969 11.621094 46.96875 C 11.53125 49.449219 12.042969 51.421875 13.691406 53.332031 C 15.417969 55.171875 17.527344 56.011719 20.019531 56.125 C 20.355469 56.132812 20.6875 56.136719 21.023438 56.136719 C 21.148438 56.140625 21.273438 56.140625 21.402344 56.140625 C 21.808594 56.148438 22.214844 56.148438 22.625 56.152344 C 22.910156 56.15625 23.195312 56.160156 23.480469 56.164062 C 24.226562 56.171875 24.96875 56.175781 25.714844 56.183594 C 26.480469 56.191406 27.242188 56.199219 28.003906 56.207031 C 29.496094 56.222656 30.992188 56.234375 32.484375 56.25 C 32.492188 56.738281 32.496094 57.226562 32.5 57.71875 C 32.5 57.855469 32.503906 57.992188 32.503906 58.132812 C 32.527344 62.007812 30.550781 65.441406 27.914062 68.140625 C 24.632812 71.253906 20.59375 72.113281 16.210938 72.019531 C 12.445312 71.867188 9.027344 69.761719 6.496094 67.09375 C 4.507812 64.789062 2.941406 61.605469 2.933594 58.515625 C 2.933594 58.273438 2.933594 58.273438 2.933594 58.023438 C 2.933594 57.847656 2.933594 57.667969 2.933594 57.484375 C 2.933594 57.292969 2.929688 57.101562 2.929688 56.910156 C 2.929688 56.386719 2.929688 55.859375 2.929688 55.332031 C 2.929688 54.765625 2.925781 54.199219 2.925781 53.632812 C 2.921875 52.261719 2.921875 50.890625 2.921875 49.519531 C 2.917969 48.875 2.917969 48.230469 2.917969 47.582031 C 2.914062 45.433594 2.914062 43.285156 2.914062 41.136719 C 2.914062 40.578125 2.910156 40.023438 2.910156 39.464844 C 2.910156 39.324219 2.910156 39.1875 2.910156 39.042969 C 2.910156 36.804688 2.90625 34.5625 2.902344 32.320312 C 2.898438 30.015625 2.894531 27.710938 2.894531 25.40625 C 2.894531 24.113281 2.894531 22.820312 2.890625 21.53125 C 2.886719 20.429688 2.886719 19.328125 2.886719 18.226562 C 2.886719 17.664062 2.886719 17.101562 2.882812 16.542969 C 2.863281 12.222656 2.863281 12.222656 3.515625 10.265625 C 3.570312 10.101562 3.621094 9.9375 3.675781 9.769531 C 4.933594 6.09375 7.609375 3.273438 10.996094 1.445312 C 14.382812 -0.210938 18.617188 -0.648438 22.21875 0.5625 Z M 12.660156 11.007812 C 11.53125 12.535156 11.378906 14.191406 11.53125 16.03125 C 11.832031 17.496094 12.746094 18.90625 13.921875 19.828125 C 14.1875 19.9375 14.453125 20.046875 14.71875 20.15625 C 15.222656 20.425781 15.429688 20.542969 15.601562 21.09375 C 15.644531 21.613281 15.640625 22.113281 15.617188 22.632812 C 15.613281 22.980469 15.609375 23.332031 15.605469 23.679688 C 15.601562 23.84375 15.601562 24.007812 15.597656 24.175781 C 15.617188 24.921875 15.734375 25.414062 16.234375 25.988281 C 16.882812 26.542969 17.238281 26.640625 18.070312 26.621094 C 18.589844 26.558594 18.878906 26.363281 19.265625 26.015625 C 19.808594 25.28125 19.84375 24.601562 19.816406 23.710938 C 19.816406 23.453125 19.816406 23.453125 19.816406 23.1875 C 19.8125 22.828125 19.804688 22.46875 19.789062 22.113281 C 19.792969 21.589844 19.808594 21.167969 19.96875 20.671875 C 20.335938 20.347656 20.671875 20.175781 21.125 19.996094 C 22.257812 19.511719 22.949219 18.355469 23.484375 17.296875 C 23.554688 17.15625 23.554688 17.15625 23.628906 17.015625 C 24.167969 15.742188 24.113281 13.941406 23.679688 12.648438 C 22.902344 10.882812 21.679688 9.59375 19.890625 8.84375 C 17.171875 7.871094 14.480469 8.902344 12.660156 11.007812 Z M 11.8125 31.78125 C 11.425781 32.402344 11.441406 33.039062 11.53125 33.75 C 11.835938 34.371094 12.148438 34.761719 12.796875 35.015625 C 13.507812 35.113281 14.039062 35.097656 14.6875 34.777344 C 15.160156 34.351562 15.425781 34.066406 15.511719 33.421875 C 15.550781 32.617188 15.464844 32.117188 14.90625 31.5 C 14.371094 31.027344 13.835938 31 13.148438 31.019531 C 12.59375 31.113281 12.195312 31.367188 11.8125 31.78125 Z M 20.25 31.78125 C 19.863281 32.402344 19.878906 33.039062 19.96875 33.75 C 20.273438 34.371094 20.585938 34.761719 21.234375 35.015625 C 21.945312 35.113281 22.476562 35.097656 23.125 34.777344 C 23.597656 34.351562 23.863281 34.066406 23.949219 33.421875 C 23.988281 32.617188 23.902344 32.117188 23.34375 31.5 C 22.808594 31.027344 22.273438 31 21.585938 31.019531 C 21.03125 31.113281 20.632812 31.367188 20.25 31.78125 Z M 20.25 31.78125 "/>
<path style=" stroke:none;fill-rule:nonzero;fill:rgb(0%,0%,0%);fill-opacity:1;" d="M 20.316406 43.519531 C 20.476562 43.519531 20.632812 43.519531 20.796875 43.515625 C 21.324219 43.515625 21.855469 43.515625 22.382812 43.515625 C 22.761719 43.515625 23.140625 43.515625 23.523438 43.511719 C 24.445312 43.507812 25.367188 43.507812 26.292969 43.507812 C 27.042969 43.507812 27.792969 43.507812 28.546875 43.507812 C 28.707031 43.507812 28.707031 43.507812 28.871094 43.507812 C 29.085938 43.507812 29.304688 43.507812 29.523438 43.507812 C 31.558594 43.503906 33.597656 43.503906 35.636719 43.503906 C 37.5 43.507812 39.359375 43.503906 41.222656 43.5 C 43.136719 43.492188 45.050781 43.492188 46.964844 43.492188 C 48.039062 43.492188 49.113281 43.492188 50.1875 43.488281 C 51.101562 43.484375 52.015625 43.484375 52.929688 43.488281 C 53.398438 43.488281 53.863281 43.488281 54.328125 43.484375 C 58.109375 43.464844 58.109375 43.464844 59.476562 44.683594 C 59.707031 44.914062 59.875 45.144531 60.046875 45.421875 C 60.105469 45.507812 60.164062 45.597656 60.222656 45.6875 C 60.761719 46.667969 60.785156 47.847656 60.609375 48.9375 C 60.226562 50.144531 59.605469 51 58.511719 51.625 C 57.628906 52.054688 56.871094 52.113281 55.902344 52.105469 C 55.742188 52.105469 55.585938 52.105469 55.421875 52.109375 C 54.894531 52.109375 54.363281 52.109375 53.835938 52.109375 C 53.457031 52.109375 53.078125 52.109375 52.695312 52.113281 C 51.773438 52.117188 50.851562 52.117188 49.925781 52.117188 C 49.175781 52.117188 48.425781 52.117188 47.671875 52.117188 C 47.511719 52.117188 47.511719 52.117188 47.347656 52.117188 C 47.132812 52.117188 46.914062 52.117188 46.695312 52.117188 C 44.660156 52.121094 42.621094 52.121094 40.582031 52.121094 C 38.71875 52.117188 36.859375 52.121094 34.996094 52.125 C 33.082031 52.132812 31.167969 52.132812 29.253906 52.132812 C 28.179688 52.132812 27.105469 52.132812 26.03125 52.136719 C 25.117188 52.140625 24.203125 52.140625 23.289062 52.136719 C 22.820312 52.136719 22.355469 52.136719 21.890625 52.140625 C 18.109375 52.160156 18.109375 52.160156 16.742188 50.941406 C 16.511719 50.710938 16.34375 50.480469 16.171875 50.203125 C 16.113281 50.117188 16.054688 50.027344 15.996094 49.9375 C 15.457031 48.957031 15.433594 47.777344 15.609375 46.6875 C 15.992188 45.480469 16.613281 44.625 17.707031 44 C 18.589844 43.570312 19.347656 43.511719 20.316406 43.519531 Z M 20.316406 43.519531 "/>
<path style=" stroke:none;fill-rule:nonzero;fill:rgb(0%,0%,0%);fill-opacity:1;" d="M 63.148438 10.75 C 63.355469 10.925781 63.355469 10.925781 63.5625 11.109375 C 63.652344 11.1875 63.742188 11.265625 63.835938 11.34375 C 66.867188 14.140625 68.84375 18.65625 69.078125 22.753906 C 69.097656 23.351562 69.101562 23.945312 69.101562 24.539062 C 69.097656 24.644531 69.097656 24.75 69.097656 24.859375 C 69.09375 26.5625 68.972656 28.167969 68.484375 29.8125 C 68.441406 29.960938 68.441406 29.960938 68.398438 30.117188 C 67.476562 33.253906 65.640625 36.539062 63 38.53125 C 62.476562 38.792969 61.882812 38.734375 61.3125 38.671875 C 60.789062 38.492188 60.421875 38.222656 60.0625 37.792969 C 59.769531 37.074219 59.675781 36.449219 59.90625 35.710938 C 60.136719 35.179688 60.460938 34.863281 60.878906 34.472656 C 63.742188 31.539062 64.628906 27.609375 64.585938 23.648438 C 64.492188 20.109375 62.847656 16.976562 60.523438 14.371094 C 60.058594 13.84375 59.773438 13.382812 59.761719 12.664062 C 59.8125 11.972656 60.007812 11.503906 60.46875 10.96875 C 61.269531 10.394531 62.261719 10.332031 63.148438 10.75 Z M 63.148438 10.75 "/>
<path style=" stroke:none;fill-rule:nonzero;fill:rgb(0%,0%,0%);fill-opacity:1;" d="M 57.351562 16.777344 C 59.109375 18.152344 60.332031 20.769531 60.609375 22.921875 C 60.867188 26.113281 60.265625 28.96875 58.289062 31.535156 C 57.621094 32.300781 57.042969 32.691406 56.039062 32.835938 C 55.328125 32.734375 54.722656 32.53125 54.226562 31.992188 C 53.804688 31.351562 53.730469 30.699219 53.859375 29.953125 C 54.132812 29.335938 54.492188 28.875 54.914062 28.351562 C 56.113281 26.847656 56.261719 25.210938 56.109375 23.34375 C 55.847656 22.074219 55.136719 21.03125 54.308594 20.054688 C 53.847656 19.507812 53.800781 19.03125 53.8125 18.339844 C 53.894531 17.746094 54.15625 17.3125 54.5625 16.875 C 55.484375 16.328125 56.394531 16.246094 57.351562 16.777344 Z M 57.351562 16.777344 "/>
<path style=" stroke:none;fill-rule:nonzero;fill:rgb(0%,0%,0%);fill-opacity:1;" d="M 50.90625 22.5 C 51.554688 22.808594 51.851562 23.132812 52.171875 23.765625 C 52.289062 24.546875 52.273438 25.238281 51.933594 25.953125 C 51.5 26.414062 51.132812 26.683594 50.5 26.78125 C 49.632812 26.78125 49.035156 26.78125 48.375 26.15625 C 47.828125 25.390625 47.84375 24.675781 47.953125 23.765625 C 48.566406 22.472656 49.589844 22.339844 50.90625 22.5 Z M 50.90625 22.5 "/>
<path style=" stroke:none;fill-rule:nonzero;fill:rgb(0%,0%,0%);fill-opacity:1;" d="M 18.5625 12.65625 C 19.210938 12.964844 19.507812 13.289062 19.828125 13.921875 C 19.945312 14.703125 19.929688 15.394531 19.589844 16.109375 C 19.15625 16.570312 18.789062 16.839844 18.15625 16.9375 C 17.289062 16.9375 16.691406 16.9375 16.03125 16.3125 C 15.484375 15.546875 15.5 14.832031 15.609375 13.921875 C 16.222656 12.628906 17.246094 12.496094 18.5625 12.65625 Z M 18.5625 12.65625 "/>
</g>
</svg>
