<?xml version="1.0" encoding="UTF-8"?>
<svg xmlns="http://www.w3.org/2000/svg" xmlns:xlink="http://www.w3.org/1999/xlink" width="72px" height="72px" viewBox="0 0 72 72" version="1.1">
<g id="surface1">
<path style=" stroke:none;fill-rule:nonzero;fill:rgb(0%,0%,0%);fill-opacity:1;" d="M 8.46875 40.433594 C 8.585938 40.433594 8.703125 40.429688 8.824219 40.429688 C 9.21875 40.429688 9.613281 40.433594 10.011719 40.4375 C 10.292969 40.4375 10.574219 40.4375 10.859375 40.4375 C 11.625 40.4375 12.394531 40.4375 13.164062 40.441406 C 13.964844 40.445312 14.765625 40.445312 15.570312 40.449219 C 17.089844 40.449219 18.609375 40.453125 20.128906 40.460938 C 21.859375 40.464844 23.589844 40.46875 25.320312 40.472656 C 28.878906 40.476562 32.441406 40.488281 36 40.5 C 36.015625 40.605469 36.03125 40.714844 36.046875 40.824219 C 36.070312 40.964844 36.089844 41.101562 36.113281 41.246094 C 36.136719 41.386719 36.15625 41.523438 36.179688 41.667969 C 36.289062 42.070312 36.378906 42.214844 36.703125 42.46875 C 36.957031 42.605469 36.957031 42.605469 37.222656 42.707031 C 37.375 42.765625 37.527344 42.828125 37.6875 42.890625 C 37.613281 43.007812 37.542969 43.128906 37.46875 43.25 C 37.222656 43.839844 37.253906 44.101562 37.40625 44.71875 C 37.640625 45.03125 37.847656 45.277344 38.125 45.546875 C 38.195312 45.621094 38.269531 45.695312 38.34375 45.769531 C 38.496094 45.921875 38.648438 46.074219 38.804688 46.226562 C 39.039062 46.457031 39.269531 46.695312 39.5 46.929688 C 39.652344 47.078125 39.800781 47.226562 39.953125 47.375 C 40.019531 47.445312 40.089844 47.515625 40.160156 47.589844 C 40.667969 48.078125 41.0625 48.214844 41.765625 48.234375 C 42.238281 48.050781 42.238281 48.050781 42.609375 47.8125 C 42.640625 47.902344 42.675781 47.988281 42.707031 48.078125 C 42.96875 48.78125 42.96875 48.78125 43.488281 49.289062 C 43.988281 49.378906 44.496094 49.4375 45 49.5 C 45 53.953125 45 58.410156 45 63 C 43.308594 63.011719 43.308594 63.011719 41.578125 63.019531 C 40.863281 63.027344 40.148438 63.03125 39.4375 63.035156 C 38.300781 63.042969 37.167969 63.054688 36.03125 63.058594 C 35.117188 63.066406 34.203125 63.070312 33.289062 63.078125 C 32.9375 63.082031 32.589844 63.082031 32.242188 63.085938 C 31.753906 63.085938 31.265625 63.089844 30.777344 63.097656 C 30.632812 63.097656 30.484375 63.097656 30.335938 63.097656 C 30.203125 63.097656 30.070312 63.101562 29.933594 63.101562 C 29.816406 63.101562 29.703125 63.101562 29.582031 63.105469 C 29.183594 63.148438 28.898438 63.226562 28.546875 63.421875 C 28.453125 63.652344 28.359375 63.886719 28.265625 64.125 C 26.6875 64.125 25.109375 64.125 23.484375 64.125 C 23.34375 63.777344 23.34375 63.777344 23.203125 63.421875 C 22.742188 63.164062 22.339844 63.105469 21.816406 63.101562 C 21.683594 63.101562 21.550781 63.097656 21.414062 63.097656 C 21.269531 63.097656 21.125 63.097656 20.972656 63.097656 C 20.820312 63.09375 20.667969 63.09375 20.507812 63.089844 C 20 63.085938 19.492188 63.085938 18.984375 63.082031 C 18.632812 63.078125 18.28125 63.078125 17.929688 63.074219 C 17.097656 63.066406 16.265625 63.0625 15.433594 63.058594 C 14.394531 63.050781 13.355469 63.042969 12.3125 63.035156 C 10.460938 63.023438 8.605469 63.011719 6.75 63 C 6.738281 60.148438 6.726562 57.300781 6.722656 54.449219 C 6.71875 53.125 6.714844 51.800781 6.707031 50.476562 C 6.703125 49.324219 6.699219 48.171875 6.695312 47.015625 C 6.695312 46.40625 6.695312 45.796875 6.691406 45.183594 C 6.6875 44.609375 6.683594 44.035156 6.6875 43.460938 C 6.6875 43.25 6.683594 43.039062 6.683594 42.828125 C 6.679688 42.539062 6.679688 42.25 6.683594 41.964844 C 6.683594 41.800781 6.679688 41.640625 6.679688 41.472656 C 6.75 41.0625 6.75 41.0625 6.964844 40.730469 C 7.453125 40.40625 7.902344 40.425781 8.46875 40.433594 Z M 20.25 50.625 C 20.25 51.367188 20.25 52.109375 20.25 52.875 C 20.992188 52.875 21.734375 52.875 22.5 52.875 C 22.5 52.132812 22.5 51.390625 22.5 50.625 C 21.757812 50.625 21.015625 50.625 20.25 50.625 Z M 24.75 50.625 C 24.75 51.367188 24.75 52.109375 24.75 52.875 C 25.492188 52.875 26.234375 52.875 27 52.875 C 27 52.132812 27 51.390625 27 50.625 C 26.257812 50.625 25.515625 50.625 24.75 50.625 Z M 29.25 50.625 C 29.25 51.367188 29.25 52.109375 29.25 52.875 C 29.992188 52.875 30.734375 52.875 31.5 52.875 C 31.5 52.132812 31.5 51.390625 31.5 50.625 C 30.757812 50.625 30.015625 50.625 29.25 50.625 Z M 29.25 50.625 "/>
<path style=" stroke:none;fill-rule:nonzero;fill:rgb(0%,0%,0%);fill-opacity:1;" d="M 46.652344 15.378906 C 47.292969 15.917969 47.890625 16.5 48.441406 17.132812 C 48.773438 17.46875 48.773438 17.46875 49.207031 17.519531 C 49.753906 17.417969 50.101562 17.164062 50.527344 16.832031 C 52.050781 15.730469 53.414062 15.566406 55.265625 15.75 C 56.777344 16.050781 57.960938 16.984375 58.851562 18.222656 C 59.890625 19.894531 59.804688 21.898438 59.472656 23.785156 C 59.460938 24.0625 59.460938 24.0625 59.667969 24.285156 C 60.136719 24.644531 60.582031 24.628906 61.152344 24.632812 C 61.3125 24.636719 61.476562 24.640625 61.644531 24.644531 C 61.988281 24.648438 62.332031 24.65625 62.671875 24.65625 C 64.070312 24.691406 65.253906 24.941406 66.300781 25.917969 C 67.339844 27.074219 67.582031 28.296875 67.542969 29.8125 C 67.476562 30.992188 66.96875 31.980469 66.09375 32.765625 C 65.199219 33.4375 64.328125 33.769531 63.199219 33.832031 C 63.019531 33.839844 62.835938 33.851562 62.652344 33.859375 C 61.925781 33.894531 61.199219 33.917969 60.476562 33.933594 C 59.929688 33.945312 59.382812 33.964844 58.835938 34 C 54.941406 34.234375 54.941406 34.234375 53.597656 33.050781 C 52.917969 32.417969 52.335938 31.703125 51.785156 30.953125 C 51.363281 30.558594 51.054688 30.535156 50.484375 30.515625 C 50.011719 30.699219 50.011719 30.699219 49.640625 30.9375 C 49.609375 30.847656 49.574219 30.761719 49.542969 30.671875 C 49.496094 30.554688 49.449219 30.441406 49.402344 30.324219 C 49.359375 30.207031 49.316406 30.09375 49.269531 29.976562 C 49.015625 29.574219 48.828125 29.53125 48.375 29.390625 C 47.882812 29.347656 47.882812 29.347656 47.347656 29.351562 C 47.25 29.351562 47.152344 29.351562 47.050781 29.351562 C 46.847656 29.351562 46.644531 29.351562 46.4375 29.355469 C 46.125 29.355469 45.8125 29.355469 45.503906 29.351562 C 45.300781 29.351562 45.101562 29.351562 44.902344 29.351562 C 44.632812 29.355469 44.632812 29.355469 44.355469 29.355469 C 43.894531 29.390625 43.582031 29.457031 43.171875 29.671875 C 42.96875 29.972656 42.96875 29.972656 42.847656 30.324219 C 42.800781 30.4375 42.753906 30.550781 42.707031 30.671875 C 42.675781 30.757812 42.644531 30.847656 42.609375 30.9375 C 42.492188 30.863281 42.371094 30.792969 42.25 30.71875 C 41.808594 30.535156 41.53125 30.441406 41.058594 30.523438 C 40.664062 30.714844 40.484375 30.988281 40.21875 31.339844 C 39.273438 32.585938 38.328125 33.722656 36.707031 33.976562 C 35.167969 34.140625 33.621094 34.066406 32.082031 33.996094 C 31.539062 33.972656 30.996094 33.964844 30.449219 33.957031 C 29.796875 33.945312 29.140625 33.929688 28.488281 33.914062 C 28.363281 33.910156 28.242188 33.90625 28.117188 33.902344 C 26.46875 33.855469 24.96875 33.769531 23.699219 32.582031 C 22.660156 31.425781 22.417969 30.203125 22.457031 28.6875 C 22.523438 27.507812 23.03125 26.519531 23.90625 25.734375 C 25.214844 24.75 26.4375 24.703125 28.03125 24.671875 C 28.175781 24.667969 28.320312 24.660156 28.472656 24.65625 C 28.605469 24.65625 28.738281 24.652344 28.875 24.648438 C 29.28125 24.605469 29.585938 24.511719 29.953125 24.328125 C 30.289062 23.761719 30.300781 23.132812 30.355469 22.492188 C 30.667969 19.558594 32.082031 17.324219 34.277344 15.425781 C 37.769531 12.761719 43.15625 12.648438 46.652344 15.378906 Z M 46.652344 15.378906 "/>
<path style=" stroke:none;fill-rule:nonzero;fill:rgb(0%,0%,0%);fill-opacity:1;" d="M 28.652344 6.378906 C 29.292969 6.917969 29.890625 7.5 30.441406 8.132812 C 30.773438 8.46875 30.773438 8.46875 31.207031 8.519531 C 31.753906 8.417969 32.101562 8.164062 32.527344 7.832031 C 34.050781 6.730469 35.414062 6.566406 37.265625 6.75 C 38.785156 7.050781 39.941406 7.988281 40.851562 9.214844 C 41.234375 9.84375 41.625 10.640625 41.625 11.390625 C 41.441406 11.394531 41.261719 11.394531 41.074219 11.398438 C 37.191406 11.480469 34.0625 12.671875 31.332031 15.496094 C 29.566406 17.503906 28.777344 19.921875 28.265625 22.5 C 28.101562 22.515625 27.9375 22.527344 27.769531 22.542969 C 25.835938 22.71875 23.804688 22.984375 22.449219 24.550781 C 22.160156 24.800781 22.011719 24.804688 21.632812 24.804688 C 21.515625 24.804688 21.394531 24.808594 21.273438 24.808594 C 21.140625 24.808594 21.011719 24.808594 20.875 24.808594 C 20.667969 24.808594 20.667969 24.808594 20.460938 24.808594 C 20.003906 24.8125 19.546875 24.8125 19.089844 24.8125 C 18.773438 24.8125 18.453125 24.8125 18.136719 24.8125 C 17.46875 24.816406 16.800781 24.8125 16.136719 24.8125 C 15.285156 24.8125 14.429688 24.8125 13.578125 24.816406 C 12.921875 24.820312 12.265625 24.820312 11.609375 24.820312 C 11.296875 24.820312 10.980469 24.820312 10.667969 24.824219 C 10.226562 24.824219 9.785156 24.824219 9.34375 24.820312 C 9.152344 24.824219 9.152344 24.824219 8.957031 24.824219 C 7.71875 24.8125 6.613281 24.4375 5.699219 23.582031 C 4.660156 22.425781 4.417969 21.203125 4.457031 19.6875 C 4.523438 18.507812 5.03125 17.519531 5.90625 16.734375 C 7.214844 15.75 8.4375 15.703125 10.03125 15.671875 C 10.175781 15.667969 10.320312 15.660156 10.472656 15.65625 C 10.605469 15.65625 10.738281 15.652344 10.875 15.648438 C 11.28125 15.605469 11.585938 15.511719 11.953125 15.328125 C 12.289062 14.761719 12.300781 14.132812 12.355469 13.492188 C 12.667969 10.558594 14.082031 8.324219 16.277344 6.425781 C 19.769531 3.761719 25.15625 3.648438 28.652344 6.378906 Z M 28.652344 6.378906 "/>
<path style=" stroke:none;fill-rule:nonzero;fill:rgb(0%,0%,0%);fill-opacity:1;" d="M 44.992188 31.484375 C 45.109375 31.484375 45.226562 31.484375 45.347656 31.484375 C 45.472656 31.488281 45.601562 31.488281 45.730469 31.488281 C 45.929688 31.488281 45.929688 31.488281 46.132812 31.492188 C 46.265625 31.492188 46.402344 31.492188 46.539062 31.492188 C 46.871094 31.496094 47.199219 31.496094 47.53125 31.5 C 47.558594 31.585938 47.585938 31.667969 47.613281 31.757812 C 47.667969 31.925781 47.667969 31.925781 47.726562 32.097656 C 47.761719 32.207031 47.796875 32.320312 47.832031 32.433594 C 48.035156 33.066406 48.035156 33.066406 48.515625 33.46875 C 49.261719 33.574219 49.636719 33.332031 50.214844 32.90625 C 50.484375 32.765625 50.484375 32.765625 50.757812 32.804688 C 51.082031 32.917969 51.230469 33.042969 51.472656 33.289062 C 51.582031 33.402344 51.582031 33.402344 51.695312 33.519531 C 51.773438 33.597656 51.847656 33.675781 51.925781 33.757812 C 52.003906 33.839844 52.082031 33.917969 52.160156 34 C 52.355469 34.199219 52.542969 34.394531 52.734375 34.59375 C 52.597656 35.03125 52.476562 35.402344 52.226562 35.789062 C 51.984375 36.226562 51.96875 36.492188 52.03125 36.984375 C 52.347656 37.402344 52.675781 37.503906 53.175781 37.632812 C 53.847656 37.816406 53.847656 37.816406 54 37.96875 C 54.011719 38.179688 54.015625 38.386719 54.015625 38.597656 C 54.011719 38.789062 54.011719 38.789062 54.011719 38.980469 C 54.011719 39.179688 54.011719 39.179688 54.007812 39.382812 C 54.007812 39.515625 54.007812 39.652344 54.007812 39.789062 C 54.003906 40.121094 54.003906 40.449219 54 40.78125 C 53.914062 40.808594 53.832031 40.835938 53.742188 40.863281 C 53.628906 40.898438 53.519531 40.9375 53.402344 40.972656 C 53.292969 41.011719 53.179688 41.046875 53.066406 41.082031 C 52.433594 41.285156 52.433594 41.285156 52.03125 41.765625 C 51.917969 42.53125 52.199219 42.957031 52.609375 43.574219 C 52.734375 43.875 52.734375 43.875 52.664062 44.144531 C 52.371094 44.550781 52.023438 44.898438 51.664062 45.246094 C 51.589844 45.316406 51.515625 45.386719 51.441406 45.460938 C 51.265625 45.636719 51.085938 45.8125 50.90625 45.984375 C 50.46875 45.847656 50.097656 45.726562 49.710938 45.472656 C 49.273438 45.234375 49.007812 45.21875 48.515625 45.28125 C 48.097656 45.597656 47.996094 45.925781 47.867188 46.421875 C 47.683594 47.097656 47.683594 47.097656 47.53125 47.25 C 47.320312 47.261719 47.113281 47.265625 46.902344 47.265625 C 46.777344 47.261719 46.648438 47.261719 46.519531 47.261719 C 46.320312 47.261719 46.320312 47.261719 46.117188 47.257812 C 45.984375 47.257812 45.847656 47.257812 45.710938 47.257812 C 45.378906 47.253906 45.050781 47.253906 44.71875 47.25 C 44.691406 47.164062 44.664062 47.082031 44.636719 46.992188 C 44.601562 46.878906 44.5625 46.769531 44.527344 46.652344 C 44.488281 46.542969 44.453125 46.429688 44.417969 46.316406 C 44.214844 45.683594 44.214844 45.683594 43.734375 45.28125 C 42.96875 45.167969 42.542969 45.449219 41.925781 45.859375 C 41.625 45.984375 41.625 45.984375 41.355469 45.914062 C 40.949219 45.621094 40.601562 45.273438 40.253906 44.910156 C 40.183594 44.839844 40.113281 44.765625 40.039062 44.691406 C 39.863281 44.515625 39.6875 44.335938 39.515625 44.15625 C 39.652344 43.71875 39.773438 43.347656 40.027344 42.960938 C 40.265625 42.523438 40.28125 42.257812 40.21875 41.765625 C 39.902344 41.347656 39.574219 41.246094 39.078125 41.113281 C 38.402344 40.933594 38.402344 40.933594 38.25 40.78125 C 38.238281 40.570312 38.234375 40.363281 38.234375 40.152344 C 38.238281 40.027344 38.238281 39.898438 38.238281 39.769531 C 38.238281 39.636719 38.238281 39.503906 38.242188 39.367188 C 38.242188 39.234375 38.242188 39.097656 38.242188 38.960938 C 38.246094 38.628906 38.246094 38.300781 38.25 37.96875 C 38.335938 37.941406 38.417969 37.914062 38.507812 37.886719 C 38.675781 37.832031 38.675781 37.832031 38.847656 37.773438 C 38.957031 37.738281 39.070312 37.703125 39.183594 37.667969 C 39.816406 37.464844 39.816406 37.464844 40.21875 36.984375 C 40.332031 36.21875 40.050781 35.792969 39.640625 35.175781 C 39.515625 34.875 39.515625 34.875 39.589844 34.605469 C 39.875 34.203125 40.203125 33.847656 40.554688 33.496094 C 40.621094 33.421875 40.6875 33.351562 40.757812 33.277344 C 40.960938 33.070312 40.960938 33.070312 41.34375 32.765625 C 41.789062 32.777344 41.988281 32.957031 42.382812 33.195312 C 42.847656 33.472656 43.183594 33.554688 43.734375 33.46875 C 44.148438 33.148438 44.253906 32.824219 44.386719 32.324219 C 44.605469 31.507812 44.605469 31.507812 44.992188 31.484375 Z M 42.699219 36.464844 C 42.570312 36.632812 42.445312 36.808594 42.328125 36.984375 C 42.269531 37.070312 42.210938 37.160156 42.152344 37.25 C 41.613281 38.234375 41.589844 39.410156 41.765625 40.5 C 42.195312 41.890625 43.039062 42.828125 44.304688 43.515625 C 45.410156 43.957031 46.761719 43.910156 47.875 43.515625 C 49.054688 42.953125 49.828125 42.117188 50.34375 40.921875 C 50.71875 39.777344 50.617188 38.378906 50.105469 37.300781 C 49.367188 36.035156 48.328125 35.308594 46.910156 34.921875 C 45.320312 34.679688 43.78125 35.296875 42.699219 36.464844 Z M 42.699219 36.464844 "/>
<path style=" stroke:none;fill-rule:nonzero;fill:rgb(0%,0%,0%);fill-opacity:1;" d="M 4.78125 65.25 C 10.304688 65.25 15.824219 65.25 21.515625 65.25 C 21.65625 65.597656 21.65625 65.597656 21.796875 65.953125 C 22.261719 66.210938 22.660156 66.269531 23.1875 66.269531 C 23.386719 66.273438 23.386719 66.273438 23.589844 66.273438 C 23.734375 66.273438 23.875 66.273438 24.019531 66.273438 C 24.242188 66.273438 24.242188 66.273438 24.464844 66.273438 C 24.777344 66.273438 25.085938 66.273438 25.398438 66.269531 C 25.875 66.269531 26.347656 66.269531 26.824219 66.273438 C 27.125 66.273438 27.425781 66.273438 27.730469 66.273438 C 27.941406 66.273438 27.941406 66.273438 28.160156 66.273438 C 28.359375 66.273438 28.359375 66.273438 28.5625 66.269531 C 28.734375 66.269531 28.734375 66.269531 28.914062 66.269531 C 29.316406 66.226562 29.597656 66.152344 29.953125 65.953125 C 30.046875 65.722656 30.140625 65.488281 30.234375 65.25 C 35.757812 65.25 41.277344 65.25 46.96875 65.25 C 46.6875 66.9375 46.6875 66.9375 46.125 67.5 C 45.796875 67.570312 45.796875 67.570312 45.425781 67.570312 C 45.210938 67.574219 45.210938 67.574219 44.996094 67.574219 C 44.839844 67.574219 44.683594 67.574219 44.523438 67.570312 C 44.277344 67.574219 44.277344 67.574219 44.023438 67.574219 C 43.5625 67.574219 43.101562 67.574219 42.644531 67.574219 C 42.148438 67.570312 41.652344 67.574219 41.15625 67.574219 C 40.1875 67.578125 39.214844 67.578125 38.246094 67.574219 C 37.457031 67.574219 36.667969 67.574219 35.878906 67.574219 C 35.769531 67.574219 35.65625 67.574219 35.539062 67.574219 C 35.3125 67.574219 35.085938 67.574219 34.855469 67.574219 C 32.71875 67.578125 30.582031 67.574219 28.445312 67.574219 C 26.609375 67.570312 24.773438 67.570312 22.941406 67.574219 C 20.808594 67.578125 18.679688 67.578125 16.550781 67.574219 C 16.324219 67.574219 16.097656 67.574219 15.871094 67.574219 C 15.757812 67.574219 15.644531 67.574219 15.53125 67.574219 C 14.742188 67.574219 13.957031 67.574219 13.167969 67.578125 C 12.207031 67.578125 11.246094 67.578125 10.289062 67.574219 C 9.796875 67.574219 9.308594 67.574219 8.816406 67.574219 C 8.289062 67.574219 7.757812 67.574219 7.226562 67.570312 C 7.070312 67.574219 6.914062 67.574219 6.753906 67.574219 C 6.613281 67.574219 6.472656 67.574219 6.324219 67.570312 C 6.203125 67.570312 6.082031 67.570312 5.953125 67.570312 C 5.625 67.5 5.625 67.5 5.0625 66.9375 C 4.96875 66.378906 4.875 65.824219 4.78125 65.25 Z M 4.78125 65.25 "/>
<path style=" stroke:none;fill-rule:nonzero;fill:rgb(0%,0%,0%);fill-opacity:1;" d="M 61.875 38.25 C 62.617188 38.25 63.359375 38.25 64.125 38.25 C 64.136719 40.148438 64.148438 42.046875 64.152344 43.945312 C 64.15625 44.828125 64.160156 45.707031 64.167969 46.589844 C 64.171875 47.441406 64.175781 48.292969 64.179688 49.144531 C 64.179688 49.46875 64.179688 49.792969 64.183594 50.117188 C 64.1875 50.574219 64.1875 51.027344 64.1875 51.484375 C 64.191406 51.617188 64.191406 51.75 64.195312 51.886719 C 64.183594 53.433594 63.644531 54.710938 62.578125 55.828125 C 61.039062 57.296875 59.398438 57.457031 57.367188 57.429688 C 57.140625 57.429688 56.914062 57.429688 56.683594 57.425781 C 56.089844 57.425781 55.496094 57.417969 54.902344 57.414062 C 54.292969 57.40625 53.683594 57.40625 53.074219 57.402344 C 51.882812 57.394531 50.691406 57.386719 49.5 57.375 C 49.5 56.632812 49.5 55.890625 49.5 55.125 C 49.765625 55.121094 50.03125 55.121094 50.304688 55.117188 C 51.1875 55.105469 52.070312 55.097656 52.953125 55.085938 C 53.488281 55.078125 54.023438 55.070312 54.558594 55.066406 C 55.078125 55.058594 55.59375 55.054688 56.109375 55.046875 C 56.308594 55.042969 56.503906 55.042969 56.699219 55.039062 C 58.9375 55.050781 58.9375 55.050781 60.808594 53.941406 C 61.730469 52.894531 61.753906 51.742188 61.761719 50.414062 C 61.765625 50.28125 61.765625 50.152344 61.765625 50.015625 C 61.773438 49.582031 61.773438 49.148438 61.777344 48.714844 C 61.78125 48.414062 61.785156 48.113281 61.789062 47.808594 C 61.796875 47.019531 61.800781 46.226562 61.808594 45.433594 C 61.816406 44.625 61.824219 43.816406 61.832031 43.007812 C 61.847656 41.421875 61.859375 39.835938 61.875 38.25 Z M 61.875 38.25 "/>
<path style=" stroke:none;fill-rule:nonzero;fill:rgb(0%,0%,0%);fill-opacity:1;" d="M 46.96875 37.125 C 47.65625 37.445312 48.054688 37.84375 48.375 38.53125 C 48.480469 39.320312 48.484375 39.984375 48.148438 40.710938 C 47.503906 41.386719 47.066406 41.660156 46.125 41.695312 C 45.183594 41.660156 44.746094 41.386719 44.101562 40.710938 C 43.765625 39.984375 43.769531 39.320312 43.875 38.53125 C 44.503906 37.175781 45.582031 36.9375 46.96875 37.125 Z M 46.96875 37.125 "/>
</g>
</svg>
