<?xml version="1.0" encoding="UTF-8"?>
<svg xmlns="http://www.w3.org/2000/svg" xmlns:xlink="http://www.w3.org/1999/xlink" width="72px" height="72px" viewBox="0 0 72 72" version="1.1">
<g id="surface1">
<path style=" stroke:none;fill-rule:nonzero;fill:rgb(0%,0%,0%);fill-opacity:1;" d="M 65.105469 35.355469 C 67.296875 37.226562 69.328125 39.953125 69.640625 42.917969 C 69.613281 43.417969 69.449219 43.613281 69.101562 43.964844 C 68.617188 44.347656 68.238281 44.382812 67.621094 44.382812 C 67.523438 44.386719 67.425781 44.386719 67.324219 44.386719 C 66.996094 44.390625 66.671875 44.386719 66.347656 44.382812 C 66.113281 44.382812 65.875 44.382812 65.640625 44.386719 C 65.007812 44.386719 64.371094 44.386719 63.734375 44.382812 C 63.070312 44.378906 62.402344 44.378906 61.738281 44.378906 C 60.621094 44.378906 59.503906 44.378906 58.386719 44.375 C 57.09375 44.367188 55.800781 44.367188 54.511719 44.367188 C 53.265625 44.367188 52.023438 44.367188 50.78125 44.363281 C 50.253906 44.363281 49.722656 44.363281 49.195312 44.363281 C 48.570312 44.363281 47.949219 44.359375 47.328125 44.359375 C 47.097656 44.355469 46.871094 44.355469 46.640625 44.355469 C 46.328125 44.355469 46.015625 44.355469 45.707031 44.351562 C 45.53125 44.351562 45.355469 44.351562 45.175781 44.351562 C 44.679688 44.292969 44.414062 44.167969 44.015625 43.875 C 43.632812 43.378906 43.683594 42.785156 43.734375 42.1875 C 43.824219 41.808594 43.957031 41.453125 44.101562 41.089844 C 44.140625 40.992188 44.179688 40.894531 44.21875 40.792969 C 45.542969 37.507812 47.933594 35.015625 51.125 33.496094 C 55.789062 31.523438 61.152344 32.113281 65.105469 35.355469 Z M 65.105469 35.355469 "/>
<path style=" stroke:none;fill-rule:nonzero;fill:rgb(0%,0%,0%);fill-opacity:1;" d="M 24.261719 25.960938 C 24.421875 25.960938 24.582031 25.960938 24.746094 25.957031 C 25.273438 25.957031 25.804688 25.957031 26.332031 25.960938 C 26.699219 25.960938 27.070312 25.957031 27.4375 25.957031 C 28.207031 25.957031 28.980469 25.957031 29.75 25.960938 C 30.640625 25.964844 31.53125 25.960938 32.417969 25.960938 C 33.277344 25.957031 34.136719 25.957031 34.996094 25.960938 C 35.359375 25.960938 35.722656 25.960938 36.085938 25.957031 C 36.597656 25.957031 37.105469 25.957031 37.613281 25.960938 C 37.765625 25.960938 37.914062 25.960938 38.070312 25.957031 C 38.984375 25.964844 39.742188 26.027344 40.464844 26.648438 C 41.027344 27.394531 41.085938 27.9375 41.089844 28.84375 C 41.089844 29.019531 41.089844 29.019531 41.09375 29.195312 C 41.097656 29.582031 41.097656 29.964844 41.101562 30.351562 C 41.101562 30.480469 41.101562 30.613281 41.101562 30.75 C 41.105469 31.445312 41.109375 32.144531 41.113281 32.839844 C 41.113281 33.417969 41.117188 33.992188 41.125 34.566406 C 41.128906 35.265625 41.132812 35.960938 41.132812 36.65625 C 41.136719 36.921875 41.136719 37.1875 41.140625 37.449219 C 41.144531 37.824219 41.144531 38.195312 41.144531 38.566406 C 41.148438 38.675781 41.148438 38.78125 41.152344 38.894531 C 41.140625 39.714844 40.902344 40.300781 40.359375 40.921875 C 39.738281 41.355469 39.25 41.390625 38.503906 41.367188 C 38.300781 41.363281 38.097656 41.355469 37.894531 41.351562 C 37.734375 41.347656 37.734375 41.347656 37.574219 41.339844 C 37 41.324219 36.429688 41.320312 35.859375 41.3125 C 35.136719 41.304688 34.414062 41.292969 33.6875 41.265625 C 30.609375 41.050781 30.609375 41.050781 27.941406 42.296875 C 27.570312 42.699219 27.242188 43.113281 26.933594 43.566406 C 26.714844 43.878906 26.480469 44.171875 26.230469 44.464844 C 26.160156 44.546875 26.085938 44.628906 26.011719 44.714844 C 25.617188 45.117188 25.179688 45.476562 24.75 45.84375 C 24.75 44.359375 24.75 42.875 24.75 41.34375 C 23.953125 41.367188 23.953125 41.367188 23.160156 41.394531 C 22.402344 41.40625 21.972656 41.289062 21.375 40.78125 C 20.707031 39.933594 20.652344 39.214844 20.652344 38.164062 C 20.652344 38.058594 20.652344 37.953125 20.648438 37.847656 C 20.648438 37.5 20.648438 37.152344 20.648438 36.804688 C 20.648438 36.5625 20.648438 36.320312 20.648438 36.078125 C 20.644531 35.570312 20.644531 35.0625 20.644531 34.558594 C 20.644531 33.910156 20.644531 33.261719 20.640625 32.613281 C 20.640625 32.113281 20.640625 31.613281 20.640625 31.109375 C 20.640625 30.871094 20.640625 30.632812 20.636719 30.394531 C 20.636719 30.058594 20.636719 29.722656 20.636719 29.390625 C 20.636719 29.292969 20.636719 29.195312 20.636719 29.09375 C 20.640625 28.238281 20.722656 27.433594 21.261719 26.746094 C 22.230469 25.992188 23.070312 25.953125 24.261719 25.960938 Z M 24.535156 29.4375 C 24.289062 29.804688 24.289062 29.804688 24.335938 30.25 C 24.46875 30.660156 24.550781 30.828125 24.890625 31.078125 C 25.394531 31.246094 25.855469 31.242188 26.382812 31.242188 C 26.492188 31.242188 26.597656 31.242188 26.710938 31.242188 C 27.070312 31.246094 27.429688 31.246094 27.789062 31.246094 C 28.039062 31.25 28.289062 31.25 28.539062 31.25 C 29.0625 31.25 29.589844 31.253906 30.113281 31.253906 C 30.785156 31.253906 31.453125 31.257812 32.125 31.261719 C 32.640625 31.261719 33.160156 31.265625 33.675781 31.265625 C 33.921875 31.265625 34.171875 31.265625 34.417969 31.269531 C 34.765625 31.269531 35.109375 31.269531 35.457031 31.269531 C 35.609375 31.269531 35.609375 31.269531 35.765625 31.273438 C 36.382812 31.269531 36.773438 31.175781 37.265625 30.796875 C 37.464844 30.398438 37.449219 30.113281 37.40625 29.671875 C 37.203125 29.34375 37.203125 29.34375 36.84375 29.109375 C 36.441406 29.054688 36.09375 29.03125 35.691406 29.035156 C 35.574219 29.03125 35.460938 29.03125 35.339844 29.03125 C 34.957031 29.027344 34.578125 29.027344 34.195312 29.03125 C 33.929688 29.027344 33.664062 29.027344 33.394531 29.027344 C 32.839844 29.027344 32.28125 29.027344 31.726562 29.027344 C 31.011719 29.03125 30.296875 29.027344 29.582031 29.023438 C 29.035156 29.019531 28.484375 29.019531 27.9375 29.019531 C 27.671875 29.019531 27.410156 29.019531 27.148438 29.019531 C 26.777344 29.015625 26.410156 29.015625 26.042969 29.019531 C 25.933594 29.019531 25.824219 29.015625 25.714844 29.015625 C 25.171875 29.023438 24.9375 29.066406 24.535156 29.4375 Z M 24.609375 32.90625 C 24.339844 33.265625 24.328125 33.449219 24.34375 33.898438 C 24.496094 34.398438 24.578125 34.488281 25.03125 34.734375 C 25.421875 34.777344 25.78125 34.792969 26.171875 34.792969 C 26.34375 34.792969 26.34375 34.792969 26.515625 34.792969 C 26.894531 34.796875 27.273438 34.796875 27.648438 34.796875 C 27.914062 34.796875 28.175781 34.796875 28.4375 34.796875 C 28.988281 34.800781 29.539062 34.796875 30.089844 34.796875 C 30.796875 34.796875 31.5 34.796875 32.207031 34.800781 C 32.75 34.804688 33.289062 34.804688 33.832031 34.804688 C 34.09375 34.804688 34.355469 34.804688 34.613281 34.808594 C 34.976562 34.808594 35.339844 34.808594 35.703125 34.804688 C 35.867188 34.808594 35.867188 34.808594 36.03125 34.808594 C 36.515625 34.800781 36.792969 34.769531 37.191406 34.480469 C 37.503906 34.035156 37.472656 33.71875 37.40625 33.1875 C 37.148438 32.820312 36.996094 32.769531 36.5625 32.625 C 36.199219 32.609375 35.839844 32.605469 35.476562 32.605469 C 35.367188 32.605469 35.257812 32.605469 35.144531 32.601562 C 34.777344 32.601562 34.414062 32.601562 34.050781 32.601562 C 33.796875 32.601562 33.542969 32.601562 33.289062 32.601562 C 32.757812 32.597656 32.226562 32.597656 31.695312 32.597656 C 31.015625 32.597656 30.332031 32.597656 29.652344 32.59375 C 29.128906 32.59375 28.605469 32.59375 28.082031 32.59375 C 27.832031 32.59375 27.578125 32.59375 27.328125 32.589844 C 26.976562 32.589844 26.625 32.589844 26.273438 32.589844 C 26.171875 32.589844 26.066406 32.589844 25.960938 32.589844 C 25.441406 32.589844 25.042969 32.609375 24.609375 32.90625 Z M 24.328125 36.984375 C 24.320312 37.503906 24.328125 37.816406 24.6875 38.207031 C 25.171875 38.464844 25.621094 38.449219 26.15625 38.449219 C 26.324219 38.449219 26.324219 38.449219 26.496094 38.449219 C 26.871094 38.453125 27.242188 38.453125 27.613281 38.453125 C 27.875 38.453125 28.132812 38.453125 28.390625 38.453125 C 28.933594 38.457031 29.480469 38.453125 30.023438 38.453125 C 30.71875 38.453125 31.414062 38.453125 32.109375 38.457031 C 32.644531 38.460938 33.179688 38.460938 33.714844 38.460938 C 33.972656 38.460938 34.226562 38.460938 34.484375 38.464844 C 34.84375 38.464844 35.203125 38.464844 35.5625 38.460938 C 35.71875 38.464844 35.71875 38.464844 35.882812 38.464844 C 36.386719 38.457031 36.683594 38.402344 37.121094 38.136719 C 37.449219 37.835938 37.449219 37.835938 37.492188 37.335938 C 37.449219 36.835938 37.449219 36.835938 37.121094 36.535156 C 36.59375 36.214844 36.160156 36.199219 35.5625 36.207031 C 35.449219 36.203125 35.335938 36.203125 35.222656 36.203125 C 34.847656 36.199219 34.476562 36.199219 34.105469 36.203125 C 33.847656 36.199219 33.589844 36.199219 33.328125 36.199219 C 32.785156 36.199219 32.246094 36.199219 31.703125 36.199219 C 31.007812 36.203125 30.3125 36.199219 29.617188 36.195312 C 29.082031 36.191406 28.546875 36.191406 28.015625 36.191406 C 27.757812 36.191406 27.5 36.191406 27.246094 36.191406 C 26.886719 36.1875 26.53125 36.1875 26.171875 36.191406 C 26.066406 36.191406 25.960938 36.1875 25.851562 36.1875 C 25.105469 36.199219 24.769531 36.386719 24.328125 36.984375 Z M 24.328125 36.984375 "/>
<path style=" stroke:none;fill-rule:nonzero;fill:rgb(0%,0%,0%);fill-opacity:1;" d="M 21.234375 56.390625 C 21.363281 56.453125 21.492188 56.515625 21.625 56.578125 C 22.636719 57.09375 23.484375 57.746094 24.328125 58.5 C 24.445312 58.605469 24.566406 58.710938 24.6875 58.820312 C 26.472656 60.5 28.109375 63.023438 28.308594 65.523438 C 28.304688 65.984375 28.265625 66.097656 28 66.507812 C 27.496094 66.996094 27.167969 66.957031 26.472656 66.960938 C 26.328125 66.960938 26.328125 66.960938 26.175781 66.960938 C 25.84375 66.964844 25.511719 66.964844 25.179688 66.964844 C 24.945312 66.964844 24.707031 66.96875 24.46875 66.96875 C 23.6875 66.972656 22.910156 66.972656 22.128906 66.976562 C 21.859375 66.976562 21.589844 66.976562 21.324219 66.976562 C 20.207031 66.980469 19.089844 66.984375 17.972656 66.984375 C 16.375 66.988281 14.773438 66.992188 13.171875 67 C 12.046875 67.007812 10.921875 67.007812 9.796875 67.007812 C 9.125 67.011719 8.453125 67.011719 7.78125 67.015625 C 7.148438 67.019531 6.515625 67.019531 5.882812 67.019531 C 5.648438 67.019531 5.417969 67.019531 5.1875 67.023438 C 4.867188 67.027344 4.550781 67.023438 4.234375 67.023438 C 3.96875 67.023438 3.96875 67.023438 3.699219 67.023438 C 3.109375 66.914062 2.902344 66.699219 2.53125 66.234375 C 2.136719 64.972656 2.867188 63.542969 3.410156 62.410156 C 3.882812 61.511719 4.421875 60.695312 5.0625 59.90625 C 5.167969 59.777344 5.269531 59.648438 5.378906 59.515625 C 9.222656 55.023438 15.96875 53.8125 21.234375 56.390625 Z M 21.234375 56.390625 "/>
<path style=" stroke:none;fill-rule:nonzero;fill:rgb(0%,0%,0%);fill-opacity:1;" d="M 31.929688 4.988281 C 32.101562 4.988281 32.269531 4.988281 32.445312 4.988281 C 32.910156 4.984375 33.375 4.984375 33.839844 4.988281 C 34.328125 4.988281 34.816406 4.988281 35.304688 4.984375 C 36.125 4.984375 36.941406 4.988281 37.761719 4.988281 C 38.707031 4.992188 39.652344 4.992188 40.597656 4.988281 C 41.410156 4.984375 42.226562 4.984375 43.039062 4.988281 C 43.523438 4.988281 44.007812 4.988281 44.492188 4.984375 C 45.035156 4.984375 45.574219 4.988281 46.117188 4.988281 C 46.277344 4.988281 46.4375 4.988281 46.601562 4.984375 C 47.4375 4.996094 48.03125 5.007812 48.65625 5.625 C 49.175781 6.367188 49.300781 7.054688 49.292969 7.945312 C 49.292969 8.058594 49.292969 8.171875 49.292969 8.289062 C 49.296875 8.660156 49.296875 9.03125 49.292969 9.402344 C 49.292969 9.664062 49.292969 9.925781 49.296875 10.1875 C 49.296875 10.730469 49.292969 11.273438 49.292969 11.820312 C 49.289062 12.515625 49.289062 13.210938 49.292969 13.90625 C 49.296875 14.445312 49.296875 14.984375 49.292969 15.519531 C 49.292969 15.777344 49.292969 16.035156 49.296875 16.289062 C 49.296875 16.648438 49.292969 17.007812 49.292969 17.367188 C 49.292969 17.472656 49.292969 17.578125 49.296875 17.683594 C 49.28125 18.453125 49.078125 19.042969 48.65625 19.6875 C 48.070312 20.238281 47.59375 20.3125 46.824219 20.300781 C 46.691406 20.296875 46.558594 20.289062 46.421875 20.285156 C 46 20.273438 45.578125 20.261719 45.140625 20.25 C 45.140625 21.734375 45.140625 23.21875 45.140625 24.75 C 44.035156 23.800781 44.035156 23.800781 43.644531 23.375 C 43.558594 23.28125 43.46875 23.191406 43.382812 23.09375 C 43.296875 23 43.207031 22.90625 43.117188 22.808594 C 42.859375 22.527344 42.601562 22.246094 42.339844 21.972656 C 42.046875 21.65625 42.046875 21.65625 41.800781 21.328125 C 41.339844 20.765625 40.988281 20.4375 40.265625 20.277344 C 39.636719 20.222656 39.011719 20.242188 38.378906 20.257812 C 38.148438 20.257812 37.914062 20.257812 37.683594 20.257812 C 37.074219 20.253906 36.464844 20.261719 35.855469 20.269531 C 34.878906 20.285156 33.902344 20.289062 32.925781 20.289062 C 32.585938 20.292969 32.246094 20.296875 31.90625 20.300781 C 31.695312 20.304688 31.488281 20.304688 31.277344 20.308594 C 31.097656 20.308594 30.914062 20.3125 30.726562 20.316406 C 30.121094 20.234375 29.847656 20.09375 29.390625 19.6875 C 28.867188 18.949219 28.746094 18.253906 28.753906 17.367188 C 28.753906 17.199219 28.753906 17.199219 28.753906 17.023438 C 28.75 16.652344 28.75 16.28125 28.753906 15.90625 C 28.753906 15.648438 28.753906 15.386719 28.75 15.125 C 28.75 14.582031 28.753906 14.039062 28.753906 13.492188 C 28.757812 12.796875 28.757812 12.101562 28.753906 11.40625 C 28.75 10.867188 28.75 10.328125 28.753906 9.792969 C 28.753906 9.535156 28.753906 9.277344 28.75 9.023438 C 28.75 8.664062 28.753906 8.304688 28.753906 7.945312 C 28.753906 7.839844 28.753906 7.734375 28.75 7.628906 C 28.765625 6.667969 29.054688 5.957031 29.742188 5.277344 C 30.46875 4.960938 31.144531 4.984375 31.929688 4.988281 Z M 32.699219 8.273438 C 32.40625 8.6875 32.414062 8.929688 32.484375 9.421875 C 32.734375 9.863281 32.839844 9.960938 33.328125 10.125 C 33.691406 10.140625 34.046875 10.148438 34.410156 10.148438 C 34.519531 10.148438 34.628906 10.148438 34.742188 10.148438 C 35.109375 10.152344 35.472656 10.152344 35.835938 10.152344 C 36.089844 10.15625 36.34375 10.15625 36.59375 10.15625 C 37.125 10.15625 37.65625 10.160156 38.1875 10.160156 C 38.867188 10.160156 39.546875 10.164062 40.226562 10.167969 C 40.75 10.167969 41.273438 10.171875 41.796875 10.171875 C 42.046875 10.171875 42.296875 10.171875 42.546875 10.175781 C 42.898438 10.175781 43.25 10.175781 43.601562 10.175781 C 43.753906 10.175781 43.753906 10.175781 43.914062 10.179688 C 44.53125 10.175781 44.9375 10.097656 45.421875 9.703125 C 45.609375 9.230469 45.609375 9.230469 45.5625 8.71875 C 45.179688 8.203125 44.96875 8.035156 44.332031 7.925781 C 44.121094 7.921875 43.914062 7.921875 43.703125 7.925781 C 43.589844 7.925781 43.476562 7.925781 43.355469 7.921875 C 42.980469 7.921875 42.605469 7.925781 42.226562 7.925781 C 41.964844 7.925781 41.703125 7.925781 41.4375 7.925781 C 40.890625 7.925781 40.339844 7.929688 39.789062 7.933594 C 39.085938 7.9375 38.382812 7.9375 37.675781 7.933594 C 37.136719 7.929688 36.59375 7.933594 36.050781 7.933594 C 35.792969 7.9375 35.53125 7.933594 35.273438 7.933594 C 34.910156 7.933594 34.546875 7.9375 34.183594 7.941406 C 34.078125 7.941406 33.96875 7.9375 33.859375 7.9375 C 33.371094 7.945312 33.09375 7.980469 32.699219 8.273438 Z M 32.625 11.953125 C 32.425781 12.351562 32.441406 12.636719 32.484375 13.078125 C 32.820312 13.519531 33.070312 13.6875 33.609375 13.78125 C 33.960938 13.796875 34.304688 13.800781 34.65625 13.800781 C 34.8125 13.800781 34.8125 13.800781 34.972656 13.804688 C 35.316406 13.804688 35.664062 13.804688 36.007812 13.804688 C 36.25 13.804688 36.488281 13.804688 36.730469 13.804688 C 37.234375 13.808594 37.734375 13.808594 38.238281 13.808594 C 38.882812 13.808594 39.527344 13.808594 40.171875 13.8125 C 40.667969 13.8125 41.164062 13.8125 41.660156 13.8125 C 41.898438 13.8125 42.136719 13.8125 42.375 13.816406 C 42.707031 13.816406 43.039062 13.816406 43.371094 13.816406 C 43.519531 13.816406 43.519531 13.816406 43.667969 13.816406 C 44.339844 13.8125 44.839844 13.707031 45.394531 13.324219 C 45.652344 12.945312 45.625 12.679688 45.5625 12.234375 C 45.25 11.832031 45.0625 11.691406 44.578125 11.53125 C 44.226562 11.515625 43.875 11.507812 43.523438 11.507812 C 43.417969 11.507812 43.308594 11.507812 43.199219 11.507812 C 42.84375 11.503906 42.492188 11.503906 42.136719 11.503906 C 41.890625 11.5 41.644531 11.5 41.398438 11.5 C 40.878906 11.5 40.363281 11.496094 39.847656 11.496094 C 39.183594 11.496094 38.523438 11.492188 37.863281 11.488281 C 37.351562 11.488281 36.84375 11.484375 36.332031 11.484375 C 36.089844 11.484375 35.847656 11.484375 35.601562 11.480469 C 35.261719 11.480469 34.917969 11.480469 34.578125 11.480469 C 34.476562 11.480469 34.378906 11.480469 34.273438 11.476562 C 33.625 11.484375 33.175781 11.609375 32.625 11.953125 Z M 32.484375 15.890625 C 32.378906 16.320312 32.378906 16.320312 32.484375 16.734375 C 32.691406 17.058594 32.691406 17.058594 33.046875 17.296875 C 33.445312 17.351562 33.785156 17.375 34.183594 17.371094 C 34.296875 17.375 34.414062 17.375 34.53125 17.375 C 34.90625 17.378906 35.285156 17.378906 35.660156 17.375 C 35.921875 17.378906 36.1875 17.378906 36.449219 17.378906 C 36.996094 17.378906 37.546875 17.378906 38.097656 17.378906 C 38.800781 17.375 39.507812 17.378906 40.210938 17.382812 C 40.753906 17.386719 41.292969 17.386719 41.835938 17.386719 C 42.09375 17.386719 42.355469 17.386719 42.613281 17.386719 C 42.976562 17.390625 43.339844 17.390625 43.703125 17.386719 C 43.863281 17.386719 43.863281 17.386719 44.027344 17.390625 C 44.582031 17.378906 44.835938 17.3125 45.28125 16.972656 C 45.609375 16.605469 45.609375 16.605469 45.578125 16.082031 C 45.464844 15.601562 45.464844 15.601562 45.132812 15.371094 C 44.613281 15.140625 44.148438 15.125 43.589844 15.128906 C 43.480469 15.128906 43.367188 15.125 43.253906 15.125 C 42.886719 15.121094 42.519531 15.121094 42.152344 15.121094 C 41.898438 15.121094 41.640625 15.121094 41.386719 15.117188 C 40.847656 15.117188 40.3125 15.117188 39.777344 15.117188 C 39.089844 15.117188 38.40625 15.113281 37.71875 15.109375 C 37.191406 15.105469 36.664062 15.105469 36.136719 15.105469 C 35.882812 15.105469 35.628906 15.101562 35.375 15.101562 C 35.023438 15.097656 34.667969 15.097656 34.316406 15.101562 C 34.210938 15.097656 34.105469 15.097656 34 15.09375 C 33.253906 15.105469 32.933594 15.304688 32.484375 15.890625 Z M 32.484375 15.890625 "/>
<path style=" stroke:none;fill-rule:nonzero;fill:rgb(0%,0%,0%);fill-opacity:1;" d="M 19.828125 41.90625 C 21.140625 43.09375 21.992188 44.722656 22.113281 46.488281 C 22.1875 48.324219 21.804688 49.851562 20.671875 51.328125 C 20.589844 51.449219 20.507812 51.570312 20.425781 51.695312 C 19.117188 53.082031 17.3125 53.839844 15.425781 53.902344 C 13.5 53.859375 11.839844 53.136719 10.453125 51.824219 C 9.007812 50.257812 8.585938 48.636719 8.578125 46.546875 C 8.664062 44.777344 9.558594 43.125 10.84375 41.933594 C 13.574219 39.855469 17.089844 39.75 19.828125 41.90625 Z M 19.828125 41.90625 "/>
<path style=" stroke:none;fill-rule:nonzero;fill:rgb(0%,0%,0%);fill-opacity:1;" d="M 59.625 18.28125 C 59.757812 18.351562 59.886719 18.421875 60.023438 18.492188 C 61.730469 19.496094 62.683594 20.863281 63.261719 22.75 C 63.640625 24.464844 63.398438 26.257812 62.515625 27.773438 C 62.308594 28.085938 62.097656 28.386719 61.875 28.6875 C 61.792969 28.808594 61.710938 28.929688 61.628906 29.054688 C 60.53125 30.214844 58.980469 31.023438 57.378906 31.105469 C 56.191406 31.125 55.109375 31.132812 54 30.65625 C 53.90625 30.621094 53.8125 30.585938 53.714844 30.546875 C 52.09375 29.847656 50.957031 28.410156 50.300781 26.816406 C 49.699219 25.242188 49.683594 23.355469 50.34375 21.796875 C 50.378906 21.703125 50.414062 21.609375 50.453125 21.511719 C 51.160156 19.871094 52.703125 18.597656 54.335938 17.9375 C 55.996094 17.441406 58.082031 17.449219 59.625 18.28125 Z M 59.625 18.28125 "/>
<path style=" stroke:none;fill-rule:nonzero;fill:rgb(0%,0%,0%);fill-opacity:1;" d="M 59.625 46.546875 C 59.992188 46.667969 60.140625 46.75 60.339844 47.082031 C 60.480469 47.421875 60.503906 47.660156 60.503906 48.027344 C 60.503906 48.214844 60.503906 48.214844 60.507812 48.410156 C 60.507812 48.617188 60.507812 48.617188 60.503906 48.828125 C 60.507812 49.046875 60.507812 49.046875 60.507812 49.269531 C 60.507812 49.75 60.507812 50.234375 60.507812 50.71875 C 60.507812 51.050781 60.507812 51.386719 60.507812 51.722656 C 60.507812 52.425781 60.507812 53.128906 60.503906 53.832031 C 60.503906 54.730469 60.503906 55.632812 60.507812 56.535156 C 60.507812 57.226562 60.507812 57.917969 60.507812 58.613281 C 60.507812 58.945312 60.507812 59.277344 60.507812 59.609375 C 60.507812 60.074219 60.507812 60.535156 60.503906 61 C 60.503906 61.140625 60.507812 61.277344 60.507812 61.417969 C 60.507812 61.546875 60.503906 61.671875 60.503906 61.800781 C 60.503906 61.96875 60.503906 61.96875 60.503906 62.136719 C 60.460938 62.488281 60.386719 62.703125 60.1875 63 C 59.722656 63.332031 59.28125 63.316406 58.71875 63.320312 C 58.628906 63.320312 58.539062 63.320312 58.445312 63.324219 C 58.140625 63.324219 57.835938 63.324219 57.535156 63.324219 C 57.316406 63.328125 57.097656 63.328125 56.882812 63.332031 C 56.289062 63.335938 55.699219 63.335938 55.109375 63.339844 C 54.492188 63.339844 53.875 63.34375 53.257812 63.347656 C 52.089844 63.355469 50.921875 63.359375 49.75 63.363281 C 48.421875 63.371094 47.089844 63.375 45.757812 63.382812 C 43.023438 63.398438 40.285156 63.410156 37.546875 63.421875 C 37.683594 63.582031 37.683594 63.582031 37.824219 63.746094 C 38.109375 64.125 38.109375 64.125 38.179688 64.546875 C 38.089844 65.097656 37.976562 65.3125 37.546875 65.671875 C 36.335938 65.839844 35.601562 65.367188 34.59375 64.742188 C 34.449219 64.652344 34.304688 64.566406 34.15625 64.476562 C 33.734375 64.222656 33.320312 63.964844 32.90625 63.703125 C 32.78125 63.625 32.65625 63.546875 32.527344 63.464844 C 32.355469 63.355469 32.355469 63.355469 32.183594 63.242188 C 32.082031 63.179688 31.984375 63.117188 31.882812 63.050781 C 31.640625 62.859375 31.640625 62.859375 31.402344 62.429688 C 31.351562 61.941406 31.386719 61.730469 31.640625 61.3125 C 32.367188 60.679688 33.199219 60.230469 34.03125 59.753906 C 34.304688 59.597656 34.574219 59.441406 34.839844 59.285156 C 35.015625 59.183594 35.1875 59.085938 35.363281 58.984375 C 35.597656 58.851562 35.597656 58.851562 35.835938 58.714844 C 36.28125 58.5 36.632812 58.394531 37.125 58.359375 C 37.621094 58.585938 37.804688 58.746094 38.109375 59.203125 C 38.171875 59.609375 38.171875 59.609375 38.109375 60.046875 C 37.878906 60.277344 37.644531 60.511719 37.40625 60.75 C 44.226562 60.796875 51.050781 60.84375 58.078125 60.890625 C 58.050781 56.433594 58.050781 56.433594 58.015625 51.976562 C 58.011719 51.113281 58.011719 51.113281 58.011719 50.707031 C 58.011719 50.425781 58.007812 50.144531 58.003906 49.863281 C 58 49.4375 57.996094 49.007812 58 48.582031 C 57.996094 48.457031 57.992188 48.332031 57.992188 48.203125 C 57.996094 47.582031 58.019531 47.328125 58.40625 46.820312 C 58.863281 46.488281 59.074219 46.464844 59.625 46.546875 Z M 59.625 46.546875 "/>
<path style=" stroke:none;fill-rule:nonzero;fill:rgb(0%,0%,0%);fill-opacity:1;" d="M 20.8125 10.546875 C 21.367188 10.792969 21.878906 11.089844 22.398438 11.402344 C 22.640625 11.546875 22.882812 11.691406 23.125 11.832031 C 25.488281 13.230469 25.488281 13.230469 25.761719 13.929688 C 25.726562 14.457031 25.65625 14.640625 25.3125 15.046875 C 24.359375 15.761719 23.304688 16.34375 22.273438 16.9375 C 22.117188 17.027344 21.964844 17.117188 21.804688 17.214844 C 20.542969 17.933594 20.542969 17.933594 19.953125 17.863281 C 19.421875 17.675781 19.242188 17.519531 18.984375 17.015625 C 18.953125 16.617188 18.976562 16.265625 19.125 15.890625 C 19.3125 15.75 19.496094 15.613281 19.6875 15.46875 C 16.832031 15.398438 16.832031 15.398438 13.921875 15.328125 C 13.925781 16 13.929688 16.675781 13.929688 17.371094 C 13.941406 19.59375 13.945312 21.816406 13.949219 24.039062 C 13.953125 25.386719 13.957031 26.734375 13.964844 28.082031 C 13.96875 29.257812 13.972656 30.429688 13.976562 31.605469 C 13.976562 32.226562 13.976562 32.851562 13.980469 33.472656 C 13.984375 34.058594 13.988281 34.644531 13.984375 35.230469 C 13.984375 35.445312 13.988281 35.660156 13.988281 35.875 C 13.992188 36.167969 13.992188 36.460938 13.988281 36.753906 C 13.988281 36.917969 13.992188 37.082031 13.992188 37.25 C 13.90625 37.785156 13.746094 38.019531 13.359375 38.390625 C 12.609375 38.507812 12.609375 38.507812 12.234375 38.390625 C 11.777344 38.023438 11.554688 37.8125 11.445312 37.230469 C 11.445312 37.054688 11.445312 36.878906 11.445312 36.699219 C 11.445312 36.601562 11.441406 36.503906 11.441406 36.402344 C 11.441406 36.074219 11.445312 35.75 11.445312 35.421875 C 11.445312 35.1875 11.445312 34.953125 11.445312 34.71875 C 11.445312 34.082031 11.445312 33.445312 11.449219 32.808594 C 11.453125 32.140625 11.453125 31.472656 11.453125 30.808594 C 11.453125 29.6875 11.457031 28.570312 11.460938 27.453125 C 11.46875 26.15625 11.472656 24.863281 11.472656 23.570312 C 11.472656 22.191406 11.476562 20.816406 11.476562 19.4375 C 11.480469 19.039062 11.480469 18.644531 11.480469 18.246094 C 11.480469 17.621094 11.484375 17 11.488281 16.375 C 11.488281 16.148438 11.488281 15.917969 11.488281 15.6875 C 11.488281 15.375 11.492188 15.0625 11.492188 14.75 C 11.492188 14.578125 11.492188 14.402344 11.496094 14.222656 C 11.53125 13.800781 11.582031 13.566406 11.8125 13.21875 C 12.234375 12.929688 12.59375 12.898438 13.097656 12.894531 C 13.242188 12.890625 13.382812 12.886719 13.53125 12.882812 C 13.6875 12.882812 13.839844 12.882812 14 12.878906 C 14.15625 12.875 14.316406 12.875 14.480469 12.871094 C 14.984375 12.863281 15.492188 12.855469 15.996094 12.851562 C 16.339844 12.84375 16.683594 12.839844 17.023438 12.832031 C 17.867188 12.820312 18.707031 12.808594 19.546875 12.796875 C 19.453125 12.6875 19.363281 12.578125 19.269531 12.464844 C 18.984375 12.09375 18.984375 12.09375 18.941406 11.792969 C 19.011719 11.347656 19.0625 11.046875 19.34375 10.6875 C 19.855469 10.476562 20.277344 10.445312 20.8125 10.546875 Z M 20.8125 10.546875 "/>
</g>
</svg>
