<?xml version="1.0" encoding="UTF-8"?>
<svg xmlns="http://www.w3.org/2000/svg" xmlns:xlink="http://www.w3.org/1999/xlink" width="72px" height="72px" viewBox="0 0 72 72" version="1.1">
<g id="surface1">
<path style=" stroke:none;fill-rule:nonzero;fill:rgb(0%,0%,0%);fill-opacity:1;" d="M 56.695312 31.78125 C 57.027344 32 57.339844 32.238281 57.65625 32.484375 C 61.246094 35.15625 65.285156 36.6875 69.71875 37.339844 C 70.460938 37.457031 70.996094 37.597656 71.578125 38.109375 C 71.957031 38.734375 72.054688 39.203125 72.054688 39.929688 C 72.054688 40.070312 72.054688 40.070312 72.058594 40.214844 C 72.058594 40.523438 72.058594 40.832031 72.054688 41.140625 C 72.054688 41.359375 72.058594 41.578125 72.058594 41.796875 C 72.058594 42.253906 72.058594 42.714844 72.054688 43.171875 C 72.050781 43.75 72.054688 44.328125 72.054688 44.90625 C 72.066406 47.886719 72.042969 50.851562 71.199219 53.734375 C 71.148438 53.925781 71.148438 53.925781 71.09375 54.117188 C 69.660156 58.988281 66.972656 63.269531 62.992188 66.453125 C 62.535156 66.832031 62.097656 67.234375 61.664062 67.640625 C 61 68.265625 60.3125 68.847656 59.601562 69.417969 C 59.054688 69.875 58.535156 70.359375 58.019531 70.851562 C 57.3125 71.519531 56.710938 72.082031 55.6875 72.070312 C 55.546875 72.070312 55.410156 72.074219 55.265625 72.074219 C 54.433594 71.925781 53.867188 71.339844 53.269531 70.777344 C 52.757812 70.300781 52.234375 69.847656 51.6875 69.40625 C 51.050781 68.894531 50.449219 68.351562 49.851562 67.792969 C 49.382812 67.363281 48.90625 66.957031 48.410156 66.558594 C 47.742188 66.023438 47.140625 65.445312 46.546875 64.828125 C 46.429688 64.710938 46.308594 64.589844 46.1875 64.46875 C 46.074219 64.355469 45.960938 64.242188 45.84375 64.125 C 45.777344 64.0625 45.707031 64 45.636719 63.9375 C 42.554688 61.058594 40.753906 56.59375 39.839844 52.566406 C 39.796875 52.382812 39.796875 52.382812 39.753906 52.195312 C 39.183594 49.550781 39.179688 46.851562 39.183594 44.160156 C 39.183594 43.652344 39.179688 43.148438 39.171875 42.644531 C 39.171875 42.253906 39.167969 41.859375 39.171875 41.464844 C 39.167969 41.191406 39.167969 40.914062 39.164062 40.640625 C 39.167969 39.636719 39.246094 38.960938 39.796875 38.109375 C 40.515625 37.433594 41.40625 37.367188 42.34375 37.210938 C 46.683594 36.441406 50.816406 34.859375 54.238281 32.03125 C 54.921875 31.503906 55.910156 31.421875 56.695312 31.78125 Z M 61.40625 45.265625 C 61.039062 45.613281 60.683594 45.972656 60.332031 46.332031 C 60.203125 46.464844 60.074219 46.59375 59.941406 46.730469 C 59.597656 47.074219 59.257812 47.417969 58.917969 47.765625 C 58.570312 48.121094 58.222656 48.472656 57.871094 48.828125 C 57.1875 49.519531 56.507812 50.210938 55.828125 50.90625 C 55.398438 50.699219 55.105469 50.496094 54.773438 50.152344 C 54.683594 50.058594 54.59375 49.964844 54.5 49.871094 C 54.3125 49.675781 54.128906 49.484375 53.941406 49.289062 C 53.246094 48.578125 52.648438 47.992188 51.609375 47.953125 C 50.96875 48.082031 50.554688 48.308594 50.070312 48.753906 C 49.722656 49.3125 49.59375 49.691406 49.640625 50.34375 C 49.941406 51.226562 50.503906 51.851562 51.160156 52.492188 C 51.253906 52.582031 51.34375 52.675781 51.4375 52.769531 C 51.628906 52.960938 51.824219 53.152344 52.015625 53.339844 C 52.3125 53.632812 52.605469 53.925781 52.898438 54.21875 C 53.089844 54.40625 53.277344 54.589844 53.464844 54.777344 C 53.550781 54.863281 53.640625 54.953125 53.730469 55.042969 C 53.8125 55.121094 53.894531 55.203125 53.980469 55.285156 C 54.050781 55.355469 54.125 55.429688 54.199219 55.5 C 54.644531 55.871094 55.035156 56.007812 55.609375 56.011719 C 55.765625 56.015625 55.765625 56.015625 55.925781 56.019531 C 56.691406 55.898438 57.210938 55.328125 57.738281 54.796875 C 57.8125 54.722656 57.886719 54.648438 57.964844 54.570312 C 58.210938 54.328125 58.457031 54.078125 58.703125 53.832031 C 58.875 53.660156 59.046875 53.492188 59.21875 53.320312 C 59.578125 52.960938 59.9375 52.601562 60.296875 52.242188 C 60.753906 51.78125 61.214844 51.320312 61.675781 50.863281 C 62.03125 50.507812 62.382812 50.15625 62.738281 49.800781 C 62.90625 49.628906 63.078125 49.460938 63.246094 49.292969 C 63.484375 49.054688 63.71875 48.816406 63.957031 48.578125 C 64.027344 48.511719 64.097656 48.441406 64.167969 48.367188 C 64.710938 47.820312 64.945312 47.480469 65.023438 46.714844 C 65.003906 46.050781 64.792969 45.675781 64.40625 45.140625 C 63.414062 44.359375 62.355469 44.496094 61.40625 45.265625 Z M 61.40625 45.265625 "/>
<path style=" stroke:none;fill-rule:nonzero;fill:rgb(0%,0%,0%);fill-opacity:1;" d="M 0 36.84375 C 4.546875 36.84375 9.09375 36.84375 13.78125 36.84375 C 13.921875 38.328125 14.058594 39.8125 14.203125 41.34375 C 14.574219 43.722656 15.0625 46.03125 15.667969 48.355469 C 15.691406 48.449219 15.714844 48.542969 15.738281 48.640625 C 15.804688 48.890625 15.871094 49.144531 15.9375 49.398438 C 16.03125 49.78125 16.03125 49.78125 16.03125 50.0625 C 15.949219 50.078125 15.863281 50.09375 15.777344 50.109375 C 14.71875 50.308594 13.660156 50.511719 12.601562 50.710938 C 12.4375 50.746094 12.269531 50.777344 12.097656 50.808594 C 10.066406 51.195312 8.042969 51.585938 6.042969 52.097656 C 5.914062 52.128906 5.789062 52.160156 5.660156 52.191406 C 5.554688 52.21875 5.453125 52.246094 5.347656 52.273438 C 5.011719 52.320312 4.8125 52.300781 4.5 52.171875 C 4.324219 51.953125 4.324219 51.953125 4.175781 51.667969 C 4.121094 51.5625 4.066406 51.453125 4.007812 51.34375 C 3.949219 51.230469 3.890625 51.113281 3.832031 50.992188 C 3.769531 50.875 3.710938 50.753906 3.644531 50.628906 C 1.511719 46.386719 0 41.625 0 36.84375 Z M 0 36.84375 "/>
<path style=" stroke:none;fill-rule:nonzero;fill:rgb(0%,0%,0%);fill-opacity:1;" d="M 4.359375 17.4375 C 4.601562 17.488281 4.601562 17.488281 4.847656 17.539062 C 6.5 17.890625 8.152344 18.230469 9.808594 18.5625 C 9.929688 18.585938 10.050781 18.609375 10.175781 18.636719 C 12.078125 19.015625 13.976562 19.375 15.890625 19.6875 C 15.804688 20.472656 15.617188 21.214844 15.421875 21.980469 C 14.996094 23.65625 14.636719 25.332031 14.371094 27.042969 C 14.34375 27.214844 14.316406 27.382812 14.289062 27.558594 C 14.035156 29.25 13.925781 30.910156 13.78125 32.625 C 9.234375 32.625 4.6875 32.625 0 32.625 C 0 31.039062 0 31.039062 0.0976562 30.378906 C 0.121094 30.234375 0.140625 30.089844 0.164062 29.9375 C 0.1875 29.785156 0.210938 29.636719 0.238281 29.476562 C 0.273438 29.238281 0.273438 29.238281 0.3125 28.992188 C 0.988281 24.871094 2.472656 21.140625 4.359375 17.4375 Z M 4.359375 17.4375 "/>
<path style=" stroke:none;fill-rule:nonzero;fill:rgb(0%,0%,0%);fill-opacity:1;" d="M 17.859375 36.84375 C 22.730469 36.84375 27.605469 36.84375 32.625 36.84375 C 32.625 40.648438 32.625 44.453125 32.625 48.375 C 31.6875 48.433594 30.75 48.492188 29.785156 48.550781 C 27.417969 48.703125 25.066406 48.902344 22.710938 49.179688 C 22.605469 49.191406 22.503906 49.203125 22.398438 49.214844 C 22.128906 49.25 21.855469 49.28125 21.582031 49.3125 C 21.089844 49.359375 20.605469 49.367188 20.109375 49.359375 C 18.574219 45.460938 17.859375 41.015625 17.859375 36.84375 Z M 17.859375 36.84375 "/>
<path style=" stroke:none;fill-rule:nonzero;fill:rgb(0%,0%,0%);fill-opacity:1;" d="M 19.96875 20.390625 C 21.097656 20.457031 22.21875 20.539062 23.339844 20.65625 C 23.507812 20.675781 23.507812 20.675781 23.679688 20.695312 C 24.132812 20.742188 24.589844 20.789062 25.042969 20.839844 C 27.570312 21.117188 30.082031 21.230469 32.625 21.375 C 32.625 25.085938 32.625 28.800781 32.625 32.625 C 27.753906 32.625 22.878906 32.625 17.859375 32.625 C 17.859375 31.277344 17.898438 30.050781 18.085938 28.730469 C 18.113281 28.558594 18.136719 28.382812 18.164062 28.203125 C 18.554688 25.550781 19.164062 22.949219 19.96875 20.390625 Z M 19.96875 20.390625 "/>
<path style=" stroke:none;fill-rule:nonzero;fill:rgb(0%,0%,0%);fill-opacity:1;" d="M 65.109375 17.578125 C 65.300781 17.902344 65.46875 18.214844 65.628906 18.554688 C 65.675781 18.65625 65.726562 18.757812 65.777344 18.859375 C 65.878906 19.074219 65.980469 19.289062 66.082031 19.503906 C 66.179688 19.710938 66.277344 19.917969 66.378906 20.125 C 68.203125 23.871094 69.5 28.425781 69.46875 32.625 C 67.488281 32.730469 65.917969 32.648438 64.125 31.78125 C 63.933594 31.695312 63.746094 31.609375 63.554688 31.523438 C 62.226562 30.90625 61.078125 30.125 59.90625 29.25 C 58.335938 28.125 57.027344 27.738281 55.125 27.5625 C 55.105469 27.449219 55.082031 27.332031 55.0625 27.214844 C 54.625 24.859375 54.152344 22.535156 53.5 20.226562 C 53.4375 19.96875 53.4375 19.96875 53.4375 19.6875 C 53.574219 19.664062 53.710938 19.640625 53.847656 19.617188 C 54.507812 19.503906 55.164062 19.390625 55.820312 19.273438 C 55.941406 19.253906 56.0625 19.230469 56.183594 19.210938 C 58.429688 18.8125 60.65625 18.339844 62.878906 17.824219 C 62.996094 17.796875 63.113281 17.773438 63.238281 17.742188 C 63.457031 17.691406 63.679688 17.640625 63.902344 17.589844 C 64.640625 17.421875 64.640625 17.421875 65.109375 17.578125 Z M 65.109375 17.578125 "/>
<path style=" stroke:none;fill-rule:nonzero;fill:rgb(0%,0%,0%);fill-opacity:1;" d="M 49.359375 20.390625 C 49.738281 21.199219 49.972656 22.011719 50.1875 22.878906 C 50.222656 23.023438 50.257812 23.167969 50.292969 23.316406 C 50.578125 24.5 50.820312 25.6875 51.039062 26.886719 C 51.070312 27.054688 51.101562 27.222656 51.132812 27.398438 C 51.175781 27.632812 51.175781 27.632812 51.21875 27.875 C 51.242188 28.015625 51.265625 28.15625 51.292969 28.300781 C 51.328125 28.703125 51.296875 29.003906 51.1875 29.390625 C 50.007812 30.714844 47.746094 31.582031 46.125 32.203125 C 46.039062 32.238281 45.957031 32.273438 45.867188 32.3125 C 44.898438 32.6875 43.980469 32.679688 42.953125 32.667969 C 42.792969 32.664062 42.632812 32.664062 42.46875 32.664062 C 41.878906 32.664062 41.292969 32.65625 40.703125 32.652344 C 39.382812 32.644531 38.0625 32.632812 36.703125 32.625 C 36.703125 28.914062 36.703125 25.199219 36.703125 21.375 C 38.21875 21.289062 38.21875 21.289062 39.761719 21.199219 C 42.179688 21.054688 44.582031 20.863281 46.984375 20.570312 C 47.082031 20.558594 47.179688 20.546875 47.28125 20.535156 C 47.542969 20.5 47.800781 20.46875 48.0625 20.4375 C 48.5 20.390625 48.921875 20.382812 49.359375 20.390625 Z M 49.359375 20.390625 "/>
<path style=" stroke:none;fill-rule:nonzero;fill:rgb(0%,0%,0%);fill-opacity:1;" d="M 36.703125 0 C 37.300781 0.238281 37.503906 0.324219 37.921875 0.746094 C 38.015625 0.839844 38.109375 0.933594 38.203125 1.027344 C 38.300781 1.125 38.398438 1.226562 38.496094 1.328125 C 38.597656 1.429688 38.695312 1.53125 38.800781 1.636719 C 39.558594 2.414062 40.261719 3.214844 40.921875 4.078125 C 41.0625 4.257812 41.207031 4.441406 41.351562 4.621094 C 43.898438 7.871094 47.25 12.328125 47.953125 16.453125 C 45.953125 16.753906 43.949219 16.953125 41.933594 17.113281 C 41.816406 17.121094 41.703125 17.132812 41.585938 17.140625 C 41.246094 17.167969 40.90625 17.195312 40.566406 17.21875 C 40.472656 17.226562 40.375 17.234375 40.273438 17.242188 C 39.082031 17.328125 37.910156 17.296875 36.703125 17.296875 C 36.703125 11.589844 36.703125 5.882812 36.703125 0 Z M 36.703125 0 "/>
<path style=" stroke:none;fill-rule:nonzero;fill:rgb(0%,0%,0%);fill-opacity:1;" d="M 32.625 0 C 32.625 5.707031 32.625 11.414062 32.625 17.296875 C 29.710938 17.296875 29.710938 17.296875 28.792969 17.21875 C 28.683594 17.210938 28.578125 17.203125 28.46875 17.195312 C 28.132812 17.167969 27.800781 17.140625 27.464844 17.113281 C 27.351562 17.101562 27.234375 17.09375 27.117188 17.085938 C 25.242188 16.933594 23.378906 16.730469 21.515625 16.453125 C 21.589844 15.574219 21.972656 14.832031 22.34375 14.042969 C 22.410156 13.894531 22.480469 13.746094 22.550781 13.59375 C 24.101562 10.289062 25.980469 7.203125 28.265625 4.359375 C 28.328125 4.28125 28.390625 4.199219 28.457031 4.121094 C 29.292969 3.066406 30.210938 2.105469 31.15625 1.152344 C 31.324219 0.980469 31.324219 0.980469 31.496094 0.808594 C 31.601562 0.703125 31.707031 0.597656 31.816406 0.488281 C 31.960938 0.347656 31.960938 0.347656 32.105469 0.203125 C 32.34375 0 32.34375 0 32.625 0 Z M 32.625 0 "/>
<path style=" stroke:none;fill-rule:nonzero;fill:rgb(0%,0%,0%);fill-opacity:1;" d="M 32.625 52.453125 C 32.625 58.066406 32.625 63.683594 32.625 69.46875 C 31.246094 68.433594 30.070312 67.277344 28.96875 65.953125 C 28.851562 65.816406 28.734375 65.675781 28.613281 65.535156 C 25.867188 62.242188 22.429688 57.5625 21.515625 53.296875 C 26.195312 52.734375 26.195312 52.734375 28.492188 52.558594 C 28.636719 52.546875 28.777344 52.535156 28.921875 52.523438 C 30.164062 52.4375 31.371094 52.453125 32.625 52.453125 Z M 32.625 52.453125 "/>
<path style=" stroke:none;fill-rule:nonzero;fill:rgb(0%,0%,0%);fill-opacity:1;" d="M 25.734375 1.125 C 25.539062 1.585938 25.257812 1.941406 24.9375 2.320312 C 21.589844 6.3125 19.261719 11.105469 17.296875 15.890625 C 14.707031 15.480469 12.128906 15.046875 9.5625 14.511719 C 9.460938 14.488281 9.355469 14.46875 9.25 14.445312 C 7.507812 14.082031 7.507812 14.082031 6.890625 13.921875 C 7.558594 12.46875 8.890625 11.273438 9.984375 10.125 C 10.09375 10.007812 10.207031 9.890625 10.320312 9.773438 C 11.09375 8.976562 11.925781 8.28125 12.796875 7.59375 C 13 7.429688 13 7.429688 13.207031 7.261719 C 16.332031 4.777344 21.589844 1.125 25.734375 1.125 Z M 25.734375 1.125 "/>
<path style=" stroke:none;fill-rule:nonzero;fill:rgb(0%,0%,0%);fill-opacity:1;" d="M 43.734375 1.125 C 48.628906 2.117188 53.34375 4.773438 57.09375 8.015625 C 57.199219 8.105469 57.304688 8.195312 57.410156 8.285156 C 59.230469 9.875 61.121094 11.601562 62.4375 13.640625 C 62.4375 13.734375 62.4375 13.828125 62.4375 13.921875 C 59.035156 14.710938 55.617188 15.328125 52.171875 15.890625 C 51.855469 15.265625 51.546875 14.636719 51.269531 13.992188 C 49.367188 9.554688 47.035156 5.359375 43.917969 1.652344 C 43.734375 1.40625 43.734375 1.40625 43.734375 1.125 Z M 43.734375 1.125 "/>
<path style=" stroke:none;fill-rule:nonzero;fill:rgb(0%,0%,0%);fill-opacity:1;" d="M 17.4375 54 C 17.789062 54.769531 18.140625 55.542969 18.484375 56.316406 C 20.179688 60.113281 22.1875 63.65625 24.75 66.9375 C 24.847656 67.0625 24.945312 67.191406 25.046875 67.320312 C 25.273438 67.613281 25.503906 67.910156 25.734375 68.203125 C 25.242188 68.367188 25.113281 68.3125 24.632812 68.15625 C 24.496094 68.109375 24.359375 68.066406 24.21875 68.019531 C 24.070312 67.96875 23.925781 67.921875 23.773438 67.867188 C 23.625 67.816406 23.472656 67.765625 23.316406 67.714844 C 17.25 65.613281 11.535156 61.78125 7.59375 56.671875 C 7.472656 56.519531 7.472656 56.519531 7.347656 56.363281 C 7.171875 56.109375 7.171875 56.109375 7.171875 55.828125 C 12.4375 54.726562 12.4375 54.726562 14.914062 54.28125 C 15.074219 54.253906 15.234375 54.222656 15.398438 54.191406 C 15.542969 54.167969 15.691406 54.140625 15.84375 54.113281 C 15.96875 54.09375 16.09375 54.070312 16.222656 54.046875 C 16.632812 53.996094 17.027344 53.992188 17.4375 54 Z M 17.4375 54 "/>
<path style=" stroke:none;fill-rule:nonzero;fill:rgb(0%,0%,0%);fill-opacity:1;" d="M 36.703125 56.8125 C 37.15625 57.265625 37.253906 57.523438 37.46875 58.113281 C 38.386719 60.523438 39.675781 62.757812 41.203125 64.828125 C 40.320312 66.214844 39.109375 67.355469 37.960938 68.519531 C 37.867188 68.613281 37.777344 68.707031 37.679688 68.804688 C 37.59375 68.890625 37.507812 68.976562 37.417969 69.066406 C 37.34375 69.144531 37.265625 69.222656 37.183594 69.300781 C 36.984375 69.46875 36.984375 69.46875 36.703125 69.46875 C 36.703125 65.292969 36.703125 61.117188 36.703125 56.8125 Z M 36.703125 56.8125 "/>
</g>
</svg>
