<?xml version="1.0" encoding="UTF-8"?>
<svg xmlns="http://www.w3.org/2000/svg" xmlns:xlink="http://www.w3.org/1999/xlink" width="72px" height="72px" viewBox="0 0 72 72" version="1.1">
<g id="surface1">
<path style=" stroke:none;fill-rule:nonzero;fill:rgb(0%,0%,0%);fill-opacity:1;" d="M 16.480469 41.550781 C 17.058594 41.554688 17.636719 41.550781 18.210938 41.550781 C 19.339844 41.546875 20.46875 41.546875 21.59375 41.550781 C 22.511719 41.550781 23.429688 41.550781 24.347656 41.550781 C 24.476562 41.550781 24.609375 41.550781 24.742188 41.550781 C 25.007812 41.550781 25.277344 41.550781 25.542969 41.550781 C 28.03125 41.546875 30.523438 41.550781 33.011719 41.550781 C 35.144531 41.554688 37.277344 41.554688 39.410156 41.550781 C 41.894531 41.546875 44.375 41.546875 46.859375 41.550781 C 47.125 41.550781 47.386719 41.550781 47.652344 41.550781 C 47.847656 41.550781 47.847656 41.550781 48.046875 41.550781 C 48.964844 41.550781 49.878906 41.550781 50.792969 41.546875 C 51.910156 41.546875 53.027344 41.546875 54.144531 41.550781 C 54.710938 41.550781 55.28125 41.550781 55.851562 41.550781 C 61.003906 41.535156 61.003906 41.535156 63.183594 42.714844 C 63.277344 42.761719 63.371094 42.8125 63.464844 42.863281 C 66.347656 44.40625 68.261719 46.769531 69.355469 49.828125 C 70.265625 52.859375 69.960938 56.171875 68.511719 58.96875 C 66.894531 61.953125 64.371094 64 61.128906 64.984375 C 59.3125 65.460938 57.378906 65.328125 55.519531 65.324219 C 54.941406 65.320312 54.363281 65.324219 53.789062 65.324219 C 52.660156 65.328125 51.53125 65.328125 50.40625 65.324219 C 49.488281 65.324219 48.570312 65.324219 47.652344 65.324219 C 47.457031 65.324219 47.457031 65.324219 47.257812 65.324219 C 46.992188 65.324219 46.722656 65.324219 46.457031 65.324219 C 43.96875 65.328125 41.476562 65.324219 38.988281 65.324219 C 36.855469 65.320312 34.722656 65.320312 32.589844 65.324219 C 30.105469 65.328125 27.625 65.328125 25.140625 65.324219 C 24.875 65.324219 24.613281 65.324219 24.347656 65.324219 C 24.152344 65.324219 24.152344 65.324219 23.953125 65.324219 C 23.035156 65.324219 22.121094 65.324219 21.207031 65.328125 C 20.089844 65.328125 18.972656 65.328125 17.855469 65.324219 C 17.289062 65.324219 16.71875 65.324219 16.148438 65.324219 C 10.996094 65.339844 10.996094 65.339844 8.816406 64.160156 C 8.722656 64.113281 8.628906 64.0625 8.535156 64.011719 C 5.652344 62.46875 3.738281 60.105469 2.644531 57.046875 C 1.734375 54.015625 2.039062 50.703125 3.488281 47.90625 C 5.105469 44.921875 7.628906 42.875 10.871094 41.890625 C 12.6875 41.414062 14.621094 41.546875 16.480469 41.550781 Z M 38.53125 56.671875 C 38.332031 57.070312 38.347656 57.355469 38.390625 57.796875 C 38.703125 58.199219 38.890625 58.339844 39.375 58.5 C 40.011719 58.53125 40.648438 58.53125 41.28125 58.535156 C 41.597656 58.535156 41.910156 58.539062 42.222656 58.542969 C 42.421875 58.542969 42.621094 58.546875 42.824219 58.546875 C 43.09375 58.546875 43.09375 58.546875 43.371094 58.550781 C 43.917969 58.496094 44.257812 58.363281 44.71875 58.078125 C 44.917969 57.679688 44.902344 57.394531 44.859375 56.953125 C 44.546875 56.550781 44.359375 56.410156 43.875 56.25 C 43.238281 56.21875 42.601562 56.21875 41.96875 56.214844 C 41.652344 56.214844 41.339844 56.210938 41.027344 56.207031 C 40.828125 56.207031 40.628906 56.203125 40.425781 56.203125 C 40.15625 56.203125 40.15625 56.203125 39.878906 56.199219 C 39.332031 56.253906 38.992188 56.386719 38.53125 56.671875 Z M 47.617188 56.617188 C 47.320312 57.054688 47.304688 57.28125 47.390625 57.796875 C 47.601562 58.148438 47.601562 58.148438 47.953125 58.359375 C 48.46875 58.445312 48.695312 58.429688 49.128906 58.128906 C 49.429688 57.695312 49.445312 57.46875 49.359375 56.953125 C 49.148438 56.601562 49.148438 56.601562 48.796875 56.390625 C 48.28125 56.304688 48.054688 56.320312 47.617188 56.617188 Z M 52.117188 56.617188 C 51.820312 57.054688 51.804688 57.28125 51.890625 57.796875 C 52.101562 58.148438 52.101562 58.148438 52.453125 58.359375 C 52.96875 58.445312 53.195312 58.429688 53.628906 58.128906 C 53.929688 57.695312 53.945312 57.46875 53.859375 56.953125 C 53.648438 56.601562 53.648438 56.601562 53.296875 56.390625 C 52.78125 56.304688 52.554688 56.320312 52.117188 56.617188 Z M 56.617188 56.617188 C 56.320312 57.054688 56.304688 57.28125 56.390625 57.796875 C 56.601562 58.148438 56.601562 58.148438 56.953125 58.359375 C 57.46875 58.445312 57.695312 58.429688 58.128906 58.128906 C 58.429688 57.695312 58.445312 57.46875 58.359375 56.953125 C 58.148438 56.601562 58.148438 56.601562 57.796875 56.390625 C 57.28125 56.304688 57.054688 56.320312 56.617188 56.617188 Z M 56.617188 56.617188 "/>
<path style=" stroke:none;fill-rule:nonzero;fill:rgb(0%,0%,0%);fill-opacity:1;" d="M 68.132812 2.523438 C 68.960938 3 69.453125 3.746094 69.75 4.640625 C 69.871094 6.109375 69.605469 7.421875 69.210938 8.828125 C 69.15625 9.039062 69.097656 9.253906 69.039062 9.46875 C 68.882812 10.046875 68.726562 10.625 68.566406 11.203125 C 68.398438 11.820312 68.230469 12.4375 68.066406 13.054688 C 67.785156 14.089844 67.503906 15.125 67.222656 16.160156 C 66.8125 17.65625 66.410156 19.152344 66.011719 20.652344 C 65.945312 20.890625 65.882812 21.132812 65.816406 21.375 C 65.722656 21.734375 65.625 22.09375 65.527344 22.453125 C 63.996094 28.191406 62.441406 33.921875 60.890625 39.65625 C 57.339844 39.515625 57.339844 39.515625 53.71875 39.375 C 54.695312 35.628906 55.683594 31.886719 56.6875 28.144531 C 56.824219 27.632812 56.960938 27.121094 57.097656 26.609375 C 57.457031 25.265625 57.816406 23.925781 58.175781 22.582031 C 58.425781 21.652344 58.675781 20.71875 58.925781 19.785156 C 59.269531 18.503906 59.613281 17.21875 59.957031 15.9375 C 60.085938 15.460938 60.210938 14.984375 60.339844 14.503906 C 60.664062 13.292969 60.992188 12.078125 61.320312 10.863281 C 61.515625 10.136719 61.707031 9.410156 61.902344 8.683594 C 62.039062 8.164062 62.179688 7.644531 62.320312 7.125 C 62.386719 6.878906 62.453125 6.628906 62.519531 6.378906 C 62.609375 6.035156 62.703125 5.6875 62.796875 5.34375 C 62.835938 5.191406 62.835938 5.191406 62.878906 5.035156 C 63.113281 4.175781 63.503906 3.492188 64.1875 2.917969 C 64.265625 2.851562 64.34375 2.78125 64.421875 2.714844 C 65.480469 1.984375 66.984375 2.015625 68.132812 2.523438 Z M 68.132812 2.523438 "/>
<path style=" stroke:none;fill-rule:nonzero;fill:rgb(0%,0%,0%);fill-opacity:1;" d="M 7.960938 2.890625 C 8.976562 3.933594 9.261719 5.453125 9.617188 6.820312 C 9.675781 7.039062 9.734375 7.257812 9.792969 7.476562 C 9.917969 7.949219 10.042969 8.421875 10.167969 8.894531 C 10.367188 9.65625 10.566406 10.417969 10.769531 11.179688 C 11.023438 12.128906 11.277344 13.082031 11.527344 14.035156 C 12.023438 15.902344 12.519531 17.769531 13.023438 19.636719 C 13.058594 19.78125 13.097656 19.925781 13.136719 20.074219 C 13.292969 20.65625 13.449219 21.238281 13.605469 21.820312 C 13.878906 22.832031 14.148438 23.84375 14.421875 24.855469 C 15.097656 27.375 15.773438 29.894531 16.449219 32.414062 C 16.542969 32.761719 16.636719 33.105469 16.726562 33.449219 C 16.980469 34.390625 17.234375 35.332031 17.488281 36.277344 C 17.566406 36.558594 17.640625 36.839844 17.714844 37.121094 C 17.808594 37.457031 17.898438 37.792969 17.988281 38.128906 C 18.027344 38.273438 18.066406 38.421875 18.105469 38.570312 C 18.140625 38.695312 18.175781 38.820312 18.210938 38.953125 C 18.28125 39.234375 18.28125 39.234375 18.28125 39.375 C 18.160156 39.378906 18.035156 39.382812 17.910156 39.386719 C 17.441406 39.398438 16.972656 39.414062 16.503906 39.425781 C 16.304688 39.433594 16.105469 39.4375 15.90625 39.445312 C 14.726562 39.480469 13.546875 39.523438 12.367188 39.589844 C 12.246094 39.59375 12.125 39.601562 12 39.609375 C 11.703125 39.625 11.40625 39.640625 11.109375 39.65625 C 8.085938 28.421875 8.085938 28.421875 6.714844 23.292969 C 6.679688 23.164062 6.644531 23.035156 6.609375 22.898438 C 6.234375 21.5 5.859375 20.097656 5.488281 18.699219 C 5.355469 18.210938 5.226562 17.722656 5.097656 17.234375 C 5.066406 17.113281 5.03125 16.996094 5 16.875 C 4.597656 15.359375 4.1875 13.847656 3.769531 12.335938 C 3.589844 11.695312 3.417969 11.058594 3.242188 10.417969 C 3.109375 9.933594 2.972656 9.449219 2.835938 8.964844 C 1.867188 5.472656 1.867188 5.472656 2.46875 4.007812 C 2.925781 3.253906 3.652344 2.628906 4.480469 2.316406 C 5.789062 2.03125 6.835938 2.222656 7.960938 2.890625 Z M 7.960938 2.890625 "/>
<path style=" stroke:none;fill-rule:nonzero;fill:rgb(0%,0%,0%);fill-opacity:1;" d="M 41.203125 9.421875 C 41.324219 9.449219 41.445312 9.476562 41.570312 9.503906 C 45.996094 10.527344 49.863281 12.640625 53.15625 15.75 C 53.234375 15.8125 53.316406 15.878906 53.398438 15.945312 C 53.671875 16.175781 53.839844 16.371094 53.921875 16.726562 C 53.949219 17.191406 53.890625 17.523438 53.65625 17.929688 C 53.113281 18.25 52.644531 18.292969 52.03125 18.140625 C 51.761719 17.945312 51.566406 17.726562 51.34375 17.472656 C 48.8125 14.777344 45.011719 12.992188 41.484375 12.09375 C 41.371094 12.0625 41.261719 12.035156 41.144531 12.003906 C 35.539062 10.601562 29.457031 11.695312 24.507812 14.570312 C 22.984375 15.492188 21.355469 16.632812 20.167969 17.96875 C 19.816406 18.269531 19.449219 18.214844 19.007812 18.199219 C 18.703125 18.140625 18.703125 18.140625 18.34375 17.84375 C 18.09375 17.34375 18.023438 17.140625 18.140625 16.59375 C 18.421875 16.171875 18.761719 15.824219 19.125 15.46875 C 19.222656 15.371094 19.324219 15.273438 19.425781 15.171875 C 25.011719 9.875 33.742188 7.722656 41.203125 9.421875 Z M 41.203125 9.421875 "/>
<path style=" stroke:none;fill-rule:nonzero;fill:rgb(0%,0%,0%);fill-opacity:1;" d="M 47.476562 20.09375 C 47.589844 20.191406 47.699219 20.289062 47.8125 20.390625 C 47.964844 20.519531 47.964844 20.519531 48.121094 20.65625 C 48.574219 21.0625 48.773438 21.292969 48.945312 21.894531 C 48.9375 22.347656 48.921875 22.5625 48.65625 22.921875 C 48.230469 23.207031 47.953125 23.3125 47.441406 23.300781 C 46.816406 23.117188 46.410156 22.617188 45.953125 22.171875 C 45.398438 21.640625 44.800781 21.226562 44.15625 20.8125 C 43.964844 20.6875 43.964844 20.6875 43.773438 20.5625 C 42.058594 19.503906 40.226562 18.90625 38.25 18.5625 C 38.070312 18.53125 37.890625 18.5 37.703125 18.464844 C 33.527344 18.050781 29.574219 19.347656 26.296875 21.9375 C 26.152344 22.058594 26.007812 22.183594 25.863281 22.308594 C 25.730469 22.425781 25.597656 22.539062 25.460938 22.65625 C 25.347656 22.761719 25.234375 22.867188 25.117188 22.976562 C 24.636719 23.273438 24.316406 23.257812 23.765625 23.203125 C 23.320312 22.910156 23.21875 22.683594 23.035156 22.183594 C 23.082031 21.242188 23.753906 20.800781 24.414062 20.191406 C 30.878906 14.539062 40.960938 14.488281 47.476562 20.09375 Z M 47.476562 20.09375 "/>
<path style=" stroke:none;fill-rule:nonzero;fill:rgb(0%,0%,0%);fill-opacity:1;" d="M 37.925781 30.570312 C 38.671875 31.097656 39.242188 31.746094 39.515625 32.625 C 39.628906 33.726562 39.679688 34.824219 38.953125 35.71875 C 38.558594 36.128906 38.15625 36.519531 37.6875 36.84375 C 37.546875 36.84375 37.410156 36.84375 37.265625 36.84375 C 37.265625 37.679688 37.265625 38.515625 37.265625 39.375 C 36.476562 39.375 35.6875 39.375 34.875 39.375 C 34.875 38.996094 34.875 38.613281 34.875 38.222656 C 34.863281 37.40625 34.863281 37.40625 34.503906 36.703125 C 34.21875 36.539062 34.21875 36.539062 33.910156 36.414062 C 33.269531 36.128906 32.882812 35.527344 32.570312 34.917969 C 32.347656 33.738281 32.363281 32.726562 32.96875 31.667969 C 34.136719 30.015625 36.164062 29.582031 37.925781 30.570312 Z M 37.925781 30.570312 "/>
<path style=" stroke:none;fill-rule:nonzero;fill:rgb(0%,0%,0%);fill-opacity:1;" d="M 42.285156 24.867188 C 42.589844 25.097656 42.882812 25.339844 43.171875 25.59375 C 43.3125 25.707031 43.457031 25.820312 43.601562 25.9375 C 43.882812 26.308594 43.929688 26.421875 43.953125 26.867188 C 43.875 27.421875 43.875 27.421875 43.648438 27.765625 C 43.234375 28.035156 42.964844 28.113281 42.46875 28.125 C 42.109375 27.964844 41.828125 27.753906 41.519531 27.511719 C 39.515625 25.953125 37.210938 25.351562 34.6875 25.648438 C 33.152344 25.921875 31.527344 26.554688 30.359375 27.625 C 29.914062 28.019531 29.699219 28.136719 29.109375 28.125 C 28.613281 27.898438 28.429688 27.738281 28.125 27.28125 C 28.035156 26.84375 28.050781 26.566406 28.277344 26.175781 C 31.496094 22.105469 38.292969 22.152344 42.285156 24.867188 Z M 42.285156 24.867188 "/>
<path style=" stroke:none;fill-rule:nonzero;fill:rgb(0%,0%,0%);fill-opacity:1;" d="M 58.640625 67.359375 C 58.695312 68.226562 58.636719 68.839844 58.21875 69.609375 C 57.859375 69.789062 57.597656 69.769531 57.191406 69.773438 C 56.957031 69.777344 56.957031 69.777344 56.71875 69.78125 C 56.550781 69.78125 56.382812 69.78125 56.207031 69.785156 C 56.035156 69.785156 55.859375 69.785156 55.683594 69.785156 C 55.316406 69.789062 54.949219 69.789062 54.582031 69.792969 C 54.207031 69.792969 53.832031 69.796875 53.453125 69.800781 C 52.914062 69.804688 52.371094 69.808594 51.832031 69.808594 C 51.660156 69.8125 51.492188 69.816406 51.320312 69.816406 C 51.164062 69.816406 51.007812 69.816406 50.84375 69.816406 C 50.707031 69.816406 50.570312 69.816406 50.425781 69.820312 C 49.945312 69.726562 49.78125 69.585938 49.5 69.1875 C 49.445312 68.761719 49.445312 68.761719 49.464844 68.308594 C 49.46875 68.15625 49.476562 68.003906 49.480469 67.847656 C 49.488281 67.734375 49.492188 67.617188 49.5 67.5 C 50.589844 67.480469 51.675781 67.464844 52.765625 67.445312 C 53.269531 67.4375 53.773438 67.429688 54.28125 67.417969 C 54.765625 67.410156 55.253906 67.402344 55.742188 67.394531 C 56.019531 67.390625 56.296875 67.386719 56.570312 67.378906 C 56.742188 67.378906 56.910156 67.375 57.082031 67.371094 C 57.230469 67.371094 57.378906 67.367188 57.53125 67.363281 C 57.902344 67.359375 58.269531 67.359375 58.640625 67.359375 Z M 58.640625 67.359375 "/>
<path style=" stroke:none;fill-rule:nonzero;fill:rgb(0%,0%,0%);fill-opacity:1;" d="M 13.5 67.359375 C 16.515625 67.40625 19.53125 67.453125 22.640625 67.5 C 22.640625 68.8125 22.640625 68.8125 22.21875 69.609375 C 21.859375 69.789062 21.597656 69.769531 21.191406 69.773438 C 20.957031 69.777344 20.957031 69.777344 20.71875 69.78125 C 20.550781 69.78125 20.382812 69.78125 20.207031 69.785156 C 20.035156 69.785156 19.859375 69.785156 19.683594 69.785156 C 19.316406 69.789062 18.949219 69.789062 18.582031 69.792969 C 18.207031 69.792969 17.832031 69.796875 17.453125 69.800781 C 16.914062 69.804688 16.371094 69.808594 15.832031 69.808594 C 15.660156 69.8125 15.492188 69.816406 15.320312 69.816406 C 15.164062 69.816406 15.007812 69.816406 14.84375 69.816406 C 14.707031 69.816406 14.570312 69.816406 14.425781 69.820312 C 14.0625 69.75 14.0625 69.75 13.5 69.1875 C 13.5 68.585938 13.5 67.980469 13.5 67.359375 Z M 13.5 67.359375 "/>
</g>
</svg>
